<svg width="162" height="61" viewBox="0 0 162 61" fill="none" xmlns="http://www.w3.org/2000/svg">
<path d="M23.3164 36.8282C23.3814 34.5866 23.902 32.6896 24.8792 31.1378C25.8561 29.586 27.0984 28.4345 28.6063 27.6833C30.1146 26.932 31.6857 26.5566 33.3208 26.5566C34.2946 26.5566 35.2329 26.686 36.136 26.9447C37.039 27.2035 37.8403 27.5826 38.5396 28.0823C39.2392 28.5821 39.7837 29.1806 40.1732 29.8781V27.098H44.5644V46.9512H40.1732V44.2412C39.4767 45.2174 38.4688 46.0213 37.1496 46.6516C35.8301 47.2819 34.5303 47.5975 33.2494 47.5975C31.3253 47.5975 29.6062 47.1286 28.0922 46.1911C26.5784 45.2537 25.4038 43.9613 24.5688 42.3131C23.7338 40.6655 23.3164 38.8371 23.3164 36.8282ZM34.2324 42.986C35.3478 42.9628 36.3468 42.6901 37.2293 42.1683C38.1115 41.6465 38.7992 40.9333 39.2919 40.0294C39.7846 39.1258 40.0313 38.1285 40.0313 37.038C40.0313 35.8424 39.758 34.8 39.2122 33.9109C38.6662 33.0215 37.9402 32.3425 37.0341 31.873C36.128 31.4035 35.144 31.169 34.0817 31.169C33.0309 31.169 32.0497 31.4108 31.1378 31.8951C30.2258 32.3791 29.4987 33.0705 28.9557 33.9684C28.4124 34.8662 28.1412 35.9159 28.1412 37.1172C28.1412 38.3419 28.439 39.4003 29.0353 40.2924C29.6317 41.1846 30.4017 41.8569 31.3461 42.3089C32.2906 42.7602 33.2528 42.986 34.2324 42.986Z" fill="#007AFF"/>
<path d="M49.6357 20.4775H54.4607V46.9513H49.6357V20.4775Z" fill="#007AFF"/>
<path d="M59.7891 20.4775H64.6141V46.9513H59.7891V20.4775Z" fill="#007AFF"/>
<path d="M69.9427 27.0986H74.4047V29.0639C75.9806 27.2996 77.8664 26.4175 80.062 26.4175C81.0888 26.4175 82.0657 26.6185 82.9927 27.0203C83.919 27.4221 84.7455 28.0104 85.4714 28.7846C86.1974 29.5591 86.7655 30.4981 87.1758 31.6012C87.5861 32.7047 87.7911 33.9348 87.7911 35.2915V46.952H82.966V36.5407C82.966 34.7413 82.575 33.3976 81.7927 32.5097C81.0107 31.6218 80.0589 31.1777 78.9374 31.1777C78.2292 31.1777 77.5535 31.3509 76.91 31.6974C76.2668 32.0438 75.7487 32.536 75.3561 33.1735C74.9636 33.8111 74.7675 34.5406 74.7675 35.3617V46.952H69.9424L69.9427 27.0986Z" fill="#1C1C1E"/>
<path d="M92.2863 36.8283C92.2863 35.7684 92.5045 34.639 92.9412 33.4394C93.3781 32.2398 94.0333 31.1101 94.9066 30.0505C95.7799 28.9909 96.8822 28.1317 98.2133 27.4739C99.5444 26.816 101.063 26.4868 102.769 26.4868C104.492 26.4868 106.157 26.9206 107.762 27.7883C109.367 28.6559 110.67 29.8845 111.671 31.4741C112.671 33.0636 113.171 34.8718 113.171 36.8982C113.171 37.5445 113.112 38.2843 112.995 39.1168H97.4034C97.5922 39.8811 97.9553 40.5537 98.4925 41.1345C99.0293 41.7152 99.6787 42.1614 100.44 42.4737C101.202 42.786 102.001 42.9565 102.84 42.9858C104.61 42.9099 106.048 42.3262 107.151 41.2348H112.481C112.009 42.445 111.321 43.5227 110.418 44.4684C109.515 45.414 108.44 46.1589 107.191 46.7027C105.943 47.2466 104.563 47.545 103.052 47.5976C101.583 47.5976 100.192 47.3297 98.878 46.794C97.5646 46.2583 96.4063 45.5159 95.403 44.5669C94.3998 43.6176 93.6221 42.5481 93.0702 41.357C92.5183 40.1664 92.2336 38.9539 92.2158 37.7192C92.2627 37.4804 92.2863 37.1835 92.2863 36.8283ZM102.84 31.0986C101.382 31.1279 100.184 31.5267 99.2451 32.2951C98.3065 33.0639 97.666 33.9434 97.3237 34.9331H108.391C108.178 34.3273 107.826 33.729 107.333 33.1383C106.84 32.5473 106.211 32.0596 105.447 31.6751C104.683 31.2909 103.814 31.0986 102.84 31.0986Z" fill="#1C1C1E"/>
<path d="M116.225 27.0981H121.298L125.069 39.1864L128.407 27.0981H132.214L135.552 39.1864L139.252 27.0981H144.325L137.039 46.9513H134.135L130.222 34.1118L126.486 46.9513H123.511L116.225 27.0981Z" fill="#1C1C1E"/>
<path d="M148.068 30.7491C148.557 29.3809 149.418 28.3285 150.648 27.5918C151.879 26.855 153.143 26.4868 154.442 26.4868C155.545 26.4868 156.606 26.7459 157.624 27.2644C158.642 27.7828 159.467 28.506 160.099 29.435C160.73 30.3637 161.058 31.4076 161.082 32.5663H156.479C156.107 31.6403 155.428 31.1775 154.442 31.1775C153.959 31.1775 153.527 31.3305 153.15 31.6361C152.772 31.9417 152.562 32.3363 152.521 32.8197C152.61 33.4832 153.106 33.9957 154.009 34.3566C154.121 34.4035 154.679 34.5649 155.682 34.8415C156.685 35.1181 157.575 35.4356 158.352 35.7938C159.128 36.1517 159.833 36.676 160.467 37.3658C161.102 38.056 161.475 38.9252 161.587 39.9733C161.587 41.295 161.32 42.5293 160.786 43.6766C160.252 44.8236 159.432 45.7526 158.325 46.4627C157.218 47.1731 155.877 47.5284 154.301 47.5284C153.628 47.5284 152.914 47.4555 152.159 47.3101C151.261 47.1411 150.442 46.7671 149.702 46.1876C148.961 45.6084 148.362 44.8499 147.904 43.9121C147.447 42.9746 147.174 41.912 147.085 40.7242H151.941C152.112 41.4347 152.432 41.9773 152.901 42.3531C153.37 42.7285 153.881 42.9368 154.435 42.9777C155.096 42.9426 155.649 42.7373 156.094 42.3618C156.539 41.9861 156.762 41.4897 156.762 40.8727C156.762 40.366 156.496 39.9542 155.966 39.6368C155.435 39.3197 154.589 38.9527 153.427 38.5361C152.265 38.1198 151.467 37.8012 151.031 37.5799C149.892 37.0324 149.064 36.3162 148.545 35.431C148.026 34.5462 147.746 33.6172 147.705 32.6449C147.776 31.9575 147.897 31.3256 148.068 30.7491Z" fill="#1C1C1E"/>
<path fill-rule="evenodd" clip-rule="evenodd" d="M25.2905 6.88867C-24.1249 51.1432 6.60736 79.1672 51.4232 47.0553C23.626 65.9284 -15.8077 62.6401 30.046 14.8352C30.046 14.8352 25.5611 7.15621 25.2905 6.88867Z" fill="#007AFF"/>
<path fill-rule="evenodd" clip-rule="evenodd" d="M69.824 27.13C91.7798 4.75796 62.8101 -14.3203 30.0527 14.8262L34.6626 22.2909C64.6971 -2.17738 84.9553 5.74955 69.824 27.13Z" fill="#1C1C1E"/>
</svg>
