<svg width="75" height="28" viewBox="0 0 75 28" fill="none" xmlns="http://www.w3.org/2000/svg">
<path d="M10.7194 16.9312C10.7492 15.9006 10.9886 15.0285 11.4378 14.3151C11.8869 13.6017 12.4581 13.0723 13.1513 12.727C13.8447 12.3816 14.567 12.209 15.3187 12.209C15.7664 12.209 16.1978 12.2685 16.613 12.3874C17.0281 12.5064 17.3965 12.6807 17.718 12.9104C18.0396 13.1402 18.2899 13.4153 18.469 13.736V12.4579H20.4878V21.5851H18.469V20.3392C18.1488 20.788 17.6854 21.1576 17.0789 21.4473C16.4723 21.7371 15.8748 21.8822 15.2859 21.8822C14.4013 21.8822 13.611 21.6666 12.915 21.2356C12.219 20.8047 11.679 20.2105 11.2951 19.4528C10.9113 18.6953 10.7194 17.8547 10.7194 16.9312ZM15.7378 19.7621C16.2506 19.7515 16.7099 19.6261 17.1156 19.3862C17.5212 19.1463 17.8373 18.8184 18.0638 18.4029C18.2903 17.9875 18.4038 17.529 18.4038 17.0276C18.4038 16.478 18.2781 15.9988 18.0272 15.59C17.7762 15.1811 17.4424 14.869 17.0259 14.6531C16.6093 14.4373 16.1569 14.3295 15.6685 14.3295C15.1854 14.3295 14.7344 14.4406 14.3151 14.6633C13.8958 14.8858 13.5616 15.2036 13.3119 15.6164C13.0622 16.0292 12.9375 16.5118 12.9375 17.064C12.9375 17.6271 13.0744 18.1137 13.3485 18.5238C13.6227 18.934 13.9767 19.243 14.4109 19.4508C14.8451 19.6583 15.2875 19.7621 15.7378 19.7621Z" fill="#FFFFFF"/>
<path d="M22.8192 9.41422H25.0374V21.5851H22.8192V9.41422Z" fill="#FFFFFF"/>
<path d="M27.4868 9.41422H29.7051V21.5851H27.4868V9.41422Z" fill="#FFFFFF"/>
<path d="M32.1551 12.4581H34.2065V13.3617C34.931 12.5506 35.7979 12.145 36.8073 12.145C37.2794 12.145 37.7285 12.2374 38.1547 12.4221C38.5805 12.6069 38.9605 12.8773 39.2942 13.2333C39.628 13.5893 39.8891 14.021 40.0778 14.5281C40.2664 15.0355 40.3606 15.601 40.3606 16.2247V21.5854H38.1424V16.799C38.1424 15.9718 37.9626 15.354 37.603 14.9458C37.2435 14.5376 36.8059 14.3334 36.2903 14.3334C35.9647 14.3334 35.6541 14.4131 35.3582 14.5724C35.0625 14.7316 34.8243 14.9579 34.6439 15.251C34.4634 15.5441 34.3733 15.8795 34.3733 16.257V21.5854H32.155L32.1551 12.4581Z" fill="#FFFFFF"/>
<path d="M42.4272 16.9312C42.4272 16.4439 42.5275 15.9247 42.7283 15.3732C42.9292 14.8217 43.2304 14.3024 43.6319 13.8152C44.0333 13.3281 44.5401 12.9331 45.1521 12.6307C45.764 12.3282 46.462 12.1769 47.2463 12.1769C48.0384 12.1769 48.8039 12.3763 49.5418 12.7752C50.2797 13.1741 50.8787 13.7389 51.3389 14.4697C51.7986 15.2005 52.0285 16.0317 52.0285 16.9634C52.0285 17.2605 52.0014 17.6006 51.9476 17.9833H44.7797C44.8665 18.3347 45.0334 18.6439 45.2804 18.9109C45.5272 19.1779 45.8258 19.383 46.1756 19.5266C46.5259 19.6702 46.8933 19.7486 47.279 19.762C48.0927 19.7271 48.7538 19.4588 49.2609 18.957H51.7113C51.4943 19.5134 51.178 20.0089 50.7628 20.4436C50.3477 20.8784 49.8535 21.2208 49.2793 21.4708C48.7055 21.7209 48.0711 21.858 47.3764 21.8822C46.7011 21.8822 46.0616 21.7591 45.4576 21.5128C44.8538 21.2665 44.3213 20.9252 43.8601 20.4889C43.3989 20.0525 43.0413 19.5608 42.7876 19.0132C42.5339 18.4659 42.403 17.9084 42.3948 17.3408C42.4164 17.231 42.4272 17.0945 42.4272 16.9312ZM47.279 14.2971C46.6087 14.3105 46.0579 14.4939 45.6264 14.8472C45.1949 15.2006 44.9004 15.6049 44.7431 16.0599H49.831C49.733 15.7814 49.5712 15.5064 49.3446 15.2348C49.1179 14.9631 48.8287 14.7389 48.4775 14.5621C48.1263 14.3855 47.7267 14.2971 47.279 14.2971Z" fill="#FFFFFF"/>
<path d="M53.4325 12.4579H55.7647L57.4984 18.0153L59.0329 12.4579H60.7832L62.3177 18.0153L64.0188 12.4579H66.351L63.0014 21.5851H61.6663L59.8674 15.6824L58.1498 21.5851H56.7821L53.4325 12.4579Z" fill="#FFFFFF"/>
<path d="M68.0718 14.1364C68.2966 13.5074 68.6925 13.0236 69.2579 12.6849C69.8239 12.3462 70.405 12.1769 71.0022 12.1769C71.5092 12.1769 71.997 12.296 72.465 12.5344C72.933 12.7727 73.3123 13.1052 73.6029 13.5323C73.893 13.9592 74.0438 14.4391 74.0548 14.9718H71.9386C71.7676 14.5461 71.4555 14.3334 71.0022 14.3334C70.7801 14.3334 70.5815 14.4037 70.4082 14.5442C70.2344 14.6847 70.1379 14.8661 70.119 15.0883C70.1599 15.3934 70.388 15.629 70.8031 15.7949C70.8546 15.8165 71.1111 15.8907 71.5722 16.0178C72.0333 16.145 72.4425 16.2909 72.7997 16.4556C73.1565 16.6202 73.4806 16.8612 73.7721 17.1783C74.064 17.4956 74.2355 17.8952 74.287 18.3771C74.287 18.9847 74.1642 19.5522 73.9187 20.0796C73.6732 20.6069 73.2962 21.034 72.7873 21.3605C72.2784 21.6871 71.6619 21.8504 70.9373 21.8504C70.6279 21.8504 70.2997 21.8169 69.9526 21.7501C69.5398 21.6724 69.1632 21.5004 68.823 21.234C68.4824 20.9677 68.207 20.619 67.9964 20.1879C67.7863 19.7569 67.6608 19.2684 67.6199 18.7223H69.8524C69.931 19.0489 70.0781 19.2984 70.2937 19.4712C70.5093 19.6437 70.7443 19.7395 70.999 19.7583C71.3028 19.7422 71.5571 19.6478 71.7616 19.4752C71.9662 19.3024 72.0687 19.0742 72.0687 18.7906C72.0687 18.5576 71.9465 18.3683 71.7028 18.2224C71.4587 18.0766 71.0697 17.9079 70.5355 17.7164C70.0013 17.525 69.6345 17.3785 69.434 17.2768C68.9104 17.025 68.5297 16.6958 68.2911 16.2888C68.0525 15.8821 67.9238 15.455 67.9049 15.008C67.9376 14.6919 67.9932 14.4014 68.0718 14.1364Z" fill="#FFFFFF"/>
<path fill-rule="evenodd" clip-rule="evenodd" d="M11.6269 3.16696C-11.091 23.5123 3.03763 36.3959 23.641 21.6329C10.8617 30.3095 -7.26734 28.7978 13.8132 6.82027C13.8132 6.82027 11.7513 3.28996 11.6269 3.16696Z" fill="#FFFFFF"/>
<path fill-rule="evenodd" clip-rule="evenodd" d="M32.1007 12.4726C42.1945 2.1874 28.8761 -6.58354 13.8164 6.81609L15.9358 10.2479C29.7436 -1.00101 39.057 2.64326 32.1007 12.4726Z" fill="#FFFFFF"/>
</svg>
