<svg width="295" height="201" viewBox="0 0 295 201" fill="none" xmlns="http://www.w3.org/2000/svg">
<path d="M295 174.336H0V174.484H295V174.336Z" fill="#EBEBEB"/>
<path d="M265.441 183.836H245.9V183.984H265.441V183.836Z" fill="#EBEBEB"/>
<path d="M195.42 185.442H172.28V185.59H195.42V185.442Z" fill="#EBEBEB"/>
<path d="M245.31 178.356H211.668V178.504H245.31V178.356Z" fill="#EBEBEB"/>
<path d="M143.435 179.349H102.943V179.496H143.435V179.349Z" fill="#EBEBEB"/>
<path d="M152.421 179.349H148.686V179.496H152.421V179.349Z" fill="#EBEBEB"/>
<path d="M132.833 181.84H58.0146V181.988H132.833V181.84Z" fill="#EBEBEB"/>
<path d="M46.2205 174.336H66.8882L66.8882 104.854H46.2205L46.2205 174.336Z" fill="#F5F5F5"/>
<path d="M46.2148 174.336H49.625L49.625 104.854H46.2148L46.2148 174.336Z" fill="#F0F0F0"/>
<path d="M142.184 107.151H63.7021V124.533H142.184V107.151Z" fill="#E6E6E6"/>
<path d="M142.184 129.735H63.7021V133.75H142.184V129.735Z" fill="#E6E6E6"/>
<path d="M137.594 104.854H46.2148V110.888H137.594V104.854Z" fill="#F0F0F0"/>
<path d="M137.594 174.336H158.262V104.854H137.594V174.336Z" fill="#F5F5F5"/>
<path d="M137.594 174.336H141.004V104.854H137.594V174.336Z" fill="#F0F0F0"/>
<path d="M203.113 174.336V66.9722H167.637V174.336H203.113Z" fill="#F0F0F0"/>
<path d="M201.167 101.264V69.6587H169.584V101.264H201.167Z" fill="#E6E6E6"/>
<path d="M201.167 135.704V104.098H169.584V135.704H201.167Z" fill="#E6E6E6"/>
<path d="M201.167 170.15V138.544H169.584V170.15H201.167Z" fill="#E6E6E6"/>
<path d="M182.009 101.27V69.6646H169.59V101.27H182.009Z" fill="#E0E0E0"/>
<path d="M182.003 135.71V104.104H169.584V135.71H182.003Z" fill="#E0E0E0"/>
<path d="M182.009 170.156V138.55H169.59V170.156H182.009Z" fill="#E0E0E0"/>
<path d="M212.748 174.33V66.9663H203.113V174.33H212.748Z" fill="#F5F5F5"/>
<path d="M241.044 174.33V66.9663H205.568V174.33H241.044Z" fill="#F0F0F0"/>
<path d="M239.092 101.27V69.6646H207.509V101.27H239.092Z" fill="#E6E6E6"/>
<path d="M239.098 135.71V104.104H207.515V135.71H239.098Z" fill="#E6E6E6"/>
<path d="M239.098 170.15V138.544H207.515V170.15H239.098Z" fill="#E6E6E6"/>
<path d="M219.94 101.264V69.6587H207.521V101.264H219.94Z" fill="#E0E0E0"/>
<path d="M219.934 135.71V104.104H207.515V135.71H219.934Z" fill="#E0E0E0"/>
<path d="M219.934 170.15V138.544H207.515V170.15H219.934Z" fill="#E0E0E0"/>
<path d="M250.679 174.33V66.9663H241.044V174.33H250.679Z" fill="#F5F5F5"/>
<path d="M229.069 98.8733C232.253 95.6867 232.253 90.5203 229.069 87.3337C225.885 84.1471 220.722 84.1471 217.538 87.3337C214.353 90.5203 214.353 95.6867 217.538 98.8733C220.722 102.06 225.885 102.06 229.069 98.8733Z" fill="#F5F5F5"/>
<path d="M195.485 127.55C195.428 129.677 194.543 131.698 193.02 133.182C191.496 134.666 189.454 135.496 187.328 135.496C185.202 135.496 183.16 134.666 181.636 133.182C180.113 131.698 179.229 129.677 179.171 127.55H195.485Z" fill="#F0F0F0"/>
<path d="M195.485 121.445C195.514 122.536 195.325 123.621 194.928 124.637C194.531 125.653 193.935 126.579 193.175 127.361C192.415 128.142 191.506 128.764 190.501 129.188C189.497 129.612 188.418 129.831 187.328 129.831C186.238 129.831 185.159 129.612 184.155 129.188C183.151 128.764 182.242 128.142 181.481 127.361C180.721 126.579 180.125 125.653 179.728 124.637C179.331 123.621 179.142 122.536 179.171 121.445H195.485Z" fill="#F0F0F0"/>
<path d="M209.656 170.149H235.298V143.102H209.656V170.149Z" fill="#F0F0F0"/>
<path d="M239.092 143.102H235.298V170.15H239.092V143.102Z" fill="#E0E0E0"/>
<path d="M216.329 66.9722H226.524V27.437H216.329V66.9722Z" fill="#E6E6E6"/>
<path d="M188.688 66.9663H222.524L227.634 20.6943H193.797L188.688 66.9663Z" fill="#F0F0F0"/>
<path d="M185.024 66.9663H219.97L225.085 20.6943H190.133L185.024 66.9663Z" fill="#F5F5F5"/>
<path d="M209.899 66.9663H216.684L208.866 20.6943H202.087L209.899 66.9663Z" fill="#FAFAFA"/>
<path d="M203.857 66.9663H206.488L198.67 20.6943H196.039L203.857 66.9663Z" fill="#FAFAFA"/>
<path d="M121.504 89.0777V0.117676L41.8544 0.117676V89.0777H121.504Z" fill="#EBEBEB"/>
<path d="M122.225 89.0777V0.117676L121.505 0.117676V89.0777H122.225Z" fill="#E0E0E0"/>
<path d="M47.7545 83.1733L115.604 83.1733L115.604 6.0219L47.7545 6.0219L47.7545 83.1733Z" fill="#F5F5F5"/>
<path d="M87.031 87.3003H106.141V60.5361H87.031V87.3003Z" fill="white"/>
<path d="M59.0059 77.8833H78.1101L79.4848 51.1191H60.3806L59.0059 77.8833Z" fill="white"/>
<path d="M97.6982 30.2534H116.802L118.177 3.48926H99.0729L97.6982 30.2534Z" fill="white"/>
<path d="M72.5958 45.5778L91.6816 46.415L92.8529 19.6765L73.767 18.8393L72.5958 45.5778Z" fill="white"/>
<path d="M45.2393 38.1437L64.3354 37.5898L63.5607 10.8369L44.4645 11.3907L45.2393 38.1437Z" fill="white"/>
<path d="M147.5 201C210.679 201 261.895 198.008 261.895 194.316C261.895 190.625 210.679 187.633 147.5 187.633C84.3214 187.633 33.105 190.625 33.105 194.316C33.105 198.008 84.3214 201 147.5 201Z" fill="#F5F5F5"/>
<path d="M91.4028 189.658H95.9635L97.7866 179.095H93.2259L91.4028 189.658Z" fill="#FFC3BD"/>
<path d="M64.5991 189.658H69.1598L73.3252 179.095H68.7645L64.5991 189.658Z" fill="#FFC3BD"/>
<path d="M69.7969 189.132H64.2391C64.1482 189.134 64.0602 189.164 63.988 189.22C63.9158 189.275 63.8632 189.352 63.8379 189.439L62.6992 193.496C62.6708 193.589 62.6644 193.687 62.6806 193.783C62.6967 193.878 62.7349 193.969 62.7921 194.048C62.8494 194.126 62.9241 194.19 63.0104 194.235C63.0967 194.279 63.1921 194.303 63.2892 194.304C65.0592 194.275 66.3926 194.169 68.6405 194.169C70.027 194.169 72.8708 194.316 74.7883 194.316C76.7058 194.316 77.0598 192.421 76.2869 192.25C72.8177 191.482 71.5669 190.419 70.4931 189.41C70.3031 189.235 70.0552 189.136 69.7969 189.132Z" fill="#263238"/>
<path d="M95.9576 189.132H90.9839C90.8922 189.133 90.8033 189.164 90.7301 189.219C90.6569 189.274 90.6032 189.351 90.5768 189.439L89.444 193.496C89.4143 193.589 89.4069 193.687 89.4225 193.784C89.4381 193.88 89.4762 193.971 89.5337 194.05C89.5912 194.129 89.6665 194.193 89.7534 194.237C89.8403 194.281 89.9365 194.304 90.034 194.304C91.804 194.275 94.4295 194.169 96.6833 194.169C99.3265 194.169 101.592 194.316 104.69 194.316C106.56 194.316 107.185 192.421 106.412 192.25C102.872 191.47 99.9873 191.388 97.0196 189.487C96.7062 189.27 96.338 189.147 95.9576 189.132Z" fill="#263238"/>
<path d="M95.7216 59.019C98.1288 60.5305 100.66 62.0538 103.156 63.5004C105.651 64.947 108.188 66.3522 110.725 67.5685C111.357 67.8814 111.988 68.1589 112.619 68.4423C112.932 68.584 113.245 68.6962 113.557 68.8261L114.029 69.0209L114.413 69.1626C115.223 69.5162 116.118 69.6289 116.991 69.4874C117.944 69.247 118.8 68.7169 119.44 67.97C119.857 67.521 120.238 67.0393 120.578 66.5293C120.755 66.2636 120.926 65.9861 121.086 65.7027L121.54 64.8702L124.879 65.6378C124.831 66.0822 124.758 66.5237 124.661 66.9603C124.567 67.3736 124.46 67.7869 124.331 68.2002C124.074 69.0473 123.723 69.8631 123.286 70.6328C122.805 71.473 122.21 72.2421 121.516 72.9178C120.762 73.6624 119.878 74.2627 118.909 74.6891C117.91 75.1221 116.84 75.3664 115.752 75.4094C114.734 75.4558 113.714 75.3543 112.725 75.1083C112.501 75.0551 112.23 74.9961 112.041 74.9311L111.451 74.7481C111.067 74.6241 110.672 74.506 110.3 74.3702C109.557 74.0927 108.79 73.8329 108.076 73.5259C105.229 72.3459 102.449 71.0074 99.7513 69.5169C98.412 68.7847 97.0904 68.0349 95.7924 67.2437C94.4944 66.4526 93.2141 65.6732 91.9102 64.7934L95.7216 59.019Z" fill="#FFC3BD"/>
<path d="M88.8596 63.2288C89.7623 67.5862 100.719 73.8565 100.719 73.8565L104.713 63.3528C104.713 63.3528 101.592 61.3985 96.9308 58.281C92.2698 55.1635 87.8625 58.4463 88.8596 63.2288Z" fill="#263238"/>
<path d="M120.271 66.553L123.44 61.5757L125.8 66.9958C125.8 66.9958 123.924 69.8417 121.027 68.3774L120.271 66.553Z" fill="#FFC3BD"/>
<path d="M127.481 59.6924L129.033 63.7545L125.806 66.9901L123.44 61.5759L127.481 59.6924Z" fill="#FFC3BD"/>
<path opacity="0.2" d="M97.7864 179.101L96.8424 184.544H92.2876L93.2257 179.101H97.7864Z" fill="#040601"/>
<path opacity="0.2" d="M68.7643 179.101H73.325L71.1715 184.544H66.6167L68.7643 179.101Z" fill="#040601"/>
<path d="M94.1463 57.1947C94.1463 57.1947 100.477 70.255 97.2674 96.541L73.0774 99.7175C72.6408 95.9978 73.6674 77.4406 68.7881 60.2886C71.414 59.4215 74.092 58.7214 76.8062 58.1926C80.2013 57.5455 83.631 57.096 87.0781 56.8464C89.4397 56.7742 91.8032 56.8907 94.1463 57.1947Z" fill="#263238"/>
<path opacity="0.2" d="M68.8115 60.3006L68.9177 60.2652C71.2777 59.6039 73.9976 62.0955 75.449 65.7325C77.5671 71.0464 80.0628 78.0548 80.0628 78.0548L72.2453 79.9265C71.7083 73.2925 70.5588 66.7225 68.8115 60.3006Z" fill="#040601"/>
<path d="M77.0007 46.4077C77.8916 49.6551 78.9772 55.6775 76.8296 58.2163C79.6126 60.5389 83.0247 61.978 86.6295 62.3493C88.8892 59.9463 87.1015 56.876 87.1015 56.876C83.3491 56.4686 83.2488 53.6995 83.7031 51.0249L77.0007 46.4077Z" fill="#FFC3BD"/>
<path d="M95.8277 86.964L90.4056 56.8521C89.408 57.0314 88.4555 57.4057 87.6024 57.9536C86.7494 58.5014 86.0125 59.212 85.434 60.0449C84.8554 60.8777 84.4465 61.8164 84.2305 62.8075C84.0145 63.7985 83.9957 64.8224 84.1752 65.8207L86.8597 80.7467C87.2272 82.7602 88.3778 84.5455 90.059 85.7111C91.7403 86.8766 93.8149 87.3272 95.8277 86.964Z" fill="#007AFF"/>
<path opacity="0.3" d="M95.8277 86.964L90.4056 56.8521C89.408 57.0314 88.4555 57.4057 87.6024 57.9536C86.7494 58.5014 86.0125 59.212 85.434 60.0449C84.8554 60.8777 84.4465 61.8164 84.2305 62.8075C84.0145 63.7985 83.9957 64.8224 84.1752 65.8207L86.8597 80.7467C87.2272 82.7602 88.3778 84.5455 90.059 85.7111C91.7403 86.8766 93.8149 87.3272 95.8277 86.964Z" fill="#040601"/>
<path d="M116.601 116.769L112.802 117.454C112.149 117.571 111.478 117.548 110.834 117.386C110.19 117.224 109.589 116.927 109.068 116.514C108.548 116.101 108.122 115.583 107.818 114.992C107.513 114.402 107.338 113.754 107.303 113.091L105.74 82.9786C105.679 81.8408 106.036 80.72 106.743 79.8272C107.45 78.9344 108.46 78.3312 109.58 78.1312L116.607 76.8618C117.362 76.7271 118.138 76.78 118.867 77.0159C119.597 77.2517 120.257 77.6632 120.79 78.2142C121.323 78.7653 121.713 79.4389 121.925 80.176C122.137 80.9131 122.165 81.691 122.006 82.4413L119.18 95.6788C119.084 96.1347 119.056 96.6022 119.097 97.0663L120.407 111.75C120.512 112.911 120.179 114.069 119.476 114.997C118.772 115.925 117.747 116.557 116.601 116.769Z" fill="#007AFF"/>
<path opacity="0.2" d="M116.607 76.8501L109.58 78.1136C108.461 78.316 107.453 78.9198 106.746 79.8121C106.039 80.7043 105.681 81.8238 105.74 82.961L106.253 92.957C110.886 92.1698 115.532 91.5144 120.189 90.9909L122.006 82.4178C122.164 81.6681 122.135 80.891 121.923 80.1548C121.71 79.4187 121.32 78.7461 120.787 78.1962C120.254 77.6463 119.594 77.2359 118.865 77.0012C118.136 76.7665 117.361 76.7146 116.607 76.8501Z" fill="#040601"/>
<path d="M122.413 104.931L116.023 106.082L116.077 94.9941L122.466 93.8428L122.413 104.931Z" fill="#007AFF"/>
<path d="M123.381 99.2154C123.381 102.28 122.933 104.842 122.413 104.931C121.894 105.019 121.481 102.622 121.493 99.5579C121.505 96.4935 121.941 93.937 122.466 93.8425C122.992 93.7481 123.399 96.1629 123.381 99.2154Z" fill="#007AFF"/>
<path opacity="0.2" d="M123.381 99.2154C123.381 102.28 122.933 104.842 122.413 104.931C121.894 105.019 121.481 102.622 121.493 99.5579C121.505 96.4935 121.941 93.937 122.466 93.8425C122.992 93.7481 123.399 96.1629 123.381 99.2154Z" fill="#040601"/>
<path d="M96.288 49.3479C94.1881 49.7316 92.3259 50.9327 91.1094 52.6879C89.8929 54.4432 89.4213 56.6095 89.798 58.7121L94.6006 85.4172C94.9826 87.5194 96.1825 89.3839 97.9368 90.6016C99.6912 91.8193 101.857 92.2905 103.958 91.912C119.64 89.0908 135.564 87.8427 151.494 88.1863L167.879 88.5465L157.388 30.1943L142.155 36.2462C127.34 42.1328 111.975 46.5218 96.288 49.3479Z" fill="#007AFF"/>
<path opacity="0.3" d="M138.355 37.7103L147.417 88.1389C148.214 88.1389 149.016 88.1389 149.813 88.1389L140.585 36.8306C139.83 37.1612 139.098 37.4446 138.355 37.7103Z" fill="#040601"/>
<path d="M165.094 58.9658C167.99 75.0786 169.224 88.3396 167.867 88.5876C166.51 88.8356 163.046 75.9701 160.149 59.8573C157.252 43.7445 156.019 30.4834 157.376 30.2355C158.733 29.9875 162.197 42.8234 165.094 58.9658Z" fill="#007AFF"/>
<path opacity="0.2" d="M165.094 58.9658C167.99 75.0786 169.224 88.3396 167.867 88.5876C166.51 88.8356 163.046 75.9701 160.149 59.8573C157.252 43.7445 156.019 30.4834 157.376 30.2355C158.733 29.9875 162.197 42.8234 165.094 58.9658Z" fill="#040601"/>
<path opacity="0.2" d="M79.7323 48.2852L83.6971 51.007C83.5819 51.6264 83.5207 52.2546 83.5142 52.8846C82.0923 52.8846 80.045 51.562 79.7854 50.0978C79.6587 49.5017 79.6407 48.8876 79.7323 48.2852Z" fill="#040601"/>
<path d="M83.0777 33.1522C85.4731 33.3707 89.0839 39.8123 86.6826 42.0795C84.2813 44.3468 78.5406 32.733 83.0777 33.1522Z" fill="#263238"/>
<path d="M74.6704 42.3393C76.0687 46.5904 76.6646 49.1587 79.4376 50.6821C83.603 52.9729 88.4528 49.2768 88.3643 44.6183C88.2876 40.4263 86.0043 34.1795 81.3197 33.8135C80.2578 33.7486 79.196 33.9433 78.2261 34.3809C77.2562 34.8185 76.4073 35.4857 75.7528 36.325C75.0982 37.1643 74.6576 38.1505 74.469 39.1983C74.2804 40.2462 74.3496 41.3242 74.6704 42.3393Z" fill="#FFC3BD"/>
<path d="M86.1399 32.4616C84.9757 32.224 83.7868 32.1308 82.5999 32.1841C83.2897 31.5477 83.916 30.8457 84.4702 30.0881C83.3607 30.8486 82.1296 31.4137 80.8299 31.759C81.0471 31.2152 81.1823 30.6421 81.2311 30.0586C80.3284 31.1449 78.7944 31.883 77.1365 32.5029C77.8433 31.6217 78.3886 30.6223 78.7472 29.5508C77.7147 31.4579 73.8384 33.0934 71.3958 34.717H71.3604C71.1888 34.8187 71.0251 34.9332 70.8707 35.0595C70.671 35.2 70.499 35.3761 70.3633 35.5791C70.1322 35.8347 69.9583 36.1366 69.853 36.4648C69.7477 36.7929 69.7134 37.1397 69.7525 37.4821C69.7915 37.8246 69.9031 38.1547 70.0796 38.4507C70.2561 38.7466 70.4936 39.0015 70.7763 39.1984C70.3295 39.5154 70.0099 39.9811 69.8748 40.5122C69.7397 41.0433 69.7978 41.6052 70.0388 42.0974C70.0034 41.2708 70.1981 40.3675 70.794 40.0014C69.791 42.9063 73.154 45.6459 76.1512 46.4194C77.9212 46.8681 79.0068 40.09 77.3312 37.4094C79.6027 37.1201 81.5438 36.5533 82.7061 35.7503C81.831 36.0344 80.9024 36.1132 79.9921 35.9806C82.1751 35.1185 84.5233 33.9023 86.3759 34.2093C85.4837 33.8843 84.5404 33.7223 83.5911 33.731C84.2189 33.4735 84.8891 33.3353 85.5676 33.3236C87.5559 33.4063 88.8657 35.0949 88.3583 36.2285C89.1194 35.0064 88.8421 33.0343 86.1399 32.4616Z" fill="#263238"/>
<path d="M73.9505 47.748C74.3651 48.1138 74.8501 48.391 75.3756 48.5625C75.9012 48.7341 76.4562 48.7965 77.0067 48.7458C78.4994 48.6041 78.7767 47.1162 77.9979 45.9708C77.2781 44.9434 75.6379 43.7744 74.3163 44.4888C74.0317 44.6408 73.7883 44.8598 73.6072 45.1269C73.4261 45.3941 73.3126 45.7013 73.2766 46.0221C73.2406 46.3429 73.2831 46.6676 73.4005 46.9683C73.5179 47.269 73.7067 47.5366 73.9505 47.748Z" fill="#FFC3BD"/>
<path d="M97.2676 96.5527C97.2676 96.5527 109.658 130.638 108.342 144.543C106.991 159.014 98.6187 183.511 98.6187 183.511H90.8956C90.8956 183.511 95.4268 159.894 95.9106 145.671C96.4357 130.184 82.2521 110.599 81.3848 98.6665L97.2676 96.5527Z" fill="#007AFF"/>
<path opacity="0.2" d="M84.6297 108.302C84.3521 108.124 84.05 107.987 83.7329 107.895C86.4469 115.21 90.8424 123.742 93.5446 132.067C93.8396 118.304 90.8601 112.176 84.6297 108.302Z" fill="#040601"/>
<path d="M88.6947 97.6807C88.6947 97.6807 92.2347 131.394 88.6416 144.449C84.7063 158.749 73.3783 183.488 73.3783 183.488H65.0298C65.0298 183.488 72.2986 159.93 74.8946 145.759C77.7148 130.408 73.9329 111.154 73.1246 99.7413L88.6947 97.6807Z" fill="#007AFF"/>
<path d="M74.8474 183.671H64.2451L64.959 180.542H76.3106L74.8474 183.671Z" fill="#007AFF"/>
<path opacity="0.4" d="M74.8474 183.671H64.2451L64.959 180.542H76.3106L74.8474 183.671Z" fill="#040601"/>
<path d="M100.33 183.671H89.8394L90.0105 180.695L100.914 180.542L100.33 183.671Z" fill="#007AFF"/>
<path opacity="0.4" d="M100.33 183.671H89.8394L90.0105 180.695L100.914 180.542L100.33 183.671Z" fill="#040601"/>
<path d="M81.5793 41.4479C81.6678 41.7963 81.9333 42.0383 82.1693 41.9498C82.4053 41.8612 82.5115 41.5306 82.423 41.1763C82.3345 40.822 82.069 40.5859 81.833 40.6744C81.597 40.763 81.4849 41.0936 81.5793 41.4479Z" fill="#263238"/>
<path d="M85.5502 40.1667C85.6446 40.5209 85.9042 40.7571 86.1402 40.6744C86.3762 40.5918 86.4883 40.2493 86.3939 39.901C86.2995 39.5526 86.0399 39.3106 85.8039 39.3932C85.5679 39.4759 85.4853 39.8124 85.5502 40.1667Z" fill="#263238"/>
<path d="M84.3701 40.7515C85.07 41.6917 85.9027 42.525 86.8422 43.2254C86.65 43.4744 86.4069 43.6796 86.1291 43.8272C85.8514 43.9749 85.5454 44.0615 85.2315 44.0815L84.3701 40.7515Z" fill="#ED847E"/>
<path d="M84.441 45.3861C83.9825 45.5534 83.4898 45.6043 83.0069 45.5342C82.5239 45.4642 82.0659 45.2753 81.6739 44.9846C81.6635 44.9747 81.6553 44.9628 81.6496 44.9496C81.644 44.9364 81.6411 44.9222 81.6411 44.9078C81.6411 44.8935 81.644 44.8793 81.6496 44.8661C81.6553 44.8529 81.6635 44.841 81.6739 44.8311C81.6937 44.812 81.7201 44.8013 81.7476 44.8013C81.7751 44.8013 81.8016 44.812 81.8214 44.8311C82.189 45.0948 82.6152 45.2654 83.0632 45.3281C83.5113 45.3909 83.9678 45.3439 84.3938 45.1912C84.4069 45.1867 84.4209 45.185 84.4347 45.1862C84.4486 45.1874 84.462 45.1914 84.4742 45.1981C84.4864 45.2048 84.4971 45.2139 84.5056 45.2249C84.5141 45.2359 84.5202 45.2486 84.5236 45.2621C84.5261 45.2891 84.5193 45.3162 84.5043 45.3388C84.4892 45.3614 84.4669 45.3781 84.441 45.3861Z" fill="#263238"/>
<path d="M80.0393 40.5446C79.9949 40.5564 79.9481 40.5564 79.9036 40.5446C79.8771 40.5349 79.8529 40.5199 79.8324 40.5004C79.8119 40.4809 79.7956 40.4575 79.7846 40.4315C79.7735 40.4054 79.7679 40.3774 79.7681 40.3492C79.7683 40.3209 79.7742 40.293 79.7856 40.2671C79.9078 39.9373 80.1037 39.6397 80.3583 39.3972C80.6129 39.1547 80.9195 38.9736 81.2547 38.8678C81.2819 38.8608 81.3102 38.8595 81.3379 38.8638C81.3656 38.8681 81.3921 38.8781 81.4158 38.893C81.4395 38.9079 81.46 38.9275 81.4759 38.9506C81.4918 38.9736 81.5029 38.9997 81.5084 39.0272C81.5165 39.0847 81.5036 39.1431 81.4722 39.1919C81.4408 39.2406 81.3929 39.2765 81.3373 39.2929C81.0685 39.3763 80.8223 39.5202 80.6178 39.7136C80.4132 39.9071 80.2557 40.1449 80.1573 40.4088C80.1364 40.4673 80.0943 40.5157 80.0393 40.5446Z" fill="#263238"/>
<path d="M86.9721 38.2359C86.9343 38.2483 86.8939 38.2499 86.8553 38.2406C86.8167 38.2312 86.7815 38.2111 86.7538 38.1827C86.5854 37.9743 86.3677 37.8111 86.1205 37.708C85.8733 37.6049 85.6042 37.5651 85.3378 37.5923C85.3109 37.5983 85.283 37.5985 85.256 37.5929C85.229 37.5873 85.2035 37.576 85.1812 37.5599C85.1589 37.5437 85.1403 37.5229 85.1266 37.499C85.1129 37.4751 85.1044 37.4485 85.1018 37.4211C85.096 37.3637 85.1115 37.3062 85.1451 37.2595C85.1788 37.2127 85.2285 37.1799 85.2847 37.1672C85.6139 37.1254 85.9483 37.1667 86.2574 37.2874C86.5666 37.408 86.8407 37.6042 87.0547 37.858C87.0936 37.8996 87.1154 37.9545 87.1154 38.0115C87.1154 38.0685 87.0936 38.1234 87.0547 38.165C87.0356 38.197 87.0066 38.2219 86.9721 38.2359Z" fill="#263238"/>
<path d="M73.6671 63.9849C74.1745 65.9628 74.7055 68.0411 75.2778 70.0545C75.8501 72.0678 76.4224 74.093 77.0478 76.0769C77.6732 78.0607 78.3694 80.0209 79.1069 81.9221C79.7973 83.7566 80.6318 85.5334 81.6026 87.236C81.7206 87.419 81.8327 87.6316 81.9507 87.7969L82.1336 88.0626L82.2221 88.1925C82.3908 88.3968 82.5898 88.574 82.8121 88.718C83.5623 89.2383 84.3513 89.7001 85.1721 90.0996C86.9421 90.9793 88.8714 91.7882 90.8184 92.5499C94.7242 94.0732 98.7716 95.502 102.784 96.8718L102.005 100.208C97.6769 99.5808 93.3899 98.6975 89.1664 97.5626C86.9963 96.9843 84.861 96.2825 82.7708 95.4607C81.6185 95.0106 80.5054 94.4655 79.4432 93.8311C78.7477 93.4138 78.1125 92.9032 77.5552 92.3137L77.2897 92.0303L77.1422 91.8413L76.8413 91.4517C76.6348 91.1919 76.4755 90.938 76.2926 90.6782C75.0015 88.723 73.8916 86.6538 72.9768 84.4964C72.0564 82.4358 71.2776 80.3634 70.5519 78.2555C69.1038 74.0931 67.8884 69.8532 66.9116 65.5554L73.6671 63.9849Z" fill="#FFC3BD"/>
<path d="M66.1092 62.8097C63.8672 68.0409 67.5134 79.9735 67.5134 79.9735L78.4284 77.169C77.754 72.9586 76.782 68.8013 75.5197 64.7286C73.6317 59.1372 67.8497 58.783 66.1092 62.8097Z" fill="#263238"/>
<path d="M71.2602 189.929C70.8618 189.919 70.4659 189.864 70.0802 189.764C70.0601 189.758 70.0422 189.747 70.0285 189.731C70.0149 189.715 70.0062 189.696 70.0035 189.675C70.0028 189.654 70.0079 189.633 70.0183 189.614C70.0287 189.595 70.0439 189.58 70.0625 189.569C70.2336 189.463 71.7558 188.559 72.2455 188.819C72.2998 188.849 72.3444 188.894 72.3737 188.948C72.4031 189.003 72.4159 189.065 72.4107 189.126C72.4194 189.238 72.4008 189.35 72.3566 189.453C72.3124 189.556 72.2439 189.646 72.157 189.717C71.8897 189.885 71.5744 189.959 71.2602 189.929ZM70.3988 189.61C70.9307 189.789 71.5102 189.759 72.0213 189.528C72.0787 189.481 72.1241 189.421 72.1538 189.354C72.1836 189.286 72.1968 189.212 72.1924 189.138C72.1943 189.113 72.1893 189.087 72.1778 189.064C72.1664 189.041 72.149 189.022 72.1275 189.008C71.8738 188.861 71.0124 189.268 70.3988 189.61Z" fill="#007AFF"/>
<path d="M70.0978 189.764H70.0447C70.0288 189.754 70.016 189.74 70.0077 189.723C69.9993 189.707 69.9958 189.688 69.9975 189.67C69.9975 189.61 70.1922 188.294 70.7468 187.863C70.8104 187.808 70.8849 187.768 70.9652 187.745C71.0456 187.721 71.13 187.715 71.2129 187.727C71.2924 187.725 71.3699 187.752 71.4308 187.803C71.4917 187.854 71.5317 187.926 71.5433 188.005C71.6082 188.518 70.6406 189.516 70.1509 189.776C70.1323 189.779 70.1134 189.774 70.0978 189.764ZM71.1303 187.916C71.0377 187.919 70.9486 187.952 70.8766 188.01C70.5359 188.417 70.3188 188.913 70.2512 189.439C70.7409 189.085 71.3663 188.329 71.325 188.028C71.325 188.028 71.325 187.94 71.1775 187.922L71.1303 187.916Z" fill="#007AFF"/>
<path d="M97.8101 189.929C97.332 189.919 96.8559 189.864 96.3882 189.764C96.3663 189.761 96.346 189.751 96.3309 189.735C96.3158 189.718 96.3069 189.697 96.3056 189.675C96.3035 189.652 96.3086 189.629 96.3203 189.609C96.3319 189.589 96.3495 189.573 96.3705 189.563C96.5829 189.457 98.465 188.524 99.0019 188.837C99.0521 188.865 99.0939 188.906 99.1229 188.956C99.152 189.006 99.1672 189.063 99.1671 189.12C99.1713 189.22 99.1521 189.32 99.1112 189.411C99.0702 189.502 99.0086 189.582 98.9311 189.646C98.5997 189.863 98.205 189.963 97.8101 189.929ZM96.754 189.61C97.7511 189.776 98.524 189.734 98.7954 189.486C98.8467 189.444 98.8873 189.391 98.9139 189.331C98.9406 189.27 98.9526 189.204 98.9488 189.138C98.9507 189.116 98.9461 189.093 98.9357 189.073C98.9252 189.053 98.9093 189.037 98.8898 189.026C98.5948 188.86 97.5269 189.25 96.7599 189.61H96.754Z" fill="#007AFF"/>
<path d="M96.4061 189.764C96.3869 189.77 96.3663 189.77 96.3471 189.764C96.3318 189.753 96.32 189.737 96.3127 189.72C96.3054 189.702 96.303 189.683 96.3058 189.664C96.3886 189.005 96.6706 188.387 97.1141 187.892C97.2797 187.757 97.4906 187.689 97.7041 187.704C97.9991 187.739 98.0758 187.887 98.0935 188.011C98.1466 188.524 96.9961 189.51 96.4356 189.782L96.4061 189.764ZM97.6274 187.916C97.4868 187.916 97.3508 187.966 97.2439 188.058C96.8813 188.448 96.6431 188.937 96.5595 189.463C97.1495 189.126 97.9283 188.353 97.8929 188.04C97.8929 188.04 97.8929 187.94 97.6923 187.922L97.6274 187.916Z" fill="#007AFF"/>
<path d="M101.916 96.7948L106.477 96.0449L104.642 101.719C104.642 101.719 100.665 101.489 100.671 99.3159L101.916 96.7948Z" fill="#FFC3BD"/>
<path d="M110.796 98.1469L109.049 102.735L104.642 101.719L106.477 96.0391L110.796 98.1469Z" fill="#FFC3BD"/>
<path d="M231.475 33.3004L224.79 8.44327C224.66 7.95859 224.436 7.5043 224.13 7.10636C223.825 6.70842 223.444 6.37462 223.009 6.12405C222.575 5.87347 222.095 5.71102 221.598 5.64599C221.101 5.58095 220.596 5.6146 220.111 5.74501L171.731 18.7345C170.753 18.9986 169.919 19.6408 169.413 20.5199C168.908 21.399 168.772 22.443 169.035 23.4225L175.714 48.2796C175.977 49.2586 176.617 50.0933 177.494 50.6004C178.371 51.1074 179.414 51.2453 180.393 50.9837L187.219 49.1475L196.618 54.5617L194.618 47.1577L228.779 37.9707C229.753 37.7063 230.584 37.0669 231.089 36.1919C231.594 35.3168 231.733 34.2774 231.475 33.3004Z" fill="#007AFF"/>
<path opacity="0.2" d="M231.475 33.3004L224.79 8.44327C224.66 7.95859 224.436 7.5043 224.13 7.10636C223.825 6.70842 223.444 6.37462 223.009 6.12405C222.575 5.87347 222.095 5.71102 221.598 5.64599C221.101 5.58095 220.596 5.6146 220.111 5.74501L171.731 18.7345C170.753 18.9986 169.919 19.6408 169.413 20.5199C168.908 21.399 168.772 22.443 169.035 23.4225L175.714 48.2796C175.977 49.2586 176.617 50.0933 177.494 50.6004C178.371 51.1074 179.414 51.2453 180.393 50.9837L187.219 49.1475L196.618 54.5617L194.618 47.1577L228.779 37.9707C229.753 37.7063 230.584 37.0669 231.089 36.1919C231.594 35.3168 231.733 34.2774 231.475 33.3004Z" fill="#040601"/>
<path d="M251.187 85.3468L253.771 68.5196C253.873 67.8572 253.707 67.1816 253.311 66.6412C252.915 66.1009 252.321 65.7401 251.659 65.6383L218.89 60.596C218.562 60.5449 218.228 60.559 217.905 60.6376C217.583 60.7163 217.279 60.8579 217.012 61.0543C216.744 61.2507 216.518 61.498 216.346 61.7821C216.175 62.0662 216.061 62.3815 216.011 62.7098L213.421 79.537C213.319 80.1994 213.485 80.8751 213.881 81.4154C214.277 81.9557 214.871 82.3165 215.533 82.4183L220.153 83.1327L224.395 88.9189L225.168 83.9003L248.284 87.4429C248.612 87.4968 248.948 87.4853 249.272 87.409C249.595 87.3328 249.901 87.1933 250.171 86.9985C250.44 86.8037 250.669 86.5576 250.843 86.2741C251.018 85.9907 251.134 85.6756 251.187 85.3468Z" fill="#007AFF"/>
<path opacity="0.3" d="M251.187 85.3468L253.771 68.5196C253.873 67.8572 253.707 67.1816 253.311 66.6412C252.915 66.1009 252.321 65.7401 251.659 65.6383L218.89 60.596C218.562 60.5449 218.228 60.559 217.905 60.6376C217.583 60.7163 217.279 60.8579 217.012 61.0543C216.744 61.2507 216.518 61.498 216.346 61.7821C216.175 62.0662 216.061 62.3815 216.011 62.7098L213.421 79.537C213.319 80.1994 213.485 80.8751 213.881 81.4154C214.277 81.9557 214.871 82.3165 215.533 82.4183L220.153 83.1327L224.395 88.9189L225.168 83.9003L248.284 87.4429C248.612 87.4968 248.948 87.4853 249.272 87.409C249.595 87.3328 249.901 87.1933 250.171 86.9985C250.44 86.8037 250.669 86.5576 250.843 86.2741C251.018 85.9907 251.134 85.6756 251.187 85.3468Z" fill="white"/>
<path d="M250.024 58.0689L245.812 27.957C245.645 26.7693 245.014 25.6965 244.056 24.9746C243.099 24.2526 241.895 23.9407 240.708 24.1074L182.056 32.3144C180.869 32.4812 179.797 33.113 179.076 34.0708C178.355 35.0285 178.043 36.2338 178.209 37.4216L182.422 67.5335C182.503 68.1216 182.699 68.688 183 69.2001C183.3 69.7121 183.698 70.1598 184.172 70.5175C184.646 70.8751 185.185 71.1357 185.76 71.2843C186.334 71.4328 186.932 71.4664 187.52 71.3831L195.78 70.2022L206.016 77.9309L204.759 68.9446L246.16 63.1525C247.344 62.9882 248.416 62.3612 249.14 61.4086C249.864 60.4561 250.182 59.2553 250.024 58.0689Z" fill="#007AFF"/>
<path d="M187.874 45.54L191.196 45.0736L196.417 50.8362L195.526 44.4655L198.878 43.999L200.488 55.5124L197.137 55.9847L191.945 50.2635L192.83 56.587L189.485 57.0534L187.874 45.54Z" fill="white"/>
<path d="M201.231 43.6684L210.766 42.334L211.108 44.7961L205.143 45.6286L205.397 47.4589L210.931 46.6854L211.261 49.0472L205.727 49.8206L206.04 52.0879L212.182 51.2318L212.548 53.8356L202.842 55.1935L201.231 43.6684Z" fill="white"/>
<path d="M211.668 42.21L215.043 41.7377L217.161 48.014L218.04 41.3185L221.403 40.8461L224.088 47.0338L224.407 40.4269L227.764 39.9546L226.837 51.8281L223.35 52.3123L220.318 45.3452L219.321 52.8791L215.834 53.3632L211.668 42.21Z" fill="white"/>
<path d="M229.38 47.5828L232.737 46.8979C232.829 47.3357 233.032 47.7425 233.327 48.0787C233.548 48.2843 233.815 48.4348 234.105 48.5179C234.395 48.601 234.701 48.6144 234.997 48.557C235.422 48.5257 235.822 48.3386 236.118 48.0315C236.231 47.9156 236.316 47.776 236.369 47.6227C236.421 47.4695 236.438 47.3066 236.419 47.1458C236.393 46.9925 236.334 46.8465 236.247 46.7181C236.159 46.5896 236.045 46.4818 235.911 46.4019C235.312 46.1276 234.659 45.9866 234 45.9886C232.763 45.9613 231.55 45.6416 230.46 45.0557C230.099 44.8299 229.794 44.5259 229.566 44.1662C229.338 43.8065 229.194 43.4003 229.144 42.9774C229.059 42.3719 229.157 41.7547 229.427 41.2061C229.73 40.5959 230.207 40.0886 230.796 39.7477C231.653 39.2847 232.594 38.9976 233.563 38.9034C234.732 38.6647 235.946 38.7862 237.044 39.2518C237.491 39.5063 237.878 39.8543 238.179 40.272C238.479 40.6898 238.686 41.1675 238.785 41.6726L235.463 42.3397C235.357 41.9125 235.102 41.5375 234.743 41.2829C234.366 41.0801 233.931 41.0133 233.51 41.0939C233.174 41.1158 232.856 41.2559 232.613 41.4895C232.526 41.5791 232.461 41.6873 232.422 41.806C232.383 41.9247 232.372 42.0507 232.389 42.1744C232.406 42.2712 232.444 42.3629 232.501 42.4427C232.559 42.5224 232.633 42.5882 232.72 42.6349C233.113 42.809 233.54 42.8956 233.97 42.8888C235.148 42.9358 236.316 43.1201 237.451 43.4379C238.089 43.6355 238.66 44.0077 239.097 44.5125C239.477 44.9844 239.718 45.5527 239.794 46.1539C239.9 46.879 239.787 47.6192 239.469 48.2795C239.14 48.9692 238.614 49.5463 237.959 49.9386C237.125 50.4111 236.203 50.7065 235.251 50.8065C233.284 51.082 231.876 50.8852 231.026 50.2161C230.185 49.5593 229.602 48.6269 229.38 47.5828Z" fill="white"/>
</svg>
