<svg width="20" height="20" viewBox="0 0 20 20" fill="none" xmlns="http://www.w3.org/2000/svg">
<rect width="20" height="20" rx="3" fill="#4CAF50"/>
<path d="M9.99632 8.7619C10.4037 8.76274 10.8021 8.6238 11.1412 8.36267C11.4802 8.10154 11.7447 7.72995 11.9011 7.29494C12.0575 6.85993 12.0987 6.38104 12.0197 5.91889C11.9406 5.45674 11.7448 5.0321 11.457 4.69871C11.1691 4.36532 10.8023 4.13817 10.4028 4.04601C10.0033 3.95384 9.5891 4.00081 9.21269 4.18096C8.83628 4.36111 8.51455 4.66635 8.2882 5.05805C8.06186 5.44974 7.94109 5.91029 7.94116 6.3814C7.94101 7.01214 8.15738 7.61716 8.54273 8.06352C8.92809 8.50988 9.45091 8.76107 9.99632 8.7619Z" fill="white"/>
<path d="M11.2136 9H8.78865C8.35516 9 8 9.81813 8 10.8227V15.8384C8 15.8936 8.01419 15.9427 8.01504 16H11.9858C11.9888 15.9416 12 15.8936 12 15.8384V10.8227C12.0014 9.81842 11.6467 9 11.2136 9Z" fill="white"/>
<path d="M14.9378 9.7143C15.2637 9.7151 15.5825 9.60404 15.8539 9.39518C16.1252 9.18633 16.3368 8.88907 16.462 8.54104C16.5872 8.19301 16.6202 7.80986 16.557 7.44008C16.4938 7.0703 16.3371 6.73053 16.1068 6.46378C15.8766 6.19703 15.583 6.01529 15.2634 5.94157C14.9437 5.86785 14.6124 5.90546 14.3112 6.04965C14.0101 6.19383 13.7527 6.43811 13.5716 6.75155C13.3906 7.06499 13.294 7.4335 13.2942 7.81043C13.2939 8.06027 13.3363 8.30772 13.4187 8.53864C13.5012 8.76956 13.6222 8.97942 13.7749 9.15622C13.9275 9.33303 14.1088 9.47332 14.3083 9.56908C14.5078 9.66484 14.7217 9.71419 14.9378 9.7143Z" fill="white"/>
<path d="M16.1902 9.71436H13.6959C13.2482 9.71436 12.8823 10.4156 12.8823 11.2789V15.5738C12.8823 15.62 12.8954 15.6638 12.8974 15.7144H16.9856C16.9874 15.6638 17 15.6206 17 15.5738V11.278C17.0018 10.4147 16.6366 9.71436 16.1902 9.71436Z" fill="white"/>
<path d="M5.05603 9.71431C5.38195 9.71497 5.7007 9.6038 5.97196 9.39486C6.24321 9.18593 6.45477 8.88862 6.57985 8.54058C6.70493 8.19254 6.73792 7.8094 6.67463 7.43967C6.61134 7.06994 6.45463 6.73023 6.22432 6.46355C5.99401 6.19686 5.70047 6.01519 5.38084 5.94152C5.06121 5.86786 4.72987 5.90551 4.42876 6.04971C4.12764 6.19392 3.87029 6.43819 3.68927 6.75162C3.50826 7.06504 3.41171 7.43353 3.41187 7.81044C3.41164 8.06032 3.45399 8.30781 3.53652 8.53876C3.61904 8.76971 3.7401 8.97959 3.89279 9.1564C4.04549 9.33321 4.22681 9.47349 4.42641 9.56922C4.626 9.66494 4.83995 9.71425 5.05603 9.71431Z" fill="white"/>
<path d="M6.3077 9.71436H3.81103C3.36426 9.71436 3 10.4147 3 11.278V15.5738C3 15.62 3.01311 15.6638 3.01566 15.7144H7.1038C7.10562 15.6638 7.11764 15.6206 7.11764 15.5738V11.278C7.11874 10.4147 6.75356 9.71436 6.3077 9.71436Z" fill="white"/>
</svg>
