<svg width="261" height="210" viewBox="0 0 261 210" fill="none" xmlns="http://www.w3.org/2000/svg">
<path d="M130.5 210C202.573 210 261 209.357 261 208.565C261 207.772 202.573 207.129 130.5 207.129C58.4268 207.129 0 207.772 0 208.565C0 209.357 58.4268 210 130.5 210Z" fill="#007AFF"/>
<path d="M212.991 148.565L231.544 208.885H235.321L221.698 152.484H221.686L219.519 143.487L211.39 143.38L212.981 148.565H212.991Z" fill="#898686"/>
<path d="M142.023 208.886L161.606 152.484L165.114 142.373L165.619 140.914L157.511 140.804L157.126 142.204L155.727 147.249L138.691 208.886H142.023Z" fill="#898686"/>
<path d="M201.449 146.536L214.251 208.885H217.032L209.992 153.492L208.683 143.202L208.37 140.771L200.24 140.652L200.728 143.035L201.449 146.536Z" fill="#898686"/>
<path d="M161.766 208.885L177.144 155.426L180.783 142.786L172.663 142.681L171.812 146.536L158.075 208.885H161.766Z" fill="#898686"/>
<path d="M156.976 142.406L164.988 142.503L161.606 151.17L155.727 146.517L157.116 142.033L156.976 142.406Z" fill="#007AFF"/>
<path d="M172.663 142.456L180.783 142.548L177.144 153.784L171.812 145.882L172.663 142.456Z" fill="#898686"/>
<path d="M208.683 142.919L209.992 152.066L201.449 145.882L200.728 142.771L208.683 142.919Z" fill="#898686"/>
<path d="M221.698 151.17H221.686L212.991 147.686H212.981L211.39 143.076L219.519 143.173L221.698 151.17Z" fill="#898686"/>
<path d="M237.416 78.0435C236.132 89.2126 222.58 115.4 215.971 127.653C214.068 131.166 216.772 138.109 216.468 138.644C216.418 138.722 212.094 135.367 212.094 135.367L171.812 133.673L171.933 132.37C172.756 128.958 177.61 109.029 182.9 93.8727C185.333 86.8813 187.856 80.8952 190.116 78.0387C199.472 66.1734 238.634 67.547 237.416 78.0435Z" fill="#007AFF"/>
<path d="M214.629 136.194L210.665 134.293C210.665 134.293 163.492 125.174 154.046 135.471C154.024 135.499 154.007 135.53 153.996 135.564L214.629 136.194Z" fill="white"/>
<path d="M196.518 83.2857L196.54 83.2524L196.506 83.2715C196.418 83.3499 196.423 83.3499 196.518 83.2857Z" fill="#181818"/>
<path d="M186.225 92.8721C186.225 92.884 186.225 92.8982 186.225 92.9101C186.301 92.9909 186.306 92.9885 186.239 92.9101C186.233 92.898 186.228 92.8852 186.225 92.8721Z" fill="#12140C"/>
<path d="M191.117 122.247C190.805 123.121 190.853 123.088 191.117 122.247V122.247Z" fill="#2F395B"/>
<path d="M161.804 199.424C161.693 199.395 161.591 199.371 161.503 199.354C161.56 198.821 161.6 198.257 161.623 197.699L161.623 197.697C161.654 196.887 161.709 195.197 161.718 193.624C161.723 192.838 161.716 192.074 161.688 191.462C161.679 191.265 161.668 191.081 161.654 190.915L167.631 192.202C167.602 193.011 167.566 194.42 167.551 195.768C167.543 196.583 167.542 197.381 167.556 198.012C167.563 198.328 167.573 198.607 167.589 198.828C167.602 199.015 167.622 199.221 167.668 199.366C167.671 199.383 167.675 199.411 167.68 199.451C167.692 199.533 167.705 199.648 167.721 199.786C167.751 200.063 167.787 200.423 167.821 200.781C167.842 201.005 167.863 201.227 167.881 201.427C167.778 201.391 167.667 201.352 167.548 201.31C166.91 201.087 166.053 200.789 165.18 200.494C164.309 200.199 163.417 199.904 162.711 199.686C162.359 199.578 162.047 199.486 161.804 199.424Z" fill="white" stroke="#616161"/>
<path d="M168.777 208.037V208.063C168.775 208.182 168.766 208.301 168.751 208.42C168.751 208.42 149.891 211.312 149.817 207.997C149.731 204.014 157.235 204.646 160.351 200.665C161.399 199.328 160.703 195.936 162.886 196.048C165.621 196.186 166.339 199.297 168.199 199.499C169.336 200.991 168.76 207.692 168.768 207.797C168.775 207.877 168.778 207.957 168.777 208.037Z" fill="#616161"/>
<path d="M231.195 54.3579C231.04 55.5128 227.349 68.3026 224.212 78.9489C223.686 80.7241 223.177 82.4422 222.704 84.0368C221.714 87.3637 220.875 90.1465 220.359 91.8123C218.756 96.9834 217.909 102.791 217.452 108.302C217.393 109.015 217.341 109.728 217.295 110.415C216.698 119.291 217.02 127.05 216.649 129.528C216.021 129.794 210.86 130.396 205.791 130.652C203.627 130.762 201.479 130.807 199.708 130.735C198.043 129.635 196.406 128.487 194.887 127.32C193.401 126.194 191.979 124.987 190.625 123.706C190.793 123.633 190.979 123.612 191.16 123.647C191.45 123.262 192.672 122.889 194.133 122.537C196.318 122.004 199.042 121.515 199.953 121.085C203.758 119.288 205.661 116.774 207.727 113.164C212.142 105.448 214.427 97.3137 216.668 88.7373C218.463 81.8576 221.015 75.1704 223.672 68.5997C225.646 63.7162 230.029 56.6559 230.609 51.9839C231.204 52.4568 231.38 53.0271 231.195 54.3579Z" fill="#181D2D"/>
<path d="M208.691 142.905H227.327L227.299 143.104L208.683 142.917L208.691 142.905Z" fill="white"/>
<path d="M232.4 50.1395C232.243 51.2944 227.349 68.307 224.212 78.9533C223.686 80.7285 223.177 82.4466 222.704 84.0412C221.714 87.3681 220.875 90.1509 220.359 91.8168C218.756 96.9878 217.909 102.796 217.452 108.307C217.393 109.02 217.341 109.732 217.295 110.419C216.698 119.295 217.02 127.054 216.649 129.533C216.021 129.799 210.86 130.4 205.791 130.657C203.627 130.766 201.479 130.811 199.708 130.74C197.353 130.649 195.664 130.355 195.465 129.73C195.23 128.939 195.037 128.136 194.887 127.325C194.604 125.899 194.352 124.205 194.135 122.532C193.598 118.411 193.272 114.381 193.272 114.383C192.19 118.321 191.345 121.427 190.627 123.701C189.997 125.699 189.466 127.054 188.962 127.762C179.889 127.472 172.675 126.515 173.058 123.722C173.677 119.207 176.221 110.612 178.424 103.048L178.711 102.061C180.217 96.8666 181.511 92.2659 181.827 89.9584C183.147 80.4053 183.033 76.7195 182.626 73.0242C182.45 71.3797 182.212 69.7329 182.02 67.5585C181.432 60.945 183.1 48.9703 183.397 48.7849C185.537 47.4779 193.022 43.1624 197.905 40.7052L215.952 40.1729C216.527 40.4224 223.063 43.3097 224.276 44.1723C226.673 45.881 232.586 48.8039 232.4 50.1395Z" fill="#007AFF"/>
<path d="M208.253 49.1129C206.664 46.8672 204.305 47.1001 202.053 47.6229L197.748 48.3025C194.758 54.0439 195.947 88.7203 197.137 91.2132C197.198 91.3439 197.952 89.2455 197.959 89.3952C199.551 85.2746 207.428 60.2772 208.465 57.3875C209.611 54.1984 210.434 52.1927 208.253 49.1129Z" fill="white"/>
<path d="M204.357 46.2782L202.614 46.2568C201.9 46.8961 200.278 48.1223 200.062 49.1299C199.886 49.9521 200.844 51.8485 201.605 52.5353C203.377 54.1346 206.869 50.2135 207.949 48.5501C207.187 47.2834 205.537 46.8747 204.357 46.2782Z" fill="#007AFF"/>
<path d="M214.891 39.7974C215.276 40.6458 209.202 43.362 202.512 45.9499C199.962 46.9361 198.868 47.7203 198.868 47.7203C197.541 45.8192 198.259 42.2546 198.911 40.2252C198.923 40.1872 198.961 40.1658 198.982 40.1373C198.809 38.3621 198.535 36.4396 198.269 34.5598C198.071 33.115 197.893 31.7082 197.793 30.3916L208.125 24.4768L210.567 23.0747C210.412 25.1279 212.898 35.4225 214.891 39.7974Z" fill="#007AFF"/>
<path d="M210.567 23.0747C210.403 25.1327 210.757 25.0923 211.469 28.3361C210.855 30.9762 210.548 34.144 206.99 39.094C204.291 42.8511 201.401 42.1406 199.451 40.4866C199.277 40.3874 199.096 40.3001 198.911 40.2252L198.982 40.1373C198.809 38.3621 198.535 36.4396 198.269 34.5598L208.113 24.4768L210.567 23.0747Z" fill="#007AFF"/>
<path d="M216.228 40.1567L216.228 40.1567C216.237 40.2181 216.236 40.3264 216.221 40.4832C216.207 40.6375 216.18 40.8316 216.142 41.0605C216.065 41.5182 215.942 42.1109 215.78 42.7958C215.457 44.1655 214.977 45.8998 214.4 47.6521C213.822 49.4049 213.146 51.1731 212.429 52.6117C212.071 53.3311 211.704 53.966 211.334 54.4747C210.995 54.9423 210.658 55.2978 210.329 55.5157C209.915 54.7329 208.695 52.5014 207.3 50.4422C206.572 49.3673 205.793 48.3356 205.054 47.5811C204.685 47.204 204.323 46.8932 203.979 46.681C203.666 46.4875 203.36 46.3707 203.074 46.3685L202.758 45.3822C203.385 45.0932 204.19 44.5345 205.081 43.8217C206.013 43.0756 207.046 42.1551 208.078 41.1843C210.098 39.2845 212.115 37.1889 213.366 35.8237C213.539 36.0508 213.747 36.311 213.97 36.5903C214.011 36.6416 214.053 36.6936 214.095 36.7462C214.398 37.1266 214.723 37.5374 215.027 37.949C215.33 38.3609 215.611 38.7719 215.826 39.1524C216.043 39.5348 216.188 39.8782 216.228 40.1567Z" fill="white" stroke="#007AFF" stroke-width="0.2"/>
<path d="M195.555 102.123L194.411 84.2241L201.972 51.5415L203.855 51.7364L200.892 85.9375L195.555 102.123Z" fill="#007AFF"/>
<path d="M195.462 45.8045C195.479 44.8116 195.44 43.8374 195.245 42.9328C195.646 42.6093 195.958 42.3572 196.22 42.1445C197.097 41.435 197.43 41.1648 198.756 40.1489C199.118 41.6436 199.612 42.539 200.328 43.2567C200.913 43.8444 201.647 44.3111 202.56 44.8926C202.77 45.0261 202.989 45.1657 203.219 45.3142L202.918 46.4077C202.693 46.5125 202.458 46.6885 202.217 46.9133C201.96 47.1539 201.691 47.4549 201.416 47.7955C200.865 48.4764 200.28 49.3231 199.697 50.1769C199.648 50.249 199.598 50.3212 199.549 50.3933C199.015 51.1767 198.483 51.9554 197.978 52.6133C197.455 53.2952 196.969 53.8356 196.546 54.1185C195.433 52.7295 195.293 50.8641 195.344 48.8697C195.356 48.4066 195.378 47.9383 195.4 47.4684C195.402 47.4253 195.404 47.3823 195.406 47.3392C195.43 46.8265 195.453 46.3124 195.462 45.8045Z" fill="white" stroke="#007AFF" stroke-width="0.2"/>
<path d="M215.519 46.8006L219.086 50.8119C219.086 50.8119 200.333 83.8439 194.996 106.895C194.951 107.092 196.521 88.6157 202.768 72.9314C209.142 56.9288 214.118 36.4395 214.118 36.4395L224.281 44.1841L215.997 46.8409L215.519 46.8006Z" fill="#007AFF"/>
<path d="M195.365 109.17C195.286 109.001 190.782 51.233 190.782 51.233C190.782 51.233 193.257 49.1941 194.627 47.5448C193.438 46.6418 192.599 44.8025 191.236 44.1727C192.632 43.3529 195.555 41.3805 197.895 40.7056C197.895 40.7056 195.372 109.182 195.365 109.17Z" fill="#007AFF"/>
<path d="M121.485 155.138L126.3 157.901C125.517 159.008 124.856 160.477 124.289 162.03L124.289 162.03C124.068 162.637 123.86 163.262 123.664 163.889C123.664 163.889 123.664 163.89 123.663 163.89C123.652 163.912 123.635 163.943 123.612 163.984C123.565 164.066 123.5 164.178 123.422 164.311C123.267 164.577 123.063 164.92 122.859 165.26C122.717 165.497 122.576 165.732 122.451 165.937C122.375 165.822 122.29 165.694 122.197 165.556C121.783 164.935 121.226 164.105 120.653 163.266C120.081 162.428 119.491 161.577 119.014 160.918C118.776 160.589 118.562 160.303 118.391 160.088C118.306 159.981 118.227 159.887 118.158 159.811C118.153 159.806 118.148 159.8 118.142 159.794C118.552 159.351 118.966 158.866 119.36 158.374L119.36 158.374C119.926 157.668 120.455 156.937 120.867 156.276C121.113 155.881 121.33 155.493 121.485 155.138Z" fill="white" stroke="#616161"/>
<path d="M101.406 163.197C101.132 164.623 114.515 169.948 118.249 171.54C119.184 171.94 120.252 172.491 121.253 172.714C121.253 172.698 121.408 172.477 121.448 172.374V172.348C121.484 172.272 121.515 172.191 121.553 172.094C121.591 171.997 124.801 165.214 124.371 163.197C119.852 164.302 122.88 158.682 120.09 157.562C118.539 156.935 117.985 158.879 117.072 159.794C115.207 161.666 112.175 161.673 109.725 161.008C101.444 158.743 101.415 163.147 101.406 163.197Z" fill="#616161"/>
<path d="M118 155.048C122.718 159.466 127.635 161 127.635 161C127.635 161 148.053 135.1 160.111 120.074C178.862 132.797 214.012 148.505 218.373 131.554C218.684 130.352 219.016 124.203 218.999 122.666C218.999 122.666 168.292 99.8155 152.5 99.0045C144.284 98.58 131.378 128.46 123.487 144.976C121.131 149.933 119.201 153.682 118 155.048Z" fill="#007AFF"/>
<path d="M117.918 154.671C122.542 159.098 127.361 160.635 127.361 160.635C127.361 160.635 147.37 134.68 159.185 119.623C177.56 132.373 212.006 148.114 216.28 131.128C215.968 131.598 215.573 132.008 215.114 132.337C213.212 133.604 210.191 133.929 207.979 133.934C202.642 133.934 197.308 132.233 192.266 130.405C181.956 126.662 173.203 119.412 163.797 113.913C159.402 111.342 154.583 109.381 149.493 109.547C152.573 109.564 157.718 112.741 157.58 116.132C155.418 114.89 148.378 140.35 123.294 144.578C120.987 149.545 119.096 153.302 117.918 154.671Z" fill="#007AFF"/>
<path d="M186.027 47.466C179.929 46.1328 178.88 58.5828 178.024 63.2928C176.954 69.1696 175.337 72.1544 174.312 78.0265C172.944 85.8686 180.733 83.87 184.301 79.9157C188.556 75.1772 192.045 67.8935 193.036 61.646C193.072 61.4297 193.115 61.1445 193.143 61.0115L186.027 47.466Z" fill="#007AFF"/>
<path d="M242.437 94.6972C242.43 95.0399 242.404 95.3818 242.358 95.7215C241.321 103.628 230.483 105.565 228.716 102.884C227.667 101.292 226.868 96.3964 226.269 92.0238C225.853 89.0153 225.534 86.2563 225.284 84.9849C224.478 80.8333 224.359 77.3186 223.569 73.1789C222.839 69.3482 223.719 62.7561 223.189 59.0893L226.043 45.3774C235.19 45.5676 236.746 55.7837 237.288 61.1829C237.916 67.3686 242.501 91.8408 242.437 94.6972Z" fill="#007AFF"/>
<path d="M242.359 95.7214C241.322 103.628 230.483 105.564 228.716 102.884C227.667 101.292 226.868 96.3963 226.269 92.0238L233.67 86.6982C232.957 88.8964 238.665 90.4339 239.949 91.4986C241.022 92.3802 241.916 94.0128 242.359 95.7214Z" fill="#007AFF"/>
<path d="M224.811 60.1274C225.696 63.0171 225.922 79.0483 225.922 82.5725L228.398 83.7156C228.531 79.9181 226.569 63.2952 224.811 60.1274Z" fill="#898686"/>
<path d="M190.311 13.2462L185.266 12.374C185.433 14.8597 184.833 17.0294 185.742 19.5745C186.515 21.7299 188.686 24.3107 190.434 25.4181C188.601 22.0127 188.812 16.7181 190.311 13.2462Z" fill="#007AFF"/>
<path d="M208.933 11.2761C206.793 7.88977 202.35 4.74817 198.433 4.18021C196.016 3.8285 194.092 4.58657 192.389 6.23104C191.2 7.37409 189.207 8.84508 188.496 10.3089L187.961 13.3531C185.521 16.5327 189.543 24.6766 190.156 28.1676C190.87 32.236 195.27 39.5173 197.472 40.6888C199.187 41.599 201.57 41.4564 204.084 40.0947C208.84 37.514 210.172 31.8534 210.855 29.332C212.099 24.7361 211.552 15.4111 208.933 11.2761Z" fill="white"/>
<path d="M196.663 31.3612C197.401 30.8028 196.877 26.7605 196.425 25.8955C196.425 25.8955 196.345 31.0642 195.76 31.9363C196.661 32.3522 200.692 32.174 200.963 31.328C200.528 31.0333 198.243 30.7933 196.663 31.3612Z" fill="#007AFF"/>
<path d="M191.973 23.871C190.746 24.0445 190.38 25.3848 190.451 26.4541L190.62 27.4831C191.869 27.861 193.012 27.6043 194.309 27.0744C194.152 24.9641 193.246 23.7023 191.973 23.871Z" fill="#007AFF"/>
<path d="M190.56 27.5043C190.596 27.5043 190.627 27.5257 190.66 27.5328C191.524 27.7498 192.431 27.7177 193.276 27.4401C193.612 27.3403 193.952 27.2191 194.299 27.0789C194.061 26.2662 193.624 25.2253 192.791 24.952C192.579 24.8818 192.353 24.8647 192.133 24.9021C191.419 25.0019 190.996 25.501 190.782 26.1093C190.635 26.5492 190.577 27.0135 190.61 27.4758L190.56 27.5043Z" fill="white"/>
<path d="M190.62 27.4733L190.66 27.5304C191.524 27.7474 192.431 27.7153 193.276 27.4377C193.219 26.6244 193.067 25.8206 192.825 25.0423C192.825 25.0114 192.803 24.9805 192.791 24.9496C192.579 24.8794 192.353 24.8623 192.132 24.8997C191.419 24.9995 190.996 25.4985 190.782 26.1069C190.639 26.5474 190.584 27.0117 190.62 27.4733Z" fill="#007AFF"/>
<path d="M191.716 26.2761C191.79 26.4804 191.745 26.6824 191.619 26.7276C191.493 26.7727 191.333 26.642 191.26 26.4377C191.186 26.2333 191.233 26.0313 191.36 25.9861C191.486 25.941 191.645 26.0788 191.716 26.2761Z" fill="white"/>
<path d="M202.164 21.8581C200.69 22.1195 200.162 23.5216 200.174 24.6076L200.305 25.6485C201.772 25.9526 203.159 25.6104 204.733 24.9807C204.688 22.83 203.694 21.5872 202.164 21.8581Z" fill="#007AFF"/>
<path d="M200.238 25.6747C200.434 25.715 200.633 25.7435 200.833 25.7602C201.745 25.8208 202.661 25.7013 203.527 25.4085C203.922 25.2897 204.324 25.1447 204.733 24.9808C204.495 24.168 204.053 23.1295 203.068 22.9085C202.811 22.8547 202.545 22.8547 202.288 22.9085C201.917 22.9709 201.568 23.1252 201.272 23.3572C200.976 23.5893 200.743 23.8917 200.595 24.2369C200.529 24.3749 200.475 24.518 200.433 24.6647C200.34 24.9875 200.294 25.3221 200.297 25.658L200.238 25.6747Z" fill="white"/>
<path d="M200.443 24.6526C200.53 25.0346 200.661 25.4053 200.833 25.7576C201.745 25.8182 202.661 25.6987 203.527 25.4059C203.494 24.5859 203.354 23.7736 203.113 22.9891C203.113 22.9582 203.092 22.9273 203.078 22.8988C202.82 22.8449 202.555 22.8449 202.298 22.8988C201.927 22.9611 201.577 23.1154 201.282 23.3475C200.986 23.5795 200.753 23.882 200.604 24.2272C200.539 24.3644 200.485 24.5066 200.443 24.6526Z" fill="#007AFF"/>
<path d="M201.684 24.5436C201.706 24.5844 201.719 24.6292 201.723 24.6752C201.727 24.7212 201.723 24.7676 201.709 24.8117C201.695 24.8559 201.673 24.8969 201.643 24.9324C201.614 24.968 201.577 24.9973 201.537 25.0188C201.387 25.0735 201.201 24.9499 201.13 24.7456C201.108 24.7047 201.095 24.6599 201.091 24.6139C201.086 24.5679 201.091 24.5215 201.105 24.4774C201.119 24.4332 201.141 24.3922 201.171 24.3567C201.2 24.3212 201.236 24.2918 201.277 24.2703C201.432 24.2156 201.613 24.3392 201.684 24.5436Z" fill="white"/>
<path d="M193.288 20.4609C191.624 20.6368 187.851 21.1739 187.545 23.0156L188.496 24.3392C189.371 23.4576 192.677 23.132 193.876 23.3459C193.749 22.3715 193.552 21.4074 193.288 20.4609Z" fill="#007AFF"/>
<path d="M212.251 9.99024C212.76 12.7564 212.629 15.5748 212.579 17.4046C212.567 17.8585 212.56 18.253 212.579 18.569C212.579 18.6308 212.579 18.6902 212.579 18.7473C212.579 18.8257 212.579 18.9017 212.579 18.9849C212.579 19.0681 212.579 19.1061 212.579 19.1655C212.579 19.2249 212.579 19.2986 212.563 19.3675C212.546 19.4364 212.546 19.4982 212.536 19.5648C212.527 19.6313 212.517 19.6836 212.506 19.743C212.504 19.75 212.504 19.7573 212.506 19.7644C212.315 20.6484 211.856 21.29 211.666 21.9887C211.512 22.5249 211.566 23.0996 211.818 23.5975L209.242 24.7691C208.065 24.4863 205.948 15.5581 205.623 14.6385C203.92 9.79775 198.994 13.3623 197.298 13.9256C197.225 13.9493 197.156 13.9683 197.091 13.985C195.636 14.3541 194.163 14.6484 192.677 14.8666C186.137 15.7934 183.554 14.1537 182.569 12.4189C182.302 11.9403 182.126 11.4167 182.048 10.8743C181.966 10.3478 181.98 9.81077 182.089 9.2892C183.161 7.34531 190.175 4.63384 194.038 3.43376C206.167 -0.335213 210.534 3.51693 211.97 8.66183C212.075 9.10068 212.169 9.54348 212.251 9.99024Z" fill="#007AFF"/>
<path d="M211.642 8.63815H211.661C211.847 8.59537 211.844 8.58824 211.661 8.61438L211.642 8.63815Z" fill="#442424"/>
<path d="M209.402 2.95142C209.626 2.27638 209.966 1.64524 210.405 1.08595C209.428 1.11684 208.783 1.54459 208.075 2.13632C206.743 1.45429 205.708 0.296985 204.207 -0.00244141C204.647 0.667703 205.492 2.07928 205.335 2.7827L209.157 5.40387C209.973 4.69095 211.728 4.01843 212.867 4.04932C211.763 3.61444 210.517 3.35066 209.402 2.95142Z" fill="#007AFF"/>
<path d="M212.251 9.99035C212.76 12.7565 212.629 15.5749 212.579 17.4047C212.567 17.8586 212.56 18.2531 212.579 18.5691C212.579 18.6309 212.579 18.6903 212.579 18.7474C212.579 18.8258 212.579 18.9018 212.579 18.985C212.579 19.0682 212.579 19.1062 212.579 19.1656C212.579 19.225 212.579 19.2987 212.563 19.3676C212.546 19.4365 212.546 19.4983 212.536 19.5649C212.527 19.6314 212.517 19.6837 212.505 19.7431C212.504 19.7502 212.504 19.7574 212.505 19.7645C212.315 20.6485 211.856 21.2901 211.666 21.9888C211.535 22.4641 211.547 24.1394 211.837 24.7668L209.221 25.5653C208.032 25.2825 205.939 15.5583 205.613 14.6338C203.91 9.79311 198.985 13.3577 197.289 13.9209C197.215 13.9447 197.146 13.9637 197.082 13.9803C195.627 14.3495 194.153 14.6438 192.668 14.862C186.127 15.7888 183.544 14.149 182.56 12.4143C182.293 11.9357 182.116 11.4121 182.039 10.8696C182.307 11.2419 182.628 11.574 182.99 11.8558C184.025 12.5878 185.671 12.9252 186.907 13.044C189.761 13.3078 192.775 12.545 195.591 11.8796C198.059 11.295 200.702 9.63627 203.23 9.55309C205.608 9.47705 206.631 11.478 207.613 13.1177C208.027 13.8116 208.305 14.7622 209.278 14.5934C210.251 14.4247 210.36 13.4052 210.31 12.621C210.21 11.0383 209.506 8.39341 208.529 7.17432C209.704 8.07497 210.398 9.32733 210.955 10.613C211.687 10.2446 211.93 9.49844 211.963 8.66432C212.073 9.10158 212.169 9.54359 212.251 9.99035Z" fill="#007AFF"/>
<path d="M212.406 18.6617C211.052 19.2368 210.451 20.8408 210.265 22.4972L210.213 24.434C210.617 25.6982 211.15 28.0627 212.848 26.7818C214.334 25.6602 214.627 23.4858 214.684 21.7914C214.744 20.3085 214.537 17.761 212.406 18.6617Z" fill="#007AFF"/>
<path d="M213.697 20.7604C213.654 19.8883 212.717 19.2157 211.939 19.596C211.25 19.9334 211.007 21.2595 210.948 21.894C212.955 20.5014 211.989 25.5964 211.221 24.6791L211.1 24.9167C212.881 26.0384 214.606 21.1145 211.713 21.1525C212.156 20.4847 213.102 19.9382 213.697 20.7604Z" fill="#007AFF"/>
<path d="M198.017 19.4747C199.976 18.8474 204.455 17.5736 205.668 19.1729L205.221 20.8839C203.822 20.4657 199.957 21.7228 198.718 22.4975C198.401 21.5111 198.166 20.5 198.017 19.4747Z" fill="#007AFF"/>
<path d="M195.719 34.2202C196.204 34.8544 196.773 35.4196 197.41 35.9004C201.691 38.9897 204.205 31.9722 204.205 31.9722C202.024 33.3505 198.973 33.897 197.099 34.1109C196.494 34.1751 196.014 34.206 195.719 34.2202Z" fill="#007AFF"/>
<path d="M197.094 34.1062C197.246 34.5683 197.343 35.047 197.382 35.5321C197.382 35.6652 197.401 35.7887 197.405 35.9028C201.686 38.9921 204.2 31.9746 204.2 31.9746C202.024 33.3505 198.975 33.8971 197.094 34.1062Z" fill="#007AFF"/>
<path d="M228.283 102.247L227.503 103.965C222.204 115.562 216.361 127.515 212.615 135.068C210.308 139.718 208.795 142.698 208.691 142.91H227.327L227.694 140.567L233.437 103.652C231.58 103.787 229.77 103.409 228.283 102.247Z" fill="#898686"/>
<path d="M153.848 135.669L212.615 135.067C210.308 139.718 208.795 142.698 208.691 142.909H154.331L153.848 135.669Z" fill="#898686"/>
<path d="M227.694 140.564L227.503 142.907H227.327L227.694 140.564Z" fill="#D1BFBF"/>
<path d="M192.889 135.255C181.473 131.453 168.418 123.152 168.418 123.152C157.627 118.017 155.209 118.162 151.498 122.494C147.436 127.228 151.408 138.043 152.262 143.684C154.148 156.167 157.777 182.968 159.72 194.195L169.448 194.095C171.351 175.433 174.74 154.214 169.229 135.973C176.69 135.255 193.46 135.445 192.889 135.255Z" fill="#1584FD"/>
<path d="M220.009 75.0325L158.336 78.2264L149.905 59.6477L150.314 52.5898L150.611 47.3831L150.785 44.396L170.744 63.0531L219.5 56.9291L219.572 59.4861L219.695 63.8848L220.009 75.0325Z" fill="#FCF9F0"/>
<path d="M219.695 63.8845L218.996 65.3722L168.684 68.0385L150.314 52.5895L150.611 47.3828L170.233 63.9154L219.571 59.4858L219.695 63.8845Z" fill="#007AFF"/>
<path d="M224.496 78.1391L224.497 78.1391C224.733 78.1714 224.981 78.2012 225.234 78.2318C225.734 78.2921 226.256 78.3551 226.762 78.4447C227.525 78.5801 228.191 78.7681 228.619 79.0639C228.811 79.1978 229.118 79.4866 229.484 79.8724C229.846 80.2537 230.251 80.7158 230.635 81.1833C231.019 81.6511 231.378 82.1211 231.648 82.5183C231.731 82.6394 231.804 82.7526 231.867 82.8559L225.593 80.5043L225.567 80.4943L225.539 80.4906C225.296 80.458 224.894 80.4391 224.434 80.4175C224.389 80.4154 224.344 80.4132 224.298 80.4111C223.775 80.3862 223.178 80.3556 222.613 80.2986C222.044 80.2412 221.525 80.1585 221.152 80.0349C220.964 79.9727 220.831 79.9059 220.749 79.8397C220.67 79.7762 220.657 79.7311 220.656 79.7022L220.656 79.7022C220.647 79.3878 220.792 79.1293 221.065 78.9074C221.344 78.6806 221.742 78.5053 222.19 78.3778C223.088 78.1223 224.096 78.0838 224.496 78.1391Z" fill="white" stroke="#007AFF" stroke-width="0.5"/>
<path d="M145.237 62.1725L145.237 62.1725C144.589 62.5736 144.392 63.2681 144.502 63.8357C144.557 64.1199 144.686 64.3549 144.855 64.501C145.017 64.6417 145.224 64.7087 145.477 64.655L145.487 64.6529L145.497 64.6516L146.103 64.5732L146.111 64.5722L146.119 64.5717C146.56 64.5424 147.34 64.3905 148.188 64.1596C149.033 63.9294 149.925 63.6268 150.591 63.3048C150.925 63.143 151.19 62.9826 151.362 62.8326C151.547 62.6721 151.567 62.5764 151.563 62.5423C151.56 62.5144 151.525 62.4106 151.241 62.275C150.97 62.1456 150.534 62.0193 149.887 61.9094L145.237 62.1725ZM145.237 62.1725C145.744 61.8582 146.585 61.731 147.491 61.7192M145.237 62.1725L147.491 61.7192M147.491 61.7192C148.384 61.7075 149.289 61.8079 149.887 61.9094L147.491 61.7192Z" fill="white" stroke="#007AFF" stroke-width="0.5"/>
<path d="M151.473 79.5829L151.473 79.5829C149.354 79.165 147.477 77.8985 146.433 76.2684C145.414 74.6768 145.189 72.7445 146.3 70.8868L156.01 69.9027C157.216 71.922 157.382 74.5863 156.604 76.6288C156.208 77.6689 155.572 78.5338 154.72 79.0746C153.873 79.6129 152.791 79.8432 151.473 79.5829Z" fill="white" stroke="#007AFF" stroke-width="0.5"/>
<path d="M233.901 116.817L176.224 112.539L175.884 112.515C175.884 112.515 167.155 105.248 157.965 100.633C154.058 98.6729 149.572 80.1797 148.509 73.4545C148.012 70.3201 146.844 64.3791 145.743 58.8207C145.726 58.7327 145.707 58.6472 145.691 58.5593C144.368 51.96 143.117 45.9644 143.117 45.9644L170.23 63.899L170.468 64.063L221.591 62.0882L223.662 71.2968L223.705 71.4893L233.901 116.817Z" fill="white"/>
<path d="M186.603 72.0783L186.22 66.4153L187.019 66.3607L189.029 69.103C189.449 69.6674 189.831 70.2597 190.17 70.8758L190.187 70.864C190.068 70.113 190.006 69.4381 189.949 68.5446L189.787 66.1682L190.477 66.123L190.86 71.786L190.12 71.8359L188.125 69.0912C187.693 68.5093 187.296 67.9023 186.936 67.2732H186.912C187.002 67.9861 187.067 68.6634 187.128 69.6045L187.293 72.0236L186.603 72.0783Z" fill="#007AFF"/>
<path d="M194.891 68.854L192.689 69.0013L192.827 71.045L195.281 70.8787L195.324 71.4918L192.137 71.7056L191.754 66.0451L194.815 65.8359L194.856 66.4491L192.527 66.6083L192.649 68.3977L194.851 68.248L194.891 68.854Z" fill="#007AFF"/>
<path d="M197.274 71.3562L195.453 65.7906L196.226 65.7384L197.094 68.5591C197.31 69.2531 197.508 69.9493 197.645 70.4888H197.662C197.717 69.9208 197.85 69.2364 197.993 68.4926L198.556 65.5839L199.322 65.5316L200.205 68.3595C200.412 69.0202 200.607 69.6832 200.733 70.2607H200.749C200.825 69.6309 200.942 68.9893 201.07 68.2716L201.624 65.3629L202.374 65.313L201.151 71.0853L200.385 71.1375L199.472 68.2455C199.274 67.6472 199.108 67.0388 198.975 66.4228H198.958C198.889 67.0546 198.785 67.6821 198.647 68.3025L198.045 71.3063L197.274 71.3562Z" fill="#007AFF"/>
<path d="M203.304 70.0539C203.716 70.2661 204.177 70.3637 204.64 70.3367C205.387 70.2844 205.799 69.8614 205.761 69.2887C205.725 68.7611 205.401 68.4783 204.617 68.2359C203.665 67.9698 203.063 67.523 203.011 66.7317C202.949 65.85 203.637 65.1442 204.74 65.0682C205.173 65.0236 205.61 65.0899 206.01 65.2607L205.849 65.8714C205.506 65.7151 205.13 65.6472 204.755 65.6742C203.982 65.7264 203.718 66.2088 203.744 66.5962C203.779 67.1238 204.143 67.3614 204.933 67.6109C205.918 67.9175 206.436 68.3452 206.493 69.177C206.553 70.0515 205.956 70.8405 204.619 70.9426C204.114 70.982 203.607 70.8912 203.147 70.6789L203.304 70.0539Z" fill="#007AFF"/>
<path d="M176.224 112.546L175.884 112.523L154.331 98.5588C154.331 98.5588 149.574 80.1868 148.509 73.4616C147.412 66.5463 143.117 45.981 143.117 45.981L170.23 63.9156C170.302 70.522 172.133 77.5015 173.229 84.0818C174.737 93.1453 176.64 102.242 176.257 111.456C176.243 111.814 176.233 112.178 176.224 112.546Z" fill="white"/>
<path d="M223.705 71.4893L171.008 74.1294L170.984 74.1128L145.743 58.8278C145.726 58.7399 145.707 58.6543 145.691 58.5664L171.058 73.9298L223.662 71.2968L223.705 71.4893Z" fill="#007AFF"/>
<path d="M149.153 58.0054L148.547 53.0625L149.113 53.4356L150.749 56.8267C151.13 57.6157 151.437 58.3001 151.701 58.9417C151.565 58.2431 151.463 57.6276 151.368 56.8481L151.077 54.7379L151.572 55.0682L152.255 60.0895L151.71 59.7235L150.081 56.3277C149.724 55.5839 149.367 54.8353 149.106 54.1604H149.089C149.201 54.8092 149.289 55.4151 149.391 56.2398L149.643 58.3452L149.153 58.0054Z" fill="#007AFF"/>
<path d="M155.052 59.8236L153.427 58.7281L153.679 60.546L155.506 61.7841L155.584 62.3307L153.206 60.7219L152.493 55.6768L154.719 57.1644L154.807 57.7228L153.104 56.5822L153.342 58.1886L154.961 59.2794L155.052 59.8236Z" fill="#007AFF"/>
<path d="M157.054 63.336L155.199 57.4829L155.77 57.8655L156.678 60.8122C156.904 61.5394 157.114 62.2547 157.266 62.8013H157.278C157.278 62.3403 157.311 61.8222 157.352 61.2566L157.492 59.0204L158.063 59.4054L159.014 62.4044C159.235 63.1031 159.452 63.7994 159.601 64.3887H159.616C159.616 63.8826 159.642 63.3883 159.668 62.8298L159.782 60.5699L160.346 60.9525L160.001 65.344L159.416 64.9424L158.446 61.8792C158.208 61.1259 158.032 60.558 157.889 59.9924C157.9 60.4833 157.882 60.9744 157.837 61.4634L157.642 63.7257L157.054 63.336Z" fill="#007AFF"/>
<path d="M161.575 65.7146C161.883 66.1098 162.244 66.4602 162.648 66.7555C163.228 67.1571 163.507 67.0264 163.414 66.4941C163.326 65.9998 163.043 65.5578 162.403 64.8758C161.64 64.082 161.126 63.3382 160.995 62.5944C160.85 61.7722 161.295 61.5369 162.132 62.1072C162.507 62.3652 162.845 62.6739 163.136 63.0245L163.083 63.4832C162.831 63.1737 162.539 62.8989 162.215 62.6657C161.625 62.2617 161.478 62.5398 161.542 62.9033C161.63 63.3953 161.937 63.8206 162.586 64.5145C163.388 65.37 163.844 66.064 163.982 66.841C164.127 67.6585 163.745 68.0102 162.7 67.2878C162.258 66.9745 161.862 66.601 161.523 66.178L161.575 65.7146Z" fill="#007AFF"/>
<path d="M198.204 75.5839L221.232 74.4907L223.422 91.3418L199.934 92.0927L198.204 75.5839Z" fill="#007AFF"/>
<path d="M158.721 68.8203L169.346 75.5764L172.28 91.0468L161.892 84.4737L158.721 68.8203Z" fill="#007AFF"/>
<path d="M152.74 80.4385L158.981 84.6067L161.597 99.2809L155.696 96.2487L152.74 80.4385Z" fill="#007AFF"/>
<path d="M156.398 68.9844L148.266 63.571L148.185 63.1123L156.353 68.6968L156.398 68.9844Z" fill="#007AFF"/>
<path d="M156.717 70.2086L148.585 64.7975L148.502 64.3389L156.669 69.921L156.717 70.2086Z" fill="#007AFF"/>
<path d="M157.033 71.4346L148.901 66.0235L148.82 65.5625L156.985 71.147L157.033 71.4346Z" fill="#007AFF"/>
<path d="M157.352 72.6583L149.218 67.2472L149.137 66.7886L157.304 72.3731L157.352 72.6583Z" fill="#007AFF"/>
<path d="M157.668 73.8848L149.536 68.4738L149.453 68.0151L157.62 73.5973L157.668 73.8848Z" fill="#007AFF"/>
<path d="M157.984 75.1109L149.853 69.6974L149.772 69.2388L157.937 74.8233L157.984 75.1109Z" fill="#007AFF"/>
<path d="M158.303 76.3346L150.169 70.9235L150.088 70.4648L158.255 76.047L158.303 76.3346Z" fill="#007AFF"/>
<path d="M158.619 77.5611L150.488 72.15L150.404 71.6914L158.572 77.2736L158.619 77.5611Z" fill="#007AFF"/>
<path d="M158.936 78.7847L150.804 73.3737L150.723 72.915L158.89 78.4996L158.936 78.7847Z" fill="#007AFF"/>
<path d="M159.252 80.0108L151.12 74.5998L151.039 74.1411L159.207 79.7233L159.252 80.0108Z" fill="#007AFF"/>
<path d="M159.571 81.2373L151.439 75.8239L151.356 75.3652L159.523 80.9498L159.571 81.2373Z" fill="#007AFF"/>
<path d="M159.887 82.461L151.755 77.05L151.674 76.5913L159.839 82.1758L159.887 82.461Z" fill="#007AFF"/>
<path d="M160.203 83.6871L152.072 78.276L151.991 77.8174L160.158 83.3995L160.203 83.6871Z" fill="#007AFF"/>
<path d="M172.121 95.0537L166.87 90.7643L166.813 90.3579L172.088 94.7994L172.121 95.0537Z" fill="#007AFF"/>
<path d="M172.338 96.1303L167.086 91.8386L167.029 91.4346L172.304 95.8761L172.338 96.1303Z" fill="#007AFF"/>
<path d="M172.554 97.2041L167.305 92.9147L167.245 92.5107L172.521 96.9522L172.554 97.2041Z" fill="#007AFF"/>
<path d="M172.77 98.2807L167.521 93.9913L167.462 93.585L172.737 98.0265L172.77 98.2807Z" fill="#007AFF"/>
<path d="M172.987 99.3574L167.738 95.0656L167.678 94.6616L172.954 99.1031L172.987 99.3574Z" fill="#007AFF"/>
<path d="M173.203 100.431L167.952 96.1417L167.897 95.7354L173.172 100.177L173.203 100.431Z" fill="#007AFF"/>
<path d="M173.42 101.505L168.171 97.216L168.114 96.812L173.386 101.253L173.42 101.505Z" fill="#007AFF"/>
<path d="M173.639 102.582L168.387 98.2927L168.33 97.8887L173.605 102.328L173.639 102.582Z" fill="#007AFF"/>
<path d="M173.855 103.659L168.603 99.3669L168.546 98.9629L173.822 103.404L173.855 103.659Z" fill="#007AFF"/>
<path d="M174.071 104.733L168.82 100.443L168.763 100.037L174.038 104.481L174.071 104.733Z" fill="#007AFF"/>
<path d="M174.288 105.809L169.036 101.52L168.979 101.113L174.254 105.555L174.288 105.809Z" fill="#007AFF"/>
<path d="M174.504 106.883L169.253 102.594L169.196 102.19L174.471 106.631L174.504 106.883Z" fill="#007AFF"/>
<path d="M174.721 107.96L169.469 103.671L169.412 103.264L174.687 107.706L174.721 107.96Z" fill="#007AFF"/>
<path d="M165.688 90.6811L160.348 86.4488L160.282 86.04L165.65 90.4245L165.688 90.6811Z" fill="#007AFF"/>
<path d="M165.928 91.7671L160.588 87.5347L160.522 87.126L165.89 91.5104L165.928 91.7671Z" fill="#007AFF"/>
<path d="M166.166 92.853L160.826 88.6207L160.762 88.2119L166.128 92.5964L166.166 92.853Z" fill="#007AFF"/>
<path d="M166.406 93.939L161.067 89.7066L161 89.2979L166.368 93.6823L166.406 93.939Z" fill="#007AFF"/>
<path d="M166.646 95.0249L161.307 90.7949L161.24 90.3838L166.606 94.7682L166.646 95.0249Z" fill="#007AFF"/>
<path d="M166.884 96.1108L161.545 91.8808L161.48 91.4697L166.846 95.8542L166.884 96.1108Z" fill="#007AFF"/>
<path d="M167.124 97.1996L161.785 92.9673L161.718 92.5562L167.086 96.943L167.124 97.1996Z" fill="#007AFF"/>
<path d="M167.364 98.2856L162.023 94.0533L161.958 93.6445L167.324 98.029L167.364 98.2856Z" fill="#007AFF"/>
<path d="M167.602 99.3716L162.263 95.1392L162.196 94.7305L167.564 99.1149L167.602 99.3716Z" fill="#007AFF"/>
<path d="M167.843 100.458L162.501 96.2251L162.437 95.8164L167.802 100.201L167.843 100.458Z" fill="#007AFF"/>
<path d="M168.08 101.543L162.741 97.3135L162.674 96.9023L168.042 101.287L168.08 101.543Z" fill="#007AFF"/>
<path d="M168.321 102.629L162.981 98.3994L162.915 97.9883L168.282 102.375L168.321 102.629Z" fill="#007AFF"/>
<path d="M168.558 103.715L163.219 99.4853L163.152 99.0742L168.52 103.461L168.558 103.715Z" fill="#007AFF"/>
<path d="M179.967 96.6551L200.045 95.7021L201.955 110.393L181.475 111.049L179.967 96.6551Z" fill="#007AFF"/>
<path d="M184.748 76.5223L175.282 77.0356L175.256 76.7861L184.722 76.2681L184.748 76.5223Z" fill="#007AFF"/>
<path d="M184.829 77.3636L175.365 77.8769H175.363L175.339 77.625L184.805 77.1094L184.829 77.3636Z" fill="#007AFF"/>
<path d="M184.912 78.205L175.446 78.7183L175.422 78.4688L184.888 77.9531L184.912 78.205Z" fill="#007AFF"/>
<path d="M184.995 79.0463L175.529 79.562L175.505 79.3077L184.971 78.7944L184.995 79.0463Z" fill="#007AFF"/>
<path d="M185.076 79.8876L175.61 80.4009L175.589 80.1514L185.052 79.6357L185.076 79.8876Z" fill="#007AFF"/>
<path d="M185.159 80.7289L175.693 81.2446L175.67 80.9903L185.135 80.4746L185.159 80.7289Z" fill="#007AFF"/>
<path d="M185.242 81.5721L175.777 82.0855L175.753 81.8335L185.216 81.3179L185.242 81.5721Z" fill="#007AFF"/>
<path d="M185.326 82.4134L175.86 82.9268L175.836 82.6749L185.3 82.1592L185.326 82.4134Z" fill="#007AFF"/>
<path d="M185.409 83.2524L175.943 83.7681L175.917 83.5162L185.383 83.0005L185.409 83.2524Z" fill="#007AFF"/>
<path d="M185.49 84.0937L176.026 84.6117L176 84.3575L185.464 83.8418L185.49 84.0937Z" fill="#007AFF"/>
<path d="M185.573 84.9375L176.107 85.4507L176.081 85.1988L185.549 84.6855L185.573 84.9375Z" fill="#007AFF"/>
<path d="M185.656 85.7783L176.19 86.2939L176.167 86.0397L185.63 85.5264L185.656 85.7783Z" fill="#007AFF"/>
<path d="M185.737 86.6196L176.274 87.1329H176.271L176.248 86.881L185.713 86.3677L185.737 86.6196Z" fill="#007AFF"/>
<path d="M185.82 87.4609L176.355 87.9766L176.331 87.7247L185.797 87.209L185.82 87.4609Z" fill="#007AFF"/>
<path d="M185.904 88.3022L176.438 88.8179L176.414 88.566L185.88 88.0503L185.904 88.3022Z" fill="#007AFF"/>
<path d="M185.987 89.1435L176.521 89.6592H176.519L176.497 89.4073L185.961 88.8916L185.987 89.1435Z" fill="#007AFF"/>
<path d="M186.07 89.9848L176.604 90.5005L176.578 90.2462L186.044 89.7329L186.07 89.9848Z" fill="#007AFF"/>
<path d="M186.151 90.8261L176.688 91.3442L176.661 91.0899L186.127 90.5742L186.151 90.8261Z" fill="#007AFF"/>
<path d="M186.234 91.6674L176.768 92.1831L176.742 91.9312L186.21 91.4155L186.234 91.6674Z" fill="#007AFF"/>
<path d="M186.317 92.5106L176.852 93.0239L176.825 92.772L186.291 92.2563L186.317 92.5106Z" fill="#007AFF"/>
<path d="M186.398 93.3519L176.935 93.8652L176.911 93.6133L186.377 93.0977L186.398 93.3519Z" fill="#007AFF"/>
<path d="M195.89 75.7953L186.425 76.3086L186.401 76.0591L195.867 75.541L195.89 75.7953Z" fill="#007AFF"/>
<path d="M195.974 76.6366L186.508 77.1499L186.484 76.898L195.947 76.3823L195.974 76.6366Z" fill="#007AFF"/>
<path d="M196.057 77.4751L186.589 77.9908L186.565 77.7413L196.031 77.2256L196.057 77.4751Z" fill="#007AFF"/>
<path d="M196.138 78.3164L186.672 78.8345L186.648 78.5802L196.114 78.0669L196.138 78.3164Z" fill="#007AFF"/>
<path d="M196.221 79.1601L186.755 79.6734L186.731 79.4239L196.195 78.9082L196.221 79.1601Z" fill="#007AFF"/>
<path d="M196.304 80.0013L186.838 80.517L186.812 80.2628L196.278 79.7471L196.304 80.0013Z" fill="#007AFF"/>
<path d="M196.385 80.8427L186.922 81.3584L186.895 81.1041L196.361 80.5908L196.385 80.8427Z" fill="#007AFF"/>
<path d="M196.468 81.684L187.002 82.1997L186.979 81.9478L196.444 81.4321L196.468 81.684Z" fill="#007AFF"/>
<path d="M196.551 82.5253L187.086 83.041L187.062 82.7891L196.528 82.2734L196.551 82.5253Z" fill="#007AFF"/>
<path d="M196.632 83.3666L187.169 83.8823L187.145 83.6304L196.609 83.1147L196.632 83.3666Z" fill="#007AFF"/>
<path d="M196.718 84.2099L187.252 84.7232L187.226 84.4713L196.692 83.958L196.718 84.2099Z" fill="#007AFF"/>
<path d="M196.801 85.0512L187.333 85.5669L187.309 85.3126L196.775 84.7993L196.801 85.0512Z" fill="#007AFF"/>
<path d="M196.882 85.8901L187.419 86.4058H187.416L187.392 86.1539L196.858 85.6406L196.882 85.8901Z" fill="#007AFF"/>
<path d="M196.965 86.7338L187.5 87.2494L187.473 86.9975L196.939 86.4795L196.965 86.7338Z" fill="#007AFF"/>
<path d="M197.046 87.5751L187.583 88.0884L187.557 87.8389L197.022 87.3232L197.046 87.5751Z" fill="#007AFF"/>
<path d="M197.129 88.4164L187.666 88.9321H187.664L187.64 88.6779L197.106 88.1646L197.129 88.4164Z" fill="#007AFF"/>
<path d="M197.213 89.2577L187.747 89.7734L187.723 89.5191L197.189 89.0034L197.213 89.2577Z" fill="#007AFF"/>
<path d="M197.293 90.0986L187.83 90.6143L187.806 90.3624L197.272 89.8467L197.293 90.0986Z" fill="#007AFF"/>
<path d="M197.377 90.9398L187.913 91.4555L187.887 91.2036L197.353 90.6855L197.377 90.9398Z" fill="#007AFF"/>
<path d="M197.46 91.7836L187.994 92.2969L187.97 92.045L197.436 91.5293L197.46 91.7836Z" fill="#007AFF"/>
<path d="M197.543 92.6249L188.077 93.1382L188.054 92.8863L197.52 92.3706L197.543 92.6249Z" fill="#007AFF"/>
<path d="M224.181 94.1029L214.715 94.6162L214.691 94.3643L224.157 93.8486L224.181 94.1029Z" fill="#007AFF"/>
<path d="M224.262 94.9418L214.798 95.4575H214.796L214.774 95.2056L224.238 94.6899L224.262 94.9418Z" fill="#007AFF"/>
<path d="M224.347 95.7831L214.879 96.2988L214.855 96.0493L224.321 95.5312L224.347 95.7831Z" fill="#007AFF"/>
<path d="M224.428 96.6245L214.962 97.1401L214.938 96.8882L224.404 96.3726L224.428 96.6245Z" fill="#007AFF"/>
<path d="M224.511 97.4682L215.046 97.9815L215.022 97.7296L224.485 97.2163L224.511 97.4682Z" fill="#007AFF"/>
<path d="M224.595 98.3095L215.129 98.8251L215.103 98.5709L224.568 98.0552L224.595 98.3095Z" fill="#007AFF"/>
<path d="M224.676 99.1503L215.212 99.6659L215.186 99.4117L224.652 98.896L224.676 99.1503Z" fill="#007AFF"/>
<path d="M224.759 99.9916L215.293 100.505L215.269 100.255L224.735 99.7373L224.759 99.9916Z" fill="#007AFF"/>
<path d="M224.842 100.833L215.376 101.346L215.352 101.097L224.816 100.581L224.842 100.833Z" fill="#007AFF"/>
<path d="M224.923 101.674L215.459 102.19L215.436 101.936L224.899 101.422L224.923 101.674Z" fill="#007AFF"/>
<path d="M225.006 102.516L215.54 103.031L215.516 102.779L224.982 102.264L225.006 102.516Z" fill="#007AFF"/>
<path d="M225.089 103.357L215.624 103.875L215.6 103.621L225.066 103.105L225.089 103.357Z" fill="#007AFF"/>
<path d="M225.173 104.198L215.709 104.711H215.707L215.683 104.462L225.146 103.946L225.173 104.198Z" fill="#007AFF"/>
<path d="M225.256 105.041L215.79 105.555L215.764 105.303L225.23 104.787L225.256 105.041Z" fill="#007AFF"/>
<path d="M225.337 105.88L215.873 106.396L215.847 106.144L225.313 105.631L225.337 105.88Z" fill="#007AFF"/>
<path d="M225.42 106.722L215.956 107.24H215.954L215.93 106.985L225.396 106.47L225.42 106.722Z" fill="#007AFF"/>
<path d="M225.503 107.563L216.037 108.081L216.014 107.827L225.479 107.311L225.503 107.563Z" fill="#007AFF"/>
<path d="M225.584 108.407L216.121 108.922L216.094 108.67L225.563 108.155L225.584 108.407Z" fill="#007AFF"/>
<path d="M225.667 109.248L216.201 109.761L216.178 109.509L225.643 108.994L225.667 109.248Z" fill="#007AFF"/>
<path d="M225.75 110.089L216.285 110.604L216.261 110.353L225.727 109.837L225.75 110.089Z" fill="#007AFF"/>
<path d="M225.834 110.93L216.368 111.446L216.344 111.194L225.81 110.678L225.834 110.93Z" fill="#007AFF"/>
<path d="M212.574 94.6019L203.111 95.1176L203.085 94.8657L212.551 94.3477L212.574 94.6019Z" fill="#007AFF"/>
<path d="M212.658 95.4432L203.194 95.9589H203.192L203.168 95.707L212.632 95.189L212.658 95.4432Z" fill="#007AFF"/>
<path d="M212.741 96.2846L203.275 96.7979L203.249 96.5484L212.715 96.0327L212.741 96.2846Z" fill="#007AFF"/>
<path d="M212.822 97.1259L203.358 97.6416L203.332 97.3873L212.798 96.874L212.822 97.1259Z" fill="#007AFF"/>
<path d="M212.905 97.9673L203.439 98.483L203.415 98.2311L212.879 97.7178L212.905 97.9673Z" fill="#007AFF"/>
<path d="M212.988 98.8085L203.522 99.3266L203.499 99.0723L212.964 98.5566L212.988 98.8085Z" fill="#007AFF"/>
<path d="M213.069 99.6517L203.606 100.165L203.582 99.9131L213.045 99.3975L213.069 99.6517Z" fill="#007AFF"/>
<path d="M213.152 100.493L203.687 101.006L203.665 100.757L213.129 100.239L213.152 100.493Z" fill="#007AFF"/>
<path d="M213.238 101.334L203.77 101.848L203.746 101.596L213.212 101.083L213.238 101.334Z" fill="#007AFF"/>
<path d="M213.319 102.173L203.853 102.691L203.829 102.437L213.293 101.921L213.319 102.173Z" fill="#007AFF"/>
<path d="M213.402 103.017L203.936 103.533L203.91 103.281L213.376 102.765L213.402 103.017Z" fill="#007AFF"/>
<path d="M213.485 103.858L204.02 104.374L203.993 104.122L213.459 103.606L213.485 103.858Z" fill="#007AFF"/>
<path d="M213.566 104.699L204.103 105.215L204.1 105.212L204.077 104.961L213.542 104.447L213.566 104.699Z" fill="#007AFF"/>
<path d="M213.649 105.543L204.184 106.056L204.157 105.804L213.626 105.289L213.649 105.543Z" fill="#007AFF"/>
<path d="M213.73 106.382L204.267 106.898L204.241 106.646L213.707 106.132L213.73 106.382Z" fill="#007AFF"/>
<path d="M213.814 107.223L204.35 107.741L204.348 107.739L204.326 107.487L213.79 106.971L213.814 107.223Z" fill="#007AFF"/>
<path d="M213.897 108.064L204.431 108.58L204.407 108.328L213.873 107.812L213.897 108.064Z" fill="#007AFF"/>
<path d="M213.98 108.908L204.514 109.424L204.49 109.17L213.956 108.656L213.98 108.908Z" fill="#007AFF"/>
<path d="M214.063 109.747L204.597 110.263L204.571 110.011L214.037 109.495L214.063 109.747Z" fill="#007AFF"/>
<path d="M214.144 110.591L204.681 111.106L204.655 110.854L214.12 110.336L214.144 110.591Z" fill="#007AFF"/>
<path d="M214.227 111.432L204.764 111.945L204.738 111.695L214.204 111.177L214.227 111.432Z" fill="#007AFF"/>
<path d="M144.753 66.8003L144.761 66.8036L145.32 67.0413L145.329 67.0452L145.338 67.0499C145.73 67.2554 146.474 67.5302 147.319 67.7725C148.161 68.014 149.08 68.2169 149.817 68.2864C150.187 68.3213 150.497 68.3209 150.722 68.2818C150.963 68.24 151.03 68.1687 151.045 68.1374C151.057 68.1118 151.081 68.0051 150.908 67.742C150.743 67.4909 150.436 67.1577 149.939 66.7287L144.753 66.8003ZM144.753 66.8003L144.745 66.7976M144.753 66.8003L144.745 66.7976M144.745 66.7976C144.501 66.7126 144.358 66.5479 144.292 66.3435M144.745 66.7976L144.292 66.3435M147.986 65.3262C147.205 64.868 146.42 64.5421 145.824 64.5484L147.986 65.3262ZM147.986 65.3262C148.756 65.7779 149.479 66.3321 149.939 66.7286L147.986 65.3262ZM144.292 66.3435C144.224 66.1313 144.235 65.8635 144.334 65.5919M144.292 66.3435L144.334 65.5919M144.334 65.5919C144.534 65.0493 145.061 64.5567 145.824 64.5484L144.334 65.5919Z" fill="white" stroke="#007AFF" stroke-width="0.5"/>
<path d="M150.654 69.5954L150.654 69.5954C151.267 70.0414 151.649 70.3871 151.858 70.6468C151.962 70.7767 152.012 70.8722 152.031 70.9366C152.049 70.9944 152.038 71.0132 152.037 71.0162L152.037 71.0164C152.032 71.0243 152.013 71.0518 151.941 71.0834C151.87 71.1147 151.765 71.1415 151.625 71.1586C151.343 71.1929 150.961 71.1838 150.511 71.1381C148.706 70.9549 146.032 70.2107 145.047 69.7645L145.047 69.7641L145.034 69.7592L144.357 69.4954L144.348 69.4922L144.34 69.4896C144.013 69.3882 143.831 69.2036 143.748 69.0016C143.662 68.7944 143.668 68.5375 143.777 68.2765C143.993 67.7578 144.614 67.253 145.582 67.2669C146.328 67.2814 147.302 67.6432 148.255 68.126C149.199 68.6045 150.089 69.1834 150.654 69.5954Z" fill="white" stroke="#007AFF" stroke-width="0.5"/>
<path d="M144.691 70.6738L144.691 70.6738L144.692 70.6736C144.872 70.5971 145.172 70.5706 145.57 70.6016C145.959 70.632 146.407 70.7142 146.861 70.8256C147.772 71.0492 148.67 71.3816 149.104 71.6143C149.589 71.8748 149.908 72.0995 150.103 72.288C150.302 72.481 150.336 72.6036 150.335 72.6628C150.334 72.7113 150.307 72.7854 150.17 72.8795C150.033 72.9734 149.825 73.06 149.555 73.1332C149.018 73.2787 148.308 73.3537 147.636 73.3707C146.973 73.3875 146.375 73.3472 146.038 73.2741L145.203 72.9395L145.163 72.9234L145.12 72.9217C144.944 72.915 144.761 72.8185 144.595 72.6349C144.43 72.4521 144.298 72.1996 144.23 71.9292C144.091 71.3733 144.231 70.8677 144.691 70.6738Z" fill="white" stroke="#007AFF" stroke-width="0.5"/>
<path d="M231.614 82.5586L231.614 82.5587C231.766 82.7034 231.953 82.9678 232.167 83.3416C232.377 83.7105 232.604 84.1683 232.839 84.6846C233.308 85.717 233.801 86.9693 234.251 88.1827C234.701 89.3954 235.106 90.5656 235.399 91.4323C235.546 91.8656 235.664 92.2229 235.746 92.4715C235.787 92.5958 235.819 92.693 235.84 92.7589L235.858 92.8155C235.819 93.367 235.385 94.1097 234.69 94.7024C233.985 95.304 233.073 95.6979 232.178 95.5827L232.178 95.5824L232.166 95.5814C230.95 95.4844 230.423 95.4313 229.997 95.1534C229.786 95.016 229.59 94.8148 229.35 94.4926C229.108 94.1687 228.835 93.7386 228.464 93.1519L228.464 93.1518C228.273 92.851 228.137 92.4765 227.985 92.063C227.955 91.9784 227.923 91.8922 227.89 91.8046C227.705 91.3085 227.483 90.776 227.11 90.379L227.109 90.3781C226.327 89.554 225.501 89.5472 224.551 89.5395C224.38 89.5381 224.205 89.5367 224.025 89.5305H224.025C223.868 89.525 223.654 89.5225 223.402 89.5195C222.575 89.5098 221.339 89.4951 220.343 89.356C220.021 89.311 219.732 89.2539 219.497 89.1823C219.257 89.1091 219.096 89.0278 219.009 88.9487C218.967 88.9115 218.95 88.8815 218.942 88.8604C218.936 88.8417 218.933 88.8176 218.942 88.7802C218.965 88.6932 219.056 88.5458 219.304 88.3367L219.305 88.3359C219.935 87.8013 220.992 87.5309 222.164 87.363C222.712 87.2844 223.272 87.2298 223.807 87.1775C223.837 87.1746 223.867 87.1717 223.897 87.1687C224.456 87.1141 224.989 87.0604 225.439 86.9825L225.398 86.4862C225.107 86.4838 224.554 86.5178 223.867 86.5601C223.684 86.5714 223.492 86.5833 223.292 86.5952C222.334 86.6524 221.195 86.7121 220.101 86.7205C219.004 86.729 217.968 86.6855 217.21 86.541C216.828 86.4684 216.538 86.374 216.349 86.2614C216.162 86.1506 216.113 86.0492 216.111 85.9621C216.11 85.8361 216.173 85.6976 216.352 85.5426C216.534 85.3858 216.811 85.235 217.171 85.0935C217.891 84.8111 218.878 84.5908 219.924 84.4125C220.936 84.2399 221.987 84.1092 222.878 83.9984L222.957 83.9887C223.41 83.9324 223.82 83.881 224.157 83.8318C224.489 83.7833 224.766 83.7349 224.944 83.6822L224.907 83.1948C224.771 83.1763 224.532 83.1774 224.242 83.1856C223.945 83.1941 223.569 83.2113 223.146 83.2307L223.129 83.2315C222.285 83.2703 221.251 83.3178 220.244 83.3253C219.227 83.3328 218.251 83.2993 217.532 83.1789C217.17 83.1183 216.893 83.0387 216.711 82.9433C216.549 82.858 216.507 82.786 216.498 82.739C216.551 82.4648 216.815 82.1977 217.333 81.9547C217.855 81.7105 218.56 81.5262 219.333 81.387C220.728 81.1359 222.287 81.041 223.259 80.9818C223.363 80.9755 223.46 80.9695 223.549 80.9639C224.702 80.8957 226.316 80.9002 227.851 81.1242C229.399 81.3502 230.812 81.7923 231.614 82.5586ZM235.867 92.7732C235.926 92.6975 235.997 92.6597 236.065 92.6437C236.074 92.6689 236.081 92.6908 236.087 92.7093C236.099 92.7453 236.106 92.7683 236.109 92.7774L235.867 92.7732Z" fill="white" stroke="#007AFF" stroke-width="0.5"/>
<path d="M135.583 84.0796C135.583 84.3172 135.583 84.5549 135.561 84.7925C135.54 85.2678 135.497 85.7431 135.43 86.2183C135.285 87.3101 135.015 88.3817 134.626 89.4122C134.458 89.8507 134.262 90.2784 134.041 90.6931C133.812 91.1243 133.549 91.5374 133.256 91.9288H125.139C124.422 90.9483 123.874 89.8541 123.52 88.6922C123.049 87.1996 122.809 85.6444 122.806 84.0796H135.583Z" fill="#616161"/>
<path d="M138.553 88.5374C137.319 89.0484 134.698 89.564 135.173 91.1871C135.345 91.7788 134.32 92.0307 134.146 91.4248C134.07 91.1844 134.034 90.933 134.041 90.6809C134.047 90.4389 134.101 90.2005 134.202 89.9803C134.303 89.7601 134.447 89.5627 134.626 89.4001C135.564 88.4804 137.423 88.074 138.61 87.4324C139.264 87.0736 139.709 86.6482 139.821 85.9424C139.918 85.334 139.566 84.9063 138.869 84.8659C137.652 84.7994 136.253 85.2366 135.506 86.1373C135.487 86.1625 135.464 86.1856 135.44 86.2062C135.012 86.5745 134.201 86.1278 134.586 85.6572C134.868 85.3198 135.2 85.0273 135.571 84.7898C136.383 84.2608 137.323 83.9588 138.292 83.9153C139.464 83.8631 140.841 84.2932 140.908 85.517C140.981 86.9856 139.949 87.96 138.553 88.5374Z" fill="white"/>
<path d="M140.898 85.5292C140.832 84.3054 139.454 83.8657 138.282 83.9275C137.313 83.971 136.374 84.273 135.561 84.802C135.573 84.5644 135.583 84.3268 135.583 84.0891H131.801C131.741 85.2583 131.428 86.3467 130.866 87.0572C129.187 89.1746 126.157 89.3172 123.52 88.7017C123.874 89.8637 124.422 90.9578 125.139 91.9384H133.256C133.549 91.547 133.812 91.1339 134.041 90.7026C134.034 90.9547 134.07 91.2061 134.146 91.4464C134.32 92.0405 135.335 91.7887 135.173 91.2088C134.698 89.5857 137.314 89.0701 138.553 88.5591C139.949 87.9603 140.981 86.986 140.898 85.5292ZM139.821 85.9641C139.709 86.677 139.264 87.0953 138.61 87.4541C137.421 88.0957 135.563 88.5021 134.626 89.4218C135.015 88.3912 135.285 87.3196 135.43 86.2279C135.455 86.2073 135.477 86.1842 135.497 86.159C136.241 85.2583 137.637 84.821 138.86 84.8876C139.566 84.9185 139.918 85.3462 139.821 85.9641Z" fill="#7A7979"/>
<path d="M132.831 91.4629H125.934V93.0979H132.831V91.4629Z" fill="#616161"/>
<path d="M89.9777 193.137H86.0605L82.0269 97.6724H92.777L89.9777 193.137Z" fill="#007AFF"/>
<path d="M90.275 207.987C93.3454 193.517 85.2448 160.763 85.2448 160.763C84.2673 170.801 82.2005 184.584 73.8953 191.713C69.9805 195.074 66.8744 197.97 61.9845 199.206C59.1305 199.919 56.9448 199.567 55.2276 202.357C54.4547 203.612 54.0979 206.007 54.0385 207.985L90.275 207.987Z" fill="#007AFF"/>
<path d="M90.275 207.987C84.0913 188.185 90.6317 163.43 90.6317 163.43C91.6092 173.456 93.2955 184.58 101.61 191.709C105.525 195.069 108.631 197.966 113.521 199.202C116.375 199.915 118.561 199.563 120.278 202.353C121.048 203.607 121.408 206.003 121.467 207.98L90.275 207.987Z" fill="#007AFF"/>
<path d="M106.241 202.36C105.173 199.57 103.805 199.926 102.038 199.209C98.9965 197.973 97.0652 195.076 94.6322 191.716C91.9803 188.059 90.4154 183.353 89.4355 178.282H87.6898C87.6042 189.722 87.5162 204.202 87.5923 207.987H106.995C106.954 206.01 106.717 203.615 106.241 202.36Z" fill="#007AFF"/>
<path d="M150.071 94.6592H25.4221V104.942H150.071V94.6592Z" fill="#007AFF"/>
<path d="M156.933 96.9785C156.935 97.6472 156.818 98.3111 156.588 98.939H18.9079C18.6777 98.3111 18.5609 97.6472 18.563 96.9785C18.563 94.6021 19.971 92.6582 21.7072 92.6582H153.789C155.525 92.6582 156.933 94.5926 156.933 96.9785Z" fill="#007AFF"/>
<path d="M100.899 96.9785C100.901 97.6472 100.784 98.3111 100.554 98.939H18.9079C18.6777 98.3111 18.5609 97.6472 18.563 96.9785C18.563 94.6021 19.971 92.6582 21.7072 92.6582H97.7549C99.4887 92.6582 100.899 94.5926 100.899 96.9785Z" fill="#007AFF"/>
</svg>
