<svg width="20" height="20" viewBox="0 0 20 20" fill="none" xmlns="http://www.w3.org/2000/svg">
<rect width="20" height="20" rx="3" fill="#007AFF"/>
<path d="M8.24933 10.4C7.9409 10.3998 7.6903 10.251 7.51408 10.016C7.34118 9.78546 7.26615 9.51219 7.26667 9.22151L7.66667 9.22222H7.26667C7.26667 8.93146 7.34182 8.65813 7.51467 8.42767C7.69089 8.1927 7.94173 8.04366 8.25067 8.04444M8.24933 10.4C8.55827 10.4008 8.80911 10.2517 8.98533 10.0168C9.15818 9.78631 9.23333 9.51299 9.23333 9.22222H8.83333M8.24933 10.4C8.24914 10.4 8.24894 10.4 8.24874 10.4L8.25 10V10.4C8.24978 10.4 8.24956 10.4 8.24933 10.4ZM8.25067 8.04444C8.5591 8.04466 8.8097 8.19349 8.98592 8.42844C9.15882 8.65898 9.23385 8.93226 9.23333 9.22293L8.83333 9.22222M8.25067 8.04444C8.25044 8.04444 8.25022 8.04444 8.25 8.04444V8.44444M8.25067 8.04444C8.25086 8.04444 8.25106 8.04445 8.25126 8.04445L8.25 8.44444M8.83333 9.22222C8.83372 9.00237 8.77792 8.81778 8.66592 8.66844C8.55392 8.51911 8.41528 8.44444 8.25 8.44444M8.83333 9.22222L8.25 8.44444M3.76667 15.4444V15.8444H4.16667H4.225H4.49085L4.59379 15.5993C4.97961 14.6807 5.50424 13.9792 6.15993 13.4769C6.81573 12.9744 7.50922 12.7329 8.24975 12.7333H8.25C8.99062 12.7333 9.68421 12.9752 10.3401 13.4776C10.9958 13.98 11.5204 14.6813 11.9062 15.5994L12.0092 15.8444H12.275H15.8333H16.2333V15.4444V4.55556V4.15556H15.8333H4.16667H3.76667V4.55556V15.4444ZM13.0244 11.6526L13.1002 11.9556H13.4125H14.1411L14.7735 13.0798L14.0599 14.0313C13.7163 13.5942 13.4247 13.0698 13.188 12.453C12.8847 11.6622 12.7333 10.8454 12.7333 10C12.7333 9.15515 12.8847 8.33856 13.188 7.54782C13.4247 6.93093 13.7163 6.40627 14.06 5.96887L14.7735 6.92017L14.1411 8.04444H13.4125H13.0924L13.0222 8.35681C12.962 8.62507 12.9117 8.89015 12.8713 9.15201C12.8291 9.42593 12.8083 9.70871 12.8083 10C12.8083 10.2909 12.8292 10.5791 12.8709 10.8644C12.9115 11.1421 12.9625 11.4049 13.0244 11.6526ZM5.32506 15.2171L4.89169 15.8444H5.65417H10.8458H11.596L11.178 15.2216C10.8188 14.6863 10.3863 14.2605 9.87786 13.9545C9.36755 13.6474 8.82293 13.4889 8.25 13.4889C7.67664 13.4889 7.13367 13.6474 6.62744 13.9555C6.12585 14.2609 5.69268 14.6849 5.32506 15.2171ZM3.4 16.6V3.4H16.6V16.6H3.4ZM9.16958 10.635C8.89057 11.007 8.58817 11.1556 8.25 11.1556C7.91183 11.1556 7.60943 11.007 7.33042 10.635C7.04931 10.2602 6.9 9.79673 6.9 9.22222C6.9 8.64772 7.04931 8.18425 7.33042 7.80944C7.60943 7.43742 7.91183 7.28889 8.25 7.28889C8.58817 7.28889 8.89057 7.43742 9.16958 7.80944C9.45069 8.18425 9.6 8.64772 9.6 9.22222C9.6 9.79673 9.45069 10.2602 9.16958 10.635Z" stroke="white" stroke-width="0.8"/>
</svg>
