<svg width="259" height="210" viewBox="0 0 259 210" fill="none" xmlns="http://www.w3.org/2000/svg">
<path d="M169.001 39.9605V72.7009C169.029 75.5104 169.703 78.1876 170.877 80.1529C172.051 82.1181 173.629 83.2132 175.271 83.2011H243.866C244.691 83.204 245.507 82.9286 246.27 82.3907C247.032 81.8527 247.725 81.0628 248.308 80.0661C248.892 79.0694 249.355 77.8855 249.671 76.5822C249.987 75.2789 250.15 73.8817 250.15 72.4707V44.8021L258.69 29.4455L175.28 29C174.446 29.0047 173.62 29.293 172.851 29.8482C172.082 30.4034 171.386 31.2143 170.802 32.234C170.217 33.2537 169.757 34.4618 169.448 35.7882C169.139 37.1145 168.987 38.5327 169.001 39.9605Z" fill="#F5F5F5"/>
<path d="M240.021 48.842L177.758 48.3519L177.762 45.0771L240.03 45.5673L240.021 48.842Z" fill="#E0E0E0"/>
<path d="M240.021 59.6165L177.758 59.1264L177.762 55.8516L240.03 56.3417L240.021 59.6165Z" fill="#E0E0E0"/>
<path d="M215.386 66.632L215.377 69.9067L240.012 70.1128L240.021 66.838L215.386 66.632Z" fill="#E0E0E0"/>
<path d="M40.14 195.32C49.7347 183.847 51.9088 162.557 51.5312 143.413C51.4662 140.22 51.6701 136.849 50.7849 134.049C49.8996 131.25 47.8253 129.326 46.1503 130.678C44.766 131.792 44.1628 134.554 43.386 136.834C42.3501 139.879 40.8322 142.361 39.0074 143.992C37.8184 145.047 36.3473 145.693 35.1756 144.587C33.5614 143.064 33.3748 139.255 33.3834 136.077L33.4485 118.314C33.4485 115.136 33.4485 111.891 32.8887 108.876C32.3289 105.861 31.0358 103.061 29.2696 102.193C27.5034 101.324 25.3206 103.084 24.9301 106.195C24.7738 107.487 24.9301 108.831 24.8737 110.153C24.8172 111.475 24.4657 112.93 23.7324 113.302C22.999 113.673 22.2483 112.774 21.6928 111.816C19.7747 108.608 18.4772 104.48 17.2622 100.366C16.0471 96.2519 14.8668 92.0489 13.1266 88.5513C11.3865 85.0537 8.98239 82.2765 6.32227 82.0166C3.66215 81.7567 0.828452 84.5711 0.160168 89.0414C-0.508116 93.5118 1.02807 98.0638 2.67274 101.665C5.13738 107.056 8.04456 111.808 11.304 115.774C11.8899 116.517 12.5234 117.26 12.7491 118.425C13.1483 120.549 11.9766 122.651 10.7572 123.349C9.37294 124.136 7.86713 123.891 6.41774 124.18C4.96834 124.47 3.38008 125.569 2.855 127.893C2.09125 131.138 3.67951 134.577 5.24173 136.804C8.37131 141.274 11.9265 144.791 15.752 147.2C17.1146 148.054 18.5553 148.804 19.6576 150.446C20.7598 152.087 21.4237 154.946 20.7598 157.181C20.0959 159.416 18.3861 160.151 16.9541 159.683C15.522 159.215 14.2462 157.901 12.8793 157.025C10.3276 155.376 7.03395 155.673 5.39796 159.453C4.3261 161.933 4.23063 165.394 4.77307 168.364C5.3155 171.334 6.41774 173.867 7.58941 176.213C11.6772 184.426 16.915 191.065 22.8341 194.547C28.7532 198.03 34.2383 199.003 40.1227 195.335" fill="#F5F5F5"/>
<path d="M40.2832 209.503C39.7632 200.629 38.7459 191.86 37.2455 183.319C35.3904 172.893 33.1852 162.658 30.6408 152.666C29.9783 149.997 29.3216 147.368 28.6706 144.779C28.0197 142.195 27.3688 139.633 26.6528 137.19C25.2631 132.511 23.7231 127.967 22.0399 123.579C20.4473 119.368 18.8503 115.47 17.3359 111.846C15.8214 108.222 14.372 104.903 12.9964 101.962C10.805 97.3081 8.40058 92.9601 5.80579 88.9595C4.89015 87.5412 4.15678 86.4793 3.63604 85.7738L3.0502 84.9644C2.98876 84.869 2.92189 84.7844 2.85059 84.7119C2.90504 84.8191 2.96454 84.9184 3.0285 85.0089L3.57962 85.8555C4.06565 86.5981 4.78601 87.6748 5.68428 89.1154C8.23766 93.1716 10.6094 97.5503 12.7794 102.215C14.1593 105.185 15.5957 108.489 17.0972 112.121C18.5987 115.752 20.1869 119.65 21.7665 123.861C23.4377 128.242 24.9675 132.776 26.349 137.443C27.065 139.871 27.7029 142.411 28.3539 145.002L30.324 152.881C32.8616 162.855 35.071 173.064 36.9417 183.46C38.4477 191.966 39.4836 200.695 40.0358 209.533" fill="#E0E0E0"/>
<path d="M33.7788 155.967C33.8702 155.53 33.9314 155.077 33.9611 154.615C34.0609 153.739 34.1737 152.454 34.3039 150.902C34.5686 147.739 34.842 143.35 35.1371 138.509C35.4322 133.667 35.7403 129.293 36.031 126.145C36.1742 124.571 36.2957 123.301 36.3868 122.432C36.4514 121.982 36.4864 121.521 36.491 121.058C36.3848 121.485 36.3062 121.931 36.2567 122.387C36.1265 123.249 35.9659 124.519 35.7923 126.1C35.4408 129.241 35.0893 133.623 34.7986 138.479L34.0652 150.88C33.9741 152.365 33.8916 153.628 33.8309 154.638C33.7869 155.077 33.7695 155.522 33.7788 155.967Z" fill="#E0E0E0"/>
<path d="M2.68555 129.52C2.99763 129.64 3.31608 129.704 3.6359 129.713C4.24777 129.809 5.13737 129.936 6.2396 130.151C8.40935 130.559 11.447 131.295 14.7364 132.379C18.0257 133.463 20.9983 134.644 23.1246 135.609C24.1878 136.084 25.047 136.5 25.6415 136.79C25.9437 136.966 26.2545 137.095 26.5702 137.176C26.2924 136.928 26.0019 136.724 25.7023 136.567C25.1165 136.218 24.2703 135.735 23.2071 135.208C21.0937 134.139 18.1298 132.876 14.8188 131.8C11.9974 130.868 9.14981 130.186 6.28734 129.758C5.18944 129.594 4.2955 129.527 3.68363 129.512C3.35158 129.46 3.01732 129.462 2.68555 129.52Z" fill="#E0E0E0"/>
<path d="M44.1804 201.369C44.2456 201.214 44.2995 201.047 44.341 200.871C44.4538 200.47 44.5883 199.98 44.7489 199.386C45.1004 198.094 45.5821 196.215 46.1549 193.868C47.3092 189.19 48.7803 182.641 50.3469 175.378C51.9134 168.116 53.3498 161.544 54.4434 156.814L55.7452 151.237C55.8841 150.628 55.9969 150.123 56.0924 149.752C56.1433 149.579 56.1771 149.394 56.1922 149.202C56.1266 149.358 56.0726 149.528 56.0316 149.707C55.9188 150.101 55.7843 150.591 55.6237 151.192C55.2722 152.484 54.7905 154.363 54.2177 156.71C53.0634 161.388 51.5923 167.937 50.0257 175.207C48.4592 182.477 47.0228 189.034 45.9292 193.772C45.3911 196.066 44.9529 197.953 44.6274 199.349C44.4885 199.958 44.3757 200.463 44.2802 200.871C44.2328 201.028 44.1992 201.195 44.1804 201.369Z" fill="#E0E0E0"/>
<path d="M5.21997 165.074C5.32041 165.167 5.4267 165.239 5.53676 165.29L6.45673 165.824L9.85456 167.703C12.723 169.3 16.6676 171.572 21.0288 174.097C25.39 176.621 29.352 178.842 32.2421 180.334C33.6828 181.077 34.8458 181.664 35.6703 182.035L36.612 182.458C36.7205 182.517 36.8326 182.554 36.9461 182.569C36.8466 182.472 36.7401 182.397 36.6293 182.347L35.7093 181.819L32.3115 179.933C29.4431 178.344 25.4941 176.064 21.1373 173.54C16.7804 171.015 12.8141 168.795 9.92399 167.302C8.48328 166.559 7.32029 165.973 6.49579 165.601L5.56713 165.163C5.45482 165.103 5.33769 165.073 5.21997 165.074Z" fill="#E0E0E0"/>
<path d="M69.4972 8.32438V33.6984C69.4972 35.9029 68.9857 38.0172 68.0752 39.5767C67.1647 41.1362 65.9296 42.0134 64.6413 42.0153H11.4737C10.1854 42.0134 8.95028 41.1362 8.03974 39.5767C7.12921 38.0172 6.61775 35.9029 6.61775 33.6984V12.2601L0 0.378743L64.6283 2.9901e-05C65.2678 -0.00290576 65.9013 0.210352 66.4926 0.627558C67.0838 1.04476 67.621 1.6577 68.0734 2.43118C68.5258 3.20465 68.8845 4.12343 69.1288 5.13475C69.3732 6.14608 69.4983 7.23003 69.4972 8.32438Z" fill="#E0E0E0"/>
<path d="M14.4548 15.3856L62.7014 15.0069L62.6971 12.4673L14.4504 12.8534L14.4548 15.3856Z" fill="#FAFAFA"/>
<path d="M14.4548 23.7406L62.7014 23.3545L62.6971 20.8223L14.4504 21.201L14.4548 23.7406Z" fill="#FAFAFA"/>
<path d="M33.5331 29.1826L14.4438 29.3423L14.4511 31.8819L33.5404 31.7223L33.5331 29.1826Z" fill="#FAFAFA"/>
<path d="M46 78.1579L46 180.025C46 182.79 48.244 185.031 51.0121 185.031H201.723C204.491 185.031 206.735 182.79 206.735 180.025V78.1579C206.735 75.3928 204.491 73.1513 201.723 73.1513L51.0121 73.1513C48.244 73.1513 46 75.3928 46 78.1579Z" fill="#007AFF"/>
<path d="M57.0007 76.68L57.0007 181.507H191.235V76.68L57.0007 76.68Z" fill="white"/>
<path d="M202.858 130.089C203.401 127.781 201.969 125.471 199.659 124.929C197.35 124.386 195.037 125.817 194.494 128.124C193.951 130.431 195.383 132.741 197.693 133.284C200.003 133.826 202.315 132.396 202.858 130.089Z" fill="white"/>
<path d="M50.626 112.775V145.416C50.626 145.708 50.863 145.945 51.1554 145.945H51.8714C52.1638 145.945 52.4008 145.708 52.4008 145.416V112.775C52.4008 112.483 52.1638 112.246 51.8714 112.246H51.1554C50.863 112.246 50.626 112.483 50.626 112.775Z" fill="white"/>
<path d="M95.0742 138.185C98.3667 133.188 96.9802 126.47 91.9773 123.181C86.9743 119.893 80.2494 121.278 76.9569 126.275C73.6643 131.272 75.0508 137.99 80.0538 141.279C85.0567 144.568 91.7816 143.183 95.0742 138.185Z" fill="#007AFF"/>
<path d="M82.2566 129.512C82.6645 129.477 83.0377 129.945 83.0898 130.526C83.1419 131.107 82.8424 131.623 82.4302 131.657C82.0179 131.692 81.6491 131.224 81.6013 130.647C81.5536 130.071 81.8617 129.546 82.2566 129.512Z" fill="white"/>
<path d="M89.1651 129.369C88.7572 129.369 88.4013 129.802 88.3753 130.418C88.3492 131.033 88.666 131.506 89.0783 131.523C89.4905 131.54 89.8464 131.09 89.8681 130.478C89.8898 129.867 89.5773 129.386 89.1651 129.369Z" fill="white"/>
<path d="M90.3498 134.393C90.3498 134.518 88.3276 134.623 85.8368 134.623C83.3459 134.623 81.3193 134.518 81.3193 134.393C81.3193 134.267 83.3415 134.159 85.8368 134.159C88.332 134.159 90.3498 134.258 90.3498 134.393Z" fill="white"/>
<path d="M83.1244 128.268C83.0984 128.398 82.582 128.393 81.9788 128.489C81.3756 128.584 80.8852 128.74 80.8201 128.627C80.755 128.515 81.2107 128.142 81.9094 128.033C82.608 127.925 83.1244 128.146 83.1244 128.268Z" fill="white"/>
<path d="M91.1221 128.792C91.044 128.896 90.5753 128.654 89.9721 128.472C89.3689 128.29 88.8482 128.225 88.8352 128.09C88.8222 127.956 89.4123 127.813 90.1066 128.029C90.801 128.246 91.2045 128.701 91.1221 128.792Z" fill="white"/>
<path d="M175.627 133.115C176.604 126.992 172.426 121.237 166.296 120.262C160.166 119.287 154.405 123.46 153.429 129.583C152.452 135.706 156.63 141.461 162.76 142.436C168.89 143.412 174.651 139.238 175.627 133.115Z" fill="#007AFF"/>
<path d="M160.641 128.515C161.075 128.48 161.457 128.948 161.509 129.564C161.561 130.18 161.257 130.704 160.832 130.739C160.407 130.773 160.016 130.305 159.964 129.69C159.912 129.074 160.216 128.55 160.641 128.515Z" fill="white"/>
<path d="M167.788 128.368C167.354 128.368 166.994 128.836 166.968 129.451C166.942 130.067 167.272 130.578 167.697 130.596C168.122 130.613 168.491 130.128 168.517 129.512C168.543 128.897 168.218 128.385 167.788 128.368Z" fill="white"/>
<path d="M169.016 133.569C168.969 133.63 168.5 133.296 167.714 132.884C166.682 132.345 165.534 132.063 164.369 132.061C163.202 132.112 162.059 132.407 161.014 132.927C160.198 133.326 159.712 133.63 159.673 133.569C159.634 133.508 160.06 133.136 160.862 132.641C161.921 132.002 163.124 131.643 164.36 131.597C165.603 131.593 166.821 131.94 167.875 132.598C168.652 133.092 169.047 133.526 169.016 133.569Z" fill="white"/>
<path d="M161.5 127.223C161.539 127.271 161.466 127.414 161.279 127.574C161.034 127.795 160.734 127.944 160.411 128.008C160.082 128.07 159.742 128.033 159.435 127.899C159.205 127.795 159.101 127.674 159.127 127.618C159.153 127.561 159.713 127.674 160.329 127.552C160.945 127.431 161.418 127.119 161.5 127.223Z" fill="white"/>
<path d="M169.819 127.769C169.819 127.826 169.715 127.934 169.463 128.012C169.132 128.106 168.78 128.093 168.457 127.977C168.139 127.865 167.854 127.676 167.628 127.427C167.463 127.236 167.402 127.084 167.445 127.041C167.489 126.998 167.997 127.327 168.604 127.539C169.212 127.752 169.776 127.639 169.819 127.769Z" fill="white"/>
<path d="M142.984 162.512L145.587 161.221L148.126 162.634L147.701 159.76L149.831 157.783L146.967 157.298L145.744 154.667L144.394 157.237L141.508 157.588L143.539 159.66L142.984 162.512Z" fill="#0072EF"/>
<path d="M132.356 162.512L134.964 161.221L137.503 162.634L137.077 159.76L139.208 157.783L136.344 157.298L135.12 154.667L133.771 157.237L130.885 157.588L132.916 159.66L132.356 162.512Z" fill="#0072EF"/>
<path d="M121.733 162.512L124.337 161.221L126.88 162.634L126.454 159.76L128.585 157.783L125.721 157.298L124.493 154.667L123.148 157.237L120.262 157.588L122.293 159.66L121.733 162.512Z" fill="#0072EF"/>
<path d="M111.11 162.512L113.718 161.221L116.257 162.634L115.831 159.76L117.962 157.783L115.098 157.298L113.87 154.667L112.525 157.237L109.639 157.588L111.67 159.66L111.11 162.512Z" fill="#0072EF"/>
<path d="M100.487 162.512L103.095 161.221L105.633 162.634L105.208 159.76L107.339 157.783L104.475 157.298L103.247 154.667L101.901 157.237L99.0156 157.588L101.047 159.66L100.487 162.512Z" fill="#0072EF"/>
<path d="M149.953 98.6352C149.953 98.7002 138.297 98.7522 123.916 98.7522C109.535 98.7522 97.8789 98.7002 97.8789 98.6352C97.8789 98.5701 109.53 98.5225 123.916 98.5225C138.301 98.5225 149.953 98.5745 149.953 98.6352Z" fill="#007AFF"/>
<path d="M137.151 95.5145C137.151 95.5795 131.397 95.6315 124.298 95.6315C117.198 95.6315 111.44 95.5795 111.44 95.5145C111.44 95.4495 117.194 95.3975 124.298 95.3975C131.401 95.3975 137.151 95.4495 137.151 95.5145Z" fill="#007AFF"/>
<path d="M140.246 133.311C142.754 125.536 138.477 117.202 130.694 114.697C122.911 112.192 114.568 116.464 112.06 124.238C109.552 132.013 113.829 140.347 121.612 142.852C129.395 145.357 137.738 141.085 140.246 133.311Z" fill="#007AFF"/>
<path d="M121.034 125.029C121.594 124.986 122.102 125.602 122.171 126.412C122.241 127.223 121.837 127.912 121.277 127.96C120.718 128.007 120.206 127.388 120.14 126.581C120.075 125.775 120.475 125.077 121.034 125.029Z" fill="white"/>
<path d="M130.447 124.856C129.887 124.83 129.401 125.472 129.371 126.282C129.34 127.093 129.766 127.769 130.325 127.791C130.885 127.813 131.371 127.175 131.406 126.365C131.441 125.554 131.011 124.856 130.447 124.856Z" fill="white"/>
<path d="M132.061 129.69C132.087 129.716 131.966 129.867 131.727 130.123C131.387 130.489 131.015 130.824 130.616 131.124C130.018 131.572 129.359 131.932 128.659 132.195C127.792 132.52 126.868 132.668 125.942 132.629C125.024 132.58 124.121 132.371 123.274 132.013C122.587 131.735 121.928 131.391 121.308 130.986C120.258 130.284 119.702 129.737 119.733 129.685C119.763 129.633 120.41 130.075 121.468 130.691C122.093 131.046 122.744 131.352 123.417 131.606C124.229 131.921 125.086 132.107 125.955 132.156C126.822 132.193 127.687 132.068 128.507 131.788C129.18 131.554 129.823 131.239 130.421 130.851C130.924 130.505 131.332 130.214 131.597 129.984C131.862 129.755 132.039 129.668 132.061 129.69Z" fill="white"/>
<path d="M121.998 122.35C121.965 122.513 121.066 122.453 119.996 122.621C118.927 122.789 118.089 123.109 118.006 122.963C117.923 122.816 118.717 122.231 119.908 122.052C121.099 121.873 122.053 122.199 121.998 122.35Z" fill="white"/>
<path d="M133.623 123.394C133.541 123.498 132.916 123.125 132.074 122.874C131.232 122.622 130.508 122.57 130.503 122.44C130.499 122.31 131.28 122.146 132.213 122.44C133.146 122.735 133.706 123.303 133.623 123.394Z" fill="white"/>
<path d="M119.976 128.627C120.032 128.627 120.127 128.77 120.141 129.061C120.147 129.428 120.035 129.787 119.819 130.084C119.609 130.388 119.304 130.613 118.951 130.725C118.682 130.803 118.518 130.764 118.496 130.725C118.496 130.595 119.043 130.405 119.433 129.833C119.824 129.26 119.845 128.649 119.976 128.627Z" fill="#007AFF"/>
<path d="M133.315 129.989C133.315 130.045 133.202 130.136 132.972 130.154C132.67 130.167 132.372 130.075 132.131 129.893C131.883 129.715 131.707 129.456 131.632 129.161C131.584 128.935 131.632 128.792 131.692 128.788C131.822 128.788 131.97 129.222 132.404 129.521C132.838 129.82 133.285 129.859 133.315 129.989Z" fill="#007AFF"/>
<path d="M144.246 128.627C144.246 128.627 144.246 128.528 144.22 128.328L144.164 127.461C144.164 127.271 144.142 127.054 144.129 126.82C144.116 126.586 144.051 126.33 144.012 126.053C143.973 125.775 143.921 125.476 143.869 125.16C143.806 124.82 143.727 124.485 143.63 124.154C143.2 122.436 142.513 120.794 141.591 119.282C140.387 117.265 138.806 115.499 136.934 114.08L136.14 113.495C135.862 113.313 135.572 113.144 135.272 112.966C134.973 112.788 134.695 112.593 134.378 112.45L133.428 111.995L132.946 111.765L132.439 111.583L131.406 111.206C131.059 111.089 130.69 111.015 130.33 110.92C129.967 110.812 129.597 110.728 129.223 110.668C128.459 110.526 127.686 110.436 126.91 110.4C126.515 110.4 126.116 110.348 125.717 110.356L124.506 110.417C124.302 110.417 124.098 110.417 123.894 110.456L123.282 110.551C122.879 110.616 122.462 110.664 122.054 110.751C121.226 110.933 120.411 111.172 119.615 111.466C118.797 111.76 118 112.109 117.229 112.511C116.842 112.723 116.474 112.966 116.092 113.191C115.905 113.313 115.705 113.412 115.528 113.547L114.989 113.95C114.26 114.491 113.568 115.079 112.915 115.71L111.987 116.733L111.752 116.993L111.54 117.27L111.106 117.829L110.672 118.389L110.303 118.991L109.934 119.598L109.752 119.902L109.595 120.218L108.975 121.518L108.48 122.871C107.222 126.61 107.222 130.658 108.48 134.397C108.649 134.83 108.814 135.299 108.979 135.749C109.144 136.2 109.391 136.616 109.6 137.05L109.756 137.371L109.938 137.674L110.307 138.277L110.676 138.879L111.11 139.443L111.544 140.002L111.752 140.279L111.987 140.535L112.915 141.558C113.567 142.191 114.26 142.78 114.989 143.322L115.532 143.721C115.71 143.86 115.909 143.959 116.096 144.081C116.478 144.306 116.847 144.549 117.233 144.761C118.76 145.551 120.382 146.142 122.058 146.521C122.466 146.608 122.883 146.656 123.291 146.721L123.898 146.816C124.102 146.842 124.306 146.842 124.51 146.855L125.721 146.916C126.12 146.916 126.52 146.885 126.914 146.872C127.691 146.836 128.463 146.746 129.227 146.604C129.601 146.542 129.971 146.458 130.334 146.352C130.698 146.257 131.063 146.179 131.414 146.066L132.443 145.689L132.951 145.507L133.432 145.277L134.383 144.822C134.689 144.666 134.988 144.493 135.277 144.306C135.567 144.128 135.862 143.959 136.145 143.777L136.934 143.188C138.808 141.769 140.39 140.003 141.595 137.986C142.517 136.467 143.203 134.817 143.63 133.092C143.727 132.763 143.806 132.428 143.869 132.091C143.921 131.774 143.969 131.475 144.012 131.198C144.055 130.92 144.103 130.665 144.129 130.431C144.155 130.197 144.155 129.997 144.164 129.789C144.19 129.412 144.207 129.122 144.22 128.922C144.233 128.723 144.246 128.623 144.246 128.623C144.246 128.623 144.246 128.723 144.246 128.922C144.246 129.122 144.225 129.416 144.212 129.789C144.212 129.984 144.212 130.223 144.186 130.435C144.16 130.647 144.116 130.929 144.081 131.207C144.047 131.484 143.995 131.787 143.947 132.108C143.887 132.447 143.81 132.783 143.717 133.114C143.304 134.85 142.627 136.512 141.708 138.042C140.505 140.078 138.92 141.862 137.038 143.296L136.24 143.894C135.962 144.081 135.667 144.25 135.372 144.432C135.077 144.614 134.791 144.809 134.469 144.952L133.515 145.416L133.029 145.663L132.517 145.849L131.48 146.231C131.124 146.352 130.755 146.426 130.39 146.526C130.023 146.635 129.649 146.721 129.271 146.786C128.498 146.93 127.717 147.021 126.932 147.059C126.537 147.059 126.133 147.115 125.73 147.111L124.506 147.05C124.298 147.05 124.072 147.05 123.885 147.011L123.269 146.916C122.857 146.851 122.436 146.803 122.024 146.716C121.186 146.53 120.361 146.289 119.555 145.997C118.728 145.7 117.922 145.348 117.142 144.943C116.747 144.731 116.374 144.484 115.988 144.254C115.79 144.145 115.599 144.025 115.415 143.894L114.868 143.487C114.129 142.942 113.427 142.348 112.768 141.71L111.826 140.674L111.587 140.414L111.375 140.132L110.941 139.568L110.507 138.996L110.134 138.389L109.76 137.778L109.574 137.47L109.418 137.145L108.788 135.845C108.619 135.39 108.454 134.93 108.285 134.475C107.012 130.689 107.012 126.592 108.285 122.806L108.788 121.436L109.418 120.136L109.578 119.81L109.765 119.503L110.138 118.891L110.511 118.285L110.945 117.717L111.379 117.149L111.592 116.867L111.826 116.607C112.143 116.265 112.455 115.918 112.768 115.575C113.429 114.937 114.13 114.342 114.868 113.794L115.415 113.386C115.597 113.252 115.797 113.148 115.988 113.027C116.374 112.801 116.751 112.554 117.142 112.342C117.922 111.937 118.728 111.585 119.555 111.288C120.361 110.996 121.186 110.755 122.024 110.569C122.436 110.482 122.857 110.434 123.269 110.369L123.885 110.274C124.089 110.248 124.298 110.248 124.502 110.235L125.725 110.174C126.133 110.174 126.533 110.209 126.932 110.226C127.717 110.264 128.498 110.355 129.271 110.499C129.648 110.565 130.022 110.65 130.39 110.755C130.755 110.859 131.124 110.933 131.475 111.05L132.517 111.431L133.029 111.622L133.515 111.856L134.474 112.316C134.795 112.463 135.077 112.671 135.372 112.84C135.667 113.009 135.962 113.191 136.24 113.378L137.038 113.976C138.919 115.407 140.504 117.188 141.708 119.221C142.626 120.747 143.305 122.405 143.721 124.137C143.799 124.496 143.917 124.826 143.951 125.147C143.986 125.467 144.042 125.766 144.086 126.048C144.129 126.33 144.168 126.581 144.19 126.82C144.212 127.058 144.19 127.253 144.216 127.461C144.216 127.843 144.242 128.133 144.251 128.328C144.259 128.523 144.246 128.627 144.246 128.627Z" fill="#0072EF"/>
<path d="M191.23 76.6797H56.9963V83.3682H191.23V76.6797Z" fill="#E0E0E0"/>
<path d="M61.3271 79.84C61.3271 80.0192 61.2739 80.1944 61.1742 80.3434C61.0746 80.4924 60.9329 80.6085 60.7672 80.677C60.6015 80.7456 60.4191 80.7636 60.2432 80.7286C60.0673 80.6936 59.9057 80.6074 59.7788 80.4807C59.652 80.354 59.5656 80.1925 59.5306 80.0168C59.4956 79.8411 59.5136 79.6589 59.5822 79.4933C59.6509 79.3278 59.7671 79.1863 59.9163 79.0868C60.0654 78.9872 60.2408 78.9341 60.4201 78.9341C60.6607 78.9341 60.8914 79.0295 61.0615 79.1994C61.2315 79.3693 61.3271 79.5998 61.3271 79.84Z" fill="white"/>
<path d="M64.3388 79.84C64.3388 80.0192 64.2856 80.1944 64.186 80.3434C64.0863 80.4924 63.9447 80.6085 63.7789 80.677C63.6132 80.7456 63.4309 80.7636 63.2549 80.7286C63.079 80.6936 62.9174 80.6074 62.7905 80.4807C62.6637 80.354 62.5773 80.1925 62.5423 80.0168C62.5073 79.8411 62.5253 79.6589 62.5939 79.4933C62.6626 79.3278 62.7788 79.1863 62.928 79.0868C63.0771 78.9872 63.2525 78.9341 63.4319 78.9341C63.6724 78.9341 63.9031 79.0295 64.0732 79.1994C64.2433 79.3693 64.3388 79.5998 64.3388 79.84Z" fill="white"/>
<path d="M67.3547 79.84C67.3547 80.0192 67.3015 80.1944 67.2018 80.3434C67.1022 80.4924 66.9605 80.6085 66.7948 80.677C66.6291 80.7456 66.4467 80.7636 66.2708 80.7286C66.0949 80.6936 65.9333 80.6074 65.8064 80.4807C65.6796 80.354 65.5932 80.1925 65.5582 80.0168C65.5232 79.8411 65.5412 79.6589 65.6098 79.4933C65.6785 79.3278 65.7947 79.1863 65.9439 79.0868C66.093 78.9872 66.2684 78.9341 66.4477 78.9341C66.6879 78.9352 66.9179 79.031 67.0878 79.2007C67.2576 79.3703 67.3535 79.6001 67.3547 79.84Z" fill="white"/>
<path d="M176.424 103.911C176.424 103.976 153.134 104.028 124.406 104.028C95.6788 104.028 72.3843 103.976 72.3843 103.911C72.3843 103.846 95.6744 103.798 124.406 103.798C153.138 103.798 176.424 103.85 176.424 103.911Z" fill="#E0E0E0"/>
<path d="M176.424 106.49C176.424 106.551 153.134 106.603 124.406 106.603C95.6788 106.603 72.3843 106.551 72.3843 106.49C72.3843 106.429 95.6744 106.373 124.406 106.373C153.138 106.373 176.424 106.425 176.424 106.49Z" fill="#E0E0E0"/>
<path d="M108.611 73.8581C108.611 73.8581 107.695 71.7818 107.521 71.3266C107.057 70.0825 104.05 61.7468 104.774 60.4897C108.103 54.6508 110.685 50.5198 117.251 50.5198L128.85 50.4418C128.85 50.4418 139.838 48.205 147.584 73.1732L108.611 73.8581Z" fill="#007AFF"/>
<path d="M84.1445 75.9471L99.3327 72.6787L117.185 63.3026L117.251 50.5021C114.573 49.7652 109.439 51.6205 100.218 56.315L86.5095 63.385C85.4118 63.9501 84.4577 64.7581 83.7199 65.7473C82.9821 66.7364 82.48 67.8808 82.2519 69.0931C82.0238 70.3055 82.0758 71.5538 82.4037 72.7431C82.7317 73.9323 83.3271 75.0311 84.1445 75.9558V75.9471Z" fill="#007AFF"/>
<path d="M118.322 100.725C118.101 100.005 118.253 99.5415 119.303 99.8969C121.62 100.673 123.69 100.417 124.194 99.9706C124.697 99.5241 124.237 98.6702 123.482 98.7352C122.658 98.7328 121.837 98.6191 121.043 98.3971C120.399 98.244 119.784 97.9847 119.225 97.6298C118.739 97.3221 118.322 97.0316 117.954 96.7629C117.954 96.7629 115.814 95.2197 115.146 93.98L107.816 97.114L108.997 100.781C109.137 101.424 109.438 102.021 109.871 102.517C110.304 103.013 110.856 103.391 111.475 103.616C113.571 104.297 116.903 104.05 116.903 104.05C117.515 103.651 119.872 107.058 120.588 108.259C121.304 109.459 122.15 109.611 122.428 108.879C122.614 108.376 120.518 104.643 119.789 103.469C119.201 102.608 118.709 101.685 118.322 100.716" fill="#FFCFBA"/>
<path d="M113.358 104.049C113.358 104.075 113.176 104.049 112.924 103.945C112.599 103.78 112.331 103.52 112.156 103.2C111.976 102.882 111.894 102.519 111.917 102.155C111.943 101.878 112.03 101.722 112.056 101.722C112.024 102.192 112.129 102.662 112.361 103.073C112.592 103.485 112.939 103.819 113.358 104.036V104.049Z" fill="#642C19"/>
<path d="M115.684 104.158C115.684 104.184 115.51 104.158 115.276 104.041C114.972 103.87 114.724 103.616 114.56 103.308C114.392 103.002 114.314 102.655 114.334 102.307C114.36 102.043 114.434 101.874 114.465 101.904C114.478 102.353 114.58 102.795 114.764 103.204C115.008 103.577 115.32 103.901 115.684 104.158Z" fill="#642C19"/>
<path d="M83.7104 75.4399C83.7104 75.4399 106.979 102.151 106.948 101.709C106.918 101.266 117.363 93.4725 117.363 93.4725L94.5679 66.3369L83.7104 75.4399Z" fill="#007AFF"/>
<path d="M97.8225 70.2036C97.8225 70.2036 97.8833 70.2513 97.9874 70.3597L98.4214 70.8452L99.9836 72.6484C101.285 74.1742 103.095 76.2983 105.074 78.6521C107.053 81.0058 108.836 83.1472 110.116 84.7207L111.622 86.5716L112.026 87.0831C112.113 87.2002 112.16 87.2652 112.152 87.2695C112.092 87.2245 112.038 87.1721 111.991 87.1135L111.557 86.628C111.162 86.1945 110.637 85.566 109.995 84.8247C108.693 83.2989 106.879 81.1749 104.9 78.8211C102.921 76.4673 101.142 74.326 99.8577 72.7525L98.3519 70.9015C98.1914 70.6978 98.0569 70.5287 97.9527 70.39C97.9021 70.3332 97.8584 70.2707 97.8225 70.2036Z" fill="#7A7979"/>
<path d="M138.983 73.2726C139.14 72.7068 139.233 72.1252 139.26 71.5387C139.275 70.8441 139.148 70.1539 138.887 69.51C138.626 68.8662 138.236 68.2821 137.742 67.7935C137.178 67.1996 136.57 66.6881 136.08 66.1506C135.631 65.6827 135.277 65.1321 135.038 64.5294C134.874 64.1165 134.809 63.6714 134.847 63.229C134.856 63.0677 134.897 62.91 134.969 62.7651C134.891 63.3383 134.967 63.9218 135.19 64.4557C135.444 65.0269 135.798 65.548 136.236 65.9945C136.722 66.5104 137.329 67.0132 137.907 67.6201C138.47 68.1851 138.898 68.8696 139.161 69.6227C139.369 70.2361 139.458 70.8833 139.425 71.53C139.405 71.9646 139.322 72.3939 139.178 72.8044C139.139 72.9702 139.073 73.1284 138.983 73.2726Z" fill="#7A7979"/>
<path d="M107.6 52.7257C107.6 52.7257 107.717 52.6651 107.938 52.5654C108.159 52.4657 108.502 52.3399 108.945 52.2012C109.488 52.0343 110.046 51.9211 110.611 51.8631C111.367 51.7812 112.131 51.852 112.859 52.0712C113.741 52.3512 114.533 52.8598 115.155 53.545C115.861 54.3465 116.343 55.3199 116.552 56.3669C116.814 57.5031 116.889 58.6745 116.773 59.8347C116.635 61.0809 116.187 62.2728 115.471 63.3025C114.715 64.2989 113.77 65.137 112.69 65.769C111.67 66.4106 110.646 66.9307 109.674 67.4422L104.505 70.1558L101.034 71.9634L100.079 72.4445C99.9703 72.5066 99.8554 72.5574 99.7363 72.5963C99.8389 72.5242 99.9462 72.459 100.057 72.4012L100.99 71.881L104.462 70.0084L109.6 67.2558C110.568 66.74 111.596 66.2112 112.599 65.574C113.652 64.9554 114.574 64.1383 115.315 63.1682C116.008 62.1645 116.437 61.0036 116.565 59.7914C116.678 58.6607 116.609 57.5192 116.361 56.4103C116.171 55.404 115.722 54.4644 115.059 53.6837C114.466 53.0141 113.705 52.5144 112.855 52.2359C112.154 52.0161 111.417 51.9351 110.685 51.9975C110.126 52.0452 109.572 52.1453 109.032 52.2966C108.598 52.4223 108.246 52.535 108.016 52.6174C107.882 52.6703 107.742 52.7066 107.6 52.7257Z" fill="#007AFF"/>
<path d="M100.383 72.653C100.305 72.6747 100.114 71.1185 99.081 69.5536C98.0482 67.9888 96.729 67.1652 96.781 67.1045C97.0985 67.2298 97.3921 67.4087 97.6489 67.6333C98.9367 68.6512 99.8519 70.0653 100.253 71.656C100.353 71.9783 100.397 72.3156 100.383 72.653Z" fill="#7A7979"/>
<path d="M134.578 69.7485C134.418 69.8083 134.252 69.8532 134.084 69.8829C133.6 69.976 133.106 69.9979 132.617 69.9479C131.838 69.8675 131.087 69.6206 130.412 69.224C129.515 68.6901 128.804 67.8923 128.377 66.9396C127.85 65.7818 127.75 64.4751 128.095 63.2507C128.289 62.5566 128.725 61.9542 129.323 61.5515C129.65 61.3349 130.048 61.2526 130.434 61.3217C130.823 61.4115 131.165 61.6396 131.397 61.9633C131.826 62.6457 132.096 63.4159 132.186 64.2166C132.276 65.0173 132.185 65.8279 131.918 66.5885C131.659 67.4023 131.213 68.1444 130.616 68.7559C129.991 69.3808 129.211 69.8294 128.355 70.0563C127.513 70.2885 126.625 70.3038 125.776 70.1006C124.926 69.8975 124.141 69.4825 123.495 68.8946C122.919 68.329 122.487 67.6344 122.234 66.8684C121.981 66.1024 121.915 65.2871 122.041 64.4905C122.152 63.7484 122.451 63.047 122.909 62.4531C123.138 62.1629 123.437 61.9349 123.777 61.7899C124.119 61.6488 124.503 61.6488 124.845 61.7899C125.153 61.934 125.419 62.1548 125.617 62.4311C125.816 62.7074 125.94 63.0299 125.977 63.3678C126.025 63.9784 125.904 64.5903 125.626 65.1363C125.165 66.0629 124.539 66.8974 123.777 67.5985C123.207 68.127 122.57 68.5775 121.881 68.9379C121.448 69.1674 120.994 69.3574 120.527 69.5058C120.371 69.5578 120.245 69.5838 120.162 69.6055C120.12 69.6197 120.077 69.6285 120.032 69.6315C120.07 69.6096 120.111 69.5935 120.154 69.5838C120.236 69.5535 120.358 69.5188 120.514 69.4581C120.97 69.2942 121.413 69.0942 121.837 68.8599C122.511 68.4888 123.134 68.0328 123.69 67.5031C124.428 66.8068 125.034 65.983 125.478 65.0713C125.736 64.5501 125.847 63.9688 125.799 63.3894C125.763 63.0848 125.649 62.7946 125.469 62.5459C125.289 62.2972 125.049 62.0983 124.771 61.9676C124.476 61.8462 124.146 61.8462 123.851 61.9676C123.544 62.1011 123.275 62.3098 123.07 62.5745C122.628 63.1403 122.341 63.8109 122.237 64.5208C122.119 65.2821 122.184 66.0606 122.427 66.7918C122.67 67.523 123.084 68.1859 123.634 68.7255C124.253 69.2805 125.003 69.6704 125.813 69.859C126.623 70.0477 127.468 70.0291 128.269 69.8049C129.087 69.6004 129.836 69.1814 130.438 68.5911C131.014 68.0121 131.446 67.3072 131.701 66.5321C131.949 65.7827 132.036 64.9896 131.957 64.2044C131.924 63.8246 131.844 63.4504 131.719 63.0903C131.614 62.7369 131.45 62.4041 131.232 62.1063C131.03 61.8218 130.731 61.6201 130.391 61.5385C130.057 61.4777 129.713 61.5492 129.432 61.7379C128.87 62.1044 128.457 62.6594 128.269 63.3027C127.928 64.4835 128.014 65.7465 128.512 66.8702C128.917 67.8009 129.601 68.5836 130.469 69.1113C131.123 69.5106 131.856 69.7648 132.617 69.8569C133.272 69.9299 133.935 69.8933 134.578 69.7485Z" fill="white"/>
<path d="M136.331 43.74C135.837 43.1388 135.483 42.4355 135.294 41.681C135.216 41.4382 135.207 41.1786 135.268 40.931C135.299 40.8066 135.371 40.6961 135.473 40.6175C135.574 40.5389 135.699 40.4967 135.828 40.4976C136.088 40.4976 136.262 40.762 136.405 40.9831C136.829 41.621 137.187 42.3008 137.473 43.0117C137.557 43.206 137.599 43.4156 137.598 43.6273C137.597 43.7329 137.569 43.8366 137.517 43.9284C137.465 44.0202 137.39 44.0971 137.299 44.1518C137.192 44.198 137.075 44.2144 136.959 44.1991C136.844 44.1838 136.735 44.1375 136.644 44.0651C136.469 43.9172 136.322 43.7396 136.21 43.5406" fill="#007AFF"/>
<path d="M137.447 43.2589L136.301 40.8574C136.171 40.6278 136.09 40.3741 136.062 40.1119C136.051 39.9802 136.081 39.8482 136.147 39.7336C136.212 39.619 136.312 39.5271 136.431 39.4703C136.542 39.4385 136.659 39.437 136.771 39.466C136.882 39.495 136.984 39.5534 137.065 39.635C137.228 39.7967 137.359 39.988 137.451 40.1986L137.993 41.2519C138.154 41.5311 138.274 41.8318 138.349 42.1449C138.386 42.3026 138.389 42.4664 138.359 42.6255C138.328 42.7845 138.264 42.9354 138.171 43.0682C138.072 43.1965 137.932 43.2867 137.774 43.3238C137.616 43.3609 137.45 43.3426 137.303 43.2719" fill="#007AFF"/>
<path d="M132.348 50.6843C132.348 50.6843 130.751 48.6166 130.612 47.5286C130.473 46.4406 131.805 44.4943 134.674 44.0608C135.72 43.951 136.729 43.6073 137.625 43.0551C137.801 42.9357 137.93 42.7591 137.991 42.5554C138.052 42.3516 138.04 42.1331 137.959 41.9368C137.581 41.0221 136.904 39.3359 136.956 39.0975C137.091 38.5123 137.473 38.5253 138.462 39.9645C139.451 41.4036 140.601 42.8861 140.38 43.5536C140.159 44.2212 136.661 46.2889 136.661 46.2889L137.616 47.8277L132.348 50.6843Z" fill="white"/>
<path d="M141.834 71.9421L130.824 50.394L137.915 46.4277L152.808 70.0088C152.808 70.0088 153.594 71.5173 154.692 73.2815H142.207" fill="#007AFF"/>
<path d="M137.816 46.4277C137.816 46.4277 137.776 46.4624 137.694 46.5144L137.321 46.7398L135.897 47.5678L130.777 50.4807L130.816 50.3507C131.888 52.5181 133.281 55.0539 134.682 57.7978C136.77 61.8508 138.588 65.5657 139.846 68.2706C140.48 69.623 140.983 70.724 141.326 71.4826C141.487 71.8511 141.617 72.1415 141.712 72.3496C141.764 72.449 141.805 72.5536 141.834 72.6617C141.769 72.5693 141.714 72.4706 141.669 72.3669C141.565 72.1502 141.422 71.8641 141.235 71.4999L139.69 68.3182C138.388 65.635 136.557 61.9331 134.483 57.8802C133.081 55.1406 131.697 52.6134 130.642 50.42L130.603 50.3333L130.686 50.2857L135.845 47.4464L137.299 46.6618L137.685 46.4624C137.727 46.4451 137.771 46.4335 137.816 46.4277Z" fill="#007AFF"/>
<path d="M108.611 73.8579C107.66 72.3127 107.035 70.5898 106.775 68.7949C106.844 68.7949 107.144 69.948 107.643 71.3394C108.142 72.7309 108.671 73.8276 108.611 73.8579Z" fill="#7A7979"/>
<path d="M132.86 42.0928C133.734 42.4472 134.701 42.507 135.613 42.2631C136.525 42.0193 137.332 41.4851 137.913 40.7415C138.493 39.9979 138.815 39.0856 138.83 38.1428C138.844 37.2 138.551 36.2781 137.993 35.517C140.48 34.8885 142.029 32.0232 141.526 29.509C141.022 26.9949 138.779 25.0356 136.271 24.4937C135.312 24.264 134.309 24.2894 133.363 24.5674C132.893 24.7116 132.457 24.9512 132.084 25.2712C131.711 25.5912 131.408 25.9846 131.193 26.427" fill="#007AFF"/>
<path d="M132.508 36.4748C132.508 36.5008 132.187 36.5615 131.662 36.8346C130.924 37.2272 130.338 37.8561 130 38.6205C129.752 39.1799 129.647 39.7925 129.695 40.4026C129.744 41.0127 129.944 41.6011 130.278 42.1143C130.468 42.4107 130.702 42.6766 130.972 42.9032C131.249 43.1436 131.563 43.3382 131.901 43.4798C132.613 43.7878 133.404 43.8609 134.16 43.6887C134.917 43.5164 135.598 43.1076 136.106 42.5218C136.348 42.2462 136.545 41.9347 136.692 41.5985C136.835 41.2774 136.93 40.9371 136.974 40.5885C137.037 40.079 136.993 39.5621 136.845 39.0704C136.698 38.5786 136.45 38.1228 136.117 37.7317C135.784 37.3406 135.374 37.0227 134.912 36.7981C134.45 36.5736 133.946 36.4473 133.433 36.4271C132.838 36.4055 132.513 36.5008 132.508 36.4705C132.583 36.4384 132.662 36.4165 132.743 36.4054C132.969 36.357 133.201 36.3338 133.433 36.3361C134.168 36.3377 134.888 36.5523 135.504 36.9539C136.12 37.3555 136.606 37.9268 136.904 38.5988C137.184 39.2299 137.288 39.925 137.204 40.6102C137.166 40.9805 137.067 41.3421 136.913 41.6808C136.763 42.0403 136.555 42.3727 136.297 42.6648C135.759 43.2894 135.036 43.7254 134.232 43.9088C133.428 44.0922 132.587 44.0132 131.831 43.6835C131.474 43.5299 131.143 43.3207 130.851 43.0636C130.566 42.8242 130.32 42.542 130.122 42.227C129.752 41.6443 129.544 40.9743 129.518 40.2851C129.494 39.5547 129.682 38.8328 130.058 38.2062C130.434 37.5795 130.984 37.0747 131.64 36.7522C131.849 36.6472 132.069 36.5672 132.296 36.5138C132.365 36.4928 132.436 36.4797 132.508 36.4748Z" fill="white"/>
<path d="M134.392 29.6434C135.297 29.592 136.163 29.2536 136.862 28.6775C137.562 28.1013 138.06 27.3173 138.284 26.4392C138.507 25.5612 138.445 24.6349 138.105 23.7947C137.766 22.9546 137.167 22.2444 136.396 21.7672C136.77 20.7213 136.805 19.5845 136.496 18.5179C136.187 17.4512 135.549 16.5086 134.675 15.8235C133.8 15.1385 132.731 14.7457 131.621 14.7007C130.51 14.6557 129.413 14.9608 128.485 15.5728C127.78 14.3236 126.709 13.32 125.416 12.697C124.122 12.0741 122.669 11.8616 121.251 12.0882C119.834 12.3148 118.519 12.9696 117.485 13.9645C116.451 14.9594 115.747 16.2468 115.467 17.6535C114.196 17.1286 112.795 17.0013 111.45 17.2885C110.105 17.5757 108.879 18.2639 107.934 19.2621C106.989 20.2602 106.369 21.5214 106.157 22.8789C105.944 24.2364 106.149 25.6262 106.745 26.8648C105.353 26.9832 104.066 27.6489 103.166 28.7155C102.266 29.7821 101.827 31.1621 101.945 32.552C102.064 33.9419 102.73 35.2279 103.798 36.127C104.865 37.0261 106.247 37.4647 107.638 37.3463C107.357 38.2634 107.368 39.2451 107.668 40.1561C107.969 41.0671 108.545 41.8626 109.317 42.433C110.089 43.0035 111.019 43.3209 111.979 43.3415C112.939 43.3621 113.881 43.0848 114.677 42.548C115.185 43.3664 115.916 44.0236 116.784 44.443C117.652 44.8624 118.622 45.0267 119.579 44.9168C120.537 44.8068 121.444 44.4272 122.194 43.822C122.944 43.2169 123.507 42.4112 123.816 41.4989" fill="#007AFF"/>
<path d="M129.167 49.9823C129.258 47.8712 129.371 45.9596 129.371 45.9596C129.371 45.9596 134.097 45.3657 134.301 40.5498C134.504 35.7339 134.023 24.6456 134.023 24.6456L125.344 20.4756L115.988 28.0007L117.455 50.108C117.557 51.6397 118.257 53.0702 119.403 54.0928C120.549 55.1154 122.051 55.6487 123.586 55.5784C125.047 55.5085 126.43 54.8958 127.462 53.8606C128.495 52.8253 129.103 51.4421 129.167 49.9823Z" fill="white"/>
<path d="M133.793 32.8903C133.715 32.9727 133.263 32.5956 132.617 32.5695C131.97 32.5435 131.488 32.873 131.423 32.7863C131.358 32.6996 131.467 32.5999 131.675 32.4438C131.955 32.2482 132.293 32.152 132.634 32.1708C132.976 32.1847 133.304 32.3112 133.567 32.5305C133.762 32.7039 133.827 32.8556 133.793 32.8903Z" fill="#007AFF"/>
<path d="M126.624 32.8903C126.546 32.9727 126.099 32.5956 125.448 32.5695C124.797 32.5435 124.324 32.873 124.255 32.7863C124.185 32.6996 124.298 32.5999 124.506 32.4438C124.786 32.2482 125.124 32.152 125.465 32.1708C125.808 32.1847 126.136 32.3112 126.398 32.5305C126.594 32.7039 126.659 32.8556 126.624 32.8903Z" fill="#007AFF"/>
<path d="M129.054 37.7492C129.396 37.6473 129.751 37.5933 130.108 37.5888C130.273 37.5888 130.43 37.5455 130.46 37.4284C130.477 37.2463 130.443 37.0629 130.36 36.8996C130.21 36.4661 130.053 36.011 129.891 35.5341C129.241 33.5878 128.776 31.9926 128.85 31.9666C128.924 31.9406 129.505 33.4968 130.152 35.4344L130.586 36.8085C130.684 37.0276 130.709 37.2719 130.66 37.5064C130.635 37.5656 130.597 37.6185 130.549 37.6612C130.501 37.7039 130.444 37.7355 130.382 37.7535C130.291 37.7773 130.198 37.7875 130.104 37.7839C129.754 37.819 129.401 37.8074 129.054 37.7492Z" fill="#007AFF"/>
<path d="M129.371 45.964C127.131 45.9054 124.958 45.1943 123.118 43.918C123.118 43.918 124.589 47.4248 129.288 47.1474L129.371 45.964Z" fill="#007AFF"/>
<path d="M122.662 20.7439C121.909 21.8294 121.513 23.1219 121.529 24.4423C121.544 25.7627 121.971 27.0455 122.749 28.113C123.452 29.032 124.511 29.7819 125.669 29.7386C126.828 29.6952 127.948 28.6028 127.7 27.4715C127.587 27.8266 127.559 28.2031 127.618 28.571C127.677 28.9389 127.82 29.2881 128.038 29.5907C128.255 29.8933 128.541 30.1409 128.871 30.3139C129.201 30.4869 129.568 30.5805 129.94 30.5872C130.313 30.5939 130.683 30.5135 131.019 30.3525C131.355 30.1914 131.649 29.9542 131.878 29.6596C132.106 29.365 132.262 29.0212 132.334 28.6556C132.406 28.29 132.391 27.9128 132.291 27.5538C132.382 28.0738 132.565 28.5731 132.834 29.0277C132.971 29.2544 133.168 29.4396 133.402 29.5633C133.637 29.687 133.901 29.7446 134.166 29.7299C134.891 29.6345 135.312 28.8629 135.468 28.139C135.692 27.0622 135.641 25.9461 135.319 24.8943C134.996 23.8425 134.413 22.889 133.624 22.1224C132.822 21.3717 131.872 20.7962 130.835 20.4327C129.798 20.0692 128.696 19.9257 127.6 20.0114C125.396 20.2052 123.317 21.1193 121.686 22.6122" fill="#007AFF"/>
<path d="M123.274 22.4434C123.885 23.8087 124.216 25.2827 124.246 26.7781C124.272 28.2818 123.712 29.7367 122.684 30.8354C122.163 31.3703 121.502 31.7467 120.776 31.9209C120.05 32.095 119.29 32.0599 118.583 31.8194C118.773 32.4648 118.818 33.1442 118.715 33.8089C118.611 34.4736 118.362 35.1073 117.984 35.6644C117.177 36.735 115.589 37.2465 114.413 36.6007C113.345 36.0198 112.885 34.7281 112.738 33.523C112.56 32.0603 112.714 30.5766 113.186 29.1809C113.659 27.7852 114.438 26.5131 115.468 25.4581C116.497 24.4031 117.75 23.592 119.135 23.0845C120.52 22.5771 122.001 22.3861 123.469 22.5257" fill="#007AFF"/>
<path d="M117.311 33.9175C116.669 33.5187 115.792 33.8438 115.28 34.403C114.877 34.8451 114.628 35.4057 114.57 36.0009C114.513 36.5961 114.649 37.194 114.96 37.7053C115.27 38.2165 115.738 38.6136 116.293 38.8372C116.849 39.0608 117.462 39.0989 118.04 38.9458" fill="white"/>
<path d="M117.164 37.5025C117.164 37.5285 116.951 37.5588 116.617 37.4678C116.396 37.4106 116.191 37.3023 116.019 37.1518C115.847 37.0012 115.713 36.8125 115.628 36.6008C115.54 36.3494 115.549 36.0743 115.654 35.8293C115.741 35.6385 115.879 35.4752 116.053 35.3568C116.352 35.1617 116.578 35.166 116.582 35.192C116.587 35.2181 116.387 35.2831 116.148 35.4868C115.997 35.608 115.886 35.7727 115.831 35.9587C115.776 36.1447 115.779 36.3431 115.84 36.5272C115.916 36.7104 116.029 36.8761 116.171 37.0141C116.314 37.152 116.483 37.2592 116.669 37.3291C116.986 37.4374 117.168 37.4678 117.164 37.5025Z" fill="#642C19"/>
<path d="M127.023 30.8829C126.962 31.0693 126.255 31 125.417 31.039C124.58 31.078 123.881 31.182 123.807 31C123.734 30.8179 124.415 30.3801 125.391 30.3454C126.368 30.3107 127.088 30.7052 127.023 30.8829Z" fill="#007AFF"/>
<path d="M133.775 30.7488C133.702 30.8139 133.558 30.7488 133.389 30.7272C133.196 30.6807 132.996 30.669 132.799 30.6925C132.547 30.6925 132.27 30.7618 132.057 30.7575C131.844 30.7532 131.697 30.7098 131.671 30.6145C131.645 30.5191 131.74 30.4064 131.918 30.285C132.165 30.1273 132.446 30.0293 132.738 29.9989C132.909 29.9767 133.082 29.995 133.244 30.0522C133.406 30.1094 133.553 30.2041 133.671 30.3284C133.832 30.5234 133.845 30.6882 133.775 30.7488Z" fill="#007AFF"/>
<path d="M127.93 38.9805C128.109 38.865 128.31 38.7897 128.521 38.7597C128.731 38.7298 128.946 38.746 129.149 38.8071C129.351 38.8766 129.521 39.0145 129.632 39.1966C129.742 39.3787 129.785 39.5937 129.753 39.8041C129.693 40.0299 129.555 40.2269 129.362 40.3589C129.221 40.4676 129.06 40.5454 128.887 40.5872C128.714 40.629 128.534 40.634 128.36 40.6017C128.184 40.5669 128.022 40.4852 127.89 40.3653C127.758 40.2454 127.661 40.0919 127.609 39.9211C127.566 39.7484 127.581 39.5662 127.653 39.4031C127.724 39.24 127.848 39.1052 128.004 39.0195" fill="#007AFF"/>
<path d="M130.299 39.4962C130.299 39.4962 130.143 39.6306 129.835 39.6956C129.425 39.7808 128.998 39.74 128.611 39.5786C128.226 39.4158 127.896 39.1429 127.665 38.794C127.492 38.5296 127.457 38.3345 127.483 38.3215C127.509 38.3085 127.605 38.4732 127.796 38.6986C128.042 38.9864 128.351 39.2147 128.698 39.3662C129.051 39.5071 129.431 39.5649 129.809 39.5352C130.104 39.5136 130.286 39.4616 130.299 39.4962Z" fill="#007AFF"/>
<path d="M120.514 41.7936C120.483 41.7936 120.514 41.4555 120.349 40.8833C120.131 40.0782 119.648 39.3699 118.978 38.872C118.521 38.5287 117.991 38.2971 117.428 38.1958C116.784 38.0814 116.121 38.1382 115.506 38.3605C115.174 38.4802 114.862 38.6498 114.582 38.8633C114.285 39.0782 114.025 39.3404 113.814 39.6392C113.354 40.263 113.107 41.0171 113.107 41.7914C113.107 42.5658 113.354 43.3198 113.814 43.9436C114.025 44.2425 114.285 44.5046 114.582 44.7196C114.862 44.9331 115.174 45.1027 115.506 45.2224C115.989 45.3972 116.503 45.4699 117.015 45.4359C117.528 45.4018 118.027 45.2617 118.483 45.0245C118.938 44.7873 119.339 44.4581 119.66 44.0579C119.982 43.6577 120.216 43.1951 120.349 42.6996C120.501 42.1274 120.483 41.7893 120.514 41.7936C120.52 41.8729 120.52 41.9527 120.514 42.032C120.513 42.2642 120.486 42.4955 120.431 42.7212C120.237 43.5642 119.755 44.3135 119.069 44.8409C118.596 45.2098 118.043 45.4623 117.454 45.5778C116.776 45.7081 116.074 45.6542 115.424 45.4218C115.072 45.2982 114.741 45.1213 114.443 44.8973C114.127 44.6704 113.85 44.3937 113.623 44.078C113.13 43.4173 112.864 42.6154 112.864 41.7914C112.864 40.9675 113.13 40.1656 113.623 39.5049C113.85 39.1892 114.127 38.9124 114.443 38.6856C114.741 38.4615 115.072 38.2846 115.424 38.1611C116.031 37.9414 116.684 37.8795 117.321 37.9811C117.959 38.0827 118.56 38.3445 119.069 38.7419C119.755 39.2694 120.237 40.0187 120.431 40.8616C120.486 41.0874 120.513 41.3187 120.514 41.5509C120.52 41.6316 120.52 41.7128 120.514 41.7936Z" fill="white"/>
<path d="M133.771 20.2412C133.813 20.2441 133.854 20.2543 133.893 20.2716C134.006 20.3161 134.109 20.3824 134.196 20.4666C134.36 20.6294 134.481 20.8302 134.549 21.051C134.616 21.2719 134.628 21.5059 134.583 21.7324C134.491 22.0764 134.299 22.3857 134.032 22.6216C133.765 22.8575 133.434 23.0096 133.081 23.0588C132.188 23.1659 131.286 22.9507 130.538 22.4519L129.644 21.9361L130.625 22.2569C130.794 22.3165 130.945 22.4177 131.064 22.551C131.183 22.6844 131.266 22.8456 131.306 23.0198C131.353 23.193 131.365 23.3739 131.342 23.5518C131.318 23.7297 131.258 23.901 131.167 24.0558C130.969 24.3671 130.658 24.5905 130.3 24.68C129.938 24.7711 129.558 24.7621 129.202 24.654C128.403 24.3431 127.735 23.7677 127.31 23.0241L126.65 22.1225L127.449 22.8984C127.655 23.1116 127.804 23.3742 127.88 23.6611C127.956 23.948 127.957 24.2496 127.882 24.5369C127.825 24.7996 127.708 25.0456 127.541 25.2566C127.374 25.4676 127.161 25.638 126.919 25.755C126.521 25.9437 126.078 26.0158 125.641 25.9628C125.204 25.9099 124.791 25.7341 124.45 25.4559C124 25.0904 123.668 24.6004 123.495 24.0471C123.45 23.9054 123.415 23.7605 123.391 23.6136C123.386 23.5617 123.386 23.5095 123.391 23.4576C123.413 23.4576 123.439 23.6657 123.578 24.0254C123.77 24.5374 124.098 24.9872 124.528 25.3259C124.851 25.5745 125.237 25.7285 125.642 25.7707C126.047 25.8128 126.457 25.7413 126.824 25.5643C127.038 25.4574 127.225 25.3037 127.372 25.1146C127.518 24.9255 127.62 24.7058 127.67 24.4719C127.733 24.2211 127.732 23.9583 127.666 23.7081C127.6 23.4579 127.471 23.2286 127.292 23.0415L127.462 22.8984C127.86 23.5942 128.483 24.135 129.228 24.4329C129.532 24.5454 129.864 24.5582 130.177 24.4693C130.489 24.3805 130.764 24.1946 130.964 23.9388C131.276 23.4273 131.089 22.6383 130.56 22.4606L130.647 22.2655C131.348 22.7465 132.196 22.966 133.042 22.8854C133.369 22.8467 133.678 22.7126 133.93 22.4998C134.181 22.2871 134.365 22.0051 134.457 21.689C134.502 21.4801 134.498 21.2635 134.444 21.0565C134.391 20.8495 134.29 20.6579 134.149 20.497C134.035 20.3947 133.908 20.3086 133.771 20.2412Z" fill="white"/>
<path d="M122.193 27.9875C122.193 27.9875 122.193 28.0179 122.137 28.0699C122.074 28.1471 122.006 28.2195 121.933 28.2866C121.652 28.5416 121.323 28.7377 120.965 28.8631C120.404 29.0581 119.796 29.0672 119.229 28.8891C118.854 28.7718 118.507 28.5795 118.208 28.3239C117.91 28.0683 117.667 27.7548 117.494 27.4023L117.676 27.3763C117.605 27.8153 117.432 28.2312 117.169 28.5899C116.906 28.9485 116.561 29.2396 116.164 29.4391C115.766 29.6387 115.326 29.7409 114.881 29.7374C114.436 29.7339 113.999 29.6248 113.604 29.4191C113.21 29.2134 112.87 28.9169 112.612 28.5542C112.355 28.1914 112.188 27.7728 112.124 27.3328C112.061 26.8928 112.103 26.444 112.247 26.0235C112.392 25.603 112.634 25.2228 112.954 24.9142L113.106 25.0746C112.594 25.4997 111.95 25.7341 111.284 25.7378C110.679 25.7495 110.084 25.587 109.57 25.2696C109.11 24.9845 108.75 24.5633 108.541 24.0646C108.371 23.6396 108.298 23.1819 108.328 22.7251C108.365 22.0761 108.615 21.4574 109.04 20.9652C109.189 20.7896 109.368 20.6427 109.57 20.5317C109.57 20.5317 109.374 20.6791 109.101 21.0216C108.713 21.5188 108.491 22.1254 108.467 22.7555C108.449 23.1892 108.528 23.6215 108.697 24.0212C108.9 24.4806 109.239 24.8666 109.669 25.1266C110.153 25.4229 110.712 25.5734 111.279 25.5601C111.894 25.5515 112.488 25.3344 112.963 24.9445L113.111 25.1049C112.742 25.483 112.492 25.9615 112.394 26.4805C112.296 26.9994 112.354 27.5357 112.559 28.0222C112.811 28.5533 113.233 28.9857 113.758 29.2517C114.282 29.5177 114.88 29.6021 115.458 29.4917C115.964 29.3726 116.425 29.11 116.786 28.7355C117.146 28.361 117.39 27.8905 117.489 27.3806L117.537 27.0772L117.671 27.3546C117.83 27.6859 118.052 27.9822 118.326 28.2264C118.601 28.4705 118.921 28.6575 119.268 28.7764C119.811 28.9566 120.397 28.9566 120.939 28.7764C121.29 28.6686 121.617 28.495 121.902 28.2649C122.111 28.0829 122.193 27.9788 122.193 27.9875Z" fill="white"/>
<path d="M113.605 35.6947C113.496 35.7948 113.368 35.8715 113.228 35.9201C112.848 36.0779 112.436 36.1419 112.026 36.1065C111.391 36.0596 110.799 35.771 110.372 35.3002C110.103 35.0024 109.904 34.6479 109.791 34.2629C109.678 33.878 109.652 33.4725 109.717 33.0765L109.917 33.1632C109.488 33.73 108.93 34.1862 108.289 34.4939C107.795 34.7283 107.252 34.8427 106.706 34.8277C106.196 34.8134 105.697 34.6766 105.252 34.4289C104.867 34.231 104.539 33.9394 104.297 33.581C104.055 33.2226 103.907 32.809 103.867 32.3786C103.816 31.8026 103.97 31.2269 104.301 30.7531C104.395 30.6296 104.505 30.5188 104.627 30.4236C104.667 30.3862 104.714 30.3567 104.766 30.3369C104.766 30.3369 104.597 30.4843 104.375 30.8051C104.085 31.2706 103.959 31.8203 104.019 32.3656C104.064 32.7682 104.211 33.1529 104.444 33.4841C104.678 33.8152 104.991 34.0821 105.356 34.2599C105.791 34.49 106.275 34.6136 106.768 34.6203C107.261 34.6271 107.748 34.517 108.19 34.2989C108.798 34.0092 109.329 33.5799 109.739 33.0461L110.021 32.682L109.938 33.1155C109.877 33.4793 109.897 33.8522 109.997 34.2074C110.096 34.5626 110.274 34.8914 110.516 35.1702C110.907 35.6171 111.452 35.9016 112.043 35.9678C112.433 36.0134 112.829 35.9735 113.202 35.8507C113.462 35.7597 113.597 35.6817 113.605 35.6947Z" fill="white"/>
<path d="M138.18 26.3057C138.285 26.5592 138.318 26.8366 138.276 27.1076C138.224 27.7742 137.943 28.4024 137.48 28.8853C137.017 29.3682 136.401 29.6759 135.737 29.7561C135.469 29.8128 135.19 29.7917 134.934 29.6954C134.934 29.6564 135.242 29.6954 135.711 29.5957C136.323 29.4804 136.884 29.1763 137.315 28.7261C137.745 28.2759 138.023 27.7023 138.111 27.0859C138.189 26.6134 138.141 26.31 138.18 26.3057Z" fill="white"/>
<path d="M140.853 30.8442C140.912 30.9452 140.949 31.0574 140.962 31.1737C141.013 31.4927 140.982 31.8197 140.87 32.123C140.791 32.3593 140.653 32.5718 140.469 32.7408C140.286 32.9097 140.063 33.0297 139.82 33.0896C139.53 33.1491 139.228 33.122 138.952 33.0116C138.798 32.9533 138.657 32.8639 138.538 32.7491C138.42 32.6343 138.326 32.4965 138.262 32.3441L138.479 32.2704C138.519 32.4114 138.538 32.5574 138.536 32.7038C138.523 33.0387 138.413 33.3627 138.22 33.6365C138.027 33.9104 137.758 34.1224 137.447 34.247C137.168 34.3489 136.865 34.3625 136.579 34.286C136.337 34.2169 136.115 34.0939 135.928 33.9262C135.652 33.6928 135.467 33.371 135.403 33.0159C135.364 32.7689 135.403 32.6302 135.403 32.6345C135.403 32.6388 135.403 32.7689 135.476 32.9986C135.571 33.3149 135.76 33.5946 136.019 33.8005C136.2 33.9558 136.419 34.0604 136.654 34.1038C136.889 34.1472 137.131 34.1278 137.355 34.0476C137.623 33.9344 137.853 33.7476 138.018 33.5089C138.183 33.2702 138.277 32.9895 138.288 32.6995C138.291 32.5793 138.275 32.4594 138.241 32.3441L138.462 32.2704C138.579 32.5042 138.77 32.6925 139.006 32.8056C139.241 32.9186 139.508 32.9499 139.764 32.8946C139.976 32.8455 140.174 32.7453 140.339 32.6024C140.504 32.4596 140.631 32.2786 140.71 32.0753C140.825 31.8014 140.877 31.5051 140.862 31.2084C140.853 30.9656 140.814 30.8486 140.853 30.8442Z" fill="white"/>
<path d="M127.6 37.2944C127.631 37.2944 127.648 37.3941 127.6 37.5415C127.541 37.7318 127.427 37.9006 127.273 38.027C127.119 38.1533 126.931 38.2317 126.732 38.2524C126.581 38.2524 126.489 38.2264 126.494 38.1961C126.498 38.1657 126.828 38.1007 127.123 37.8449C127.418 37.5892 127.535 37.2944 127.6 37.2944Z" fill="#007AFF"/>
</svg>
