<svg width="25" height="23" viewBox="0 0 25 23" fill="none" xmlns="http://www.w3.org/2000/svg">
<path d="M22.8871 0.453033H2.18124C1.74441 0.453033 1.32548 0.641175 1.01659 0.976068C0.707709 1.31096 0.53418 1.76517 0.53418 2.23878V20.6065C0.53418 21.0801 0.707709 21.5343 1.01659 21.8692C1.32548 22.2041 1.74441 22.3923 2.18124 22.3923H22.8871C23.3239 22.3923 23.7429 22.2041 24.0518 21.8692C24.3607 21.5343 24.5342 21.0801 24.5342 20.6065V2.23878C24.5342 1.76517 24.3607 1.31096 24.0518 0.976068C23.7429 0.641175 23.3239 0.453033 22.8871 0.453033ZM23.1224 20.6065C23.1224 20.6742 23.0976 20.7391 23.0535 20.7869C23.0094 20.8347 22.9495 20.8616 22.8871 20.8616H2.18124C2.11883 20.8616 2.05899 20.8347 2.01486 20.7869C1.97073 20.7391 1.94594 20.6742 1.94594 20.6065V2.23878C1.94594 2.17113 1.97073 2.10624 2.01486 2.0584C2.05899 2.01055 2.11883 1.98368 2.18124 1.98368H22.8871C22.9495 1.98368 23.0094 2.01055 23.0535 2.0584C23.0976 2.10624 23.1224 2.17113 23.1224 2.23878V20.6065ZM18.8871 7.34093C18.8871 7.54391 18.8128 7.73857 18.6804 7.88209C18.548 8.02562 18.3685 8.10625 18.1812 8.10625H6.88712C6.69991 8.10625 6.52037 8.02562 6.38799 7.88209C6.25561 7.73857 6.18124 7.54391 6.18124 7.34093C6.18124 7.13795 6.25561 6.94329 6.38799 6.79977C6.52037 6.65624 6.69991 6.57561 6.88712 6.57561H18.1812C18.3685 6.57561 18.548 6.65624 18.6804 6.79977C18.8128 6.94329 18.8871 7.13795 18.8871 7.34093ZM18.8871 11.4226C18.8871 11.6256 18.8128 11.8203 18.6804 11.9638C18.548 12.1073 18.3685 12.188 18.1812 12.188H6.88712C6.69991 12.188 6.52037 12.1073 6.38799 11.9638C6.25561 11.8203 6.18124 11.6256 6.18124 11.4226C6.18124 11.2197 6.25561 11.025 6.38799 10.8815C6.52037 10.738 6.69991 10.6573 6.88712 10.6573H18.1812C18.3685 10.6573 18.548 10.738 18.6804 10.8815C18.8128 11.025 18.8871 11.2197 18.8871 11.4226ZM18.8871 15.5044C18.8871 15.7073 18.8128 15.902 18.6804 16.0455C18.548 16.1891 18.3685 16.2697 18.1812 16.2697H6.88712C6.69991 16.2697 6.52037 16.1891 6.38799 16.0455C6.25561 15.902 6.18124 15.7073 6.18124 15.5044C6.18124 15.3014 6.25561 15.1067 6.38799 14.9632C6.52037 14.8197 6.69991 14.739 6.88712 14.739H18.1812C18.3685 14.739 18.548 14.8197 18.6804 14.9632C18.8128 15.1067 18.8871 15.3014 18.8871 15.5044Z" fill="#363638"/>
</svg>
