<svg width="15" height="18" viewBox="0 0 15 18" fill="none" xmlns="http://www.w3.org/2000/svg">
<path d="M15 13.2718C14.5897 14.1869 14.3932 14.5959 13.8668 15.4033C13.1308 16.5323 12.091 17.9411 10.8058 17.9511C9.66337 17.9601 9.36821 17.1996 7.81741 17.212C6.26709 17.22 5.94386 17.9651 4.79951 17.9521C3.51532 17.9411 2.53113 16.6715 1.79468 15.5454C-0.266127 12.3837 -0.482901 8.67934 0.790162 6.70799C1.69064 5.31014 3.11613 4.48929 4.45403 4.48929C5.81709 4.48929 6.67402 5.24432 7.80047 5.24432C8.89499 5.24432 9.56079 4.48779 11.1372 4.48779C12.3295 4.48779 13.5905 5.14258 14.4909 6.27063C11.5442 7.89738 12.0227 12.1368 15 13.2718Z" fill="#42A5F5"/>
<path d="M10.1429 3.02809C10.757 2.24164 11.2229 1.13104 11.0536 0C10.0525 0.0688202 8.88052 0.707152 8.19633 1.53349C7.57601 2.28653 7.06165 3.4046 7.26198 4.48678C8.35504 4.52119 9.48633 3.87188 10.1429 3.02809Z" fill="#42A5F5"/>
<path d="M13.3103 7C9.08321 11.7775 5.21225 7.28924 0 10.7008C0.181451 12.2104 0.740322 13.8441 1.725 15.3542C2.46096 16.4802 3.44564 17.7499 4.72983 17.7609C5.87419 17.7733 6.19741 17.0283 7.74773 17.0208C9.29854 17.0088 9.59321 17.7689 10.7361 17.7599C12.0213 17.7494 13.0611 16.3406 13.7971 15.212C14.3235 14.4047 14.52 13.9957 14.9303 13.0806C12.4113 12.1201 11.6908 8.94143 13.3103 7Z" fill="#1E88E5"/>
</svg>
