<svg width="13" height="15" viewBox="0 0 13 15" fill="none" xmlns="http://www.w3.org/2000/svg">
<path d="M0.0722656 2.25491C0.0722656 1.79077 0.282979 1.34565 0.658052 1.01745C1.03312 0.68926 1.54183 0.504883 2.07227 0.504883L10.0723 0.504883C10.6027 0.504883 11.1114 0.68926 11.4865 1.01745C11.8616 1.34565 12.0723 1.79077 12.0723 2.25491V14.0676C12.0722 14.1467 12.0476 14.2244 12.0012 14.2923C11.9547 14.3602 11.888 14.4157 11.8083 14.4531C11.7285 14.4904 11.6387 14.5082 11.5484 14.5044C11.458 14.5006 11.3706 14.4755 11.2953 14.4316L6.07227 11.9684L0.849266 14.4316C0.773971 14.4755 0.686496 14.5006 0.596157 14.5044C0.505818 14.5082 0.415999 14.4904 0.336265 14.4531C0.256531 14.4157 0.18987 14.3602 0.14338 14.2923C0.0968897 14.2244 0.0723123 14.1467 0.0722656 14.0676V2.25491ZM2.07227 1.3799C1.80705 1.3799 1.5527 1.47209 1.36516 1.63618C1.17762 1.80028 1.07227 2.02284 1.07227 2.25491V13.2503L5.79527 11.0786C5.87733 11.0308 5.9737 11.0053 6.07227 11.0053C6.17084 11.0053 6.26721 11.0308 6.34927 11.0786L11.0723 13.2503V2.25491C11.0723 2.02284 10.9669 1.80028 10.7794 1.63618C10.5918 1.47209 10.3375 1.3799 10.0723 1.3799H2.07227Z" fill="#979797"/>
</svg>
