<svg width="10" height="12" viewBox="0 0 10 12" fill="none" xmlns="http://www.w3.org/2000/svg">
<path d="M0 1.50002C0 1.10219 0.175595 0.720656 0.488155 0.439347C0.800716 0.158038 1.22464 0 1.66667 0L8.33333 0C8.77536 0 9.19928 0.158038 9.51184 0.439347C9.8244 0.720656 10 1.10219 10 1.50002V11.6252C9.99996 11.693 9.97948 11.7596 9.94074 11.8178C9.902 11.8759 9.84645 11.9236 9.78 11.9556C9.71356 11.9876 9.63871 12.0028 9.56342 11.9996C9.48814 11.9963 9.41525 11.9748 9.3525 11.9372L5 9.82591L0.6475 11.9372C0.584754 11.9748 0.511859 11.9963 0.436576 11.9996C0.361294 12.0028 0.286444 11.9876 0.22 11.9556C0.153555 11.9236 0.0980034 11.8759 0.0592617 11.8178C0.02052 11.7596 3.89337e-05 11.693 0 11.6252V1.50002ZM1.66667 0.750012C1.44565 0.750012 1.23369 0.829031 1.07741 0.969685C0.921131 1.11034 0.833333 1.30111 0.833333 1.50002V10.9247L4.76917 9.06315C4.83755 9.02219 4.91786 9.00034 5 9.00034C5.08214 9.00034 5.16245 9.02219 5.23083 9.06315L9.16667 10.9247V1.50002C9.16667 1.30111 9.07887 1.11034 8.92259 0.969685C8.76631 0.829031 8.55435 0.750012 8.33333 0.750012H1.66667Z" fill="white"/>
</svg>
