<svg width="24" height="25" viewBox="0 0 24 25" fill="none" xmlns="http://www.w3.org/2000/svg">
<path d="M6.40809 11.2037H4.94336V14.0149H6.40809V11.2037Z" fill="#363638"/>
<path d="M6.40809 16.8252H4.94336V19.636H6.40809V16.8252Z" fill="#363638"/>
<path d="M6.40809 5.58175H4.94336V8.3925H6.40809V5.58175Z" fill="#363638"/>
<path d="M10.9027 16.8252H9.43799V19.636H10.9027V16.8252Z" fill="#363638"/>
<path d="M10.9027 11.2037H9.43799V14.0149H10.9027V11.2037Z" fill="#363638"/>
<path d="M10.9027 5.58175H9.43799V8.3925H10.9027V5.58175Z" fill="#363638"/>
<path d="M20.6777 14.4447H17.812V15.9715H20.6777V14.4447Z" fill="#363638"/>
<path d="M20.6777 18.1922H17.812V19.719H20.6777V18.1922Z" fill="#363638"/>
<path d="M15.8479 24.2138H21.0998C22.6985 24.2138 24 22.8572 24 21.1902V10.0204L15.8475 10.0191V0.162338H0V24.2143H14.3832L15.8479 24.2138ZM22.5353 11.5473V21.1902C22.5353 22.0156 21.8908 22.687 21.0998 22.687H15.8479V11.5455L22.5353 11.5473ZM1.46473 22.687V1.68919H14.3828V10.0186V22.6865L1.46473 22.687Z" fill="#363638"/>
</svg>
