<svg width="26" height="26" viewBox="0 0 26 26" fill="none" xmlns="http://www.w3.org/2000/svg">
<mask id="path-1-outside-1_36_1322" maskUnits="userSpaceOnUse" x="0" y="0.259735" width="26" height="26" fill="black">
<rect fill="white" y="0.259735" width="26" height="26"/>
<path d="M12.9983 1.26098C12.9863 1.26314 12.9744 1.26606 12.9627 1.26971C12.8983 1.28385 12.841 1.31943 12.8004 1.3704C12.7598 1.42137 12.7384 1.48457 12.74 1.54923V3.2263C12.7395 3.26333 12.7465 3.30011 12.7606 3.33448C12.7746 3.36885 12.7955 3.40013 12.8221 3.42651C12.8486 3.45289 12.8802 3.47383 12.915 3.48813C12.9499 3.50243 12.9873 3.50979 13.0251 3.50979C13.0628 3.50979 13.1002 3.50243 13.1351 3.48813C13.1699 3.47383 13.2015 3.45289 13.2281 3.42651C13.2546 3.40013 13.2755 3.36885 13.2896 3.33448C13.3037 3.30011 13.3106 3.26333 13.3101 3.2263V1.54923C13.3115 1.50948 13.3043 1.46989 13.2889 1.4331C13.2735 1.39631 13.2503 1.36317 13.2208 1.33588C13.1913 1.3086 13.1562 1.28781 13.1178 1.27489C13.0794 1.26197 13.0387 1.25723 12.9983 1.26098ZM5.30239 3.77658C5.29033 3.77874 5.27843 3.78166 5.26676 3.78532C5.21834 3.79508 5.17334 3.81703 5.13618 3.849C5.09902 3.88098 5.07098 3.92188 5.05481 3.96769C5.03863 4.0135 5.03489 4.06264 5.04394 4.1103C5.05299 4.15796 5.07452 4.20249 5.10643 4.23952L7.67174 7.31415C7.69513 7.34284 7.72406 7.36673 7.75687 7.38445C7.78967 7.40217 7.82572 7.41339 7.86295 7.41745C7.90017 7.42151 7.93785 7.41834 7.97383 7.40812C8.0098 7.3979 8.04338 7.38083 8.07262 7.35788C8.10187 7.33494 8.12622 7.30657 8.14429 7.27439C8.16236 7.24222 8.17378 7.20687 8.17791 7.17036C8.18204 7.13385 8.1788 7.09691 8.16837 7.06163C8.15794 7.02635 8.14052 6.99344 8.11711 6.96476L5.5518 3.89014C5.52336 3.85212 5.48558 3.82177 5.44198 3.80192C5.39837 3.78207 5.35035 3.77335 5.30239 3.77658ZM20.6943 3.77658C20.6822 3.77874 20.6703 3.78166 20.6587 3.78532C20.5944 3.80095 20.5377 3.838 20.4983 3.89014L17.933 6.96476C17.9096 6.99344 17.8922 7.02635 17.8818 7.06163C17.8713 7.09691 17.8681 7.13385 17.8722 7.17036C17.8763 7.20687 17.8878 7.24222 17.9058 7.27439C17.9239 7.30657 17.9482 7.33494 17.9775 7.35788C18.0067 7.38083 18.0403 7.3979 18.0763 7.40812C18.1123 7.41834 18.15 7.42151 18.1872 7.41745C18.2244 7.41339 18.2605 7.40217 18.2933 7.38445C18.3261 7.36673 18.355 7.34284 18.3784 7.31415L20.9437 4.23952C20.9823 4.19697 21.0066 4.14389 21.0136 4.08737C21.0206 4.03085 21.0098 3.9736 20.9827 3.92327C20.9555 3.87293 20.9134 3.83192 20.8619 3.8057C20.8103 3.77949 20.7519 3.76933 20.6943 3.77658ZM13.0251 6.85994C11.6117 6.85994 10.4597 7.98954 10.4597 9.37555C10.4597 10.7616 11.6117 11.8912 13.0251 11.8912C14.4385 11.8912 15.5904 10.7616 15.5904 9.37555C15.5904 7.98954 14.4385 6.85994 13.0251 6.85994ZM13.0251 7.41897C14.1304 7.41897 15.0203 8.29166 15.0203 9.37555C15.0203 10.4595 14.1304 11.3321 13.0251 11.3321C11.9197 11.3321 11.0298 10.4595 11.0298 9.37555C11.0298 8.29166 11.9197 7.41897 13.0251 7.41897ZM1.27627 10.4936C1.23884 10.4947 1.202 10.5031 1.16787 10.5182C1.13373 10.5333 1.10297 10.5549 1.07733 10.5816C1.05168 10.6084 1.03167 10.6399 1.01843 10.6742C1.00518 10.7086 0.998969 10.7451 1.00014 10.7818C1.00131 10.8185 1.00984 10.8547 1.02524 10.8881C1.04065 10.9216 1.06263 10.9518 1.08992 10.9769C1.11722 11.0021 1.1493 11.0217 1.18433 11.0347C1.21936 11.0477 1.25665 11.0538 1.29408 11.0526L3.00429 11.3321C3.07989 11.3437 3.15708 11.3254 3.21889 11.2811C3.28069 11.2369 3.32205 11.1704 3.33386 11.0963C3.34568 11.0222 3.32697 10.9465 3.28187 10.8859C3.23677 10.8252 3.16896 10.7847 3.09337 10.7731L1.38316 10.4936C1.35657 10.4899 1.32958 10.4899 1.30299 10.4936C1.29409 10.4932 1.28517 10.4932 1.27627 10.4936ZM24.667 10.4936L22.9568 10.7731C22.8812 10.7847 22.8134 10.8252 22.7683 10.8859C22.7232 10.9465 22.7044 11.0222 22.7163 11.0963C22.7281 11.1704 22.7694 11.2369 22.8312 11.2811C22.893 11.3254 22.9702 11.3437 23.0458 11.3321L24.756 11.0526C24.8316 11.041 24.8994 11.0005 24.9445 10.9399C24.9896 10.8793 25.0084 10.8036 24.9965 10.7294C24.9847 10.6553 24.9434 10.5888 24.8816 10.5446C24.8198 10.5003 24.7426 10.482 24.667 10.4936ZM13.0251 12.4502C10.213 12.4502 7.89443 14.4356 7.89443 16.9224C7.89444 16.9965 7.92447 17.0676 7.97792 17.12C8.03137 17.1724 8.10387 17.2019 8.17946 17.2019H17.8707C17.9463 17.2019 18.0187 17.1724 18.0722 17.12C18.1257 17.0676 18.1557 16.9965 18.1557 16.9224C18.1557 14.4356 15.8371 12.4502 13.0251 12.4502ZM13.0251 13.0092C15.4522 13.0092 17.381 14.6285 17.55 16.6428H8.50013C8.66914 14.6285 10.5979 13.0092 13.0251 13.0092ZM5.85464 16.0838C5.8298 16.0894 5.80584 16.0982 5.78339 16.11L2.07793 17.7871C2.0395 17.7989 2.00405 17.8185 1.97393 17.8447C1.9438 17.8709 1.91968 17.9031 1.90315 17.9391C1.88662 17.9751 1.87806 18.0142 1.87803 18.0536C1.87799 18.0931 1.88649 18.1322 1.90297 18.1682C1.91944 18.2043 1.94351 18.2365 1.97359 18.2627C2.00368 18.289 2.03909 18.3087 2.0775 18.3205C2.11591 18.3324 2.15645 18.3361 2.19644 18.3315C2.23643 18.3269 2.27497 18.314 2.30952 18.2937L6.01498 16.6166C6.07951 16.5899 6.13175 16.5408 6.16172 16.4787C6.19169 16.4166 6.1973 16.3459 6.17747 16.28C6.15764 16.2141 6.11377 16.1577 6.05423 16.1215C5.99468 16.0853 5.92364 16.0719 5.85464 16.0838ZM20.1064 16.0838C20.0452 16.0928 19.9887 16.1211 19.9453 16.1645C19.902 16.2078 19.8742 16.2637 19.8661 16.3239C19.8581 16.3841 19.8702 16.4452 19.9007 16.498C19.9312 16.5508 19.9784 16.5925 20.0351 16.6166L23.7406 18.2937C23.7752 18.314 23.8137 18.3269 23.8537 18.3315C23.8937 18.3361 23.9342 18.3324 23.9726 18.3205C24.011 18.3087 24.0464 18.289 24.0765 18.2627C24.1066 18.2365 24.1307 18.2043 24.1472 18.1682C24.1636 18.1322 24.1721 18.0931 24.1721 18.0536C24.1721 18.0142 24.1635 17.9751 24.147 17.9391C24.1304 17.9031 24.1063 17.8709 24.0762 17.8447C24.0461 17.8185 24.0106 17.7989 23.9722 17.7871L20.2667 16.11C20.217 16.0862 20.1613 16.0771 20.1064 16.0838ZM12.9983 20.8268C12.9863 20.8289 12.9744 20.8319 12.9627 20.8355C12.8983 20.8497 12.841 20.8852 12.8004 20.9362C12.7598 20.9872 12.7384 21.0504 12.74 21.115V25.0282C12.7395 25.0652 12.7465 25.102 12.7606 25.1364C12.7746 25.1707 12.7955 25.202 12.8221 25.2284C12.8486 25.2548 12.8802 25.2757 12.915 25.29C12.9499 25.3043 12.9873 25.3117 13.0251 25.3117C13.0628 25.3117 13.1002 25.3043 13.1351 25.29C13.1699 25.2757 13.2015 25.2548 13.2281 25.2284C13.2546 25.202 13.2755 25.1707 13.2896 25.1364C13.3037 25.102 13.3106 25.0652 13.3101 25.0282V21.115C13.3115 21.0753 13.3043 21.0357 13.2889 20.9989C13.2735 20.9621 13.2503 20.929 13.2208 20.9017C13.1913 20.8744 13.1562 20.8536 13.1178 20.8407C13.0794 20.8278 13.0387 20.823 12.9983 20.8268ZM7.27982 21.3945C7.23869 21.4023 7.19981 21.4188 7.16594 21.443C7.13207 21.4671 7.10405 21.4983 7.08386 21.5343L6.22875 22.9319C6.20058 22.9626 6.17971 22.9991 6.16765 23.0387C6.1556 23.0784 6.15266 23.1201 6.15904 23.161C6.16542 23.2019 6.18097 23.2408 6.20457 23.2751C6.22817 23.3094 6.25922 23.3381 6.29549 23.3591C6.33177 23.3802 6.37236 23.3932 6.41434 23.397C6.45632 23.4008 6.49865 23.3955 6.53827 23.3814C6.5779 23.3672 6.61383 23.3446 6.64348 23.3152C6.67313 23.2859 6.69577 23.2504 6.70975 23.2114L7.56486 21.8138C7.59222 21.7685 7.60598 21.7165 7.60455 21.6639C7.60312 21.6113 7.58656 21.5601 7.55678 21.5163C7.52699 21.4725 7.48519 21.4378 7.43619 21.4163C7.3872 21.3947 7.33299 21.3872 7.27982 21.3945ZM18.6812 21.3945C18.6356 21.4023 18.5926 21.4208 18.5558 21.4485C18.5191 21.4762 18.4899 21.5122 18.4706 21.5535C18.4513 21.5948 18.4425 21.6401 18.4451 21.6855C18.4476 21.7308 18.4614 21.7749 18.4853 21.8138L19.3404 23.2114C19.3544 23.2504 19.377 23.2859 19.4066 23.3152C19.4363 23.3446 19.4722 23.3672 19.5118 23.3814C19.5515 23.3955 19.5938 23.4008 19.6358 23.397C19.6778 23.3932 19.7184 23.3802 19.7546 23.3591C19.7909 23.3381 19.822 23.3094 19.8456 23.2751C19.8691 23.2408 19.8847 23.2019 19.8911 23.161C19.8975 23.1201 19.8945 23.0784 19.8825 23.0387C19.8704 22.9991 19.8495 22.9626 19.8214 22.9319L18.9663 21.5343C18.9383 21.4858 18.8963 21.4466 18.8455 21.4217C18.7947 21.3968 18.7375 21.3874 18.6812 21.3945Z"/>
</mask>
<path d="M12.9983 1.26098C12.9863 1.26314 12.9744 1.26606 12.9627 1.26971C12.8983 1.28385 12.841 1.31943 12.8004 1.3704C12.7598 1.42137 12.7384 1.48457 12.74 1.54923V3.2263C12.7395 3.26333 12.7465 3.30011 12.7606 3.33448C12.7746 3.36885 12.7955 3.40013 12.8221 3.42651C12.8486 3.45289 12.8802 3.47383 12.915 3.48813C12.9499 3.50243 12.9873 3.50979 13.0251 3.50979C13.0628 3.50979 13.1002 3.50243 13.1351 3.48813C13.1699 3.47383 13.2015 3.45289 13.2281 3.42651C13.2546 3.40013 13.2755 3.36885 13.2896 3.33448C13.3037 3.30011 13.3106 3.26333 13.3101 3.2263V1.54923C13.3115 1.50948 13.3043 1.46989 13.2889 1.4331C13.2735 1.39631 13.2503 1.36317 13.2208 1.33588C13.1913 1.3086 13.1562 1.28781 13.1178 1.27489C13.0794 1.26197 13.0387 1.25723 12.9983 1.26098ZM5.30239 3.77658C5.29033 3.77874 5.27843 3.78166 5.26676 3.78532C5.21834 3.79508 5.17334 3.81703 5.13618 3.849C5.09902 3.88098 5.07098 3.92188 5.05481 3.96769C5.03863 4.0135 5.03489 4.06264 5.04394 4.1103C5.05299 4.15796 5.07452 4.20249 5.10643 4.23952L7.67174 7.31415C7.69513 7.34284 7.72406 7.36673 7.75687 7.38445C7.78967 7.40217 7.82572 7.41339 7.86295 7.41745C7.90017 7.42151 7.93785 7.41834 7.97383 7.40812C8.0098 7.3979 8.04338 7.38083 8.07262 7.35788C8.10187 7.33494 8.12622 7.30657 8.14429 7.27439C8.16236 7.24222 8.17378 7.20687 8.17791 7.17036C8.18204 7.13385 8.1788 7.09691 8.16837 7.06163C8.15794 7.02635 8.14052 6.99344 8.11711 6.96476L5.5518 3.89014C5.52336 3.85212 5.48558 3.82177 5.44198 3.80192C5.39837 3.78207 5.35035 3.77335 5.30239 3.77658ZM20.6943 3.77658C20.6822 3.77874 20.6703 3.78166 20.6587 3.78532C20.5944 3.80095 20.5377 3.838 20.4983 3.89014L17.933 6.96476C17.9096 6.99344 17.8922 7.02635 17.8818 7.06163C17.8713 7.09691 17.8681 7.13385 17.8722 7.17036C17.8763 7.20687 17.8878 7.24222 17.9058 7.27439C17.9239 7.30657 17.9482 7.33494 17.9775 7.35788C18.0067 7.38083 18.0403 7.3979 18.0763 7.40812C18.1123 7.41834 18.15 7.42151 18.1872 7.41745C18.2244 7.41339 18.2605 7.40217 18.2933 7.38445C18.3261 7.36673 18.355 7.34284 18.3784 7.31415L20.9437 4.23952C20.9823 4.19697 21.0066 4.14389 21.0136 4.08737C21.0206 4.03085 21.0098 3.9736 20.9827 3.92327C20.9555 3.87293 20.9134 3.83192 20.8619 3.8057C20.8103 3.77949 20.7519 3.76933 20.6943 3.77658ZM13.0251 6.85994C11.6117 6.85994 10.4597 7.98954 10.4597 9.37555C10.4597 10.7616 11.6117 11.8912 13.0251 11.8912C14.4385 11.8912 15.5904 10.7616 15.5904 9.37555C15.5904 7.98954 14.4385 6.85994 13.0251 6.85994ZM13.0251 7.41897C14.1304 7.41897 15.0203 8.29166 15.0203 9.37555C15.0203 10.4595 14.1304 11.3321 13.0251 11.3321C11.9197 11.3321 11.0298 10.4595 11.0298 9.37555C11.0298 8.29166 11.9197 7.41897 13.0251 7.41897ZM1.27627 10.4936C1.23884 10.4947 1.202 10.5031 1.16787 10.5182C1.13373 10.5333 1.10297 10.5549 1.07733 10.5816C1.05168 10.6084 1.03167 10.6399 1.01843 10.6742C1.00518 10.7086 0.998969 10.7451 1.00014 10.7818C1.00131 10.8185 1.00984 10.8547 1.02524 10.8881C1.04065 10.9216 1.06263 10.9518 1.08992 10.9769C1.11722 11.0021 1.1493 11.0217 1.18433 11.0347C1.21936 11.0477 1.25665 11.0538 1.29408 11.0526L3.00429 11.3321C3.07989 11.3437 3.15708 11.3254 3.21889 11.2811C3.28069 11.2369 3.32205 11.1704 3.33386 11.0963C3.34568 11.0222 3.32697 10.9465 3.28187 10.8859C3.23677 10.8252 3.16896 10.7847 3.09337 10.7731L1.38316 10.4936C1.35657 10.4899 1.32958 10.4899 1.30299 10.4936C1.29409 10.4932 1.28517 10.4932 1.27627 10.4936ZM24.667 10.4936L22.9568 10.7731C22.8812 10.7847 22.8134 10.8252 22.7683 10.8859C22.7232 10.9465 22.7044 11.0222 22.7163 11.0963C22.7281 11.1704 22.7694 11.2369 22.8312 11.2811C22.893 11.3254 22.9702 11.3437 23.0458 11.3321L24.756 11.0526C24.8316 11.041 24.8994 11.0005 24.9445 10.9399C24.9896 10.8793 25.0084 10.8036 24.9965 10.7294C24.9847 10.6553 24.9434 10.5888 24.8816 10.5446C24.8198 10.5003 24.7426 10.482 24.667 10.4936ZM13.0251 12.4502C10.213 12.4502 7.89443 14.4356 7.89443 16.9224C7.89444 16.9965 7.92447 17.0676 7.97792 17.12C8.03137 17.1724 8.10387 17.2019 8.17946 17.2019H17.8707C17.9463 17.2019 18.0187 17.1724 18.0722 17.12C18.1257 17.0676 18.1557 16.9965 18.1557 16.9224C18.1557 14.4356 15.8371 12.4502 13.0251 12.4502ZM13.0251 13.0092C15.4522 13.0092 17.381 14.6285 17.55 16.6428H8.50013C8.66914 14.6285 10.5979 13.0092 13.0251 13.0092ZM5.85464 16.0838C5.8298 16.0894 5.80584 16.0982 5.78339 16.11L2.07793 17.7871C2.0395 17.7989 2.00405 17.8185 1.97393 17.8447C1.9438 17.8709 1.91968 17.9031 1.90315 17.9391C1.88662 17.9751 1.87806 18.0142 1.87803 18.0536C1.87799 18.0931 1.88649 18.1322 1.90297 18.1682C1.91944 18.2043 1.94351 18.2365 1.97359 18.2627C2.00368 18.289 2.03909 18.3087 2.0775 18.3205C2.11591 18.3324 2.15645 18.3361 2.19644 18.3315C2.23643 18.3269 2.27497 18.314 2.30952 18.2937L6.01498 16.6166C6.07951 16.5899 6.13175 16.5408 6.16172 16.4787C6.19169 16.4166 6.1973 16.3459 6.17747 16.28C6.15764 16.2141 6.11377 16.1577 6.05423 16.1215C5.99468 16.0853 5.92364 16.0719 5.85464 16.0838ZM20.1064 16.0838C20.0452 16.0928 19.9887 16.1211 19.9453 16.1645C19.902 16.2078 19.8742 16.2637 19.8661 16.3239C19.8581 16.3841 19.8702 16.4452 19.9007 16.498C19.9312 16.5508 19.9784 16.5925 20.0351 16.6166L23.7406 18.2937C23.7752 18.314 23.8137 18.3269 23.8537 18.3315C23.8937 18.3361 23.9342 18.3324 23.9726 18.3205C24.011 18.3087 24.0464 18.289 24.0765 18.2627C24.1066 18.2365 24.1307 18.2043 24.1472 18.1682C24.1636 18.1322 24.1721 18.0931 24.1721 18.0536C24.1721 18.0142 24.1635 17.9751 24.147 17.9391C24.1304 17.9031 24.1063 17.8709 24.0762 17.8447C24.0461 17.8185 24.0106 17.7989 23.9722 17.7871L20.2667 16.11C20.217 16.0862 20.1613 16.0771 20.1064 16.0838ZM12.9983 20.8268C12.9863 20.8289 12.9744 20.8319 12.9627 20.8355C12.8983 20.8497 12.841 20.8852 12.8004 20.9362C12.7598 20.9872 12.7384 21.0504 12.74 21.115V25.0282C12.7395 25.0652 12.7465 25.102 12.7606 25.1364C12.7746 25.1707 12.7955 25.202 12.8221 25.2284C12.8486 25.2548 12.8802 25.2757 12.915 25.29C12.9499 25.3043 12.9873 25.3117 13.0251 25.3117C13.0628 25.3117 13.1002 25.3043 13.1351 25.29C13.1699 25.2757 13.2015 25.2548 13.2281 25.2284C13.2546 25.202 13.2755 25.1707 13.2896 25.1364C13.3037 25.102 13.3106 25.0652 13.3101 25.0282V21.115C13.3115 21.0753 13.3043 21.0357 13.2889 20.9989C13.2735 20.9621 13.2503 20.929 13.2208 20.9017C13.1913 20.8744 13.1562 20.8536 13.1178 20.8407C13.0794 20.8278 13.0387 20.823 12.9983 20.8268ZM7.27982 21.3945C7.23869 21.4023 7.19981 21.4188 7.16594 21.443C7.13207 21.4671 7.10405 21.4983 7.08386 21.5343L6.22875 22.9319C6.20058 22.9626 6.17971 22.9991 6.16765 23.0387C6.1556 23.0784 6.15266 23.1201 6.15904 23.161C6.16542 23.2019 6.18097 23.2408 6.20457 23.2751C6.22817 23.3094 6.25922 23.3381 6.29549 23.3591C6.33177 23.3802 6.37236 23.3932 6.41434 23.397C6.45632 23.4008 6.49865 23.3955 6.53827 23.3814C6.5779 23.3672 6.61383 23.3446 6.64348 23.3152C6.67313 23.2859 6.69577 23.2504 6.70975 23.2114L7.56486 21.8138C7.59222 21.7685 7.60598 21.7165 7.60455 21.6639C7.60312 21.6113 7.58656 21.5601 7.55678 21.5163C7.52699 21.4725 7.48519 21.4378 7.43619 21.4163C7.3872 21.3947 7.33299 21.3872 7.27982 21.3945ZM18.6812 21.3945C18.6356 21.4023 18.5926 21.4208 18.5558 21.4485C18.5191 21.4762 18.4899 21.5122 18.4706 21.5535C18.4513 21.5948 18.4425 21.6401 18.4451 21.6855C18.4476 21.7308 18.4614 21.7749 18.4853 21.8138L19.3404 23.2114C19.3544 23.2504 19.377 23.2859 19.4066 23.3152C19.4363 23.3446 19.4722 23.3672 19.5118 23.3814C19.5515 23.3955 19.5938 23.4008 19.6358 23.397C19.6778 23.3932 19.7184 23.3802 19.7546 23.3591C19.7909 23.3381 19.822 23.3094 19.8456 23.2751C19.8691 23.2408 19.8847 23.2019 19.8911 23.161C19.8975 23.1201 19.8945 23.0784 19.8825 23.0387C19.8704 22.9991 19.8495 22.9626 19.8214 22.9319L18.9663 21.5343C18.9383 21.4858 18.8963 21.4466 18.8455 21.4217C18.7947 21.3968 18.7375 21.3874 18.6812 21.3945Z" fill="#363638"/>
<path d="M12.9983 1.26098C12.9863 1.26314 12.9744 1.26606 12.9627 1.26971C12.8983 1.28385 12.841 1.31943 12.8004 1.3704C12.7598 1.42137 12.7384 1.48457 12.74 1.54923V3.2263C12.7395 3.26333 12.7465 3.30011 12.7606 3.33448C12.7746 3.36885 12.7955 3.40013 12.8221 3.42651C12.8486 3.45289 12.8802 3.47383 12.915 3.48813C12.9499 3.50243 12.9873 3.50979 13.0251 3.50979C13.0628 3.50979 13.1002 3.50243 13.1351 3.48813C13.1699 3.47383 13.2015 3.45289 13.2281 3.42651C13.2546 3.40013 13.2755 3.36885 13.2896 3.33448C13.3037 3.30011 13.3106 3.26333 13.3101 3.2263V1.54923C13.3115 1.50948 13.3043 1.46989 13.2889 1.4331C13.2735 1.39631 13.2503 1.36317 13.2208 1.33588C13.1913 1.3086 13.1562 1.28781 13.1178 1.27489C13.0794 1.26197 13.0387 1.25723 12.9983 1.26098ZM5.30239 3.77658C5.29033 3.77874 5.27843 3.78166 5.26676 3.78532C5.21834 3.79508 5.17334 3.81703 5.13618 3.849C5.09902 3.88098 5.07098 3.92188 5.05481 3.96769C5.03863 4.0135 5.03489 4.06264 5.04394 4.1103C5.05299 4.15796 5.07452 4.20249 5.10643 4.23952L7.67174 7.31415C7.69513 7.34284 7.72406 7.36673 7.75687 7.38445C7.78967 7.40217 7.82572 7.41339 7.86295 7.41745C7.90017 7.42151 7.93785 7.41834 7.97383 7.40812C8.0098 7.3979 8.04338 7.38083 8.07262 7.35788C8.10187 7.33494 8.12622 7.30657 8.14429 7.27439C8.16236 7.24222 8.17378 7.20687 8.17791 7.17036C8.18204 7.13385 8.1788 7.09691 8.16837 7.06163C8.15794 7.02635 8.14052 6.99344 8.11711 6.96476L5.5518 3.89014C5.52336 3.85212 5.48558 3.82177 5.44198 3.80192C5.39837 3.78207 5.35035 3.77335 5.30239 3.77658ZM20.6943 3.77658C20.6822 3.77874 20.6703 3.78166 20.6587 3.78532C20.5944 3.80095 20.5377 3.838 20.4983 3.89014L17.933 6.96476C17.9096 6.99344 17.8922 7.02635 17.8818 7.06163C17.8713 7.09691 17.8681 7.13385 17.8722 7.17036C17.8763 7.20687 17.8878 7.24222 17.9058 7.27439C17.9239 7.30657 17.9482 7.33494 17.9775 7.35788C18.0067 7.38083 18.0403 7.3979 18.0763 7.40812C18.1123 7.41834 18.15 7.42151 18.1872 7.41745C18.2244 7.41339 18.2605 7.40217 18.2933 7.38445C18.3261 7.36673 18.355 7.34284 18.3784 7.31415L20.9437 4.23952C20.9823 4.19697 21.0066 4.14389 21.0136 4.08737C21.0206 4.03085 21.0098 3.9736 20.9827 3.92327C20.9555 3.87293 20.9134 3.83192 20.8619 3.8057C20.8103 3.77949 20.7519 3.76933 20.6943 3.77658ZM13.0251 6.85994C11.6117 6.85994 10.4597 7.98954 10.4597 9.37555C10.4597 10.7616 11.6117 11.8912 13.0251 11.8912C14.4385 11.8912 15.5904 10.7616 15.5904 9.37555C15.5904 7.98954 14.4385 6.85994 13.0251 6.85994ZM13.0251 7.41897C14.1304 7.41897 15.0203 8.29166 15.0203 9.37555C15.0203 10.4595 14.1304 11.3321 13.0251 11.3321C11.9197 11.3321 11.0298 10.4595 11.0298 9.37555C11.0298 8.29166 11.9197 7.41897 13.0251 7.41897ZM1.27627 10.4936C1.23884 10.4947 1.202 10.5031 1.16787 10.5182C1.13373 10.5333 1.10297 10.5549 1.07733 10.5816C1.05168 10.6084 1.03167 10.6399 1.01843 10.6742C1.00518 10.7086 0.998969 10.7451 1.00014 10.7818C1.00131 10.8185 1.00984 10.8547 1.02524 10.8881C1.04065 10.9216 1.06263 10.9518 1.08992 10.9769C1.11722 11.0021 1.1493 11.0217 1.18433 11.0347C1.21936 11.0477 1.25665 11.0538 1.29408 11.0526L3.00429 11.3321C3.07989 11.3437 3.15708 11.3254 3.21889 11.2811C3.28069 11.2369 3.32205 11.1704 3.33386 11.0963C3.34568 11.0222 3.32697 10.9465 3.28187 10.8859C3.23677 10.8252 3.16896 10.7847 3.09337 10.7731L1.38316 10.4936C1.35657 10.4899 1.32958 10.4899 1.30299 10.4936C1.29409 10.4932 1.28517 10.4932 1.27627 10.4936ZM24.667 10.4936L22.9568 10.7731C22.8812 10.7847 22.8134 10.8252 22.7683 10.8859C22.7232 10.9465 22.7044 11.0222 22.7163 11.0963C22.7281 11.1704 22.7694 11.2369 22.8312 11.2811C22.893 11.3254 22.9702 11.3437 23.0458 11.3321L24.756 11.0526C24.8316 11.041 24.8994 11.0005 24.9445 10.9399C24.9896 10.8793 25.0084 10.8036 24.9965 10.7294C24.9847 10.6553 24.9434 10.5888 24.8816 10.5446C24.8198 10.5003 24.7426 10.482 24.667 10.4936ZM13.0251 12.4502C10.213 12.4502 7.89443 14.4356 7.89443 16.9224C7.89444 16.9965 7.92447 17.0676 7.97792 17.12C8.03137 17.1724 8.10387 17.2019 8.17946 17.2019H17.8707C17.9463 17.2019 18.0187 17.1724 18.0722 17.12C18.1257 17.0676 18.1557 16.9965 18.1557 16.9224C18.1557 14.4356 15.8371 12.4502 13.0251 12.4502ZM13.0251 13.0092C15.4522 13.0092 17.381 14.6285 17.55 16.6428H8.50013C8.66914 14.6285 10.5979 13.0092 13.0251 13.0092ZM5.85464 16.0838C5.8298 16.0894 5.80584 16.0982 5.78339 16.11L2.07793 17.7871C2.0395 17.7989 2.00405 17.8185 1.97393 17.8447C1.9438 17.8709 1.91968 17.9031 1.90315 17.9391C1.88662 17.9751 1.87806 18.0142 1.87803 18.0536C1.87799 18.0931 1.88649 18.1322 1.90297 18.1682C1.91944 18.2043 1.94351 18.2365 1.97359 18.2627C2.00368 18.289 2.03909 18.3087 2.0775 18.3205C2.11591 18.3324 2.15645 18.3361 2.19644 18.3315C2.23643 18.3269 2.27497 18.314 2.30952 18.2937L6.01498 16.6166C6.07951 16.5899 6.13175 16.5408 6.16172 16.4787C6.19169 16.4166 6.1973 16.3459 6.17747 16.28C6.15764 16.2141 6.11377 16.1577 6.05423 16.1215C5.99468 16.0853 5.92364 16.0719 5.85464 16.0838ZM20.1064 16.0838C20.0452 16.0928 19.9887 16.1211 19.9453 16.1645C19.902 16.2078 19.8742 16.2637 19.8661 16.3239C19.8581 16.3841 19.8702 16.4452 19.9007 16.498C19.9312 16.5508 19.9784 16.5925 20.0351 16.6166L23.7406 18.2937C23.7752 18.314 23.8137 18.3269 23.8537 18.3315C23.8937 18.3361 23.9342 18.3324 23.9726 18.3205C24.011 18.3087 24.0464 18.289 24.0765 18.2627C24.1066 18.2365 24.1307 18.2043 24.1472 18.1682C24.1636 18.1322 24.1721 18.0931 24.1721 18.0536C24.1721 18.0142 24.1635 17.9751 24.147 17.9391C24.1304 17.9031 24.1063 17.8709 24.0762 17.8447C24.0461 17.8185 24.0106 17.7989 23.9722 17.7871L20.2667 16.11C20.217 16.0862 20.1613 16.0771 20.1064 16.0838ZM12.9983 20.8268C12.9863 20.8289 12.9744 20.8319 12.9627 20.8355C12.8983 20.8497 12.841 20.8852 12.8004 20.9362C12.7598 20.9872 12.7384 21.0504 12.74 21.115V25.0282C12.7395 25.0652 12.7465 25.102 12.7606 25.1364C12.7746 25.1707 12.7955 25.202 12.8221 25.2284C12.8486 25.2548 12.8802 25.2757 12.915 25.29C12.9499 25.3043 12.9873 25.3117 13.0251 25.3117C13.0628 25.3117 13.1002 25.3043 13.1351 25.29C13.1699 25.2757 13.2015 25.2548 13.2281 25.2284C13.2546 25.202 13.2755 25.1707 13.2896 25.1364C13.3037 25.102 13.3106 25.0652 13.3101 25.0282V21.115C13.3115 21.0753 13.3043 21.0357 13.2889 20.9989C13.2735 20.9621 13.2503 20.929 13.2208 20.9017C13.1913 20.8744 13.1562 20.8536 13.1178 20.8407C13.0794 20.8278 13.0387 20.823 12.9983 20.8268ZM7.27982 21.3945C7.23869 21.4023 7.19981 21.4188 7.16594 21.443C7.13207 21.4671 7.10405 21.4983 7.08386 21.5343L6.22875 22.9319C6.20058 22.9626 6.17971 22.9991 6.16765 23.0387C6.1556 23.0784 6.15266 23.1201 6.15904 23.161C6.16542 23.2019 6.18097 23.2408 6.20457 23.2751C6.22817 23.3094 6.25922 23.3381 6.29549 23.3591C6.33177 23.3802 6.37236 23.3932 6.41434 23.397C6.45632 23.4008 6.49865 23.3955 6.53827 23.3814C6.5779 23.3672 6.61383 23.3446 6.64348 23.3152C6.67313 23.2859 6.69577 23.2504 6.70975 23.2114L7.56486 21.8138C7.59222 21.7685 7.60598 21.7165 7.60455 21.6639C7.60312 21.6113 7.58656 21.5601 7.55678 21.5163C7.52699 21.4725 7.48519 21.4378 7.43619 21.4163C7.3872 21.3947 7.33299 21.3872 7.27982 21.3945ZM18.6812 21.3945C18.6356 21.4023 18.5926 21.4208 18.5558 21.4485C18.5191 21.4762 18.4899 21.5122 18.4706 21.5535C18.4513 21.5948 18.4425 21.6401 18.4451 21.6855C18.4476 21.7308 18.4614 21.7749 18.4853 21.8138L19.3404 23.2114C19.3544 23.2504 19.377 23.2859 19.4066 23.3152C19.4363 23.3446 19.4722 23.3672 19.5118 23.3814C19.5515 23.3955 19.5938 23.4008 19.6358 23.397C19.6778 23.3932 19.7184 23.3802 19.7546 23.3591C19.7909 23.3381 19.822 23.3094 19.8456 23.2751C19.8691 23.2408 19.8847 23.2019 19.8911 23.161C19.8975 23.1201 19.8945 23.0784 19.8825 23.0387C19.8704 22.9991 19.8495 22.9626 19.8214 22.9319L18.9663 21.5343C18.9383 21.4858 18.8963 21.4466 18.8455 21.4217C18.7947 21.3968 18.7375 21.3874 18.6812 21.3945Z" stroke="#363638" stroke-width="0.8" mask="url(#path-1-outside-1_36_1322)"/>
</svg>
