<svg width="20" height="20" viewBox="0 0 20 20" fill="none" xmlns="http://www.w3.org/2000/svg">
<path d="M10.002 19C11.9649 18.9996 13.8739 18.3574 15.438 17.1713C17.0021 15.9853 18.1355 14.3204 18.6656 12.4304C19.1957 10.5404 19.0933 8.52892 18.3741 6.70249C17.6549 4.87606 16.3583 3.33483 14.6819 2.31369C13.0055 1.29254 11.0412 0.847472 9.08839 1.0463C7.13555 1.24513 5.30126 2.07695 3.86505 3.415C2.42884 4.75306 1.46946 6.52397 1.13312 8.45787C0.796771 10.3918 1.10191 12.3826 2.00202 14.127L1.00202 19L5.87502 18C7.11101 18.639 8.51501 19 10.002 19Z" stroke="#363638" stroke-linecap="round" stroke-linejoin="round"/>
<path d="M5.50195 10H5.51195V10.01H5.50195V10ZM10.0019 10H10.0119V10.01H10.0019V10ZM14.5019 10H14.5119V10.01H14.5019V10Z" stroke="#363638" stroke-width="2" stroke-linejoin="round"/>
</svg>
