<svg width="20" height="20" viewBox="0 0 20 20" fill="none" xmlns="http://www.w3.org/2000/svg">
<path d="M19 10.163V2.68369C19 2.28697 18.842 1.90649 18.5607 1.62596C18.2794 1.34543 17.8978 1.18784 17.5 1.18784H2.5C2.10218 1.18784 1.72064 1.34543 1.43934 1.62596C1.15804 1.90649 1 2.28697 1 2.68369V17.6423C1 18.039 1.15804 18.4195 1.43934 18.7C1.72064 18.9805 2.10218 19.1381 2.5 19.1381H10" stroke="#363638" stroke-width="1.5" stroke-linecap="round" stroke-linejoin="round"/>
<path d="M14 17.1436C15.6569 17.1436 17 15.8042 17 14.1519C17 12.4997 15.6569 11.1602 14 11.1602C12.3431 11.1602 11 12.4997 11 14.1519C11 15.8042 12.3431 17.1436 14 17.1436Z" stroke="#363638" stroke-width="1.5"/>
<path d="M16.5 16.1464L19 18.1409M5 6.17404H15M5 10.163H9" stroke="#363638" stroke-width="1.5" stroke-linecap="round" stroke-linejoin="round"/>
</svg>
