<svg width="18" height="18" viewBox="0 0 18 18" fill="none" xmlns="http://www.w3.org/2000/svg">
<path d="M9.0002 1.12498C4.65104 1.12498 1.12537 4.65065 1.12537 8.99981C1.12537 10.4344 1.50831 11.7776 2.17744 12.935C2.25394 13.0668 2.27329 13.2239 2.23144 13.3706L1.27926 16.7194L4.62719 15.7672C4.69971 15.7466 4.77564 15.7407 4.85047 15.75C4.9253 15.7592 4.9975 15.7835 5.06278 15.8212C6.25924 16.5138 7.61774 16.8773 9.0002 16.8746C13.3494 16.8746 16.875 13.349 16.875 8.99981C16.875 4.65065 13.3494 1.12498 9.0002 1.12498ZM0.000390296 8.99981C0.000390296 4.02921 4.0296 0 9.0002 0C13.9708 0 18 4.02921 18 8.99981C18 13.9704 13.9708 17.9996 9.0002 17.9996C7.44773 17.9996 5.98616 17.6063 4.71044 16.9133L1.00387 17.9672C0.410331 18.136 -0.137757 17.5874 0.0309896 16.9943L1.08487 13.2873C0.370596 11.9713 -0.00226725 10.4972 0.000390296 8.99981ZM5.40027 7.31234C5.40027 7.00185 5.65227 6.74985 5.96276 6.74985H12.0376C12.1115 6.74985 12.1846 6.7644 12.2529 6.79267C12.3211 6.82094 12.3831 6.86237 12.4354 6.9146C12.4876 6.96683 12.529 7.02884 12.5573 7.09709C12.5856 7.16533 12.6001 7.23847 12.6001 7.31234C12.6001 7.38621 12.5856 7.45935 12.5573 7.5276C12.529 7.59584 12.4876 7.65785 12.4354 7.71008C12.3831 7.76231 12.3211 7.80375 12.2529 7.83201C12.1846 7.86028 12.1115 7.87483 12.0376 7.87483H5.96276C5.65227 7.87483 5.40027 7.62284 5.40027 7.31234ZM5.96276 10.1248C5.81358 10.1248 5.67051 10.184 5.56502 10.2895C5.45953 10.395 5.40027 10.5381 5.40027 10.6873C5.40027 10.8364 5.45953 10.9795 5.56502 11.085C5.67051 11.1905 5.81358 11.2498 5.96276 11.2498H10.2377C10.3869 11.2498 10.5299 11.1905 10.6354 11.085C10.7409 10.9795 10.8002 10.8364 10.8002 10.6873C10.8002 10.5381 10.7409 10.395 10.6354 10.2895C10.5299 10.184 10.3869 10.1248 10.2377 10.1248H5.96276Z" fill="#263238" fill-opacity="0.8"/>
</svg>
