<svg width="20" height="20" viewBox="0 0 20 20" fill="none" xmlns="http://www.w3.org/2000/svg">
<path d="M14.1491 14.1896C14.8905 13.4812 15.4817 12.6338 15.8882 11.6969C16.2946 10.76 16.5082 9.75238 16.5164 8.73293C16.5246 7.71347 16.3272 6.70263 15.9358 5.75947C15.5444 4.81631 14.9669 3.95975 14.2369 3.23983C13.5069 2.51991 12.6392 1.95108 11.6844 1.56658C10.7296 1.18208 9.70686 0.989612 8.67597 1.00043C7.64509 1.01125 6.62672 1.22514 5.68038 1.6296C4.73404 2.03406 3.8787 2.62097 3.16435 3.35605C1.75587 4.8054 0.978864 6.74349 1.00044 8.7535C1.02201 10.7635 1.84045 12.6848 3.27972 14.1043C4.71899 15.5238 6.66412 16.328 8.69677 16.3439C10.7294 16.3598 12.6872 15.5863 14.1491 14.1896ZM14.1491 14.1896L19 19" stroke="#363638" stroke-width="1.3" stroke-linecap="round" stroke-linejoin="round"/>
</svg>
