<svg width="141" height="123" viewBox="0 0 141 123" fill="none" xmlns="http://www.w3.org/2000/svg">
<g clip-path="url(#clip0_114_407)">
<path d="M47.1709 10.2568H32.7031V56.1114H47.1709V10.2568Z" fill="#F5F5F5"/>
<path d="M47.1714 10.2568H39.9375V55.9857H47.1714V10.2568Z" fill="#EBEBEB"/>
<path d="M39.4644 5.75195H34.3555V10.2533H39.4644V5.75195Z" fill="#F5F5F5"/>
<path d="M39.4642 5.75195H38.2461V10.2533H39.4642V5.75195Z" fill="#EBEBEB"/>
<path d="M31.498 10.2565V9.99316H47.597V10.2565" fill="#E0E0E0"/>
<path d="M36.7827 12.2197H35.5586V14.8026H36.7827V12.2197Z" fill="#FAFAFA"/>
<path d="M39.937 15.8145C39.937 15.8414 38.3178 15.8654 36.3186 15.8654C34.3193 15.8654 32.7031 15.8414 32.7031 15.8145C32.7031 15.7876 34.3223 15.7666 36.3186 15.7666C38.3148 15.7666 39.937 15.7876 39.937 15.8145Z" fill="#E0E0E0"/>
<path d="M44.0796 12.2197H42.8555V14.8026H44.0796V12.2197Z" fill="#E0E0E0"/>
<path d="M47.2339 15.8145C47.2339 15.8414 45.6148 15.8654 43.6185 15.8654C41.6222 15.8654 40 15.8414 40 15.8145C40 15.7876 41.6192 15.7666 43.6185 15.7666C45.6178 15.7666 47.2339 15.7876 47.2339 15.8145Z" fill="#E0E0E0"/>
<path d="M44.0796 17.3467H42.8555V19.9296H44.0796V17.3467Z" fill="#E0E0E0"/>
<path d="M47.2339 20.9415C47.2339 20.9684 45.6148 20.9923 43.6185 20.9923C41.6222 20.9923 40 20.9684 40 20.9415C40 20.9145 41.6192 20.8936 43.6185 20.8936C45.6178 20.8936 47.2339 20.9145 47.2339 20.9415Z" fill="#E0E0E0"/>
<path d="M44.0796 22.626H42.8555V25.2089H44.0796V22.626Z" fill="#E0E0E0"/>
<path d="M47.2339 26.2237C47.2339 26.2506 45.6148 26.2716 43.6185 26.2716C41.6222 26.2716 40 26.2506 40 26.2237C40 26.1967 41.6192 26.1758 43.6185 26.1758C45.6178 26.1758 47.2339 26.1967 47.2339 26.2237Z" fill="#E0E0E0"/>
<path d="M44.0796 27.9092H42.8555V30.4921H44.0796V27.9092Z" fill="#E0E0E0"/>
<path d="M47.2339 31.506C47.2339 31.5329 45.6148 31.5539 43.6185 31.5539C41.6222 31.5539 40 31.5329 40 31.506C40 31.479 41.6192 31.4551 43.6185 31.4551C45.6178 31.4551 47.2339 31.479 47.2339 31.506Z" fill="#E0E0E0"/>
<path d="M44.0796 33.042H42.8555V35.6249H44.0796V33.042Z" fill="#E0E0E0"/>
<path d="M47.2339 36.6396C47.2339 36.6666 45.6148 36.6905 43.6185 36.6905C41.6222 36.6905 40 36.6666 40 36.6396C40 36.6127 41.6192 36.5918 43.6185 36.5918C45.6178 36.5918 47.2339 36.6097 47.2339 36.6396Z" fill="#E0E0E0"/>
<path d="M44.0796 38.1924H42.8555V40.7753H44.0796V38.1924Z" fill="#E0E0E0"/>
<path d="M44.0796 43.4121H42.8555V45.995H44.0796V43.4121Z" fill="#E0E0E0"/>
<path d="M47.2339 41.7872C47.2339 41.8141 45.6148 41.838 43.6185 41.838C41.6222 41.838 40 41.8141 40 41.7872C40 41.7602 41.6192 41.7393 43.6185 41.7393C45.6178 41.7393 47.2339 41.7602 47.2339 41.7872Z" fill="#E0E0E0"/>
<path d="M36.7827 17.4248H35.5586V20.0077H36.7827V17.4248Z" fill="#FAFAFA"/>
<path d="M39.9372 21.0196C39.9372 21.0465 38.318 21.0704 36.3188 21.0704C34.3195 21.0704 32.6973 21.0465 32.6973 21.0196C32.6973 20.9926 34.3165 20.9717 36.3128 20.9717C38.3091 20.9717 39.9372 20.9926 39.9372 21.0196Z" fill="#E0E0E0"/>
<path d="M36.7827 22.6299H35.5586V25.2128H36.7827V22.6299Z" fill="#FAFAFA"/>
<path d="M39.9372 26.2267C39.9372 26.2536 38.318 26.2745 36.3188 26.2745C34.3195 26.2745 32.6973 26.2536 32.6973 26.2267C32.6973 26.1997 34.3165 26.1758 36.3128 26.1758C38.3091 26.1758 39.9372 26.1997 39.9372 26.2267Z" fill="#E0E0E0"/>
<path d="M36.7827 27.834H35.5586V30.4169H36.7827V27.834Z" fill="#FAFAFA"/>
<path d="M39.9372 31.4318C39.9372 31.4587 38.318 31.4796 36.3188 31.4796C34.3195 31.4796 32.6973 31.4587 32.6973 31.4318C32.6973 31.4048 34.3165 31.3809 36.3128 31.3809C38.3091 31.3809 39.9372 31.4048 39.9372 31.4318Z" fill="#E0E0E0"/>
<path d="M36.7827 33.042H35.5586V35.6249H36.7827V33.042Z" fill="#FAFAFA"/>
<path d="M39.9372 36.6396C39.9372 36.6666 38.318 36.6905 36.3188 36.6905C34.3195 36.6905 32.6973 36.6636 32.6973 36.6396C32.6973 36.6157 34.3165 36.5918 36.3128 36.5918C38.3091 36.5918 39.9372 36.6097 39.9372 36.6396Z" fill="#E0E0E0"/>
<path d="M36.7827 38.2461H35.5586V40.829H36.7827V38.2461Z" fill="#FAFAFA"/>
<path d="M39.937 41.8408C39.937 41.8678 38.3178 41.8917 36.3186 41.8917C34.3193 41.8917 32.7031 41.8678 32.7031 41.8408C32.7031 41.8139 34.3223 41.793 36.3186 41.793C38.3148 41.793 39.937 41.8139 39.937 41.8408Z" fill="#E0E0E0"/>
<path d="M36.7827 43.4512H35.5586V46.0341H36.7827V43.4512Z" fill="#FAFAFA"/>
<path d="M100.157 19.9775H85.6895V65.8321H100.157V19.9775Z" fill="#F5F5F5"/>
<path d="M100.162 19.9775H92.9277V65.7064H100.162V19.9775Z" fill="#EBEBEB"/>
<path d="M92.4546 15.4766H87.3457V19.9779H92.4546V15.4766Z" fill="#F5F5F5"/>
<path d="M92.4544 15.4766H91.2363V19.9779H92.4544V15.4766Z" fill="#EBEBEB"/>
<path d="M84.4863 19.9772V19.7139H100.582V19.9772" fill="#E0E0E0"/>
<path d="M89.7729 21.9414H88.5488V24.5243H89.7729V21.9414Z" fill="#FAFAFA"/>
<path d="M92.9264 25.5382C92.9264 25.5651 91.3072 25.5861 89.3079 25.5861C87.3087 25.5861 85.6895 25.5651 85.6895 25.5382C85.6895 25.5113 87.3117 25.4873 89.3079 25.4873C91.3042 25.4873 92.9264 25.5113 92.9264 25.5382Z" fill="#E0E0E0"/>
<path d="M97.0698 21.9414H95.8457V24.5243H97.0698V21.9414Z" fill="#E0E0E0"/>
<path d="M100.224 25.5382C100.224 25.5651 98.6049 25.5861 96.6056 25.5861C94.6064 25.5861 92.9902 25.5651 92.9902 25.5382C92.9902 25.5113 94.6094 25.4873 96.6056 25.4873C98.6019 25.4873 100.224 25.5113 100.224 25.5382Z" fill="#E0E0E0"/>
<path d="M97.0698 27.0684H95.8457V29.6513H97.0698V27.0684Z" fill="#E0E0E0"/>
<path d="M100.224 30.6534C100.224 30.6803 98.6049 30.7013 96.6056 30.7013C94.6064 30.7013 92.9902 30.6803 92.9902 30.6534C92.9902 30.6265 94.6094 30.6025 96.6056 30.6025C98.6019 30.6025 100.224 30.6534 100.224 30.6534Z" fill="#E0E0E0"/>
<path d="M97.0698 32.3506H95.8457V34.9335H97.0698V32.3506Z" fill="#E0E0E0"/>
<path d="M100.224 35.9484C100.224 35.9753 98.6049 35.9963 96.6056 35.9963C94.6064 35.9963 92.9902 35.9753 92.9902 35.9484C92.9902 35.9214 94.6094 35.8975 96.6056 35.8975C98.6019 35.8975 100.224 35.9214 100.224 35.9484Z" fill="#E0E0E0"/>
<path d="M97.0698 37.6328H95.8457V40.2157H97.0698V37.6328Z" fill="#E0E0E0"/>
<path d="M100.224 41.2276C100.224 41.2575 98.6049 41.2785 96.6056 41.2785C94.6064 41.2785 92.9902 41.2575 92.9902 41.2276C92.9902 41.1977 94.6094 41.1797 96.6056 41.1797C98.6019 41.1797 100.224 41.2007 100.224 41.2276Z" fill="#E0E0E0"/>
<path d="M97.0698 42.7627H95.8457V45.3455H97.0698V42.7627Z" fill="#E0E0E0"/>
<path d="M100.224 46.3605C100.224 46.3874 98.6049 46.4083 96.6056 46.4083C94.6064 46.4083 92.9902 46.3874 92.9902 46.3605C92.9902 46.3335 94.6094 46.3096 96.6056 46.3096C98.6019 46.3096 100.224 46.3335 100.224 46.3605Z" fill="#E0E0E0"/>
<path d="M97.0698 47.9141H95.8457V50.497H97.0698V47.9141Z" fill="#E0E0E0"/>
<path d="M97.0698 53.1328H95.8457V55.7157H97.0698V53.1328Z" fill="#E0E0E0"/>
<path d="M100.224 51.5108C100.224 51.5377 98.6049 51.5587 96.6056 51.5587C94.6064 51.5587 92.9902 51.5377 92.9902 51.5108C92.9902 51.4838 94.6094 51.4629 96.6056 51.4629C98.6019 51.4629 100.224 51.4838 100.224 51.5108Z" fill="#E0E0E0"/>
<path d="M89.7729 27.1455H88.5488V29.7284H89.7729V27.1455Z" fill="#FAFAFA"/>
<path d="M92.9264 30.7432C92.9264 30.7701 91.3072 30.7911 89.3079 30.7911C87.3087 30.7911 85.6895 30.7701 85.6895 30.7432C85.6895 30.7162 87.3117 30.6953 89.3079 30.6953C91.3042 30.6953 92.9264 30.7162 92.9264 30.7432Z" fill="#E0E0E0"/>
<path d="M89.7729 32.3535H88.5488V34.9364H89.7729V32.3535Z" fill="#FAFAFA"/>
<path d="M92.9264 35.9483C92.9264 35.9752 91.3072 35.9992 89.3079 35.9992C87.3087 35.9992 85.6895 35.9752 85.6895 35.9483C85.6895 35.9213 87.3117 35.9004 89.3079 35.9004C91.3042 35.9004 92.9264 35.9213 92.9264 35.9483Z" fill="#E0E0E0"/>
<path d="M89.7729 37.5576H88.5488V40.1404H89.7729V37.5576Z" fill="#FAFAFA"/>
<path d="M92.9264 41.1524C92.9264 41.1823 91.3072 41.2032 89.3079 41.2032C87.3087 41.2032 85.6895 41.1823 85.6895 41.1524C85.6895 41.1224 87.3117 41.1045 89.3079 41.1045C91.3042 41.1045 92.9264 41.1284 92.9264 41.1524Z" fill="#E0E0E0"/>
<path d="M89.7729 42.7627H88.5488V45.3455H89.7729V42.7627Z" fill="#FAFAFA"/>
<path d="M92.9264 46.3605C92.9264 46.3874 91.3072 46.4083 89.3079 46.4083C87.3087 46.4083 85.6895 46.3874 85.6895 46.3605C85.6895 46.3335 87.3117 46.3096 89.3079 46.3096C91.3042 46.3096 92.9264 46.3335 92.9264 46.3605Z" fill="#E0E0E0"/>
<path d="M89.7729 47.9707H88.5488V50.5536H89.7729V47.9707Z" fill="#FAFAFA"/>
<path d="M92.9264 51.5654C92.9264 51.5924 91.3072 51.6133 89.3079 51.6133C87.3087 51.6133 85.6895 51.5924 85.6895 51.5654C85.6895 51.5385 87.3117 51.5176 89.3079 51.5176C91.3042 51.5176 92.9264 51.5385 92.9264 51.5654Z" fill="#E0E0E0"/>
<path d="M89.7729 53.1748H88.5488V55.7577H89.7729V53.1748Z" fill="#FAFAFA"/>
<path d="M118.225 37.7705H94.7969V68.6694H118.225V37.7705Z" fill="#EBEBEB"/>
<path d="M118.222 37.7705H107.238V68.6694H118.222V37.7705Z" fill="#E0E0E0"/>
<path d="M101.816 41.9551H99.709V47.073H101.816V41.9551Z" fill="#F5F5F5"/>
<path d="M101.816 61.9834H99.709V67.1013H101.816V61.9834Z" fill="#F5F5F5"/>
<path d="M107.238 49.0813C107.238 49.1382 104.455 49.1831 101.019 49.1831C97.5833 49.1831 94.7969 49.1382 94.7969 49.0813C94.7969 49.0244 97.5803 48.9766 101.019 48.9766C104.458 48.9766 107.238 49.0215 107.238 49.0813Z" fill="#F5F5F5"/>
<path d="M101.816 52.0439H99.709V57.1618H101.816V52.0439Z" fill="#F5F5F5"/>
<path d="M107.238 59.1702C107.238 59.227 104.455 59.2749 101.019 59.2749C97.5833 59.2749 94.7969 59.227 94.7969 59.1702C94.7969 59.1133 97.5803 59.0654 101.019 59.0654C104.458 59.0654 107.238 59.1133 107.238 59.1702Z" fill="#F5F5F5"/>
<path d="M111.681 41.9551H109.574V47.073H111.681V41.9551Z" fill="#F5F5F5"/>
<path d="M116.252 41.9551H114.145V47.073H116.252V41.9551Z" fill="#F5F5F5"/>
<path d="M111.681 51.6641H109.574V56.782H111.681V51.6641Z" fill="#F5F5F5"/>
<path d="M116.252 51.6641H114.145V56.782H116.252V51.6641Z" fill="#F5F5F5"/>
<path d="M111.681 61.376H109.574V66.4939H111.681V61.376Z" fill="#F5F5F5"/>
<path d="M116.252 61.376H114.145V66.4939H116.252V61.376Z" fill="#F5F5F5"/>
<path d="M119.986 36.6934H93.0352V37.8068H119.986V36.6934Z" fill="#E0E0E0"/>
<path d="M118.388 37.9143C118.388 37.9712 113.153 38.0161 106.695 38.0161C100.236 38.0161 94.998 37.9712 94.998 37.9143C94.998 37.8574 100.236 37.8096 106.695 37.8096C113.153 37.8096 118.388 37.8545 118.388 37.9143Z" fill="#EBEBEB"/>
<path d="M41.8043 69.2861H20.5126L20.4199 35.6367H41.7115L41.8043 69.2861Z" fill="#EBEBEB"/>
<path d="M41.7122 35.6367H31.0664V69.2861H41.7122V35.6367Z" fill="#E0E0E0"/>
<path d="M30.3698 29.0137H22.8516V35.637H30.3698V29.0137Z" fill="#EBEBEB"/>
<path d="M30.369 29.0137H28.5762V35.637H30.369V29.0137Z" fill="#E0E0E0"/>
<path d="M42.3355 35.251H18.6465V35.6371H42.3355V35.251Z" fill="#E0E0E0"/>
<path d="M26.4247 38.5273H24.623V42.3283H26.4247V38.5273Z" fill="white"/>
<path d="M31.0657 43.8219C31.0657 43.8608 28.6713 43.8937 25.7413 43.8937C22.8112 43.8937 20.4258 43.8578 20.4258 43.8219C20.4258 43.7859 22.8202 43.75 25.7473 43.75C28.6743 43.75 31.0657 43.777 31.0657 43.8219Z" fill="#E0E0E0"/>
<path d="M37.1631 38.5273H35.3613V42.3283H37.1631V38.5273Z" fill="#F5F5F5"/>
<path d="M41.806 43.8219C41.806 43.8608 39.4117 43.8937 36.4816 43.8937C33.5515 43.8937 31.1602 43.8608 31.1602 43.8219C31.1602 43.783 33.5545 43.75 36.4816 43.75C39.4087 43.75 41.806 43.777 41.806 43.8219Z" fill="#EBEBEB"/>
<path d="M37.1631 46.0732H35.3613V49.8742H37.1631V46.0732Z" fill="#F5F5F5"/>
<path d="M41.806 51.3648C41.806 51.4037 39.4117 51.4367 36.4816 51.4367C33.5515 51.4367 31.1602 51.4037 31.1602 51.3648C31.1602 51.3259 33.5545 51.29 36.4816 51.29C39.4087 51.29 41.806 51.3229 41.806 51.3648Z" fill="#EBEBEB"/>
<path d="M37.1631 53.8457H35.3613V57.6468H37.1631V53.8457Z" fill="#F5F5F5"/>
<path d="M41.806 59.1373C41.806 59.1762 39.4117 59.2092 36.4816 59.2092C33.5515 59.2092 31.1602 59.1762 31.1602 59.1373C31.1602 59.0984 33.5545 59.0625 36.4816 59.0625C39.4087 59.0625 41.806 59.0864 41.806 59.1373Z" fill="#EBEBEB"/>
<path d="M37.1631 61.6152H35.3613V65.4162H37.1631V61.6152Z" fill="#F5F5F5"/>
<path d="M41.806 66.9099C41.806 66.9488 39.4117 66.9817 36.4816 66.9817C33.5515 66.9817 31.1602 66.9488 31.1602 66.9099C31.1602 66.8709 33.5545 66.835 36.4816 66.835C39.4087 66.835 41.806 66.868 41.806 66.9099Z" fill="#EBEBEB"/>
<path d="M26.4247 46.1865H24.623V49.9876H26.4247V46.1865Z" fill="white"/>
<path d="M31.0657 51.4781C31.0657 51.52 28.6713 51.5499 25.7413 51.5499C22.8112 51.5499 20.4258 51.52 20.4258 51.4781C20.4258 51.4362 22.8202 51.4062 25.7473 51.4062C28.6743 51.4062 31.0657 51.4392 31.0657 51.4781Z" fill="#E0E0E0"/>
<path d="M26.4247 53.8457H24.623V57.6468H26.4247V53.8457Z" fill="white"/>
<path d="M31.0657 59.1372C31.0657 59.1791 28.6713 59.2121 25.7413 59.2121C22.8112 59.2121 20.4258 59.1791 20.4258 59.1372C20.4258 59.0953 22.8202 59.0654 25.7473 59.0654C28.6743 59.0654 31.0657 59.0864 31.0657 59.1372Z" fill="#E0E0E0"/>
<path d="M26.4247 61.5078H24.623V65.3088H26.4247V61.5078Z" fill="white"/>
<path d="M31.0657 66.7993C31.0657 66.8382 28.6713 66.8711 25.7413 66.8711C22.8112 66.8711 20.4258 66.8382 20.4258 66.7993C20.4258 66.7604 22.8202 66.7275 25.7473 66.7275C28.6743 66.7275 31.0657 66.7574 31.0657 66.7993Z" fill="#E0E0E0"/>
<path d="M126.126 28.8369C126.239 28.0168 125.084 27.3404 124.216 27.2746C123.801 27.2912 123.386 27.256 122.98 27.1698C122.133 26.8705 121.783 25.7751 120.966 25.4279C120.346 25.1646 119.634 25.398 119.032 25.7003C118.431 26.0026 117.835 26.3827 117.168 26.4246C116.569 26.4635 115.95 26.245 115.441 26.5323C115.061 26.7448 114.86 27.1818 114.51 27.4302C114.145 27.6539 113.723 27.7682 113.295 27.7594C112.868 27.7475 112.442 27.8166 112.041 27.9629C111.841 28.0399 111.672 28.1796 111.559 28.3609C111.446 28.5423 111.394 28.7555 111.412 28.9686L126.126 28.8369Z" fill="#F5F5F5"/>
<path d="M90.1056 5.51285C90.2822 4.23487 88.4745 3.18136 87.1127 3.07062C86.4662 3.01974 85.7928 3.11851 85.1822 2.90601C83.8534 2.44211 83.3207 0.724168 82.0247 0.176463C81.055 -0.230575 79.9297 0.131569 78.9989 0.604451C78.0681 1.07733 77.1313 1.67293 76.0808 1.74176C75.1829 1.79863 74.1743 1.46043 73.3871 1.90637C72.7886 2.23859 72.4893 2.92696 71.9326 3.331C71.3759 3.73505 70.6935 3.80987 70.0291 3.84579C69.3647 3.8817 68.6733 3.89068 68.0657 4.16603C67.4582 4.44138 66.9583 5.08785 67.084 5.74031L90.1056 5.51285Z" fill="#EBEBEB"/>
<path d="M28.5681 23.2313C28.7087 22.2108 27.2691 21.3697 26.1737 21.283C25.659 21.2411 25.1232 21.3219 24.6324 21.1513C23.5729 20.7801 23.1359 19.4124 22.1183 18.9754C21.3432 18.6492 20.4543 18.9395 19.706 19.3166C18.9578 19.6937 18.2096 20.1696 17.3775 20.2145C16.6503 20.2594 15.8601 19.99 15.2226 20.3462C14.7468 20.6095 14.4984 21.1572 14.0614 21.4805C13.6066 21.7627 13.079 21.9052 12.544 21.8905C12.0108 21.8787 11.48 21.966 10.9787 22.1479C10.4968 22.3694 10.0958 22.8812 10.1975 23.4019L28.5681 23.2313Z" fill="#F5F5F5"/>
<path d="M17.981 45.7409C16.8182 45.769 15.6851 46.1137 14.7037 46.738C13.7224 47.3623 12.9299 48.2425 12.4117 49.2838C11.8935 50.3251 11.6692 51.4881 11.763 52.6474C11.8568 53.8067 12.2651 54.9185 12.9439 55.863L13.0038 55.9498L17.5321 62.1062C17.6245 62.2316 17.7457 62.333 17.8854 62.4018C18.0252 62.4706 18.1795 62.5048 18.3352 62.5016C18.491 62.4984 18.6437 62.4578 18.7805 62.3833C18.9173 62.3087 19.0341 62.2024 19.1213 62.0733L23.2126 55.9887C23.9848 54.8095 24.5175 53.5734 24.5175 52.1188C24.5158 51.2683 24.3443 50.4268 24.0132 49.6434C23.6821 48.86 23.198 48.1505 22.5893 47.5566C21.9805 46.9626 21.2594 46.4961 20.4681 46.1843C19.6768 45.8725 18.8313 45.7218 17.981 45.7409ZM18.1336 56.7818C17.183 56.7818 16.2537 56.4999 15.4632 55.9717C14.6728 55.4436 14.0567 54.6929 13.6929 53.8146C13.3291 52.9363 13.2339 51.9698 13.4194 51.0374C13.6048 50.1051 14.0626 49.2486 14.7348 48.5764C15.4071 47.9042 16.2635 47.4464 17.1959 47.2609C18.1283 47.0754 19.0948 47.1706 19.9731 47.5344C20.8513 47.8982 21.602 48.5143 22.1302 49.3048C22.6584 50.0952 22.9403 51.0245 22.9403 51.9752C22.9403 53.25 22.4339 54.4726 21.5324 55.374C20.631 56.2754 19.4084 56.7818 18.1336 56.7818Z" fill="#007AFF"/>
<g opacity="0.3">
<path d="M17.981 45.7409C16.8182 45.769 15.6851 46.1137 14.7037 46.738C13.7224 47.3623 12.9299 48.2425 12.4117 49.2838C11.8935 50.3251 11.6692 51.4881 11.763 52.6474C11.8568 53.8067 12.2651 54.9185 12.9439 55.863L13.0038 55.9498L17.5321 62.1062C17.6245 62.2316 17.7457 62.333 17.8854 62.4018C18.0252 62.4706 18.1795 62.5048 18.3352 62.5016C18.491 62.4984 18.6437 62.4578 18.7805 62.3833C18.9173 62.3087 19.0341 62.2024 19.1213 62.0733L23.2126 55.9887C23.9848 54.8095 24.5175 53.5734 24.5175 52.1188C24.5158 51.2683 24.3443 50.4268 24.0132 49.6434C23.6821 48.86 23.198 48.1505 22.5893 47.5566C21.9805 46.9626 21.2594 46.4961 20.4681 46.1843C19.6768 45.8725 18.8313 45.7218 17.981 45.7409ZM18.1336 56.7818C17.183 56.7818 16.2537 56.4999 15.4632 55.9717C14.6728 55.4436 14.0567 54.6929 13.6929 53.8146C13.3291 52.9363 13.2339 51.9698 13.4194 51.0374C13.6048 50.1051 14.0626 49.2486 14.7348 48.5764C15.4071 47.9042 16.2635 47.4464 17.1959 47.2609C18.1283 47.0754 19.0948 47.1706 19.9731 47.5344C20.8513 47.8982 21.602 48.5143 22.1302 49.3048C22.6584 50.0952 22.9403 51.0245 22.9403 51.9752C22.9403 53.25 22.4339 54.4726 21.5324 55.374C20.631 56.2754 19.4084 56.7818 18.1336 56.7818Z" fill="black"/>
</g>
<path d="M17.6042 45.741C15.964 45.7848 14.403 46.4555 13.2422 47.6151C12.0815 48.7748 11.4093 50.3351 11.3639 51.9753C11.3244 53.3686 11.7452 54.736 12.5611 55.8661L12.624 55.9529L17.1493 62.1093C17.2411 62.2373 17.3627 62.3411 17.5035 62.4117C17.6443 62.4823 17.8002 62.5177 17.9577 62.5147C18.1153 62.5118 18.2697 62.4706 18.4078 62.3948C18.5459 62.319 18.6635 62.2107 18.7505 62.0794L22.8418 55.9948C23.617 54.8156 24.1467 53.5795 24.1467 52.1249C24.1458 51.2734 23.9747 50.4307 23.6436 49.6462C23.3124 48.8617 22.8279 48.1512 22.2185 47.5566C21.609 46.9619 20.8869 46.495 20.0945 46.1832C19.3022 45.8714 18.4555 45.7211 17.6042 45.741ZM17.7538 55.917C17.0342 55.9164 16.3308 55.7024 15.7327 55.3022C15.1346 54.9019 14.6686 54.3333 14.3936 53.6682C14.1186 53.0032 14.047 52.2715 14.1877 51.5657C14.3285 50.8599 14.6754 50.2117 15.1844 49.7031C15.6935 49.1944 16.342 48.8481 17.0479 48.7079C17.7538 48.5677 18.4854 48.6399 19.1503 48.9155C19.8151 49.191 20.3833 49.6575 20.7831 50.2559C21.1829 50.8544 21.3962 51.5579 21.3962 52.2776C21.3958 52.7555 21.3013 53.2287 21.118 53.6701C20.9348 54.1115 20.6664 54.5125 20.3282 54.8501C19.9899 55.1878 19.5885 55.4555 19.1468 55.6381C18.7051 55.8206 18.2318 55.9144 17.7538 55.914V55.917Z" fill="#007AFF"/>
<path d="M118.253 39.6805C117.366 39.7 116.501 39.9614 115.752 40.4366C115.002 40.9118 114.397 41.5827 114 42.3768C113.604 43.1709 113.433 44.0582 113.504 44.9427C113.575 45.8273 113.886 46.6757 114.404 47.3962L114.452 47.4621L117.903 52.152C117.974 52.2452 118.065 52.3204 118.17 52.3715C118.275 52.4225 118.391 52.4479 118.508 52.4455C118.625 52.4432 118.739 52.4132 118.842 52.358C118.945 52.3028 119.034 52.224 119.1 52.128L122.219 47.492C122.84 46.6316 123.187 45.6044 123.216 44.544C123.214 43.8973 123.084 43.2575 122.833 42.6616C122.582 42.0658 122.215 41.5258 121.753 41.0732C121.291 40.6206 120.744 40.2644 120.143 40.0253C119.542 39.7862 118.9 39.669 118.253 39.6805ZM118.37 48.0966C117.646 48.0966 116.938 47.882 116.336 47.48C115.734 47.078 115.264 46.5066 114.987 45.8379C114.709 45.1692 114.636 44.4332 114.776 43.7229C114.917 43.0126 115.264 42.3599 115.776 41.8471C116.287 41.3343 116.938 40.9844 117.648 40.8417C118.358 40.699 119.094 40.7699 119.764 41.0453C120.433 41.3208 121.006 41.7884 121.41 42.3893C121.814 42.9901 122.031 43.6972 122.033 44.4213C122.035 44.9033 121.941 45.381 121.758 45.8268C121.575 46.2727 121.305 46.6779 120.965 47.0194C120.624 47.3608 120.22 47.6317 119.775 47.8166C119.33 48.0014 118.852 48.0966 118.37 48.0966Z" fill="#007AFF"/>
<g opacity="0.3">
<path d="M118.253 39.6805C117.366 39.7 116.501 39.9614 115.752 40.4366C115.002 40.9118 114.397 41.5827 114 42.3768C113.604 43.1709 113.433 44.0582 113.504 44.9427C113.575 45.8273 113.886 46.6757 114.404 47.3962L114.452 47.4621L117.903 52.152C117.974 52.2452 118.065 52.3204 118.17 52.3715C118.275 52.4225 118.391 52.4479 118.508 52.4455C118.625 52.4432 118.739 52.4132 118.842 52.358C118.945 52.3028 119.034 52.224 119.1 52.128L122.219 47.492C122.84 46.6316 123.187 45.6044 123.216 44.544C123.214 43.8973 123.084 43.2575 122.833 42.6616C122.582 42.0658 122.215 41.5258 121.753 41.0732C121.291 40.6206 120.744 40.2644 120.143 40.0253C119.542 39.7862 118.9 39.669 118.253 39.6805ZM118.37 48.0966C117.646 48.0966 116.938 47.882 116.336 47.48C115.734 47.078 115.264 46.5066 114.987 45.8379C114.709 45.1692 114.636 44.4332 114.776 43.7229C114.917 43.0126 115.264 42.3599 115.776 41.8471C116.287 41.3343 116.938 40.9844 117.648 40.8417C118.358 40.699 119.094 40.7699 119.764 41.0453C120.433 41.3208 121.006 41.7884 121.41 42.3893C121.814 42.9901 122.031 43.6972 122.033 44.4213C122.035 44.9033 121.941 45.381 121.758 45.8268C121.575 46.2727 121.305 46.6779 120.965 47.0194C120.624 47.3608 120.22 47.6317 119.775 47.8166C119.33 48.0014 118.852 48.0966 118.37 48.0966Z" fill="black"/>
</g>
<path d="M117.965 39.6798C117.079 39.7009 116.215 39.9635 115.466 40.4393C114.718 40.9151 114.114 41.5861 113.719 42.3799C113.324 43.1738 113.153 44.0604 113.225 44.9442C113.296 45.8281 113.608 46.6756 114.125 47.3955L114.17 47.4613L117.618 52.1513C117.688 52.2469 117.781 52.3242 117.887 52.3768C117.994 52.4293 118.111 52.4555 118.23 52.4531C118.349 52.4508 118.465 52.42 118.57 52.3633C118.674 52.3066 118.763 52.2257 118.83 52.1273L121.949 47.4913C122.568 46.6306 122.915 45.6034 122.942 44.5432C122.941 43.8952 122.811 43.2539 122.559 42.6569C122.307 42.0598 121.939 41.519 121.475 41.0662C121.012 40.6133 120.463 40.2574 119.86 40.0193C119.257 39.7813 118.613 39.6658 117.965 39.6798ZM118.079 47.4344C117.53 47.4344 116.994 47.2717 116.537 46.9668C116.081 46.662 115.726 46.2287 115.516 45.7217C115.306 45.2147 115.251 44.6569 115.358 44.1187C115.465 43.5805 115.729 43.0862 116.117 42.6981C116.505 42.3101 116.999 42.0459 117.538 41.9388C118.076 41.8318 118.634 41.8867 119.141 42.0967C119.648 42.3067 120.081 42.6623 120.386 43.1186C120.691 43.5748 120.853 44.1112 120.853 44.66C120.854 45.0244 120.782 45.3854 120.643 45.7222C120.504 46.059 120.299 46.365 120.042 46.6227C119.784 46.8804 119.478 47.0847 119.141 47.224C118.804 47.3633 118.443 47.4348 118.079 47.4344Z" fill="#007AFF"/>
<path d="M21.4771 68.7208L0.101562 121.803L40.1798 115.212L69.5733 121.803L99.6761 115.212L139.934 122.892L118.382 68.7208L94.3338 62.6631L70.0193 67.2961L45.169 62.6631L21.4771 68.7208Z" fill="white"/>
<path d="M21.4772 68.7206L21.8693 68.6158L23.0395 68.3165L27.6247 67.1343L45.1602 62.6449H45.1752L70.0164 67.263H69.9955L94.31 62.624H94.3519L118.397 68.6637H118.433V68.6966L139.982 122.868L140.036 123L139.895 122.973L119.187 119.022L99.6374 115.293H99.6703L69.5645 121.878H69.5465L40.156 115.293H40.18L0.0987664 121.878L0 121.893L0.0389077 121.8C6.65027 105.411 12.0106 92.1402 15.7039 82.9669L19.9718 72.4108L21.0821 69.6693C21.3336 69.0528 21.4652 68.7385 21.4652 68.7385C21.4652 68.7385 21.3425 69.0588 21.0941 69.6813L19.9927 72.4348L15.7637 82.9908L0.155632 121.824L0.0927804 121.746L40.18 115.144H40.2069L69.5974 121.728H69.5675L99.6703 115.144H99.6853L119.235 118.873L139.943 122.823L139.856 122.928L118.307 68.7565L118.355 68.7984L94.31 62.7347H94.3519L70.0284 67.3468H70.0074L45.1662 62.7018L27.6486 67.1672L23.0545 68.3315L21.8783 68.6308L21.4772 68.7206Z" fill="#263238"/>
<path d="M22.7261 70.1449L3.84375 119.13L40.0042 113.252L70.0202 120.199L99.6771 113.075L136.55 120.199L117.135 70.1449L94.6909 64.623L70.0202 69.2561L44.8138 64.623L22.7261 70.1449Z" fill="white"/>
<path d="M5.94141 113.689L34.6825 107.03L33.623 100.84L36.0113 99.3346L32.2941 84.8758L20.8013 75.1338L5.94141 113.689Z" fill="#455A64"/>
<path d="M3.84375 119.13L5.24444 115.497L53.4364 104.3L56.0523 111.504L55.2053 112.959L46.1547 114.677L40.0042 113.252L3.84375 119.13Z" fill="#EBEBEB"/>
<path d="M56.0508 103.603L57.9633 110.729L63.5152 113.141L71.4105 109.634L87.9763 104.809L82.8075 97.0215L56.0508 103.603Z" fill="#EBEBEB"/>
<path d="M36.8034 106.243L45.7582 104.3L43.9714 98.4824L37.4468 100.056L35.7109 101.283L36.8034 106.243Z" fill="#E0E0E0"/>
<path d="M34.9746 86.959L38.225 97.6288L43.3069 96.5095L42.3911 92.4121L53.5697 89.9071L34.9746 86.959Z" fill="#455A64"/>
<path d="M21.6484 72.9433L35.7122 84.2326L54.382 87.7732L74.2969 82.8229L65.2074 68.3701L44.8136 64.623L22.7259 70.1449L21.6484 72.9433Z" fill="#EBEBEB"/>
<path d="M67.9277 68.8701L97.1236 113.689L99.6766 113.075L71.4174 68.9928L70.0197 69.2562L67.9277 68.8701Z" fill="#EBEBEB"/>
<path d="M44.2715 93.5407L47.9708 104.3L80.8151 95.9081L74.7365 85.5615L44.2715 93.5407Z" fill="#E0E0E0"/>
<path d="M62.543 118.469L62.8632 117.993L65.0211 114.787L70.1959 113.141L73.7575 110.46L89.192 106.243L93.9866 114.44L70.0193 120.199" fill="#E0E0E0"/>
<path d="M89.8867 65.5238L97.6204 74.1285L117.134 70.1449L94.6903 64.623L89.8867 65.5238Z" fill="#E0E0E0"/>
<path d="M121.239 80.7312L106.909 84.7148L99.6758 75.1344L117.621 71.4082L121.239 80.7312Z" fill="#E0E0E0"/>
<path d="M72.9492 68.7021L87.9767 90.2871L105.318 85.3098L87.9767 65.8828L72.9492 68.7021Z" fill="#EBEBEB"/>
<path d="M114.957 116.027L132.295 109.236L136.548 120.199L114.957 116.027Z" fill="#E0E0E0"/>
<path d="M96.8242 88.9972L106.246 86.54L116.197 98.4818L106.512 101.696L96.8242 88.9972Z" fill="#455A64"/>
<path d="M108.367 85.5614L118.851 97.581L126.746 94.9293L121.554 81.5449L108.367 85.5614Z" fill="#E0E0E0"/>
<path d="M116.196 113.222L108.367 102.361L127.291 96.3301L131.134 106.243L128.668 108.724L116.196 113.222Z" fill="#455A64"/>
<path d="M88.8965 91.8736L103.281 113.689L112.14 115.482L113.81 114.719L95.5826 89.8594L88.8965 91.8736Z" fill="#E0E0E0"/>
<path d="M29.9477 108.128L26.3651 91.2783L13.729 93.4871L5.94141 113.689L29.9477 108.128Z" fill="#E0E0E0"/>
<path d="M41.5663 65.4346V73.1504L44.2719 73.4916L51.8261 82.2908L58.3207 81.5455L61.4124 86.026L54.382 87.7738L35.7122 84.2332L21.6484 72.9439L22.7259 70.1455L41.5663 65.4346Z" fill="#455A64"/>
<path d="M81.0605 67.2476L91.6704 82.7299L100.811 80.2608L87.9772 65.8828L81.0605 67.2476Z" fill="#E0E0E0"/>
<path d="M112.207 83.2424L108.367 77.2416L118.746 74.3086L121.239 80.7314L112.207 83.2424Z" fill="#EBEBEB"/>
<path d="M96.8242 103.899L101.849 102.16L111.594 115.371L103.28 113.689L96.8242 103.899Z" fill="#EBEBEB"/>
<path d="M50.4785 115.676L55.1505 115.108L56.7068 112.83L62.543 114.665L61.0166 118.116L50.4785 115.676Z" fill="#455A64"/>
<path d="M22.725 70.16L24.1796 69.7859L28.4535 68.7084L44.8038 64.5991H44.8188L70.0282 69.2172H70.0072L94.6779 64.5752H94.7048L117.152 70.0911H117.185V70.127C123.144 85.4239 129.707 102.352 136.621 120.172L136.672 120.303L136.534 120.276L118.035 116.703L99.6611 113.15H99.694L70.0372 120.273H70.0012L39.9882 113.321H40.0152L3.85164 119.187L3.75586 119.202L3.78879 119.109C9.63396 103.98 14.3658 91.7329 17.6341 83.269C19.2712 79.043 20.5402 75.7597 21.4022 73.533L22.3868 71.004C22.6083 70.4323 22.725 70.145 22.725 70.145C22.725 70.145 22.6143 70.4443 22.3958 71.0159L21.4261 73.5539L17.682 83.3109L3.89653 119.151L3.83368 119.076L39.9912 113.186H40.0182L70.0342 120.142H70.0012L99.6581 113.016H99.6761L118.065 116.55L136.552 120.124L136.465 120.229C129.555 102.406 122.997 85.4897 117.056 70.1719L117.104 70.2138L94.6569 64.6859H94.6839L70.0102 69.307H69.9893L44.7889 64.662L28.4774 68.7264L24.1946 69.7888L22.725 70.16Z" fill="#263238"/>
<g opacity="0.2">
<path d="M69.5732 121.803L70.0192 67.2961L45.1689 62.6631L40.1797 115.212L69.5732 121.803Z" fill="black"/>
</g>
<g opacity="0.2">
<path d="M94.334 62.6631L99.6763 115.212L139.934 122.892L118.382 68.7208L94.334 62.6631Z" fill="black"/>
</g>
<path d="M70.2117 15.7157C52.8527 16.1198 38.6932 30.2703 38.2802 47.6292C38.0975 54.755 40.2582 61.7439 44.4307 67.5232L44.7509 67.9572L44.7958 68.02L67.961 99.5295C68.4336 100.172 69.0539 100.692 69.7695 101.045C70.4851 101.397 71.2751 101.573 72.0727 101.556C72.8703 101.539 73.6522 101.331 74.3524 100.948C75.0526 100.566 75.6505 100.021 76.0958 99.3589L97.0462 68.2325C101.009 62.1868 103.727 55.8718 103.727 48.4254C103.727 44.0616 102.854 39.742 101.16 35.7206C99.465 31.6992 96.9833 28.0574 93.8604 25.0096C90.7375 21.9617 87.0365 19.5693 82.9751 17.9732C78.9138 16.3771 74.5741 15.6095 70.2117 15.7157ZM70.9899 72.2191C66.1245 72.2197 61.3683 70.7775 57.3227 68.0749C53.277 65.3723 50.1237 61.5307 48.2614 57.0359C46.3991 52.5411 45.9115 47.595 46.8603 42.8231C47.8091 38.0512 50.1517 33.6678 53.5918 30.2273C57.0319 26.7868 61.415 24.4437 66.1868 23.4943C70.9586 22.5449 75.9047 23.0319 80.3997 24.8936C84.8948 26.7554 88.7367 29.9083 91.4398 33.9536C94.1429 37.9989 95.5857 42.7549 95.5857 47.6203C95.5857 54.1438 92.9944 60.4001 88.3819 65.0132C83.7694 69.6263 77.5134 72.2183 70.9899 72.2191Z" fill="#007AFF"/>
<g opacity="0.3">
<path d="M70.2117 15.7157C52.8527 16.1198 38.6932 30.2703 38.2802 47.6292C38.0975 54.755 40.2582 61.7439 44.4307 67.5232L44.7509 67.9572L44.7958 68.02L67.961 99.5295C68.4336 100.172 69.0539 100.692 69.7695 101.045C70.4851 101.397 71.2751 101.573 72.0727 101.556C72.8703 101.539 73.6522 101.331 74.3524 100.948C75.0526 100.566 75.6505 100.021 76.0958 99.3589L97.0462 68.2325C101.009 62.1868 103.727 55.8718 103.727 48.4254C103.727 44.0616 102.854 39.742 101.16 35.7206C99.465 31.6992 96.9833 28.0574 93.8604 25.0096C90.7375 21.9617 87.0365 19.5693 82.9751 17.9732C78.9138 16.3771 74.5741 15.6095 70.2117 15.7157ZM70.9899 72.2191C66.1245 72.2197 61.3683 70.7775 57.3227 68.0749C53.277 65.3723 50.1237 61.5307 48.2614 57.0359C46.3991 52.5411 45.9115 47.595 46.8603 42.8231C47.8091 38.0512 50.1517 33.6678 53.5918 30.2273C57.0319 26.7868 61.415 24.4437 66.1868 23.4943C70.9586 22.5449 75.9047 23.0319 80.3997 24.8936C84.8948 26.7554 88.7367 29.9083 91.4398 33.9536C94.1429 37.9989 95.5857 42.7549 95.5857 47.6203C95.5857 54.1438 92.9944 60.4001 88.3819 65.0132C83.7694 69.6263 77.5134 72.2183 70.9899 72.2191Z" fill="black"/>
</g>
<path d="M68.2723 15.7157C50.9133 16.1198 36.7538 30.2703 36.3408 47.6292C36.158 54.755 38.3187 61.7439 42.4912 67.5232L42.8115 67.9572L42.8564 68.02L66.0216 99.5295C66.4942 100.172 67.1145 100.692 67.8301 101.045C68.5457 101.397 69.3356 101.573 70.1332 101.556C70.9309 101.539 71.7127 101.331 72.4129 100.948C73.1131 100.566 73.7111 100.021 74.1563 99.3589L95.1068 68.2325C99.0694 62.1868 101.787 55.8718 101.787 48.4254C101.788 44.0616 100.915 39.742 99.2199 35.7206C97.5256 31.6992 95.0439 28.0574 91.921 25.0096C88.7981 21.9617 85.097 19.5693 81.0357 17.9732C76.9743 16.3771 72.6347 15.6095 68.2723 15.7157ZM69.0504 72.2191C64.1851 72.2197 59.4289 70.7775 55.3832 68.0749C51.3376 65.3723 48.1842 61.5307 46.3219 57.0359C44.4596 52.5411 43.9721 47.595 44.9209 42.8231C45.8697 38.0512 48.2123 33.6678 51.6524 30.2273C55.0925 26.7868 59.4755 24.4437 64.2473 23.4943C69.0191 22.5449 73.9653 23.0319 78.4603 24.8936C82.9553 26.7554 86.7973 29.9083 89.5004 33.9536C92.2035 37.9989 93.6463 42.7549 93.6463 47.6203C93.6463 54.1438 91.055 60.4001 86.4425 65.0132C81.83 69.6263 75.5739 72.2183 69.0504 72.2191Z" fill="#007AFF"/>
<g opacity="0.3">
<path d="M83.2009 66.1738C82.8059 66.6197 56.7944 73.4885 56.4023 73.9344C61.3885 75.4548 67.4761 76.7777 72.6898 76.4754C75.6258 76.3078 78.6756 75.7841 81.0101 73.9763C83.3446 72.1686 84.6136 68.7537 83.2009 66.1738Z" fill="black"/>
</g>
<path d="M58.3592 16.5332C57.6087 17.3312 57.0621 18.2987 56.7661 19.3535C56.4701 20.4082 56.4334 21.5189 56.6592 22.5909C56.8867 23.6264 57.3416 24.7817 56.773 25.6766C56.2043 26.5714 54.8814 26.7241 54.3517 27.6309C53.7232 28.6934 54.5612 30.0253 54.4564 31.2643C54.3887 31.8421 54.1175 32.3768 53.6914 32.7728C53.2653 33.1687 52.7121 33.4 52.1309 33.4252C53.6307 34.3331 55.352 34.8095 57.1052 34.802C57.4643 34.1794 57.8225 33.5569 58.1796 32.9344C57.7666 33.5958 58.03 34.5147 58.5957 35.0504C59.1613 35.5861 59.9514 35.8106 60.7206 35.9483C62.5659 36.2447 64.4547 36.1102 66.2392 35.5551C68.0238 35.0001 69.6557 34.0396 71.0073 32.7488" fill="#263238"/>
<path d="M79.3452 23.0277C78.9711 22.2615 78.4264 21.5791 78.148 20.777C77.5195 19.0561 78.1031 16.9341 77.0167 15.4586C76.2445 14.4051 74.8618 14.031 73.5719 13.8245C72.2819 13.618 70.9142 13.4803 69.8666 12.7051C69.0974 12.1335 68.5857 11.2715 67.8195 10.6999C66.7271 9.88284 65.2635 9.76013 63.9047 9.86488C62.5459 9.96963 61.0854 10.3018 59.9331 11.0949C58.7808 11.8881 57.9009 13.172 57.871 14.5727C57.856 15.2551 58.0356 15.9435 57.9159 16.6139C57.7842 17.3531 57.3173 17.9817 57.0569 18.688C56.8119 19.4462 56.8259 20.2643 57.0968 21.0137C57.3677 21.763 57.8801 22.401 58.5534 22.8272L69.7768 33.7723C71.8719 34.2452 76.5887 32.6559 77.9236 30.9649C79.2584 29.2739 80.285 24.9671 79.3452 23.0277Z" fill="#263238"/>
<path d="M58.5664 21.2321C58.5664 18.3918 60.2274 14.8003 63.0557 14.923L72.0046 16.596C72.4207 16.6144 72.8148 16.7881 73.109 17.0829C73.4033 17.3777 73.5762 17.7721 73.5938 18.1883L73.9829 39.4859H74.0428C74.0428 39.4859 72.4266 45.6034 66.4886 44.1519C65.3094 43.8526 64.6929 42.6374 64.3936 41.3535H64.3367C64.3217 41.1979 64.3128 41.0542 64.3008 40.9075C64.1236 39.9475 64.0483 38.9713 64.0763 37.9954C63.9476 36.2805 63.9057 35.5771 63.9057 35.6011C63.9057 35.625 60.2514 35.23 59.2068 30.558C58.6891 28.2594 58.5664 24.3896 58.5664 21.2321Z" fill="#FFBE9D"/>
<path d="M66.7637 24.1437C66.7668 24.2223 66.7853 24.2996 66.8183 24.371C66.8513 24.4425 66.898 24.5067 66.9558 24.5601C67.0136 24.6134 67.0814 24.6549 67.1553 24.682C67.2291 24.7092 67.3076 24.7215 67.3862 24.7183C67.4642 24.7207 67.5419 24.7074 67.6146 24.6791C67.6874 24.6508 67.7536 24.6082 67.8095 24.5537C67.8654 24.4992 67.9097 24.434 67.9398 24.3621C67.9699 24.2901 67.9852 24.2127 67.9848 24.1347C67.9817 24.0561 67.9632 23.9788 67.9302 23.9074C67.8972 23.8359 67.8505 23.7717 67.7927 23.7183C67.7349 23.6649 67.6671 23.6235 67.5932 23.5963C67.5194 23.5692 67.4409 23.5569 67.3623 23.5601C67.2843 23.5576 67.2066 23.571 67.1339 23.5993C67.0611 23.6275 66.9948 23.6702 66.939 23.7247C66.8831 23.7792 66.8388 23.8443 66.8087 23.9163C66.7785 23.9883 66.7633 24.0656 66.7637 24.1437Z" fill="#263238"/>
<path d="M60.5823 24.6166C60.5854 24.6952 60.6039 24.7724 60.6369 24.8439C60.6699 24.9153 60.7166 24.9796 60.7744 25.033C60.8322 25.0863 60.9 25.1278 60.9739 25.1549C61.0477 25.1821 61.1262 25.1944 61.2048 25.1912C61.2841 25.1937 61.3631 25.1799 61.4368 25.1507C61.5106 25.1215 61.5776 25.0775 61.6336 25.0214C61.6897 24.9653 61.7337 24.8984 61.7629 24.8246C61.7921 24.7509 61.8059 24.6719 61.8034 24.5926C61.7964 24.4344 61.727 24.2853 61.6103 24.1782C61.4936 24.071 61.3392 24.0145 61.1809 24.021C61.1018 24.0181 61.0229 24.0314 60.9491 24.0603C60.8754 24.0892 60.8084 24.1329 60.7522 24.1887C60.6961 24.2446 60.652 24.3114 60.6228 24.385C60.5936 24.4586 60.5798 24.5374 60.5823 24.6166Z" fill="#263238"/>
<path d="M59.2842 23.2788C59.365 23.3776 59.8828 22.9496 60.5861 22.9526C61.2894 22.9556 61.8102 23.3716 61.891 23.2699C61.9299 23.225 61.8491 23.0454 61.6246 22.8508C61.3312 22.6067 60.9619 22.4723 60.5801 22.4707C60.1983 22.4777 59.8314 22.6198 59.5446 22.8718C59.3351 23.0514 59.2453 23.2339 59.2842 23.2788Z" fill="#263238"/>
<path d="M65.8628 23.1169C65.9586 23.2067 66.4614 22.7308 67.2066 22.659C67.9519 22.5872 68.5505 22.9343 68.6223 22.8296C68.6582 22.7817 68.5565 22.6111 68.2961 22.4465C67.9521 22.2386 67.5494 22.1493 67.1498 22.1921C66.7522 22.2323 66.3793 22.404 66.0903 22.6799C65.8778 22.8924 65.8149 23.078 65.8628 23.1169Z" fill="#263238"/>
<path d="M63.8758 27.8791C63.525 27.7948 63.1652 27.7536 62.8044 27.7563C62.6398 27.7563 62.4781 27.7264 62.4452 27.6127C62.4189 27.442 62.446 27.2674 62.523 27.1129C62.6547 26.7028 62.7924 26.2689 62.9361 25.8169C63.5077 23.9703 63.9088 22.4589 63.8339 22.4349C63.7591 22.411 63.2354 23.8925 62.6667 25.7271C62.529 26.1821 62.4003 26.625 62.2746 27.0321C62.1821 27.2393 62.1662 27.4726 62.2297 27.6905C62.2588 27.7485 62.301 27.799 62.3529 27.838C62.4049 27.8769 62.4652 27.9033 62.529 27.915C62.6274 27.9355 62.7281 27.9425 62.8283 27.9359C63.1785 27.9614 63.5305 27.9423 63.8758 27.8791Z" fill="#263238"/>
<path d="M63.9082 35.6123C66.1278 35.505 68.2743 34.785 70.1096 33.5322C70.1096 33.5322 68.7807 36.8693 64.028 36.7226L63.9082 35.6123Z" fill="#EB996E"/>
<path d="M64.2492 29.432C64.3631 29.2682 64.5169 29.1362 64.6959 29.0482C64.875 28.9603 65.0735 28.9193 65.2727 28.9292C65.4172 28.9341 65.5593 28.9675 65.6908 29.0276C65.8223 29.0877 65.9406 29.1733 66.0389 29.2793C66.1328 29.3829 66.1926 29.5127 66.2102 29.6514C66.2279 29.79 66.2026 29.9307 66.1377 30.0545C66.04 30.1777 65.9079 30.2691 65.7581 30.3171C65.6084 30.365 65.4478 30.3674 65.2967 30.3239C64.9827 30.2337 64.6897 30.0821 64.4347 29.8779C64.3575 29.8319 64.2903 29.7708 64.2372 29.6983C64.2125 29.6628 64.1992 29.6205 64.1992 29.5771C64.1992 29.5338 64.2125 29.4915 64.2372 29.4559" fill="#007AFF"/>
<path d="M65.8209 28.2113C65.7132 28.2113 65.755 28.9176 65.1834 29.4563C64.6118 29.9951 63.8516 29.9651 63.8516 30.0549C63.8516 30.0998 64.0281 30.1806 64.3484 30.1686C64.7626 30.1476 65.1564 29.9825 65.4617 29.7017C65.7521 29.4301 65.9268 29.0572 65.9496 28.6602C65.9586 28.3729 65.8688 28.2023 65.8209 28.2113Z" fill="#263238"/>
<path d="M65.6191 20.9144C65.6969 21.088 66.3404 20.9623 67.1156 21.0072C67.8907 21.0521 68.5162 21.2197 68.612 21.0551C68.6509 20.9773 68.5342 20.8157 68.2738 20.66C67.9278 20.4718 67.5438 20.3644 67.1504 20.3457C66.757 20.327 66.3644 20.3977 66.0022 20.5523C65.7149 20.684 65.5832 20.8306 65.6191 20.9144Z" fill="#263238"/>
<path d="M59.6526 21.2826C59.7903 21.4232 60.2931 21.2377 60.9096 21.1898C61.5262 21.1419 62.0559 21.2197 62.1667 21.0551C62.2145 20.9773 62.1218 20.8336 61.8853 20.7079C61.5619 20.5548 61.2026 20.4937 60.8468 20.5313C60.4906 20.5569 60.1486 20.6813 59.8591 20.8905C59.6496 21.0581 59.5898 21.2137 59.6526 21.2826Z" fill="#263238"/>
<path d="M73.9993 17.003C73.4756 16.4044 72.6525 16.1679 71.8743 15.9854C68.5143 15.2031 65.0733 14.8223 61.6236 14.8511C61.3003 15.6053 61.8211 16.4972 62.5215 16.9132C63.2218 17.3292 64.0748 17.416 64.8739 17.5926C65.673 17.7692 66.517 18.0984 66.936 18.7897C67.382 19.541 67.2352 20.5226 67.6393 21.2948C68.3396 22.6237 70.3538 22.7913 71.0452 24.1321C71.569 25.1407 71.114 26.3529 71.117 27.4902C71.1177 28.0672 71.2414 28.6375 71.4799 29.163C71.7184 29.6884 72.0663 30.157 72.5002 30.5374C72.9342 30.9178 73.4442 31.2013 73.9964 31.3689C74.5485 31.5366 75.1301 31.5846 75.7023 31.5097C75.3691 27.4632 75.0378 23.4178 74.7085 19.3734C74.6427 18.5473 74.55 17.6405 73.9993 17.003Z" fill="#263238"/>
<path d="M83.5034 26.0083C82.7881 25.5294 81.9261 25.1493 81.5579 24.3711C81.0252 23.2398 81.7795 21.7134 81.0163 20.7228C80.322 19.8249 78.6817 20.0973 78.0233 19.1665C77.5085 18.4392 77.8766 17.67 77.6252 17.0115C77.3738 16.3531 76.3115 15.8772 75.6231 16.0568L71.2564 24.7692C71.1217 27.5047 70.8075 28.9952 71.5976 30.4737C72.0316 31.2848 72.5583 32.06 72.7948 32.9459C73.0312 33.8318 72.9563 34.8853 72.2948 35.5228C75.605 35.3193 78.4363 33.1733 81.0432 31.1172L83.7996 28.9413C84.1053 28.7389 84.3554 28.4632 84.527 28.1392C84.8772 27.3611 84.2158 26.4871 83.5034 26.0083Z" fill="#263238"/>
<path d="M81.0213 30.3036C80.9134 30.3551 80.7999 30.3943 80.6831 30.4203C80.3457 30.5041 79.9963 30.5284 79.6506 30.4922C79.0999 30.4392 78.5727 30.2432 78.1212 29.9235C77.5215 29.4861 77.0971 28.8495 76.924 28.1278C76.8165 27.7126 76.7931 27.2801 76.8552 26.8558C76.9438 26.4085 77.0907 25.9749 77.2922 25.5658C77.508 25.1394 77.6602 24.6836 77.7441 24.213C77.7878 23.9723 77.7771 23.7248 77.7129 23.4887C77.6487 23.2525 77.5325 23.0338 77.373 22.8483C77.0198 22.4921 76.4512 22.4711 75.9094 22.3365C75.6159 22.2772 75.3469 22.1312 75.1373 21.9175C74.9404 21.6828 74.8203 21.3935 74.7931 21.0884C74.7153 20.4898 74.8948 19.8912 74.9248 19.3316C74.9521 19.0474 74.9142 18.7608 74.814 18.4936C74.7022 18.2334 74.5018 18.0213 74.2484 17.895C73.7276 17.6226 73.117 17.6525 72.5274 17.6855C71.9292 17.7471 71.3252 17.6576 70.7706 17.4251C70.2353 17.1893 69.7747 16.8115 69.4387 16.3327C69.1453 15.8659 68.9271 15.3559 68.7923 14.8212C68.6652 14.3284 68.4877 13.85 68.2625 13.3936C68.0296 12.9801 67.7113 12.6209 67.3287 12.3401C66.6936 11.8749 65.9267 11.6241 65.1394 11.6241C64.3521 11.6241 63.5853 11.8749 62.9501 12.3401C62.5094 12.6491 62.1273 13.0343 61.8217 13.4774C61.5668 13.8606 61.3578 14.2725 61.1992 14.7045C61.2013 14.6739 61.2073 14.6437 61.2172 14.6147C61.2351 14.5579 61.2561 14.4681 61.298 14.3603C61.4148 14.035 61.5695 13.7246 61.7589 13.4355C62.0595 12.9715 62.4418 12.5659 62.8872 12.2383C63.4761 11.808 64.174 11.5519 64.9015 11.4991C65.7963 11.4461 66.6826 11.6983 67.4155 12.2144C67.8199 12.5065 68.1568 12.8821 68.4032 13.3158C68.6361 13.7812 68.8197 14.2697 68.9509 14.7734C69.0846 15.2885 69.2966 15.78 69.5794 16.2309C69.8981 16.6796 70.3325 17.0333 70.8364 17.2545C71.3642 17.4693 71.9373 17.5485 72.5035 17.4849C73.1021 17.455 73.7396 17.4131 74.3202 17.7154C74.6148 17.8608 74.8474 18.1072 74.9756 18.4097C75.0877 18.7033 75.1307 19.0187 75.1013 19.3316C75.0654 19.9302 74.8918 20.5048 74.9637 21.0585C74.9865 21.325 75.091 21.5779 75.263 21.7828C75.4492 21.9684 75.6852 22.0962 75.9424 22.1509C76.2027 22.2197 76.4751 22.2527 76.7445 22.3245C77.0222 22.3854 77.2786 22.5198 77.4867 22.7136C77.6638 22.9188 77.7928 23.1611 77.8642 23.4226C77.9357 23.6841 77.9478 23.9582 77.8997 24.225C77.8117 24.7116 77.6523 25.1826 77.4268 25.6227C77.2253 26.0212 77.0783 26.445 76.9899 26.8827C76.9276 27.2873 76.9459 27.7003 77.0438 28.0978C77.2089 28.7898 77.6113 29.4019 78.1811 29.8278C78.6156 30.1434 79.1234 30.3432 79.6566 30.4084C80.114 30.4624 80.5775 30.4268 81.0213 30.3036Z" fill="#455A64"/>
<path d="M84.6002 24.0452C84.6661 24.1179 84.716 24.2035 84.7468 24.2966C84.8377 24.5683 84.8281 24.8635 84.7199 25.1287C84.6445 25.3223 84.5221 25.494 84.3638 25.6285C84.17 25.7859 83.9353 25.8845 83.6873 25.9128C83.3869 25.9493 83.0822 25.9024 82.8067 25.7773C82.5311 25.6522 82.2953 25.4537 82.125 25.2035C81.9262 24.9151 81.7981 24.5839 81.7509 24.2368C81.7109 23.8638 81.7383 23.4867 81.8317 23.1234C81.9904 22.3782 82.3675 21.6269 82.2597 20.7889C82.248 20.5833 82.1944 20.3822 82.1023 20.198C82.0102 20.0137 81.8815 19.8502 81.724 19.7175C81.3513 19.4902 80.905 19.4162 80.4789 19.5109C80.006 19.6136 79.5186 19.6318 79.0393 19.5648C78.7846 19.4991 78.5566 19.3558 78.3869 19.1548C78.2244 18.9518 78.108 18.7159 78.0457 18.4634C77.9561 17.978 77.928 17.4833 77.9619 16.9909C77.9688 16.5302 77.878 16.0732 77.6955 15.6501C77.348 14.8443 76.7055 14.2019 75.8998 13.8543C75.1306 13.5251 74.3015 13.5939 73.5563 13.6538C72.8515 13.7537 72.1353 13.7415 71.4343 13.6179C70.8584 13.4894 70.3146 13.245 69.8361 12.8996C69.4757 12.6424 69.1559 12.3327 68.8873 11.9808C68.6524 11.6865 68.4711 11.3532 68.3516 10.9961C68.5237 11.3251 68.724 11.6385 68.9502 11.9329C69.5868 12.7234 70.4752 13.2716 71.4673 13.4862C72.1555 13.593 72.8561 13.593 73.5443 13.4862C74.2896 13.4203 75.1485 13.3395 75.9716 13.6807C76.8241 14.0399 77.5071 14.7112 77.8811 15.5573C78.0746 16.0038 78.1715 16.4863 78.1654 16.9729C78.1318 17.4493 78.159 17.9281 78.2462 18.3976C78.2859 18.6212 78.3865 18.8295 78.537 18.9995C78.6875 19.1696 78.8821 19.2948 79.0992 19.3613C79.5558 19.4221 80.0195 19.4039 80.47 19.3074C80.9433 19.2053 81.4378 19.2934 81.8467 19.5528C82.0226 19.7013 82.1663 19.884 82.2692 20.0898C82.3722 20.2956 82.4321 20.5203 82.4453 20.75C82.4869 21.1754 82.4431 21.6048 82.3166 22.013C82.2118 22.4081 82.0831 22.7762 81.9963 23.1414C81.9017 23.486 81.8723 23.8454 81.9096 24.2009C81.9502 24.5225 82.0661 24.8301 82.2478 25.0987C82.4026 25.3323 82.6181 25.5193 82.8712 25.6395C83.1244 25.7598 83.4055 25.8087 83.6844 25.7811C83.9134 25.7582 84.1312 25.6711 84.3129 25.5297C84.4644 25.4091 84.5836 25.2528 84.66 25.0748C84.7698 24.825 84.7909 24.5451 84.7199 24.2817C84.6841 24.2008 84.6441 24.1219 84.6002 24.0452Z" fill="#263238"/>
<path d="M50.3561 30.8421C50.3004 31.1338 50.3458 31.4357 50.4848 31.6981C50.5621 31.8493 50.672 31.9814 50.8066 32.0849C50.9412 32.1885 51.097 32.2608 51.263 32.2967C51.4831 32.3298 51.7082 32.3008 51.9128 32.213C52.1174 32.1253 52.2935 31.9822 52.4212 31.7999C52.5641 31.5856 52.6295 31.3291 52.6068 31.0726C52.5766 30.7896 52.4944 30.5147 52.3644 30.2615C52.113 29.7318 51.673 29.1781 51.6251 28.4448C51.5994 28.0737 51.6513 27.7013 51.7775 27.3514C51.9038 27.0015 52.1016 26.6818 52.3584 26.4126C52.6275 26.128 52.9485 25.8974 53.3042 25.7332C53.6688 25.5722 54.0533 25.4605 54.4475 25.401C54.8274 25.3429 55.2011 25.2498 55.5638 25.1227C55.9027 25.001 56.1878 24.7635 56.3689 24.4523C56.523 24.1376 56.5862 23.7863 56.5515 23.4377C56.5216 23.0956 56.4451 22.7593 56.324 22.438C56.0995 21.8035 55.8122 21.193 55.7613 20.5615C55.7134 19.9802 55.8394 19.3978 56.1235 18.8884C56.3684 18.4817 56.6883 18.1252 57.0663 17.8379C57.3405 17.6194 57.5986 17.3813 57.8384 17.1256C58.036 16.903 58.1858 16.6422 58.2784 16.3594C58.2784 16.3594 58.2784 16.3803 58.2784 16.4193C58.2707 16.4775 58.2566 16.5347 58.2365 16.5898C58.1634 16.8035 58.0507 17.0015 57.9043 17.1735C57.6709 17.4406 57.4167 17.6888 57.1441 17.9157C56.7836 18.2027 56.4792 18.5537 56.2462 18.9513C55.9854 19.4391 55.873 19.9926 55.923 20.5435C55.9768 21.1421 56.2582 21.7407 56.4946 22.3752C56.624 22.7113 56.7056 23.0639 56.737 23.4227C56.777 23.8063 56.7075 24.1933 56.5365 24.5391C56.3354 24.8897 56.0177 25.1588 55.6386 25.2993C55.2645 25.4341 54.8788 25.5343 54.4864 25.5985C54.1079 25.6556 53.7386 25.7623 53.388 25.9158C53.0507 26.0677 52.7459 26.2831 52.4901 26.5503C52.2496 26.8002 52.0636 27.0974 51.9441 27.4231C51.8245 27.7487 51.774 28.0956 51.7957 28.4418C51.8316 29.1122 52.2417 29.639 52.5021 30.2017C52.6378 30.474 52.7211 30.7695 52.7475 31.0726C52.7719 31.3616 52.6935 31.6499 52.526 31.8867C52.3819 32.0863 52.1844 32.2413 51.9563 32.334C51.7282 32.4266 51.4785 32.4531 51.236 32.4104C50.9465 32.3365 50.6924 32.1626 50.5188 31.9194C50.3452 31.6762 50.2632 31.3794 50.2873 31.0816C50.295 30.9982 50.3184 30.9169 50.3561 30.8421Z" fill="#263238"/>
<path d="M51.4488 49.0928C51.4488 49.0928 51.9516 45.0673 53.891 43.0561C55.8304 41.0448 63.9472 38.5248 63.9472 38.5248C63.9472 38.5248 64.2824 41.395 66.2278 42.0864C68.29 42.8226 70.6185 42.5473 72.1269 40.7934C73.0392 39.6694 73.6803 38.3503 74.0005 36.9385C74.0005 36.9385 83.6945 37.8364 85.2748 40.4881C86.8551 43.1399 88.8992 53.4445 88.8992 53.4445L79.8367 55.369L81.0697 73.105H57.0007L57.4706 56.4584L50.916 57.3952L51.4488 49.0928Z" fill="#455A64"/>
<path d="M78.0505 55.9373C78.0219 55.8067 78.0109 55.6728 78.0175 55.5392C78.0175 55.2818 78.0175 54.9077 78.0175 54.4498C78.0175 53.528 78.0325 52.259 78.0624 50.8583C78.0924 49.4576 78.1283 48.1856 78.1672 47.2668C78.1851 46.8059 78.2031 46.4348 78.2211 46.1774C78.2189 46.0429 78.236 45.9089 78.2719 45.7793C78.2983 45.9103 78.3083 46.044 78.3019 46.1774C78.3019 46.4348 78.3019 46.8089 78.3019 47.2668C78.3019 48.1886 78.2869 49.4576 78.257 50.8583C78.227 52.259 78.1911 53.531 78.1522 54.4498C78.1343 54.9077 78.1133 55.2789 78.0983 55.5362C78.1018 55.6715 78.0857 55.8066 78.0505 55.9373Z" fill="#263238"/>
<path d="M55.2366 48.6349C55.2934 48.6199 55.8591 50.4306 56.4996 52.6544C57.1401 54.8781 57.6189 56.7128 57.5621 56.7277C57.5052 56.7427 56.9425 54.932 56.299 52.7112C55.6556 50.4905 55.1827 48.6528 55.2366 48.6349Z" fill="#263238"/>
<path d="M84.2745 39.8354C84.2745 39.8713 83.8435 39.9521 83.1821 40.2035C81.4472 40.8675 80.0033 42.1238 79.1057 43.7501C78.7645 44.3697 78.6238 44.7917 78.5879 44.7797C78.5952 44.6769 78.6184 44.576 78.6568 44.4804C78.7408 44.2078 78.8469 43.9426 78.974 43.6873C79.3953 42.8404 79.9796 42.0851 80.6935 41.4646C81.4075 40.8442 82.2369 40.3709 83.1342 40.0718C83.4043 39.98 83.6816 39.911 83.9632 39.8653C84.0643 39.8362 84.1698 39.8261 84.2745 39.8354Z" fill="#263238"/>
<path d="M53.7466 43.8672C53.8005 43.8672 53.992 44.4149 54.1716 45.1183C54.3512 45.8216 54.4499 46.4052 54.3931 46.4202C54.3362 46.4352 54.1477 45.8725 53.9681 45.1692C53.7885 44.4658 53.6897 43.8822 53.7466 43.8672Z" fill="#263238"/>
<path d="M87.301 53.7705C87.301 53.7705 84.5865 67.5559 84.2752 68.7351C83.9639 69.9143 83.4641 73.0898 80.1749 73.7483C75.7364 74.6462 58.3086 74.0146 58.3086 74.0146L61.6008 69.8545L76.8498 65.5776L78.9448 55.5483L87.301 53.7705Z" fill="#FFBE9D"/>
<path d="M61.3096 67.5264C61.3701 67.6241 61.4136 67.7314 61.4383 67.8436C61.5277 68.1441 61.5858 68.453 61.6119 68.7655C61.7037 69.8026 61.4871 70.8438 60.9894 71.7584C60.7246 72.2679 60.389 72.7375 59.9927 73.1531C59.6635 73.4905 59.2668 73.7547 58.8285 73.9282C58.5343 74.0393 58.226 74.1088 57.9126 74.1348C57.7987 74.1533 57.6824 74.1533 57.5684 74.1348C57.9765 74.0594 58.3771 73.9482 58.7656 73.8026C59.1742 73.6192 59.5424 73.3567 59.8491 73.0304C60.2223 72.6227 60.5421 72.1691 60.8008 71.6806C61.2802 70.7951 61.5079 69.7952 61.4592 68.7894C61.4293 67.9993 61.2707 67.5384 61.3096 67.5264Z" fill="#EB996E"/>
<path d="M46.7168 51.2114C46.7168 51.2114 49.1739 59.4808 50.1915 63.0544C51.275 66.8494 53.6424 75.469 58.6884 73.9396C62.5284 72.7724 61.4 67.7981 61.4 67.7981L57.4703 56.443L54.4145 56.9548L51.4486 49.2959L46.7168 51.2114Z" fill="#FFBE9D"/>
<path d="M60.0553 68.1579C60.1925 67.5419 60.1925 66.9033 60.0553 66.2873C59.893 65.6245 59.6154 64.9954 59.2352 64.4287C58.756 63.7369 58.2236 63.0835 57.643 62.4743C57.0597 61.8542 56.5254 61.1897 56.0447 60.487C55.6606 59.9073 55.3252 59.2966 55.0421 58.6614C54.8506 58.2343 54.6866 57.7955 54.5513 57.3475C54.4891 57.1859 54.4489 57.0168 54.4316 56.8447C54.5088 56.9979 54.5738 57.157 54.6261 57.3205C54.7458 57.6198 54.9254 58.0688 55.1768 58.5985C55.4737 59.2177 55.8179 59.813 56.2064 60.3793C56.6893 61.0683 57.2214 61.7214 57.7986 62.3337C58.3867 62.9507 58.9213 63.6165 59.3968 64.324C59.7839 64.9167 60.057 65.5764 60.2019 66.2694C60.2954 66.7356 60.2954 67.2158 60.2019 67.682C60.1779 67.8076 60.1429 67.9308 60.0972 68.0502C60.0885 68.0879 60.0744 68.1242 60.0553 68.1579Z" fill="#EB996E"/>
<path d="M51.4479 49.296C51.4479 49.296 51.4658 46.0038 51.1755 45.064L48.8411 39.8503C48.8411 39.8503 48.2425 39.4822 47.9432 40.5208C47.6439 41.5593 48.5657 42.6308 48.5657 42.6308L48.6375 43.9955L47.7037 43.2234L45.887 39.8174C45.887 39.8174 44.633 37.3363 44.3098 37.7224C43.9865 38.1085 44.0913 38.9195 44.63 39.982L45.8571 42.4123C45.8571 42.4123 46.0427 42.8433 45.3992 42.2177C44.7557 41.5922 43.358 38.5634 43.0677 38.1833C42.7774 37.8032 42.3823 36.6868 41.7568 36.9472C41.1313 37.2076 41.9334 38.5305 41.9334 38.5305L43.9357 43.0198C43.9357 43.0198 42.7744 41.3199 42.5649 41.0325C42.3554 40.7452 41.8705 39.7725 41.4904 39.2757C41.1103 38.7789 40.6943 38.5873 40.419 38.707C40.2846 38.7554 40.1737 38.8533 40.1092 38.9808C40.0447 39.1082 40.0313 39.2555 40.0718 39.3924L42.2117 43.1036C42.2117 43.1036 43.2802 44.7707 43.2802 44.8994C43.2802 45.0281 42.3464 44.3487 42.3464 44.3487L41.4485 43.2054C41.4485 43.2054 40.4788 41.4935 39.97 41.5862C39.4612 41.679 39.551 42.0591 39.551 42.0591L41.3468 45.1777L43.9626 48.5418L46.758 51.3192L48.3742 50.7984L51.4479 49.296Z" fill="#FFBE9D"/>
<path d="M46.3029 48.7398C46.3842 48.4025 46.4383 48.0592 46.4645 47.7132C46.5692 47.0967 46.7817 46.1719 47.5389 45.5763C47.8449 45.3209 48.2271 45.1746 48.6254 45.1603H48.76V45.0166C48.7181 44.3761 48.7421 43.7656 48.7181 43.3615C48.7375 43.1391 48.7068 42.9151 48.6284 42.7061C48.5867 42.9211 48.5657 43.1396 48.5655 43.3585C48.5196 43.923 48.5026 44.4894 48.5146 45.0555L48.6373 44.9119C48.1787 44.9107 47.7345 45.0719 47.3833 45.3668C46.9998 45.6763 46.7071 46.0837 46.5363 46.546C46.4021 46.9142 46.3175 47.2987 46.2849 47.6893C46.233 48.0381 46.2391 48.393 46.3029 48.7398Z" fill="#EB996E"/>
<path d="M89.2491 78.1299H50.5776C49.7742 78.1299 49.123 78.7811 49.123 79.5845V90.1285C49.123 90.9319 49.7742 91.5831 50.5776 91.5831H89.2491C90.0524 91.5831 90.7037 90.9319 90.7037 90.1285V79.5845C90.7037 78.7811 90.0524 78.1299 89.2491 78.1299Z" fill="white"/>
<path d="M89.265 91.586C89.265 91.586 89.3607 91.5859 89.5403 91.55C89.806 91.4953 90.0509 91.3666 90.2466 91.1789C90.407 91.0261 90.5307 90.8392 90.6084 90.6319C90.6862 90.4245 90.716 90.2023 90.6956 89.9818C90.6956 89.455 90.6956 88.8505 90.6956 88.186C90.6956 86.8243 90.6956 85.1601 90.6956 83.2267C90.6956 82.2589 90.6956 81.2274 90.6956 80.132C90.7061 79.8573 90.6971 79.5824 90.6686 79.309C90.6128 79.0379 90.4785 78.7892 90.2825 78.5937C90.0806 78.3919 89.8215 78.2571 89.5403 78.2076C89.2417 78.1821 88.9419 78.175 88.6424 78.1866L50.6144 78.2076C50.2826 78.2072 49.9619 78.3264 49.7111 78.5436C49.4603 78.7609 49.2965 79.0613 49.2496 79.3897C49.2226 79.6022 49.2496 79.8418 49.2346 80.0692V89.449C49.2346 89.6645 49.2346 89.8829 49.2346 90.0984C49.2309 90.3045 49.2728 90.5091 49.3573 90.6971C49.441 90.8833 49.5649 91.0485 49.7202 91.1809C49.8755 91.3134 50.0582 91.4098 50.2552 91.4632C50.4514 91.5078 50.6529 91.525 50.8538 91.5142H56.4027H73.4982L85.024 91.541H88.1576L85.024 91.556L73.4982 91.5799L56.4027 91.5979H50.8269C50.6078 91.6097 50.3881 91.5906 50.1744 91.541C49.8475 91.4515 49.5596 91.256 49.356 90.9851C49.1523 90.7142 49.0443 90.3834 49.0491 90.0445V88.0872C49.0491 86.3373 49.0491 84.5566 49.0491 82.7449V80.0153C49.0432 79.7817 49.0492 79.5479 49.067 79.3149C49.0998 79.0731 49.1913 78.8429 49.3334 78.6445C49.4761 78.4456 49.6638 78.2835 49.8813 78.1711C50.0987 78.0588 50.3397 77.9994 50.5844 77.998L88.6125 78.022C88.9121 78.0121 89.2119 78.0212 89.5104 78.049C89.8075 78.1043 90.0808 78.2483 90.2945 78.462C90.5082 78.6757 90.6522 78.949 90.7075 79.2461C90.7387 79.5253 90.7477 79.8066 90.7345 80.0872C90.7345 81.1826 90.7345 82.2141 90.7345 83.1818C90.7345 85.1152 90.7345 86.7734 90.7345 88.1411C90.7345 88.8195 90.7345 89.4181 90.7345 89.9369C90.7469 90.1815 90.705 90.4256 90.6118 90.6521C90.5287 90.838 90.4085 91.0052 90.2586 91.143C90.0573 91.3313 89.8057 91.457 89.5343 91.5051C89.4661 91.5174 89.3971 91.5244 89.3278 91.526L89.265 91.586Z" fill="#263238"/>
<path d="M53.2715 83.7865C53.2704 83.6344 53.3006 83.4836 53.3603 83.3436C53.4201 83.2036 53.508 83.0775 53.6186 82.973C53.7293 82.8685 53.8603 82.788 54.0035 82.7364C54.1466 82.6848 54.2989 82.6633 54.4507 82.6732C54.6251 82.665 54.799 82.6973 54.9589 82.7673C55.1188 82.8374 55.2604 82.9435 55.3726 83.0772L54.9865 83.4274C54.9278 83.3487 54.8514 83.285 54.7636 83.2413C54.6757 83.1977 54.5788 83.1753 54.4807 83.176C54.3183 83.176 54.1627 83.2405 54.0479 83.3552C53.9331 83.47 53.8686 83.6257 53.8686 83.788C53.8686 83.9504 53.9331 84.106 54.0479 84.2208C54.1627 84.3356 54.3183 84.4001 54.4807 84.4001C54.5787 84.4001 54.6753 84.3774 54.7631 84.3338C54.8508 84.2901 54.9273 84.2268 54.9865 84.1487L55.3726 84.4959C55.2604 84.6296 55.1188 84.7356 54.9589 84.8057C54.799 84.8758 54.6251 84.908 54.4507 84.8999C54.2989 84.9098 54.1466 84.8882 54.0035 84.8367C53.8603 84.7851 53.7293 84.7045 53.6186 84.6C53.508 84.4956 53.4201 84.3694 53.3603 84.2294C53.3006 84.0895 53.2704 83.9387 53.2715 83.7865Z" fill="#263238"/>
<path d="M55.5958 83.9033V82.7061H56.1943V83.8763C56.1943 84.2444 56.347 84.3911 56.6014 84.3911C56.8558 84.3911 57.0054 84.2444 57.0054 83.8763V82.73H57.604V83.9272C57.59 84.1848 57.4777 84.4272 57.2904 84.6046C57.1031 84.782 56.8549 84.8809 56.5969 84.8809C56.3389 84.8809 56.0907 84.782 55.9034 84.6046C55.7161 84.4272 55.6038 84.1848 55.5898 83.9272L55.5958 83.9033Z" fill="#263238"/>
<path d="M58.9581 84.2898H58.6259V84.8585H58.0273V82.7305H59.006C59.6046 82.7305 59.9578 83.0298 59.9578 83.5237C59.9636 83.6654 59.9267 83.8056 59.852 83.9261C59.7773 84.0467 59.6682 84.1421 59.5388 84.2001L59.9997 84.8735H59.3352L58.9581 84.2898ZM58.9581 83.1944H58.6199V83.82H58.9581C59.2065 83.82 59.3322 83.7062 59.3322 83.5207C59.3322 83.3351 59.2125 83.1944 58.9641 83.1944H58.9581Z" fill="#263238"/>
<path d="M61.2199 84.2898H60.8877V84.8585H60.2891V82.7305H61.2678C61.8664 82.7305 62.2196 83.0298 62.2196 83.5237C62.2254 83.6654 62.1885 83.8056 62.1138 83.9261C62.0391 84.0467 61.93 84.1421 61.8006 84.2001L62.2615 84.8735H61.609L61.2199 84.2898ZM61.2199 83.1944H60.8817V83.82H61.2199C61.4713 83.82 61.597 83.7062 61.597 83.5207C61.597 83.3351 61.4773 83.1944 61.2259 83.1944H61.2199Z" fill="#263238"/>
<path d="M64.2679 84.3916V84.8585H62.5469V82.7305H64.229V83.2004H63.1485V83.5596H64.1003V84.0145H63.1485V84.4066L64.2679 84.3916Z" fill="#263238"/>
<path d="M66.6408 82.7305V84.8735H66.141L65.1982 83.7332V84.8735H64.5996V82.7305H65.0995L66.0452 83.8738V82.7305H66.6408Z" fill="#263238"/>
<path d="M67.5227 83.1974H66.8672V82.7305H68.7857V83.2124H68.1302V84.8735H67.5316L67.5227 83.1974Z" fill="#263238"/>
<path d="M69.9004 82.7305H70.4989V84.3946H71.5195V84.8735H69.9004V82.7305Z" fill="#263238"/>
<path d="M71.6241 83.7868C71.6072 83.5472 71.6629 83.308 71.7838 83.1005C71.9047 82.8929 72.0853 82.7265 72.302 82.6229C72.5188 82.5193 72.7617 82.4833 72.9991 82.5196C73.2366 82.5559 73.4577 82.6628 73.6336 82.8264C73.8095 82.99 73.9321 83.2027 73.9855 83.4369C74.0389 83.6711 74.0206 83.916 73.933 84.1397C73.8454 84.3634 73.6925 84.5555 73.4942 84.6911C73.2959 84.8268 73.0615 84.8996 72.8212 84.9002C72.6683 84.9109 72.5149 84.89 72.3703 84.8389C72.2258 84.7878 72.0934 84.7076 71.9811 84.6032C71.8689 84.4988 71.7793 84.3725 71.7179 84.2321C71.6564 84.0917 71.6245 83.9401 71.6241 83.7868ZM73.3929 83.7868C73.3865 83.6736 73.347 83.5648 73.2794 83.4737C73.2119 83.3827 73.1191 83.3134 73.0126 83.2744C72.9061 83.2355 72.7905 83.2286 72.6801 83.2546C72.5698 83.2806 72.4694 83.3383 72.3915 83.4207C72.3135 83.503 72.2613 83.6064 72.2414 83.718C72.2216 83.8297 72.2348 83.9447 72.2796 84.0489C72.3243 84.1531 72.3986 84.2419 72.4933 84.3044C72.5879 84.3668 72.6989 84.4002 72.8123 84.4004C72.8924 84.4027 72.9721 84.3881 73.0462 84.3578C73.1204 84.3274 73.1874 84.2819 73.2429 84.2241C73.2984 84.1664 73.3412 84.0976 73.3686 84.0223C73.396 83.947 73.4072 83.8668 73.4018 83.7868H73.3929Z" fill="#263238"/>
<path d="M74.213 83.7865C74.2114 83.6345 74.2413 83.4838 74.3007 83.3438C74.3601 83.2039 74.4477 83.0777 74.5581 82.9732C74.6685 82.8686 74.7993 82.7881 74.9424 82.7364C75.0854 82.6848 75.2375 82.6633 75.3892 82.6732C75.5636 82.665 75.7375 82.6973 75.8974 82.7674C76.0573 82.8374 76.1988 82.9435 76.311 83.0772L75.9249 83.4274C75.8663 83.3487 75.7899 83.285 75.702 83.2413C75.6142 83.1977 75.5172 83.1753 75.4191 83.176C75.2568 83.176 75.1011 83.2405 74.9863 83.3552C74.8716 83.47 74.8071 83.6257 74.8071 83.788C74.8071 83.9504 74.8716 84.106 74.9863 84.2208C75.1011 84.3356 75.2568 84.4001 75.4191 84.4001C75.5171 84.4001 75.6138 84.3774 75.7016 84.3338C75.7893 84.2902 75.8658 84.2268 75.9249 84.1487L76.311 84.4959C76.1988 84.6296 76.0573 84.7356 75.8974 84.8057C75.7375 84.8758 75.5636 84.908 75.3892 84.8999C75.2375 84.9098 75.0854 84.8883 74.9424 84.8366C74.7993 84.785 74.6685 84.7044 74.5581 84.5999C74.4477 84.4954 74.3601 84.3692 74.3007 84.2292C74.2413 84.0893 74.2114 83.9386 74.213 83.7865Z" fill="#263238"/>
<path d="M77.978 84.4417H77.0801L76.9125 84.8577H76.293L77.2388 82.7148H77.8374L78.7861 84.8577H78.1546L77.978 84.4417ZM77.7984 83.9957L77.5261 83.3104L77.2507 83.9957H77.7984Z" fill="#263238"/>
<path d="M79.2951 83.1974H78.6367V82.7305H80.5552V83.2124H79.9027V84.8735H79.3041L79.2951 83.1974Z" fill="#263238"/>
<path d="M80.7812 82.7305H81.3799V84.8735H80.7812V82.7305Z" fill="#263238"/>
<path d="M81.71 83.7868C81.6932 83.5472 81.7489 83.308 81.8698 83.1005C81.9907 82.8929 82.1713 82.7265 82.388 82.6229C82.6048 82.5193 82.8477 82.4833 83.0851 82.5196C83.3226 82.5559 83.5437 82.6628 83.7196 82.8264C83.8955 82.99 84.0181 83.2027 84.0715 83.4369C84.1249 83.6711 84.1066 83.916 84.019 84.1397C83.9314 84.3634 83.7785 84.5555 83.5802 84.6911C83.3819 84.8268 83.1474 84.8996 82.9072 84.9002C82.7543 84.9109 82.6008 84.89 82.4563 84.8389C82.3118 84.7878 82.1793 84.7076 82.0671 84.6032C81.9549 84.4988 81.8652 84.3725 81.8038 84.2321C81.7424 84.0917 81.7105 83.9401 81.71 83.7868ZM83.4789 83.7868C83.4724 83.6736 83.433 83.5648 83.3654 83.4737C83.2978 83.3827 83.2051 83.3134 83.0986 83.2744C82.9921 83.2355 82.8765 83.2286 82.7661 83.2546C82.6557 83.2806 82.5554 83.3383 82.4774 83.4207C82.3995 83.503 82.3474 83.6064 82.3275 83.718C82.3077 83.8297 82.3209 83.9447 82.3657 84.0489C82.4104 84.1531 82.4847 84.2419 82.5793 84.3044C82.674 84.3668 82.7848 84.4002 82.8982 84.4004C82.9776 84.4014 83.0563 84.386 83.1294 84.355C83.2025 84.3241 83.2684 84.2784 83.3229 84.2208C83.3775 84.1631 83.4195 84.0948 83.4463 84.0201C83.4732 83.9454 83.4842 83.866 83.4789 83.7868Z" fill="#263238"/>
<path d="M86.4446 82.7305V84.8735H85.9447L84.999 83.7332V84.8735H84.4004V82.7305H84.9002L85.846 83.8738V82.7305H86.4446Z" fill="#263238"/>
<path d="M57.9492 87.3598C57.962 87.1402 58.0392 86.9293 58.1712 86.7533C58.3032 86.5774 58.4841 86.4442 58.6913 86.3705C58.8985 86.2967 59.1228 86.2856 59.3363 86.3386C59.5498 86.3916 59.7429 86.5063 59.8916 86.6684L59.5923 86.9468C59.53 86.8715 59.4517 86.8111 59.3633 86.7697C59.2748 86.7283 59.1782 86.707 59.0805 86.7073C58.9075 86.7073 58.7415 86.7761 58.6191 86.8984C58.4968 87.0208 58.428 87.1868 58.428 87.3598C58.428 87.5328 58.4968 87.6988 58.6191 87.8212C58.7415 87.9435 58.9075 88.0122 59.0805 88.0122C59.1786 88.0133 59.2757 87.9921 59.3644 87.9501C59.453 87.9081 59.531 87.8464 59.5923 87.7698L59.8916 88.0482C59.7437 88.2115 59.5508 88.3275 59.3372 88.3814C59.1235 88.4354 58.8987 88.4249 58.691 88.3513C58.4833 88.2777 58.302 88.1443 58.17 87.9678C58.038 87.7914 57.9612 87.5798 57.9492 87.3598Z" fill="#E0E0E0"/>
<path d="M60.2051 86.3428H60.678V88.378H60.2051V86.3428Z" fill="#E0E0E0"/>
<path d="M61.5822 86.7259H60.9297V86.3428H62.7045V86.7259H62.0521V88.378H61.5822V86.7259Z" fill="#E0E0E0"/>
<path d="M63.896 87.6567V88.378H63.4261V87.6507L62.627 86.3428H63.1268L63.6685 87.2407L64.2132 86.3428H64.6771L63.896 87.6567Z" fill="#E0E0E0"/>
<path d="M65.1982 88.1171C65.1951 88.2218 65.1674 88.3243 65.1174 88.4164L64.9527 88.8354H64.6535L64.7792 88.3715C64.7307 88.3521 64.6896 88.318 64.6617 88.2739C64.6338 88.2299 64.6204 88.1781 64.6235 88.1261C64.6235 88.0515 64.6532 87.9799 64.7059 87.9271C64.7587 87.8744 64.8302 87.8447 64.9049 87.8447C64.9795 87.8447 65.051 87.8744 65.1038 87.9271C65.1565 87.9799 65.1862 88.0515 65.1862 88.1261L65.1982 88.1171Z" fill="#E0E0E0"/>
<path d="M66.2188 87.3606C66.2324 87.1411 66.3102 86.9304 66.4425 86.7547C66.5749 86.579 66.7559 86.4461 66.9631 86.3724C67.1704 86.2988 67.3947 86.2876 67.6083 86.3404C67.8218 86.3932 68.0151 86.5075 68.1642 86.6692L67.8649 86.9476C67.8027 86.8722 67.7244 86.8116 67.6359 86.7702C67.5474 86.7287 67.4508 86.7076 67.3531 86.7081C67.1801 86.7081 67.014 86.7769 66.8916 86.8992C66.7693 87.0216 66.7006 87.1875 66.7006 87.3606C66.7006 87.5336 66.7693 87.6996 66.8916 87.8219C67.014 87.9443 67.1801 88.013 67.3531 88.013C67.4513 88.0146 67.5485 87.9935 67.6372 87.9515C67.726 87.9094 67.8039 87.8476 67.8649 87.7706L68.1642 88.049C68.0159 88.2119 67.8228 88.3275 67.6091 88.3812C67.3954 88.4349 67.1706 88.4244 66.9629 88.3509C66.7551 88.2774 66.5737 88.1442 66.4414 87.968C66.309 87.7919 66.2315 87.5806 66.2188 87.3606Z" fill="#E0E0E0"/>
<path d="M68.3143 87.3599C68.3017 87.1367 68.3564 86.9149 68.4713 86.7232C68.5862 86.5314 68.7561 86.3786 68.9588 86.2845C69.1615 86.1904 69.3879 86.1593 69.6085 86.1952C69.8291 86.2312 70.0338 86.3325 70.1962 86.4861C70.3586 86.6398 70.4711 86.8386 70.5191 87.0569C70.5672 87.2752 70.5487 87.5029 70.4659 87.7105C70.3831 87.9182 70.2399 88.0962 70.0548 88.2215C69.8697 88.3468 69.6512 88.4136 69.4277 88.4134C69.2844 88.4215 69.1409 88.4003 69.0061 88.3511C68.8713 88.3018 68.748 88.2255 68.6437 88.1268C68.5395 88.0282 68.4565 87.9092 68.3998 87.7774C68.3432 87.6455 68.3141 87.5034 68.3143 87.3599ZM70.0652 87.3599C70.0622 87.2345 70.0224 87.1127 69.9505 87.0099C69.8787 86.907 69.7782 86.8277 69.6615 86.7817C69.5447 86.7357 69.4171 86.7252 69.2944 86.7515C69.1717 86.7777 69.0596 86.8396 68.9719 86.9293C68.8842 87.0191 68.825 87.1326 68.8016 87.2559C68.7782 87.3791 68.7916 87.5065 68.8403 87.6221C68.8889 87.7378 68.9706 87.8365 69.0751 87.9059C69.1796 87.9753 69.3022 88.0123 69.4277 88.0123C69.5138 88.0153 69.5995 88.0004 69.6795 87.9686C69.7596 87.9368 69.8321 87.8887 69.8926 87.8273C69.9531 87.766 70.0002 87.6928 70.0309 87.6123C70.0617 87.5319 70.0754 87.4459 70.0712 87.3599H70.0652Z" fill="#E0E0E0"/>
<path d="M70.8848 87.4831V86.3428H71.3547V87.4651C71.3547 87.8512 71.5223 88.0128 71.8096 88.0128C72.0969 88.0128 72.2615 87.8512 72.2615 87.4651V86.3428H72.7284V87.4831C72.7284 87.7276 72.6313 87.962 72.4584 88.1349C72.2856 88.3078 72.0511 88.4049 71.8066 88.4049C71.5621 88.4049 71.3277 88.3078 71.1548 88.1349C70.9819 87.962 70.8848 87.7276 70.8848 87.4831Z" fill="#E0E0E0"/>
<path d="M75.059 86.3428V88.378H74.6729L73.6583 87.1419V88.378H73.1914V86.3428H73.5805L74.5981 87.5789V86.3428H75.059Z" fill="#E0E0E0"/>
<path d="M75.9631 86.7259H75.3105V86.3428H77.0854V86.7259H76.4329V88.378H75.9631V86.7259Z" fill="#E0E0E0"/>
<path d="M78.6368 88.3778L78.2447 87.8181H77.8107V88.3838H77.3379V86.3486H78.2357C78.7775 86.3486 79.1187 86.6299 79.1187 87.0878C79.1244 87.2254 79.0872 87.3613 79.0121 87.4766C78.937 87.5919 78.8278 87.681 78.6996 87.7313L79.1576 88.3838L78.6368 88.3778ZM78.1908 86.7257H77.8077V87.435H78.1908C78.4901 87.435 78.6248 87.3033 78.6248 87.0819C78.6248 86.8604 78.4901 86.7257 78.1908 86.7257Z" fill="#E0E0E0"/>
<path d="M80.4222 87.6567V88.378H79.9523V87.6507L79.1621 86.3428H79.662L80.2067 87.2407L80.7514 86.3428H81.2153L80.4222 87.6567Z" fill="#E0E0E0"/>
</g>
<defs>
<clipPath id="clip0_114_407">
<rect width="141" height="123" fill="white"/>
</clipPath>
</defs>
</svg>
