<svg width="18" height="18" viewBox="0 0 18 18" fill="none" xmlns="http://www.w3.org/2000/svg">
<path d="M16.182 -3.65576e-06C16.7002 -3.70107e-06 17.1326 0.173246 17.4791 0.519747C17.8256 0.866247 17.9992 1.299 18 1.818L18 16.182C18 16.7002 17.8264 17.1326 17.4791 17.4791C17.1319 17.8256 16.6995 17.9993 16.182 18L8.97863 18L8.97863 16.875L16.182 16.875C16.3552 16.875 16.5142 16.803 16.659 16.659C16.8038 16.515 16.8757 16.356 16.875 16.182L16.875 1.81687C16.875 1.64437 16.803 1.48575 16.659 1.341C16.515 1.19625 16.3564 1.12425 16.1831 1.125L8.97862 1.125L8.97862 -3.02602e-06L16.182 -3.65576e-06ZM3.98025 5.01862L4.77 5.82862L2.16112 8.4375L12.159 8.4375L12.159 9.5625L2.16112 9.5625L4.77112 12.1725L3.98137 12.9803L-7.86805e-07 9L3.98025 5.01862Z" fill="#363638"/>
</svg>
