<svg width="27" height="25" viewBox="0 0 27 25" fill="none" xmlns="http://www.w3.org/2000/svg">
<path fill-rule="evenodd" clip-rule="evenodd" d="M11.1955 21.028H1.697C1.07291 21.028 0.566406 20.5214 0.566406 19.8974C0.566406 19.2733 1.07291 18.7668 1.697 18.7668H11.1955C11.8196 18.7668 12.3261 19.2733 12.3261 19.8974C12.3261 20.5214 11.8196 21.028 11.1955 21.028" fill="#040601"/>
<path fill-rule="evenodd" clip-rule="evenodd" d="M24.9299 6.41702H15.4328C14.8088 6.41702 14.3022 5.91052 14.3022 5.28643C14.3022 4.66234 14.8088 4.15583 15.4328 4.15583H24.9299C25.5539 4.15583 26.0605 4.66234 26.0605 5.28643C26.0605 5.91052 25.5539 6.41702 24.9299 6.41702" fill="#040601"/>
<mask id="mask0_112_29" style="mask-type:luminance" maskUnits="userSpaceOnUse" x="0" y="0" width="10" height="10">
<path fill-rule="evenodd" clip-rule="evenodd" d="M0.522461 0.537918H9.90762V9.87152H0.522461V0.537918Z" fill="white"/>
</mask>
<g mask="url(#mask0_112_29)">
<path fill-rule="evenodd" clip-rule="evenodd" d="M5.21512 2.79851C3.87499 2.79851 2.78358 3.87785 2.78358 5.20593C2.78358 6.53249 3.87499 7.61033 5.21512 7.61033C6.55676 7.61033 7.64666 6.53249 7.64666 5.20593C7.64666 3.87785 6.55676 2.79851 5.21512 2.79851M5.21519 9.87173C2.62839 9.87173 0.522461 7.77937 0.522461 5.20613C0.522461 2.63289 2.62839 0.537518 5.21519 0.537518C7.80351 0.537518 9.90792 2.63289 9.90792 5.20613C9.90792 7.77937 7.80351 9.87173 5.21519 9.87173" fill="#040601"/>
</g>
<path fill-rule="evenodd" clip-rule="evenodd" d="M22.2117 17.433C20.87 17.433 19.7786 18.5123 19.7786 19.8389C19.7786 21.1669 20.87 22.2448 22.2117 22.2448C23.5518 22.2448 24.6417 21.1669 24.6417 19.8389C24.6417 18.5123 23.5518 17.433 22.2117 17.433M22.2118 24.506C19.6235 24.506 17.5176 22.4121 17.5176 19.8389C17.5176 17.2656 19.6235 15.1718 22.2118 15.1718C24.7986 15.1718 26.903 17.2656 26.903 19.8389C26.903 22.4121 24.7986 24.506 22.2118 24.506" fill="#040601"/>
</svg>
