<svg width="22" height="22" viewBox="0 0 22 22" fill="none" xmlns="http://www.w3.org/2000/svg">
<rect width="22" height="22" rx="3" fill="#4CAF50"/>
<path d="M13.725 18.1H13.625H12.75H12.65V18V17.562V17.5616C12.6518 17.0577 12.5533 16.5585 12.36 16.0931C12.1669 15.6278 11.8829 15.2056 11.5248 14.8512C11.1729 14.5043 10.759 14.2264 10.3047 14.0319L10.3046 14.0319C9.83291 13.8298 9.32512 13.7254 8.81193 13.725L8.81165 13.725C8.30775 13.7232 7.80854 13.8217 7.34315 14.015C6.87777 14.2082 6.45553 14.4922 6.1011 14.8503L6.03001 14.78M13.725 18.1L4.84802 14.849C4.29353 15.6448 3.99746 16.5921 4.00002 17.562H3.90002V17.5621V18V18.1H4.00002H4.87502H4.97502V18V17.5625C4.97996 17.029 5.08151 16.5316 5.28173 16.0709L5.28194 16.0704C5.47651 15.6161 5.7544 15.2022 6.10125 14.8502L6.03001 14.78M13.725 18.1V18V17.563L13.725 17.5626M13.725 18.1L13.725 17.5626M6.03001 14.78C5.67441 15.1409 5.3895 15.5652 5.19002 16.031L8.81201 13.625M6.03001 14.78C6.39379 14.4124 6.82716 14.1209 7.30481 13.9226C7.78246 13.7243 8.29483 13.6231 8.81201 13.625M5.74786 11.3247C5.80777 11.5704 5.89808 11.8076 6.0167 12.0309L6.01676 12.031C6.13558 12.254 6.27995 12.4625 6.44697 12.6521C6.57657 12.7998 6.71986 12.9347 6.87483 13.055C6.02581 13.4273 5.29533 14.0281 4.76587 14.792L5.84501 11.301M5.74786 11.3247L5.84501 11.301M5.74786 11.3247C5.74786 11.3247 5.74787 11.3247 5.74787 11.3247L5.84501 11.301M5.74786 11.3247C5.68701 11.0754 5.6542 10.8202 5.65003 10.5636L5.65 10.562C5.65001 10.1262 5.73249 9.71563 5.89816 9.33348M5.84501 11.301C5.78593 11.059 5.75406 10.8111 5.75001 10.562C5.75001 10.139 5.83001 9.742 5.99001 9.373M5.89816 9.33348C5.89813 9.33354 5.8981 9.3336 5.89808 9.33366L5.99001 9.373M5.89816 9.33348C5.89819 9.33339 5.89823 9.3333 5.89827 9.33322L5.99001 9.373M5.89816 9.33348C6.22114 8.57886 6.82217 7.97749 7.57661 7.65409L7.57684 7.65399C7.96621 7.48824 8.38484 7.4022 8.80801 7.40096C9.23118 7.39972 9.65031 7.4833 10.0406 7.64676L10.0414 7.64707C10.7963 7.97028 11.3977 8.57175 11.7209 9.32664L11.721 9.32687C11.9884 9.95563 12.0453 10.654 11.8832 11.3177L11.883 11.3185C11.821 11.5634 11.73 11.7991 11.608 12.0254L11.608 12.0256C11.4874 12.2485 11.3436 12.4581 11.1791 12.6509L11.179 12.651C11.0516 12.7999 10.9092 12.9338 10.7525 13.0543C11.1567 13.2305 11.5295 13.4542 11.8692 13.7247L7.61601 7.746M5.99001 9.373C6.30287 8.64192 6.88512 8.05931 7.61601 7.746M7.61601 7.746C7.99308 7.58548 8.39849 7.50216 8.8083 7.50096C9.21811 7.49976 9.62401 7.5807 10.002 7.739L7.61601 7.746ZM8.81201 13.625C9.33871 13.6254 9.85987 13.7326 10.344 13.94C10.8098 14.1394 11.2342 14.4243 11.595 14.78C11.9626 15.1438 12.2541 15.5771 12.4524 16.0548L8.81201 13.625ZM13.725 17.5626C13.721 16.5733 13.4195 15.6082 12.8596 14.7926M13.725 17.5626L12.8596 14.7926M12.8596 14.7926C12.585 14.3885 12.2552 14.0311 11.8693 13.7248L12.8596 14.7926ZM9.6209 12.488L9.62066 12.4881C9.36961 12.5955 9.10005 12.65 8.81201 12.65C8.53702 12.6513 8.26453 12.5978 8.01048 12.4925C7.75635 12.3873 7.52578 12.2323 7.33227 12.0368C7.14535 11.8461 6.99715 11.6235 6.88683 11.3704C6.77944 11.1194 6.72501 10.8499 6.72501 10.563C6.72501 10.275 6.77949 10.0054 6.88695 9.75435L6.887 9.75423C7.10136 9.25165 7.50166 8.85135 8.00424 8.63698L8.00436 8.63693C8.25543 8.52947 8.52499 8.475 8.81201 8.475L8.81264 8.475C9.0905 8.47326 9.36552 8.53099 9.61923 8.64431L9.61944 8.6444C9.8671 8.75431 10.0932 8.90743 10.2872 9.0966C10.4823 9.28744 10.6371 9.51553 10.7423 9.76732C10.8476 10.0192 10.9012 10.2896 10.9 10.5626V10.563C10.9 10.8495 10.8438 11.1207 10.7306 11.3765L10.7305 11.3765L10.7299 11.378C10.5181 11.8777 10.1205 12.2757 9.6209 12.488ZM18.1 4V3.9H18H7.50001H7.40001V4V6.639V6.78366L7.53534 6.73255C7.67176 6.68103 7.8124 6.64144 7.95566 6.61425C8.0989 6.58717 8.24293 6.56448 8.38755 6.54621L8.47501 6.53516V6.447V4.975H17.025V10.025H15.888H15.8466L15.8173 10.0543L14.6 11.2716V10.125V10.025H14.5H12.75H12.65V10.125V11V11.1H12.75H13.525V13.625V13.8664L13.6957 13.6957L16.2914 11.1H18H18.1V11V4Z" fill="white" stroke="white" stroke-width="0.2"/>
</svg>
