<svg width="21" height="20" viewBox="0 0 21 20" fill="none" xmlns="http://www.w3.org/2000/svg">
<g clip-path="url(#clip0_207_135)">
<path d="M21 20.0001H0V0.00195312H21V20.0001ZM0.823927 19.0277H20.1761V0.974352H0.823927V19.0277Z" fill="#007AFF"/>
<path d="M18.3089 7.80859H2.73956C2.5934 7.80859 2.45323 7.87712 2.34988 7.99909C2.24654 8.12106 2.18848 8.28649 2.18848 8.45898C2.18848 8.63147 2.24654 8.7969 2.34988 8.91887C2.45323 9.04084 2.5934 9.10936 2.73956 9.10936H18.3089C18.4551 9.10936 18.5953 9.04084 18.6986 8.91887C18.8019 8.7969 18.86 8.63147 18.86 8.45898C18.86 8.28649 18.8019 8.12106 18.6986 7.99909C18.5953 7.87712 18.4551 7.80859 18.3089 7.80859Z" fill="#007AFF"/>
<path d="M5.83966 6.50956H15.2087C15.2812 6.50966 15.353 6.49286 15.42 6.46013C15.4871 6.42739 15.5479 6.37937 15.5992 6.31881C15.6504 6.25825 15.6911 6.18634 15.7187 6.10721C15.7464 6.02808 15.7605 5.94328 15.7604 5.85768V3.06054C15.7604 2.88805 15.7023 2.72262 15.599 2.60065C15.4956 2.47868 15.3554 2.41016 15.2093 2.41016H5.83966C5.6935 2.41016 5.55333 2.47868 5.44998 2.60065C5.34664 2.72262 5.28858 2.88805 5.28858 3.06054V5.85768C5.28841 5.94322 5.30254 6.02795 5.33016 6.10703C5.35778 6.18612 5.39835 6.25799 5.44953 6.31854C5.50072 6.3791 5.56153 6.42714 5.62847 6.45991C5.69542 6.49269 5.76718 6.50957 5.83966 6.50956ZM6.39074 3.71242H14.6576V5.20842H6.39074V3.71242Z" fill="#007AFF"/>
<path d="M7.65922 10.4268H2.71566C2.56967 10.4271 2.42974 10.4957 2.3266 10.6176C2.22346 10.7396 2.16553 10.9048 2.16553 11.0771V16.8984C2.16549 16.9839 2.17971 17.0685 2.20739 17.1474C2.23507 17.2263 2.27566 17.298 2.32684 17.3584C2.37802 17.4189 2.43879 17.4668 2.50567 17.4994C2.57255 17.5321 2.64423 17.5489 2.71661 17.5488H7.66017C7.73257 17.5489 7.80426 17.5321 7.87116 17.4994C7.93805 17.4668 7.99884 17.4189 8.05005 17.3585C8.10125 17.2981 8.14187 17.2264 8.16959 17.1474C8.1973 17.0685 8.21157 16.9839 8.21157 16.8984V11.0771C8.21153 10.9916 8.1972 10.9069 8.16941 10.828C8.14162 10.749 8.10092 10.6772 8.04962 10.6168C7.99832 10.5564 7.93744 10.5086 7.87045 10.4759C7.80346 10.4433 7.73168 10.4266 7.65922 10.4268ZM7.10909 16.2481H3.26642V11.7275H7.10909V16.2481Z" fill="#007AFF"/>
<path d="M18.2844 12.0366C18.4305 12.0366 18.5707 11.9681 18.674 11.8461C18.7774 11.7241 18.8355 11.5587 18.8355 11.3862C18.8355 11.2137 18.7774 11.0483 18.674 10.9263C18.5707 10.8044 18.4305 10.7358 18.2844 10.7358H12.4266C12.2804 10.7358 12.1402 10.8044 12.0369 10.9263C11.9335 11.0483 11.8755 11.2137 11.8755 11.3862C11.8755 11.5587 11.9335 11.7241 12.0369 11.8461C12.1402 11.9681 12.2804 12.0366 12.4266 12.0366H18.2844Z" fill="#007AFF"/>
<path d="M10.429 12.0366C10.5751 12.0366 10.7153 11.9681 10.8186 11.8461C10.922 11.7241 10.9801 11.5587 10.9801 11.3862C10.9801 11.2137 10.922 11.0483 10.8186 10.9263C10.7153 10.8044 10.5751 10.7358 10.429 10.7358H10.2781C10.132 10.7358 9.99181 10.8044 9.88846 10.9263C9.78511 11.0483 9.72705 11.2137 9.72705 11.3862C9.72705 11.5587 9.78511 11.7241 9.88846 11.8461C9.99181 11.9681 10.132 12.0366 10.2781 12.0366H10.429Z" fill="#007AFF"/>
<path d="M18.2845 13.3374H18.2503C18.1041 13.3374 17.964 13.4059 17.8606 13.5279C17.7573 13.6499 17.6992 13.8153 17.6992 13.9878C17.6992 14.1603 17.7573 14.3257 17.8606 14.4477C17.964 14.5697 18.1041 14.6382 18.2503 14.6382H18.2845C18.4307 14.6382 18.5708 14.5697 18.6742 14.4477C18.7775 14.3257 18.8356 14.1603 18.8356 13.9878C18.8356 13.8153 18.7775 13.6499 18.6742 13.5279C18.5708 13.4059 18.4307 13.3374 18.2845 13.3374Z" fill="#007AFF"/>
<path d="M10.2781 14.6382H16.3942C16.5404 14.6382 16.6805 14.5697 16.7839 14.4477C16.8872 14.3257 16.9453 14.1603 16.9453 13.9878C16.9453 13.8153 16.8872 13.6499 16.7839 13.5279C16.6805 13.4059 16.5404 13.3374 16.3942 13.3374H10.2781C10.132 13.3374 9.99181 13.4059 9.88846 13.5279C9.78511 13.6499 9.72705 13.8153 9.72705 13.9878C9.72705 14.1603 9.78511 14.3257 9.88846 14.4477C9.99181 14.5697 10.132 14.6382 10.2781 14.6382Z" fill="#007AFF"/>
<path d="M18.2845 15.939H10.2781C10.132 15.939 9.99181 16.0075 9.88846 16.1295C9.78511 16.2514 9.72705 16.4169 9.72705 16.5894C9.72705 16.7618 9.78511 16.9273 9.88846 17.0492C9.99181 17.1712 10.132 17.2397 10.2781 17.2397H18.2845C18.3569 17.2397 18.4285 17.2229 18.4954 17.1902C18.5622 17.1575 18.623 17.1096 18.6742 17.0492C18.7253 16.9888 18.7659 16.9171 18.7936 16.8382C18.8213 16.7593 18.8356 16.6748 18.8356 16.5894C18.8356 16.5039 18.8213 16.4194 18.7936 16.3405C18.7659 16.2615 18.7253 16.1899 18.6742 16.1295C18.623 16.0691 18.5622 16.0212 18.4954 15.9885C18.4285 15.9558 18.3569 15.939 18.2845 15.939Z" fill="#007AFF"/>
</g>
<defs>
<clipPath id="clip0_207_135">
<rect width="21" height="20" fill="white"/>
</clipPath>
</defs>
</svg>
