<svg width="18" height="16" viewBox="0 0 18 16" fill="none" xmlns="http://www.w3.org/2000/svg">
<path d="M10.8333 10.1C11.8122 10.1 12.7471 10.4735 13.4333 11.1323C14.1189 11.7904 14.5 12.6785 14.5 13.6V14.4C14.5 14.685 14.3823 14.9627 14.1656 15.1707C13.9482 15.3794 13.6492 15.5 13.3333 15.5H1.66667C1.35081 15.5 1.05179 15.3794 0.834421 15.1707C0.617743 14.9627 0.5 14.685 0.5 14.4V13.6C0.5 12.6785 0.881135 11.7904 1.56665 11.1323C2.25287 10.4735 3.18777 10.1 4.16667 10.1H10.8333ZM7.5 0.5C8.4789 0.5 9.4138 0.873502 10.1 1.53227C10.7855 2.19036 11.1667 3.07848 11.1667 4C11.1667 4.92152 10.7855 5.80964 10.1 6.46773C9.4138 7.1265 8.4789 7.5 7.5 7.5C6.5211 7.5 5.5862 7.1265 4.89999 6.46773C4.21447 5.80964 3.83333 4.92152 3.83333 4C3.83333 3.07848 4.21447 2.19036 4.89999 1.53227C5.5862 0.873502 6.5211 0.5 7.5 0.5Z" stroke="#007AFF"/>
<path d="M15.625 6.60005V7.10005H16.125H17.375C17.4146 7.10005 17.4487 7.11534 17.4707 7.13648C17.492 7.15695 17.5 7.18027 17.5 7.20005C17.5 7.21983 17.492 7.24314 17.4707 7.26362C17.4492 7.28426 17.4162 7.29933 17.3778 7.30002L16.1335 7.27882L15.625 7.27016V7.77875V9.00005C15.625 9.01983 15.617 9.04314 15.5957 9.06362C15.5737 9.08476 15.5396 9.10005 15.5 9.10005C15.4604 9.10005 15.4263 9.08476 15.4043 9.06362C15.3839 9.04397 15.3757 9.0217 15.375 9.00245L15.3971 7.78783L15.4065 7.27015L14.8888 7.27882L13.6223 7.30002C13.5838 7.29934 13.5508 7.28427 13.5293 7.26362C13.508 7.24314 13.5 7.21983 13.5 7.20005C13.5 7.18027 13.508 7.15695 13.5293 7.13648C13.5513 7.11534 13.5854 7.10005 13.625 7.10005H14.8972H15.4065L15.3971 6.59081L15.375 5.39761C15.3757 5.37837 15.3839 5.35612 15.4043 5.33648C15.4263 5.31534 15.4604 5.30005 15.5 5.30005C15.5396 5.30005 15.5737 5.31534 15.5957 5.33648C15.617 5.35695 15.625 5.38027 15.625 5.40005V6.60005Z" stroke="#007AFF"/>
</svg>
