<svg width="18" height="18" viewBox="0 0 18 18" fill="none" xmlns="http://www.w3.org/2000/svg">
<mask id="mask0_23_268" style="mask-type:luminance" maskUnits="userSpaceOnUse" x="0" y="11" width="15" height="7">
<path fill-rule="evenodd" clip-rule="evenodd" d="M0 11.3266H14.1786V18H0V11.3266Z" fill="white"/>
</mask>
<g mask="url(#mask0_23_268)">
<path fill-rule="evenodd" clip-rule="evenodd" d="M7.08945 12.6905C3.28155 12.6905 1.35016 13.3516 1.35016 14.6537C1.35016 15.9686 3.28155 16.636 7.08945 16.636C10.8974 16.636 12.8288 15.975 12.8288 14.6737C12.8288 13.357 10.8974 12.6905 7.08945 12.6905ZM7.0893 18.0001C5.3361 18.0001 0 18.0001 0 14.6538C0 11.6712 4.0455 11.3266 7.0893 11.3266C8.8425 11.3266 14.1786 11.3266 14.1786 14.6738C14.1786 17.6555 10.1331 18.0001 7.0893 18.0001Z" fill="#263238" fill-opacity="0.8"/>
</g>
<path fill-rule="evenodd" clip-rule="evenodd" d="M7.08951 1.36398C5.19591 1.36398 3.65421 2.92166 3.65421 4.83579C3.65061 5.76239 4.00341 6.6308 4.64691 7.28642C5.29131 7.94113 6.14991 8.30395 7.06431 8.30759L7.08951 8.98958V8.30759C8.98401 8.30759 10.5257 6.74992 10.5257 4.83579C10.5257 2.92166 8.98401 1.36398 7.08951 1.36398ZM7.08929 9.67158H7.06139C5.78429 9.66703 4.58729 9.16054 3.68999 8.24758C2.79179 7.3337 2.29949 6.12067 2.30399 4.83306C2.30399 2.16965 4.45049 0 7.08929 0C9.72899 0 11.8755 2.16965 11.8755 4.83579C11.8755 7.50193 9.72899 9.67158 7.08929 9.67158Z" fill="#263238" fill-opacity="0.8"/>
<path fill-rule="evenodd" clip-rule="evenodd" d="M15.4838 10.3933C15.1112 10.3933 14.8088 10.0878 14.8088 9.71132V6.06401C14.8088 5.68755 15.1112 5.38202 15.4838 5.38202C15.8564 5.38202 16.1588 5.68755 16.1588 6.06401V9.71132C16.1588 10.0878 15.8564 10.3933 15.4838 10.3933Z" fill="#263238" fill-opacity="0.8"/>
<path fill-rule="evenodd" clip-rule="evenodd" d="M17.325 8.56928H13.644C13.2714 8.56928 12.969 8.26375 12.969 7.88729C12.969 7.51082 13.2714 7.20529 13.644 7.20529H17.325C17.6976 7.20529 18 7.51082 18 7.88729C18 8.26375 17.6976 8.56928 17.325 8.56928Z" fill="#263238" fill-opacity="0.8"/>
</svg>
