<svg width="16" height="16" viewBox="0 0 16 16" fill="none" xmlns="http://www.w3.org/2000/svg">
<path d="M5.6 7.8C5.33478 7.8 5.08043 7.90536 4.89289 8.09289C4.70536 8.28043 4.6 8.53478 4.6 8.8C4.6 9.06522 4.70536 9.31957 4.89289 9.50711C5.08043 9.69464 5.33478 9.8 5.6 9.8C5.73132 9.8 5.86136 9.77413 5.98268 9.72388C6.10401 9.67362 6.21425 9.59997 6.30711 9.50711C6.39997 9.41425 6.47362 9.30401 6.52388 9.18268C6.57413 9.06136 6.6 8.93132 6.6 8.8C6.6 8.66868 6.57413 8.53864 6.52388 8.41732C6.47362 8.29599 6.39997 8.18575 6.30711 8.09289C6.21425 8.00003 6.10401 7.92638 5.98268 7.87612C5.86136 7.82587 5.73132 7.8 5.6 7.8ZM10.4 7.8C10.1348 7.8 9.88043 7.90536 9.69289 8.09289C9.50536 8.28043 9.4 8.53478 9.4 8.8C9.4 9.06522 9.50536 9.31957 9.69289 9.50711C9.88043 9.69464 10.1348 9.8 10.4 9.8C10.6652 9.8 10.9196 9.69464 11.1071 9.50711C11.2946 9.31957 11.4 9.06522 11.4 8.8C11.4 8.53478 11.2946 8.28043 11.1071 8.09289C10.9196 7.90536 10.6652 7.8 10.4 7.8ZM8 0C6.94943 0 5.90914 0.206926 4.93853 0.608964C3.96793 1.011 3.08601 1.60028 2.34315 2.34315C0.842855 3.84344 0 5.87827 0 8C0 10.1217 0.842855 12.1566 2.34315 13.6569C3.08601 14.3997 3.96793 14.989 4.93853 15.391C5.90914 15.7931 6.94943 16 8 16C10.1217 16 12.1566 15.1571 13.6569 13.6569C15.1571 12.1566 16 10.1217 16 8C16 6.94943 15.7931 5.90914 15.391 4.93853C14.989 3.96793 14.3997 3.08601 13.6569 2.34315C12.914 1.60028 12.0321 1.011 11.0615 0.608964C10.0909 0.206926 9.05058 0 8 0ZM8 14.4C4.472 14.4 1.6 11.528 1.6 8C1.6 7.768 1.6 7.536 1.64 7.312C3.528 6.472 5.024 4.928 5.808 3.016C6.72231 4.31423 8.00332 5.31001 9.48697 5.87583C10.9706 6.44164 12.5894 6.55173 14.136 6.192C14.304 6.76 14.4 7.368 14.4 8C14.4 11.528 11.528 14.4 8 14.4Z" fill="#363638"/>
</svg>
