<svg width="21" height="17" viewBox="0 0 21 17" fill="none" xmlns="http://www.w3.org/2000/svg">
<path fill-rule="evenodd" clip-rule="evenodd" d="M16.3963 8.13428C16.059 8.13428 15.7647 7.88586 15.7161 7.54211C15.6639 7.16536 15.9251 6.81794 16.3019 6.76569C17.2552 6.63186 17.9748 5.80503 17.9766 4.84069C17.9766 3.88461 17.291 3.07611 16.3459 2.92119C15.9719 2.85978 15.718 2.50594 15.7794 2.13103C15.8417 1.75611 16.1928 1.50494 16.5695 1.56453C18.181 1.82944 19.3516 3.20811 19.3516 4.84253C19.348 6.48794 18.1187 7.89961 16.4916 8.12786C16.4595 8.13244 16.4275 8.13428 16.3963 8.13428" fill="#007AFF"/>
<path d="M16.3963 8.13428C16.059 8.13428 15.7647 7.88586 15.7161 7.54211C15.6639 7.16536 15.9251 6.81794 16.3019 6.76569C17.2552 6.63186 17.9748 5.80503 17.9766 4.84069C17.9766 3.88461 17.291 3.07611 16.3459 2.92119C15.9719 2.85978 15.718 2.50594 15.7794 2.13103C15.8417 1.75611 16.1928 1.50494 16.5695 1.56453C18.181 1.82944 19.3516 3.20811 19.3516 4.84253C19.348 6.48794 18.1187 7.89961 16.4916 8.12786C16.4595 8.13244 16.4275 8.13428 16.3963 8.13428" stroke="white" stroke-width="0.2"/>
<mask id="mask0_160_16" style="mask-type:luminance" maskUnits="userSpaceOnUse" x="17" y="9" width="4" height="5">
<path fill-rule="evenodd" clip-rule="evenodd" d="M17.3965 9.83484H20.8743V13.9869H17.3965V9.83484Z" fill="white"/>
</mask>
<g mask="url(#mask0_160_16)">
<path fill-rule="evenodd" clip-rule="evenodd" d="M19.1228 13.9869C18.846 13.9869 18.5847 13.8183 18.4802 13.5442C18.3446 13.1894 18.5233 12.7916 18.8781 12.6569C19.4996 12.4204 19.4996 12.1591 19.4996 12.0335C19.4996 11.632 18.989 11.3515 17.9825 11.2012C17.6076 11.1444 17.3481 10.7951 17.4041 10.4184C17.46 10.0425 17.8083 9.79228 18.1869 9.84086C20.408 10.1736 20.8746 11.2168 20.8746 12.0335C20.8746 12.5322 20.6784 13.4424 19.3676 13.942C19.2869 13.9723 19.2044 13.9869 19.1228 13.9869" fill="#007AFF"/>
<path d="M19.1228 13.9869C18.846 13.9869 18.5847 13.8183 18.4802 13.5442C18.3446 13.1894 18.5233 12.7916 18.8781 12.6569C19.4996 12.4204 19.4996 12.1591 19.4996 12.0335C19.4996 11.632 18.989 11.3515 17.9825 11.2012C17.6076 11.1444 17.3481 10.7951 17.4041 10.4184C17.46 10.0425 17.8083 9.79228 18.1869 9.84086C20.408 10.1736 20.8746 11.2168 20.8746 12.0335C20.8746 12.5322 20.6784 13.4424 19.3676 13.942C19.2869 13.9723 19.2044 13.9869 19.1228 13.9869" stroke="white" stroke-width="0.2"/>
</g>
<path fill-rule="evenodd" clip-rule="evenodd" d="M10.8959 11.5878C8.71794 11.5878 6.12103 11.8554 6.12103 13.1296C6.12103 14.4139 8.71794 14.6834 10.8959 14.6834C13.0739 14.6834 15.6699 14.4166 15.6699 13.1452C15.6699 11.8582 13.0739 11.5878 10.8959 11.5878M10.896 16.0584C9.37526 16.0584 4.74609 16.0584 4.74609 13.1296C4.74609 10.2128 9.37526 10.2128 10.896 10.2128C12.4168 10.2128 17.045 10.2128 17.045 13.1452C17.045 16.0584 12.5781 16.0584 10.896 16.0584" fill="#007AFF"/>
<path d="M10.8959 11.4878C9.80493 11.4878 8.60141 11.5546 7.6679 11.7838C7.20169 11.8982 6.79438 12.0551 6.50154 12.2706C6.20598 12.4882 6.02103 12.771 6.02103 13.1296H6.22103C6.22103 12.8512 6.36069 12.6227 6.62011 12.4317C6.88226 12.2387 7.2603 12.0897 7.71557 11.978C8.62501 11.7548 9.80895 11.6878 10.8959 11.6878V11.4878ZM6.02103 13.1296C6.02103 13.4904 6.20562 13.7752 6.50124 13.9945C6.7941 14.2117 7.20146 14.3698 7.66773 14.4851C8.60133 14.7161 9.80492 14.7834 10.8959 14.7834V14.5834C9.80897 14.5834 8.6251 14.5159 7.71574 14.291C7.26053 14.1784 6.88254 14.0283 6.62041 13.8339C6.36104 13.6414 6.22103 13.4109 6.22103 13.1296H6.02103ZM10.8959 14.7834C11.9869 14.7834 13.1902 14.7167 14.1235 14.4882C14.5896 14.374 14.9967 14.2176 15.2895 14.0025C15.585 13.7854 15.7699 13.5032 15.7699 13.1452H15.5699C15.5699 13.4229 15.4304 13.6508 15.1711 13.8413C14.909 14.0338 14.5311 14.1824 14.0759 14.2939C13.1667 14.5166 11.9829 14.5834 10.8959 14.5834V14.7834ZM15.7699 13.1452C15.7699 12.7838 15.5855 12.4985 15.29 12.2786C14.9972 12.0609 14.5899 11.9024 14.1238 11.7868C13.1904 11.5553 11.987 11.4878 10.8959 11.4878V11.6878C11.9829 11.6878 13.1665 11.7554 14.0756 11.9809C14.5307 12.0938 14.9086 12.2442 15.1706 12.4391C15.4299 12.632 15.5699 12.8631 15.5699 13.1452H15.7699ZM10.896 15.9584C10.1342 15.9584 8.60965 15.9578 7.27699 15.5958C6.61085 15.4148 6.00148 15.1456 5.56005 14.7484C5.12185 14.3542 4.84609 13.8314 4.84609 13.1296H4.64609C4.64609 13.8921 4.94898 14.4677 5.42628 14.8971C5.90034 15.3237 6.5433 15.6037 7.22455 15.7888C8.58667 16.1589 10.1371 16.1584 10.896 16.1584V15.9584ZM4.84609 13.1296C4.84609 12.4309 5.12173 11.9104 5.5599 11.5178C6.00132 11.1222 6.61071 10.8542 7.27689 10.6739C8.6096 10.3133 10.1342 10.3128 10.896 10.3128V10.1128C10.1371 10.1128 8.58671 10.1123 7.22465 10.4808C6.54345 10.6652 5.9005 10.944 5.42643 11.3688C4.94911 11.7966 4.64609 12.3699 4.64609 13.1296H4.84609ZM10.896 10.3128C11.6578 10.3128 13.1821 10.3133 14.5145 10.6758C15.1805 10.857 15.7898 11.1265 16.2311 11.5242C16.6693 11.9189 16.945 12.4424 16.945 13.1452H17.145C17.145 12.3818 16.8422 11.8056 16.365 11.3756C15.8911 10.9485 15.2482 10.6682 14.567 10.4828C13.2051 10.1123 11.6549 10.1128 10.896 10.1128V10.3128ZM16.945 13.1452C16.945 13.8442 16.6785 14.3641 16.253 14.7558C15.8244 15.1504 15.2305 15.4178 14.5748 15.5978C13.2628 15.9578 11.7389 15.9584 10.896 15.9584V16.1584C11.7352 16.1584 13.2858 16.1589 14.6278 15.7906C15.2991 15.6064 15.927 15.3277 16.3885 14.9029C16.8531 14.4753 17.145 13.9028 17.145 13.1452H16.945Z" fill="white"/>
<path fill-rule="evenodd" clip-rule="evenodd" d="M10.896 2.04159C9.34505 2.04159 8.08371 3.30384 8.08371 4.85484C8.08096 5.6065 8.3688 6.30959 8.89588 6.84034C9.42296 7.37109 10.1251 7.66534 10.8731 7.66809L10.896 8.35559V7.66809C12.447 7.66809 13.7093 6.40675 13.7093 4.85484C13.7093 3.30384 12.447 2.04159 10.896 2.04159M10.8961 9.04313H10.8714C9.75303 9.03946 8.70528 8.60129 7.92061 7.80929C7.13411 7.01821 6.70419 5.96771 6.70878 4.85213C6.70878 2.54579 8.58703 0.666626 10.8961 0.666626C13.2061 0.666626 15.0844 2.54579 15.0844 4.85488C15.0844 7.16396 13.2061 9.04313 10.8961 9.04313" fill="#007AFF"/>
<path d="M8.08371 4.85484L8.18371 4.8552V4.85484H8.08371ZM10.8731 7.66809L10.9731 7.66476L10.9699 7.56844L10.8735 7.56809L10.8731 7.66809ZM10.896 8.35559L10.7961 8.35892L10.996 8.35559H10.896ZM10.896 7.66809V7.56809H10.796V7.66809H10.896ZM10.8714 9.04313L10.871 9.14313H10.8714V9.04313ZM7.92061 7.80929L7.99165 7.73891L7.99153 7.73879L7.92061 7.80929ZM6.70878 4.85213L6.80878 4.85254V4.85213H6.70878ZM10.896 1.94159C9.28978 1.94159 7.98371 3.24865 7.98371 4.85484H8.18371C8.18371 3.35902 9.40032 2.14159 10.896 2.14159V1.94159ZM7.98371 4.85447C7.98087 5.63255 8.27907 6.36115 8.82493 6.9108L8.96684 6.76987C8.45853 6.25803 8.18106 5.58045 8.18371 4.8552L7.98371 4.85447ZM8.82493 6.9108C9.37066 7.46034 10.0982 7.76524 10.8728 7.76809L10.8735 7.56809C10.1521 7.56544 9.47527 7.28184 8.96684 6.76987L8.82493 6.9108ZM10.7732 7.67142L10.7961 8.35892L10.996 8.35226L10.9731 7.66476L10.7732 7.67142ZM10.996 8.35559V7.66809H10.796V8.35559H10.996ZM10.896 7.76809C12.5023 7.76809 13.8093 6.462 13.8093 4.85484H13.6093C13.6093 6.3515 12.3918 7.56809 10.896 7.56809V7.76809ZM13.8093 4.85484C13.8093 3.24861 12.5023 1.94159 10.896 1.94159V2.14159C12.3918 2.14159 13.6093 3.35907 13.6093 4.85484H13.8093ZM10.8961 8.94313H10.8714V9.14313H10.8961V8.94313ZM10.8717 8.94313C9.77984 8.93955 8.75755 8.51198 7.99165 7.73891L7.84957 7.87967C8.653 8.69061 9.72622 9.13937 10.871 9.14313L10.8717 8.94313ZM7.99153 7.73879C7.22379 6.96658 6.8043 5.94161 6.80878 4.85254L6.60878 4.85172C6.60409 5.99381 7.04443 7.06984 7.84969 7.8798L7.99153 7.73879ZM6.80878 4.85213C6.80878 2.60104 8.64224 0.766626 10.8961 0.766626V0.566626C8.53181 0.566626 6.60878 2.49055 6.60878 4.85213H6.80878ZM10.8961 0.766626C13.1509 0.766626 14.9844 2.60101 14.9844 4.85488H15.1844C15.1844 2.49058 13.2614 0.566626 10.8961 0.566626V0.766626ZM14.9844 4.85488C14.9844 7.10875 13.1509 8.94313 10.8961 8.94313V9.14313C13.2614 9.14313 15.1844 7.21917 15.1844 4.85488H14.9844Z" fill="white"/>
<path fill-rule="evenodd" clip-rule="evenodd" d="M5.39509 8.1342C5.36392 8.1342 5.33184 8.13237 5.29976 8.12779C3.67267 7.89954 2.44434 6.48787 2.44067 4.84429C2.44067 3.20804 3.61126 1.82937 5.22276 1.56446C5.60867 1.50396 5.95059 1.75787 6.01292 2.13096C6.07434 2.50587 5.82042 2.85971 5.44642 2.92112C4.50134 3.07604 3.81567 3.88454 3.81567 4.84245C3.81751 5.80495 4.53709 6.6327 5.48951 6.76562C5.86626 6.81787 6.12751 7.16529 6.07526 7.54204C6.02667 7.88579 5.73242 8.1342 5.39509 8.1342" fill="#007AFF"/>
<path d="M5.39509 8.1342C5.36392 8.1342 5.33184 8.13237 5.29976 8.12779C3.67267 7.89954 2.44434 6.48787 2.44067 4.84429C2.44067 3.20804 3.61126 1.82937 5.22276 1.56446C5.60867 1.50396 5.95059 1.75787 6.01292 2.13096C6.07434 2.50587 5.82042 2.85971 5.44642 2.92112C4.50134 3.07604 3.81567 3.88454 3.81567 4.84245C3.81751 5.80495 4.53709 6.6327 5.48951 6.76562C5.86626 6.81787 6.12751 7.16529 6.07526 7.54204C6.02667 7.88579 5.73242 8.1342 5.39509 8.1342" stroke="white" stroke-width="0.2"/>
<path fill-rule="evenodd" clip-rule="evenodd" d="M2.66941 13.9869C2.58783 13.9869 2.50533 13.9722 2.42466 13.942C1.11291 13.4415 0.916748 12.5312 0.916748 12.0335C0.916748 11.2176 1.38333 10.1735 3.60533 9.84079C3.98392 9.79312 4.33042 10.0425 4.38725 10.4183C4.44317 10.795 4.18375 11.1443 3.80883 11.2011C2.80233 11.3515 2.29175 11.632 2.29175 12.0335C2.29175 12.159 2.29175 12.4194 2.91416 12.6568C3.26891 12.7915 3.44767 13.1894 3.312 13.5441C3.2075 13.8182 2.94625 13.9869 2.66941 13.9869" fill="#007AFF"/>
<path d="M2.66941 13.9869C2.58783 13.9869 2.50533 13.9722 2.42466 13.942C1.11291 13.4415 0.916748 12.5312 0.916748 12.0335C0.916748 11.2176 1.38333 10.1735 3.60533 9.84079C3.98392 9.79312 4.33042 10.0425 4.38725 10.4183C4.44317 10.795 4.18375 11.1443 3.80883 11.2011C2.80233 11.3515 2.29175 11.632 2.29175 12.0335C2.29175 12.159 2.29175 12.4194 2.91416 12.6568C3.26891 12.7915 3.44767 13.1894 3.312 13.5441C3.2075 13.8182 2.94625 13.9869 2.66941 13.9869" stroke="white" stroke-width="0.2"/>
</svg>
