<svg width="18" height="18" viewBox="0 0 18 18" fill="none" xmlns="http://www.w3.org/2000/svg">
<path d="M6 11.25C5.65 11.25 5.354 11.129 5.112 10.887C4.87 10.645 4.74933 10.3493 4.75 10C4.75067 9.65067 4.87167 9.35467 5.113 9.112C5.35433 8.86934 5.65 8.74867 6 8.75C6.35 8.75133 6.646 8.87233 6.888 9.113C7.13 9.35367 7.25067 9.64933 7.25 10C7.24933 10.3507 7.12833 10.6467 6.887 10.888C6.64567 11.1293 6.35 11.25 6 11.25ZM12 11.25C11.65 11.25 11.354 11.129 11.112 10.887C10.87 10.645 10.7493 10.3493 10.75 10C10.7507 9.65067 10.8717 9.35467 11.113 9.112C11.3543 8.86934 11.65 8.74867 12 8.75C12.35 8.75133 12.646 8.87233 12.888 9.113C13.13 9.35367 13.2507 9.64933 13.25 10C13.2493 10.3507 13.1283 10.6467 12.887 10.888C12.6457 11.1293 12.35 11.25 12 11.25ZM9 17C11.2333 17 13.125 16.225 14.675 14.675C16.225 13.125 17 11.2333 17 9C17 8.6 16.975 8.21267 16.925 7.838C16.875 7.46334 16.7833 7.10067 16.65 6.75C16.3 6.83333 15.95 6.896 15.6 6.938C15.25 6.98 14.8833 7.00067 14.5 7C12.9833 7 11.55 6.675 10.2 6.025C8.85 5.375 7.7 4.46667 6.75 3.3C6.21667 4.6 5.45433 5.72933 4.463 6.688C3.47167 7.64667 2.31733 8.36733 1 8.85V9C1 11.2333 1.775 13.125 3.325 14.675C4.875 16.225 6.76667 17 9 17ZM9.003 18C7.75833 18 6.58833 17.764 5.493 17.292C4.39767 16.8193 3.44467 16.1783 2.634 15.369C1.82333 14.5597 1.18167 13.6073 0.709 12.512C0.236333 11.4167 0 10.247 0 9.003C0 7.759 0.236333 6.589 0.709 5.493C1.18167 4.397 1.822 3.444 2.63 2.634C3.438 1.824 4.39033 1.18233 5.487 0.709002C6.58367 0.235668 7.75367 -0.00066526 8.997 1.40647e-06C10.2403 0.000668073 11.4103 0.237002 12.507 0.709002C13.6037 1.181 14.5567 1.82167 15.366 2.631C16.1753 3.44033 16.817 4.39267 17.291 5.488C17.765 6.58333 18.0013 7.753 18 8.997C17.9987 10.241 17.7627 11.411 17.292 12.507C16.8213 13.603 16.18 14.556 15.368 15.366C14.556 16.176 13.604 16.8177 12.512 17.291C11.42 17.7643 10.2503 18.0007 9.003 18ZM6.708 1.317C7.52267 2.94567 8.67467 4.13334 10.164 4.88C11.6533 5.62667 13.0987 6 14.5 6C14.8107 6 15.116 5.98433 15.416 5.953C15.716 5.92167 16.0147 5.87 16.312 5.798C15.676 4.31134 14.6907 3.14 13.356 2.284C12.0213 1.428 10.5693 1 9 1C8.56133 1 8.16 1.02533 7.796 1.076C7.432 1.12667 7.06933 1.207 6.708 1.317ZM1.137 7.706C2.16633 7.248 3.20933 6.498 4.266 5.456C5.322 4.41333 5.938 3.103 6.114 1.525C4.77667 2.03433 3.66933 2.83567 2.792 3.929C1.91533 5.02233 1.36367 6.28133 1.137 7.706Z" fill="#007AFF"/>
</svg>
