<svg width="15" height="18" viewBox="0 0 15 18" fill="none" xmlns="http://www.w3.org/2000/svg">
<path fill-rule="evenodd" clip-rule="evenodd" d="M15 11.1101L14.8468 11.354C14.0854 12.5662 13.0701 13.6681 11.819 14.6648C10.567 15.6621 9.24265 16.4235 7.84578 16.9383L7.46277 17.0794L7.0904 16.9123C5.23668 16.08 3.83811 15.3211 2.97133 14.6307C2.09342 13.9313 1.16236 12.8274 0.175213 11.3875L2.46444e-10 11.1319V3.62092C2.46444e-10 3.6209 2.46444e-10 3.62093 2.46444e-10 3.62092C-6.19864e-06 3.24056 0.11693 2.86689 0.338377 2.55398C0.560148 2.24062 0.876824 2.00267 1.24656 1.88106C1.24656 1.88106 1.24656 1.88106 1.24656 1.88106L6.45715 0.167269L6.76959 1.11721L1.559 2.831C1.39675 2.88437 1.25513 2.98966 1.15464 3.13166C1.05415 3.27365 0.999994 3.44499 1 3.62088V10.8221C1.96641 12.2317 2.83123 13.2405 3.59438 13.8485C4.35769 14.4565 5.65954 15.1736 7.5 16C8.78756 15.5255 10.0195 14.8198 11.1959 13.8826C12.3723 12.9455 13.307 11.9253 14 10.8221V3.62096C14 3.44507 13.9458 3.27374 13.8454 3.13174C13.7449 2.98975 13.6033 2.88445 13.441 2.83108L8.23041 1.11729C7.75522 0.960999 7.24478 0.960916 6.76959 1.11721L6.45715 0.167269C7.13539 -0.0558076 7.86483 -0.0556513 8.54285 0.167352L13.7534 1.88115C14.1232 2.00275 14.4399 2.2407 14.6616 2.55407C14.8831 2.86697 15 3.24061 15 3.62096C15 3.62095 15 3.62098 15 3.62096V11.1101ZM6.81111 10.7801C6.80265 10.7806 6.79418 10.781 6.7857 10.7812C6.74971 10.782 6.71361 10.7791 6.6779 10.7727C6.5891 10.7567 6.50533 10.7189 6.43366 10.6624C6.36199 10.606 6.30453 10.5325 6.26612 10.4483L4.52148 8.64605C4.46931 8.59217 4.42793 8.5282 4.39969 8.4578C4.37146 8.38739 4.35693 8.31194 4.35693 8.23573C4.35693 8.15953 4.37146 8.08407 4.39969 8.01367C4.42793 7.94327 4.46931 7.8793 4.52148 7.82542L4.53664 7.81033C4.64319 7.70824 4.78389 7.65278 4.92919 7.65559C5.07448 7.6584 5.21307 7.71927 5.31584 7.82542L6.79784 9.3561L10.2358 5.805C10.3411 5.69618 10.4839 5.63496 10.6329 5.63496C10.7819 5.63496 10.9248 5.6961 11.0301 5.80492C11.1355 5.91374 11.1947 6.06134 11.1947 6.21524C11.1947 6.36914 11.1355 6.51673 11.0301 6.62555L7.17163 10.6113C7.10791 10.6771 7.02979 10.7262 6.94385 10.7543C6.90062 10.7684 6.85604 10.777 6.81111 10.7801ZM5.24038 7.95094C5.24023 7.95078 5.24054 7.9511 5.24038 7.95094V7.95094Z" fill="#9E9E9E"/>
</svg>
