<svg width="15" height="15" viewBox="0 0 15 15" fill="none" xmlns="http://www.w3.org/2000/svg">
<path d="M14.8541 6.01527H14.25V5.98423H7.5V8.97635H11.7386C11.1203 10.7181 9.45862 11.9685 7.5 11.9685C5.01487 11.9685 3 9.95888 3 7.48029C3 5.0017 5.01487 2.99212 7.5 2.99212C8.64713 2.99212 9.69075 3.42373 10.4854 4.12875L12.6068 2.01295C11.2673 0.767852 9.4755 0 7.5 0C3.35812 0 0 3.3493 0 7.48029C0 11.6113 3.35812 14.9606 7.5 14.9606C11.6419 14.9606 15 11.6113 15 7.48029C15 6.97874 14.9482 6.48915 14.8541 6.01527Z" fill="#FFC107"/>
<path d="M0.9375 3.86711L3.49512 5.61022C4.18716 4.01794 5.86318 2.89373 7.8245 2.89373C9.01514 2.89373 10.0984 3.31115 10.9231 3.99298L13.125 1.94676C11.7347 0.742603 9.87495 0 7.8245 0C4.83445 0 2.24141 1.56876 0.9375 3.86711Z" fill="#FF3D00"/>
<path d="M7.88946 14.9608C9.90652 14.9608 11.7393 14.2652 13.125 13.1341L10.7081 11.2913C9.92409 11.8264 8.94953 12.1462 7.88946 12.1462C5.85834 12.1462 4.13372 10.9792 3.48401 9.35059L0.9375 11.1185C2.22989 13.3973 4.85449 14.9608 7.88946 14.9608Z" fill="#4CAF50"/>
<path d="M14.8541 5.64333H14.25V5.61035H7.5V8.78868H11.7386C11.4416 9.67742 10.902 10.4438 10.206 11.002L10.2071 11.0012L12.5284 13.0822C12.3641 13.2403 15 11.1724 15 7.19952C15 6.66675 14.9482 6.14669 14.8541 5.64333Z" fill="#1976D2"/>
</svg>
