<svg width="18" height="16" viewBox="0 0 18 16" fill="none" xmlns="http://www.w3.org/2000/svg">
<path fill-rule="evenodd" clip-rule="evenodd" d="M15.7652 7.70758C16.4527 6.9861 16.8345 6.01201 16.8269 4.99959C16.8192 3.98717 16.4226 3.01937 15.7244 2.30908C15.3786 1.95738 14.9692 1.67948 14.5195 1.49127C14.0698 1.30305 13.5887 1.20819 13.1035 1.21211C12.1237 1.22002 11.187 1.62979 10.4996 2.35127C10.3129 2.54414 10.0757 2.78089 9.78788 3.06149L8.98773 3.84003L8.18757 3.06149C7.89914 2.78022 7.66159 2.54347 7.47492 2.35127C6.78207 1.63539 5.84236 1.23321 4.86251 1.23321C3.88267 1.23321 2.94296 1.63539 2.25011 2.35127C0.822858 3.82697 0.80633 6.21279 2.19761 7.69552L8.98773 14.7114L15.7652 7.70758ZM1.42467 1.4994C1.8761 1.03285 2.41205 0.662758 3.00192 0.410256C3.59179 0.157754 4.22402 0.0277918 4.86251 0.0277918C5.501 0.0277918 6.13324 0.157754 6.72311 0.410256C7.31298 0.662758 7.84893 1.03285 8.30035 1.4994C8.4773 1.6829 8.70643 1.91127 8.98773 2.18451C9.26773 1.91127 9.49686 1.68257 9.6751 1.4984C10.5798 0.549257 11.8123 0.0103198 13.1016 0.000146664C14.3908 -0.0100265 15.6312 0.509398 16.5498 1.44415C17.4684 2.37891 17.99 3.65242 17.9999 4.98454C18.0097 6.31665 17.507 7.59825 16.6023 8.54739L9.6751 15.7059C9.49278 15.8942 9.24553 16 8.98773 16C8.72992 16 8.48268 15.8942 8.30035 15.7059L1.3712 8.54639C0.482613 7.59949 -0.00985548 6.32946 0.000149516 5.01057C0.0101545 3.69168 0.52183 2.42978 1.42467 1.49739V1.4994Z" fill="#363638"/>
</svg>
