<svg width="22" height="20" viewBox="0 0 22 20" fill="none" xmlns="http://www.w3.org/2000/svg">
<path d="M1.14608 5.55816H15.6317C15.7382 5.55778 15.8437 5.58295 15.9421 5.63221C16.0406 5.68147 16.1299 5.75384 16.2049 5.84512C16.3565 6.02899 16.442 6.27765 16.4426 6.5371V19.0231C16.4429 19.1514 16.422 19.2785 16.3812 19.3969C16.3404 19.5154 16.2805 19.6228 16.2049 19.713C16.1924 19.73 16.1783 19.745 16.1628 19.7578C16.0155 19.9169 15.8242 20.0033 15.6266 20H1.14102C0.926237 20 0.720227 19.8971 0.568195 19.714C0.416163 19.5309 0.330528 19.2824 0.330082 19.0231V6.5371C0.329764 6.4085 0.350615 6.28111 0.391423 6.16232C0.432232 6.04353 0.492184 5.93571 0.567799 5.84512C0.720007 5.66189 0.92606 5.55873 1.14102 5.55816H1.14608ZM5.75038 4.3199e-06H20.236C20.3425 -0.000379303 20.448 0.024791 20.5465 0.0740535C20.6449 0.123316 20.7342 0.195689 20.8092 0.286969C20.9608 0.470833 21.0463 0.719492 21.0469 0.97894V13.4649C21.0472 13.5932 21.0263 13.7203 20.9855 13.8388C20.9447 13.9572 20.8848 14.0647 20.8092 14.1549C20.7971 14.1723 20.7829 14.1874 20.7671 14.1997C20.6192 14.3636 20.425 14.4532 20.2242 14.45H19.3172V13.2736H20.0775V1.16211H5.9038V2.0169H4.93439V0.97894C4.93407 0.850342 4.95492 0.722949 4.99573 0.60416C5.03654 0.485371 5.09649 0.377553 5.1721 0.286969C5.32442 0.103918 5.5304 0.000797646 5.74533 4.3199e-06H5.75038ZM3.44907 2.7801H17.9347C18.041 2.77976 18.1462 2.80496 18.2443 2.85423C18.3425 2.90349 18.4315 2.97585 18.5062 3.06706C18.6581 3.24993 18.7436 3.49808 18.7439 3.757V16.243C18.7442 16.3716 18.7234 16.499 18.6826 16.6178C18.6418 16.7366 18.5818 16.8444 18.5062 16.935C18.4937 16.9519 18.4795 16.9669 18.4641 16.9798C18.3169 17.1388 18.1255 17.2253 17.9279 17.2219H17.0209V16.0537H17.7813V3.9422H3.60081V4.79699H2.63139V3.757C2.63184 3.49772 2.71747 3.24925 2.8695 3.0661C3.02154 2.88296 3.22755 2.7801 3.44233 2.7801H3.44907ZM4.49098 8.95492C4.72121 8.95452 4.94635 9.03659 5.13791 9.19074C5.32947 9.34489 5.47884 9.56419 5.5671 9.82088C5.65535 10.0776 5.67853 10.3601 5.6337 10.6327C5.58887 10.9053 5.47804 11.1557 5.31525 11.3522C5.15245 11.5487 4.94502 11.6825 4.7192 11.7366C4.49339 11.7907 4.25935 11.7628 4.04672 11.6562C3.83408 11.5497 3.65242 11.3694 3.52472 11.1381C3.39702 10.9069 3.32904 10.6351 3.32937 10.3572C3.32937 10.173 3.35942 9.99069 3.41779 9.82056C3.47617 9.65043 3.56173 9.49585 3.6696 9.36564C3.77747 9.23542 3.90552 9.13214 4.04645 9.06167C4.18739 8.9912 4.33844 8.95492 4.49098 8.95492ZM9.38021 14.9771L11.7085 10.117L14.1784 17.6595H2.65162V16.7254L3.61935 16.6663L4.58877 13.8008L5.07263 15.8482H6.52592L7.78531 11.9304L9.38359 14.971L9.38021 14.9771ZM15.4799 6.71619H1.2995V18.8318H15.4799V6.71619Z" fill="#007AFF"/>
</svg>
