<svg width="22" height="20" viewBox="0 0 22 20" fill="none" xmlns="http://www.w3.org/2000/svg">
<path d="M1.14559 5.55816H15.6312C15.7377 5.55778 15.8433 5.58295 15.9417 5.63221C16.0401 5.68147 16.1294 5.75384 16.2044 5.84512C16.3561 6.02899 16.4415 6.27765 16.4421 6.5371V19.0231C16.4424 19.1514 16.4215 19.2785 16.3807 19.3969C16.3399 19.5154 16.28 19.6228 16.2044 19.713C16.1919 19.73 16.1778 19.745 16.1623 19.7578C16.0151 19.9169 15.8237 20.0033 15.6261 20H1.14053C0.925749 20 0.719739 19.8971 0.567707 19.714C0.415675 19.5309 0.33004 19.2824 0.329593 19.0231V6.5371C0.329276 6.4085 0.350126 6.28111 0.390935 6.16232C0.431743 6.04353 0.491696 5.93571 0.567311 5.84512C0.719519 5.66189 0.925571 5.55873 1.14053 5.55816H1.14559ZM5.7499 4.3199e-06H20.2355C20.342 -0.000379303 20.4476 0.024791 20.546 0.0740535C20.6444 0.123316 20.7337 0.195689 20.8087 0.286969C20.9604 0.470833 21.0458 0.719492 21.0464 0.97894V13.4649C21.0467 13.5932 21.0258 13.7203 20.985 13.8388C20.9442 13.9572 20.8843 14.0647 20.8087 14.1549C20.7967 14.1723 20.7824 14.1874 20.7666 14.1997C20.6187 14.3636 20.4245 14.4532 20.2237 14.45H19.3167V13.2736H20.077V1.16211H5.90332V2.0169H4.9339V0.97894C4.93358 0.850342 4.95443 0.722949 4.99524 0.60416C5.03605 0.485371 5.096 0.377553 5.17162 0.286969C5.32393 0.103918 5.52991 0.000797646 5.74484 4.3199e-06H5.7499ZM3.44858 2.7801H17.9342C18.0405 2.77976 18.1457 2.80496 18.2439 2.85423C18.342 2.90349 18.431 2.97585 18.5057 3.06706C18.6576 3.24993 18.7431 3.49808 18.7434 3.757V16.243C18.7438 16.3716 18.7229 16.499 18.6821 16.6178C18.6413 16.7366 18.5813 16.8444 18.5057 16.935C18.4932 16.9519 18.4791 16.9669 18.4636 16.9798C18.3164 17.1388 18.125 17.2253 17.9274 17.2219H17.0204V16.0537H17.7808V3.9422H3.60032V4.79699H2.6309V3.757C2.63135 3.49772 2.71698 3.24925 2.86902 3.0661C3.02105 2.88296 3.22706 2.7801 3.44184 2.7801H3.44858ZM4.4905 8.95492C4.72072 8.95452 4.94586 9.03659 5.13742 9.19074C5.32899 9.34489 5.47835 9.56419 5.56661 9.82088C5.65486 10.0776 5.67804 10.3601 5.63321 10.6327C5.58838 10.9053 5.47755 11.1557 5.31476 11.3522C5.15197 11.5487 4.94453 11.6825 4.71872 11.7366C4.4929 11.7907 4.25886 11.7628 4.04623 11.6562C3.83359 11.5497 3.65193 11.3694 3.52423 11.1381C3.39653 10.9069 3.32855 10.6351 3.32888 10.3572C3.32888 10.173 3.35893 9.99069 3.41731 9.82056C3.47568 9.65043 3.56125 9.49585 3.66911 9.36564C3.77698 9.23542 3.90503 9.13214 4.04597 9.06167C4.1869 8.9912 4.33795 8.95492 4.4905 8.95492ZM9.37973 14.9771L11.708 10.117L14.1779 17.6595H2.65113V16.7254L3.61886 16.6663L4.58828 13.8008L5.07215 15.8482H6.52543L7.78483 11.9304L9.3831 14.971L9.37973 14.9771ZM15.4795 6.71619H1.29901V18.8318H15.4795V6.71619Z" fill="#969698"/>
</svg>
