<svg width="23" height="26" viewBox="0 0 23 26" fill="none" xmlns="http://www.w3.org/2000/svg">
<path d="M8.05651 14.5596L8.05654 14.5597C9.0702 15.371 10.2923 15.7996 11.5927 15.7996C14.7193 15.7996 17.2637 13.2502 17.2637 10.1161C17.2637 6.98198 14.7193 4.43251 11.5928 4.43251C8.46623 4.43251 5.9218 6.98198 5.9218 10.1161C5.9218 10.6637 5.99923 11.2048 6.15189 11.7244L6.00798 11.7667L6.1519 11.7244C6.23554 12.0092 6.07313 12.3083 5.78841 12.3923C5.7884 12.3923 5.7884 12.3923 5.78839 12.3923L5.74594 12.2484L8.05651 14.5596ZM8.05651 14.5596C7.8246 14.3741 7.48656 14.412 7.30146 14.6442M8.05651 14.5596L7.30146 14.6442M7.30146 14.6442C7.11652 14.8763 7.15422 15.2146 7.38593 15.4001L7.30146 14.6442Z" fill="#363638" stroke="#363638" stroke-width="0.3"/>
<path d="M21.0502 25.2716L21.0503 25.2715C21.3509 25.1495 21.4954 24.8068 21.374 24.5061L21.374 24.5061C20.5966 22.5825 19.2806 20.9424 17.5686 19.7636C15.8143 18.5558 13.7575 17.9172 11.6216 17.9172C9.48574 17.9172 7.42894 18.5558 5.67465 19.7636C3.9627 20.9424 2.64664 22.5825 1.86935 24.5061C1.74786 24.8067 1.89239 25.1495 2.19305 25.2715C2.49405 25.3938 2.83628 25.248 2.95783 24.9472C4.39505 21.3903 7.79537 19.0931 11.6217 19.0931C15.448 19.0931 18.8483 21.3903 20.2855 24.9472C20.378 25.176 20.5979 25.3147 20.8299 25.3147C20.9037 25.3147 20.9784 25.3007 21.0502 25.2716Z" fill="#363638" stroke="#363638" stroke-width="0.4"/>
<path d="M3.34698 13.6462L3.34697 13.6462C3.14338 13.1857 2.9801 12.7129 2.85683 12.2303C1.72893 12.1025 0.85 11.1414 0.85 9.97792C0.85 8.81376 1.73005 7.8522 2.85899 7.72535C3.86095 3.81338 7.40871 0.912771 11.6215 0.912771C15.8343 0.912771 19.3821 3.81337 20.384 7.72535C21.513 7.85215 22.393 8.81377 22.393 9.97792C22.393 11.2279 21.3784 12.2452 20.1303 12.2452C20.055 12.2452 19.9786 12.2414 19.9033 12.2338L3.34698 13.6462ZM3.34698 13.6462C3.43435 13.8438 3.62889 13.9661 3.83781 13.9661C3.84387 13.9661 3.84991 13.966 3.85593 13.9658H11.5928C11.8897 13.9658 12.1299 13.7247 12.1299 13.4279C12.1299 13.1311 11.8897 12.8899 11.5928 12.8899H4.19566C4.03061 12.468 3.90311 12.0351 3.81269 11.5936L3.81267 11.5936L3.81172 11.5889L3.81132 11.587C3.81128 11.5869 3.81124 11.5867 3.81121 11.5865C3.7042 11.0616 3.6498 10.5243 3.6498 9.97792C3.6498 5.57244 7.22634 1.98864 11.6215 1.98864C16.0167 1.98864 19.5932 5.57244 19.5932 9.97792C19.5932 10.5205 19.5387 11.0624 19.4312 11.5887L19.4311 11.5896M3.34698 13.6462L19.4311 11.5896M19.4311 11.5896L19.4311 11.5896L19.431 11.5897L19.431 11.5897L19.431 11.59L19.4309 11.5903L19.4311 11.5896ZM19.4226 11.6454C19.4226 11.6452 19.4226 11.6451 19.4226 11.6449L19.5719 11.6598L19.4226 11.6454ZM19.4226 11.6454C19.3933 11.9405 19.6081 12.2041 19.9033 12.2338L19.4226 11.6454ZM1.92419 9.97792C1.92419 9.48895 2.21993 9.06777 2.64145 8.88456C2.59813 9.24305 2.57556 9.60788 2.57556 9.97797C2.57556 10.3462 2.59762 10.7107 2.64083 11.071C2.21963 10.8876 1.92419 10.4666 1.92419 9.97792ZM21.3188 9.97787C21.3188 10.4668 21.0232 10.8879 20.6017 11.0712C20.6452 10.7093 20.6674 10.3437 20.6674 9.97792C20.6674 9.60788 20.6449 9.24306 20.6015 8.88454C21.0231 9.06778 21.3188 9.48891 21.3188 9.97787Z" fill="#363638" stroke="#363638" stroke-width="0.3"/>
</svg>
