<svg width="18" height="18" viewBox="0 0 18 18" fill="none" xmlns="http://www.w3.org/2000/svg">
<path d="M5.43273 7.80774H1.62983C0.731131 7.80774 0 6.99947 0 6.00594V1.80179C0 0.808273 0.731131 0 1.62983 0H5.43276C6.33146 0 7.06259 0.808273 7.06259 1.80179V6.00597C7.06256 6.99947 6.33143 7.80774 5.43273 7.80774ZM1.62983 1.20118C1.33026 1.20118 1.08654 1.47062 1.08654 1.80179V6.00597C1.08654 6.33714 1.33026 6.60659 1.62983 6.60659H5.43276C5.73232 6.60659 5.97605 6.33714 5.97605 6.00597V1.80179C5.97605 1.47062 5.73232 1.20118 5.43276 1.20118H1.62983Z" fill="#263238" fill-opacity="0.8"/>
<path d="M5.43273 17.9999H1.62983C0.731131 17.9999 0 17.1917 0 16.1982V11.994C0 11.0005 0.731131 10.1922 1.62983 10.1922H5.43276C6.33146 10.1922 7.06259 11.0005 7.06259 11.994V16.1982C7.06256 17.1917 6.33143 17.9999 5.43273 17.9999ZM1.62983 11.3934C1.33026 11.3934 1.08654 11.6628 1.08654 11.994V16.1982C1.08654 16.5293 1.33026 16.7988 1.62983 16.7988H5.43276C5.73232 16.7988 5.97605 16.5294 5.97605 16.1982V11.994C5.97605 11.6628 5.73232 11.3934 5.43276 11.3934H1.62983V11.3934Z" fill="#263238" fill-opacity="0.8"/>
<path d="M17.5391 2.42677H9.24149C8.9869 2.42677 8.78052 2.10083 8.78052 1.69875C8.78052 1.29667 8.9869 0.970734 9.24149 0.970734H17.5391C17.7937 0.970734 18.0001 1.29667 18.0001 1.69875C18.0001 2.10083 17.7937 2.42677 17.5391 2.42677Z" fill="#263238" fill-opacity="0.8"/>
<path d="M17.5391 6.79484H9.24149C8.9869 6.79484 8.78052 6.46889 8.78052 6.06683C8.78052 5.66476 8.9869 5.33881 9.24149 5.33881H17.5391C17.7937 5.33881 18.0001 5.66476 18.0001 6.06683C18.0001 6.46889 17.7937 6.79484 17.5391 6.79484Z" fill="#263238" fill-opacity="0.8"/>
<path d="M17.5391 12.619H9.24149C8.9869 12.619 8.78052 12.2931 8.78052 11.891C8.78052 11.4889 8.9869 11.163 9.24149 11.163H17.5391C17.7937 11.163 18.0001 11.4889 18.0001 11.891C18.0001 12.2931 17.7937 12.619 17.5391 12.619Z" fill="#263238" fill-opacity="0.8"/>
<path d="M17.5391 16.9871H9.24149C8.9869 16.9871 8.78052 16.6611 8.78052 16.2591C8.78052 15.857 8.9869 15.531 9.24149 15.531H17.5391C17.7937 15.531 18.0001 15.857 18.0001 16.2591C18.0001 16.6611 17.7937 16.9871 17.5391 16.9871Z" fill="#263238" fill-opacity="0.8"/>
</svg>
