<svg width="20" height="21" viewBox="0 0 20 21" fill="none" xmlns="http://www.w3.org/2000/svg">
<path d="M19 10.5697V3.05351C19 2.65482 18.842 2.27247 18.5607 1.99055C18.2794 1.70864 17.8978 1.55026 17.5 1.55026H2.5C2.10218 1.55026 1.72064 1.70864 1.43934 1.99055C1.15804 2.27247 1 2.65482 1 3.05351V18.086C1 18.4847 1.15804 18.867 1.43934 19.1489C1.72064 19.4308 2.10218 19.5892 2.5 19.5892H10" stroke="black" stroke-width="1.5" stroke-linecap="round" stroke-linejoin="round"/>
<path d="M14 17.5849C15.6569 17.5849 17 16.2388 17 14.5784C17 12.918 15.6569 11.5719 14 11.5719C12.3431 11.5719 11 12.918 11 14.5784C11 16.2388 12.3431 17.5849 14 17.5849Z" stroke="black" stroke-width="1.5"/>
<path d="M16.5 16.5827L19 18.587M5 6.56107H15M5 10.5697H9" stroke="black" stroke-width="1.5" stroke-linecap="round" stroke-linejoin="round"/>
</svg>
