<svg width="14" height="13" viewBox="0 0 14 13" fill="none" xmlns="http://www.w3.org/2000/svg">
    <path
        d="M6.36364 13C2.849 13 0 10.0899 0 6.5C0 2.91005 2.849 1.83189e-06 6.36364 1.83189e-06C7.35169 -0.000756367 8.3263 0.233854 9.21005 0.685194C10.0938 1.13653 10.8623 1.79217 11.4545 2.6H9.73C8.99515 1.93815 8.08893 1.50693 7.12009 1.35811C6.15125 1.20929 5.16095 1.34918 4.26802 1.76099C3.37509 2.1728 2.61746 2.83905 2.08604 3.67977C1.55463 4.5205 1.27201 5.49999 1.27209 6.50072C1.27217 7.50145 1.55495 8.48089 2.0865 9.32153C2.61806 10.1622 3.37579 10.8283 4.26879 11.2399C5.16179 11.6516 6.15212 11.7913 7.12093 11.6423C8.08974 11.4933 8.99589 11.062 9.73064 10.4H11.4552C10.8629 11.2079 10.0943 11.8636 9.2104 12.315C8.32654 12.7663 7.3518 13.0009 6.36364 13ZM10.8182 9.1V7.15H5.72727V5.85H10.8182V3.9L14 6.5L10.8182 9.1Z"
        fill="#007AFF" />
</svg>
