<svg width="20" height="23" viewBox="0 0 20 23" fill="none" xmlns="http://www.w3.org/2000/svg">
<path d="M10 12.55C11.864 12.55 13.375 11.1397 13.375 9.4C13.375 7.6603 11.864 6.25 10 6.25C8.13604 6.25 6.625 7.6603 6.625 9.4C6.625 11.1397 8.13604 12.55 10 12.55Z" stroke="#363638" stroke-width="1.22917" stroke-linecap="round" stroke-linejoin="round"/>
<path d="M10 1C7.61305 1 5.32387 1.885 3.63604 3.4603C1.94821 5.03561 1 7.17218 1 9.4C1 11.3866 1.45225 12.6865 2.6875 14.125L10 22L17.3125 14.125C18.5478 12.6865 19 11.3866 19 9.4C19 7.17218 18.0518 5.03561 16.364 3.4603C14.6761 1.885 12.3869 1 10 1Z" stroke="#363638" stroke-width="1.22917" stroke-linecap="round" stroke-linejoin="round"/>
</svg>
