<svg width="18" height="18" viewBox="0 0 18 18" fill="none" xmlns="http://www.w3.org/2000/svg">
<path d="M1.818 18C1.29975 18 0.867375 17.8267 0.520875 17.4802C0.174375 17.1337 0.00075 16.701 0 16.182V1.818C0 1.29975 0.173625 0.867375 0.520875 0.520875C0.868125 0.174375 1.3005 0.00075 1.818 0H12.2692C12.5115 0 12.747 0.0487501 12.9757 0.14625C13.2045 0.24525 13.4002 0.376125 13.563 0.538875L17.4611 4.437C17.6246 4.6005 17.7551 4.79625 17.8526 5.02425C17.9509 5.253 18 5.4885 18 5.73075V16.182C18 16.7003 17.8267 17.133 17.4802 17.4802C17.1337 17.8275 16.701 18.0007 16.182 18H1.818ZM1.818 16.875H16.1831C16.3849 16.875 16.5506 16.8101 16.6804 16.6804C16.8101 16.5506 16.875 16.3849 16.875 16.1831V5.625H13.284C13.0222 5.625 12.8055 5.53875 12.6337 5.36625C12.462 5.19375 12.3757 4.977 12.375 4.716V1.125H1.818C1.6155 1.125 1.44937 1.18987 1.31962 1.31962C1.18987 1.44937 1.125 1.6155 1.125 1.818V16.1831C1.125 16.3849 1.18987 16.5506 1.31962 16.6804C1.44937 16.8101 1.6155 16.875 1.818 16.875ZM13.5 13.5C13.6605 13.5 13.7944 13.4464 13.9016 13.3391C14.0089 13.2319 14.0625 13.098 14.0625 12.9375C14.0625 12.777 14.0089 12.6431 13.9016 12.5359C13.7944 12.4286 13.6605 12.375 13.5 12.375H4.5C4.34025 12.375 4.20638 12.4286 4.09838 12.5359C3.99038 12.6431 3.93675 12.777 3.9375 12.9375C3.93825 13.098 3.99188 13.2319 4.09838 13.3391C4.20488 13.4464 4.33875 13.5 4.5 13.5H13.5ZM8.4375 5.625C8.598 5.625 8.73188 5.57138 8.83913 5.46413C8.94638 5.35688 9 5.223 9 5.0625C9 4.902 8.94638 4.76812 8.83913 4.66087C8.73188 4.55362 8.598 4.5 8.4375 4.5H4.5C4.34025 4.5 4.20638 4.55362 4.09838 4.66087C3.99038 4.76812 3.93675 4.902 3.9375 5.0625C3.93825 5.223 3.99188 5.35688 4.09838 5.46413C4.20488 5.57138 4.33875 5.625 4.5 5.625H8.4375ZM13.5 9.5625C13.6605 9.5625 13.7944 9.50888 13.9016 9.40163C14.0089 9.29438 14.0625 9.1605 14.0625 9C14.0625 8.8395 14.0089 8.70562 13.9016 8.59837C13.7944 8.49112 13.6605 8.4375 13.5 8.4375H4.5C4.34025 8.4375 4.20638 8.49112 4.09838 8.59837C3.99038 8.70562 3.93675 8.8395 3.9375 9C3.93825 9.1605 3.99188 9.29438 4.09838 9.40163C4.20488 9.50888 4.33875 9.5625 4.5 9.5625H13.5Z" fill="#263238" fill-opacity="0.8"/>
</svg>
