<svg width="21" height="20" viewBox="0 0 21 20" fill="none" xmlns="http://www.w3.org/2000/svg">
<path d="M6.43673 17.035C6.17671 17.035 5.96108 16.8144 5.96108 16.5484C5.96108 16.2824 6.17671 16.0618 6.43673 16.0618H17.7253C17.9853 16.0618 18.2009 16.2824 18.2009 16.5484C18.2009 16.8144 17.9853 17.035 17.7253 17.035H6.43673ZM6.43673 2.78763C6.17671 2.78763 5.96108 3.00822 5.96108 3.27422V6.72578C5.96108 6.99178 6.17671 7.21237 6.43673 7.21237H17.7253C17.9853 7.21237 18.2009 6.99178 18.2009 6.72578V3.31964C18.2009 3.05363 17.9853 2.83304 17.7253 2.83304H6.43673V2.78763ZM6.91237 6.23919V3.76081H17.2497V6.23919H6.91237ZM3.36514 6.10727H1.63592V17.5216C1.63592 18.6721 3.36514 18.6721 3.36514 17.5216V6.10727ZM2.50053 20C1.85154 20 1.20255 19.734 0.771304 19.2474C0.337941 18.8041 0.0356445 18.1423 0.0356445 17.4784V5.30926C0.0356445 4.86592 0.382335 4.51341 0.813583 4.51341H3.36514V0.795848C3.36514 0.352509 3.71183 0 4.18747 0H19.9746C20.4079 0 20.7525 0.397924 20.7525 0.795848V17.4762C20.7525 18.1834 20.4925 18.8041 20.0168 19.2452C19.5835 19.6886 18.9366 19.9524 18.2876 19.9524H2.50053V20ZM19.1945 17.4784V1.63711H4.96541C4.96541 6.94637 4.96541 12.2124 4.96541 17.5216C4.96541 17.8309 4.92313 18.1401 4.79206 18.4061H18.2855C18.5011 18.4061 18.7611 18.3175 18.8901 18.1401C19.1099 17.965 19.1945 17.7422 19.1945 17.4784ZM12.6222 8.18555H17.7253C17.9853 8.18555 18.2009 8.40614 18.2009 8.67214V11.3279C18.2009 11.5939 17.9853 11.8144 17.7253 11.8144H12.6222C12.3622 11.8144 12.1465 11.5939 12.1465 11.3279V11.2846V8.67214C12.1465 8.40614 12.3622 8.18555 12.6222 8.18555ZM17.2497 9.20415H13.0978V10.8413H17.2497V9.20415ZM6.43673 9.20415C6.17671 9.20415 5.96108 8.98356 5.96108 8.71756C5.96108 8.45156 6.17671 8.23097 6.43673 8.23097H11.1086C11.3686 8.23097 11.5842 8.45156 11.5842 8.71756C11.5842 8.98356 11.3686 9.20415 11.1086 9.20415H6.43673ZM6.43673 11.8144C6.17671 11.8144 5.96108 11.5939 5.96108 11.3279C5.96108 11.0619 6.17671 10.8413 6.43673 10.8413H11.1086C11.3686 10.8413 11.5842 11.0619 11.5842 11.3279C11.5842 11.5939 11.3686 11.8144 11.1086 11.8144H6.43673ZM6.43673 14.4247C6.17671 14.4247 5.96108 14.2042 5.96108 13.9381C5.96108 13.6721 6.17671 13.4516 6.43673 13.4516H17.7253C17.9853 13.4516 18.2009 13.6721 18.2009 13.9381C18.2009 14.2042 17.9853 14.4247 17.7253 14.4247H6.43673Z" fill="#969698"/>
</svg>
