<svg width="26" height="25" viewBox="0 0 26 25" fill="none" xmlns="http://www.w3.org/2000/svg">
<path d="M15.0477 13.2282C15.1921 13.845 15.4936 14.4006 15.906 14.8534C15.1081 15.5582 14.0741 15.9549 13.0004 15.9549C11.9267 15.9549 10.8923 15.5585 10.0944 14.8538C10.5098 14.3976 10.8128 13.8376 10.956 13.2155C11.5565 13.4809 12.2136 13.6332 12.9019 13.6457L12.9028 13.5957M15.0477 13.2282C14.4082 13.5001 13.7167 13.6465 13.0012 13.6465H13.0009C12.9683 13.6465 12.935 13.6465 12.9016 13.6457L12.9028 13.5957M15.0477 13.2282C15.0438 13.2117 15.0401 13.1952 15.0364 13.1786C14.4006 13.4503 13.7129 13.5965 13.0012 13.5965H13.0011C12.9683 13.5965 12.9356 13.5965 12.9028 13.5957M16.6783 12.1398L16.6783 12.1397C17.6914 11.1422 18.25 9.80892 18.25 8.38528V3.17403C18.25 1.59917 16.9713 0.317966 15.4 0.317966H13.4H13H6.2C5.95105 0.317966 5.75 0.520074 5.75 0.768832V1.1697C5.75 2.72179 6.54679 4.08872 7.75 4.88778V8.22574C7.75 10.105 8.69943 11.7733 10.1255 12.7477C9.95178 14.1007 8.79627 15.15 7.4 15.15H5.4C2.94628 15.15 0.95 17.1508 0.95 19.6095V24.4199V24.4699H1H1.8H1.85V24.4199V19.6095C1.85 17.6479 3.44252 16.0517 5.4 16.0517H7.4C8.14251 16.0517 8.83395 15.8279 9.41094 15.4448C10.3838 16.3449 11.6649 16.8567 13 16.8567C14.3351 16.8567 15.6162 16.3449 16.5891 15.4448C17.1661 15.8279 17.8575 16.0517 18.6 16.0517H20.6C22.5575 16.0517 24.15 17.6479 24.15 19.6095V24.4199V24.4699H24.2H25H25.05V24.4199V19.6095C25.05 17.1508 23.0537 15.15 20.6 15.15H18.6C17.2167 15.15 16.0705 14.1196 15.8806 12.7844C16.1635 12.5979 16.4308 12.3831 16.6783 12.1398ZM6.65035 1.2197H13H13.4H15.4C16.4751 1.2197 17.35 2.09635 17.35 3.17403V7.46054C16.7147 7.26641 16.25 6.67856 16.25 5.98009V5.17836C16.25 4.9296 16.0489 4.72749 15.8 4.72749H10.2C8.25918 4.72749 6.67713 3.15834 6.65035 1.2197ZM8.65 8.22574V5.34571C9.13321 5.52678 9.65437 5.62922 10.2 5.62922H15.35V5.98009C15.35 7.1797 16.2137 8.17819 17.35 8.39107C17.3485 9.56888 16.886 10.671 16.0473 11.4964C15.2078 12.3223 14.104 12.7614 12.9185 12.744C10.5667 12.7008 8.65 10.6756 8.65 8.22574Z" fill="#363638" stroke="#363638" stroke-width="0.1"/>
<path d="M15.3999 8.73615H15.3499V8.78615C15.3499 9.86382 14.475 10.7405 13.3999 10.7405H13.3499V10.7905V11.5922V11.6422H13.3999C14.9712 11.6422 16.2499 10.361 16.2499 8.78615V8.73615H16.1999H15.3999Z" fill="#363638" stroke="#363638" stroke-width="0.1"/>
<path d="M12.2001 21.9647H11.8501V18.0061C11.8501 17.7573 11.649 17.5552 11.4001 17.5552H9.0001C8.75115 17.5552 8.5501 17.7573 8.5501 18.0061V19.6095C8.5501 19.8583 8.75115 20.0604 9.0001 20.0604H9.3501V21.9647H9.0001C8.75115 21.9647 8.5501 22.1668 8.5501 22.4156V24.019C8.5501 24.2678 8.75115 24.4699 9.0001 24.4699H12.2001C12.449 24.4699 12.6501 24.2678 12.6501 24.019V22.4156C12.6501 22.1668 12.449 21.9647 12.2001 21.9647ZM11.7501 23.5682H9.4501V22.8664H9.8001C10.049 22.8664 10.2501 22.6643 10.2501 22.4156V19.6095C10.2501 19.3608 10.049 19.1587 9.8001 19.1587H9.4501V18.4569H10.9501V22.4156C10.9501 22.6643 11.1511 22.8664 11.4001 22.8664H11.7501V23.5682Z" fill="#363638" stroke="#363638" stroke-width="0.1"/>
<path d="M16.9999 21.9647H16.6499V18.0061C16.6499 17.7573 16.4489 17.5552 16.1999 17.5552H13.7999C13.551 17.5552 13.3499 17.7573 13.3499 18.0061V19.6095C13.3499 19.8583 13.551 20.0604 13.7999 20.0604H14.1499V21.9647H13.7999C13.551 21.9647 13.3499 22.1668 13.3499 22.4156V24.019C13.3499 24.2678 13.551 24.4699 13.7999 24.4699H16.9999C17.2489 24.4699 17.4499 24.2678 17.4499 24.019V22.4156C17.4499 22.1668 17.2489 21.9647 16.9999 21.9647ZM16.5499 23.5682H14.2499V22.8664H14.5999C14.8489 22.8664 15.0499 22.6643 15.0499 22.4156V19.6095C15.0499 19.3608 14.8489 19.1587 14.5999 19.1587H14.2499V18.4569H15.7499V22.4156C15.7499 22.6643 15.951 22.8664 16.1999 22.8664H16.5499V23.5682Z" fill="#363638" stroke="#363638" stroke-width="0.1"/>
</svg>
