<svg width="18" height="18" viewBox="0 0 18 18" fill="none" xmlns="http://www.w3.org/2000/svg">
<path d="M12.3966 12.6489L17.7933 6.96213L17.8617 6.87856C17.9622 6.73258 18.0106 6.55283 17.9981 6.3719C17.9855 6.19098 17.9128 6.02086 17.7933 5.89241L12.3966 0.208261L12.3222 0.140119C11.8902 -0.207025 11.2541 0.127262 11.2541 0.74312V3.48169L10.9841 3.50098C6.70832 3.86355 4.2038 6.76284 3.60617 12.0214C3.52937 12.6964 4.25181 13.1194 4.71983 12.672C6.43711 11.0288 8.212 10.008 10.0541 9.59913C10.3493 9.53313 10.6461 9.48299 10.9445 9.4487L11.2541 9.41913V12.114L11.2601 12.2194C11.3321 12.8018 11.991 13.0757 12.3966 12.6489ZM11.0717 4.78284L12.4542 4.68384V2.06998L16.5896 6.42598L12.4542 10.7846V8.01127L10.8269 8.16813H10.8173C8.77362 8.40342 6.84513 9.28027 5.02464 10.7421C5.38226 9.02056 5.99309 7.72584 6.79593 6.79884C7.79198 5.64813 9.18404 4.94484 11.0717 4.78284ZM3.00014 1.28569C2.20446 1.28569 1.44136 1.62434 0.878722 2.22714C0.316086 2.82993 0 3.6475 0 4.49998V14.7857C0 15.6382 0.316086 16.4558 0.878722 17.0586C1.44136 17.6614 2.20446 18 3.00014 18H12.6006C13.3963 18 14.1594 17.6614 14.722 17.0586C15.2847 16.4558 15.6008 15.6382 15.6008 14.7857V13.5C15.6008 13.3295 15.5375 13.166 15.425 13.0454C15.3125 12.9249 15.1599 12.8571 15.0007 12.8571C14.8416 12.8571 14.689 12.9249 14.5764 13.0454C14.4639 13.166 14.4007 13.3295 14.4007 13.5V14.7857C14.4007 15.2972 14.211 15.7877 13.8735 16.1494C13.5359 16.5111 13.078 16.7143 12.6006 16.7143H3.00014C2.52273 16.7143 2.06487 16.5111 1.72729 16.1494C1.38971 15.7877 1.20006 15.2972 1.20006 14.7857V4.49998C1.20006 3.98849 1.38971 3.49795 1.72729 3.13627C2.06487 2.7746 2.52273 2.57141 3.00014 2.57141H6.60032C6.75946 2.57141 6.91208 2.50368 7.0246 2.38312C7.13713 2.26256 7.20035 2.09905 7.20035 1.92855C7.20035 1.75805 7.13713 1.59454 7.0246 1.47398C6.91208 1.35342 6.75946 1.28569 6.60032 1.28569H3.00014Z" fill="#363638"/>
</svg>
