<svg width="40" height="40" viewBox="0 0 40 40" fill="none" xmlns="http://www.w3.org/2000/svg">
<path d="M4.5 32.6633C3.23333 31.1893 2.21667 29.5477 1.45 27.7387C0.683333 25.9296 0.2 24.0201 0 22.01H4.1C4.3 23.4841 4.66667 24.8824 5.2 26.205C5.73333 27.5276 6.43333 28.7424 7.3 29.8492L4.5 32.6633ZM0 17.9899C0.266667 15.9799 0.766667 14.0703 1.5 12.2613C2.23333 10.4523 3.23333 8.81072 4.5 7.33668L7.3 10.1508C6.43333 11.2563 5.73333 12.471 5.2 13.795C4.66667 15.1189 4.3 16.5173 4.1 17.9899H0ZM17.9 40C15.9 39.799 14.0087 39.3132 12.226 38.5427C10.4433 37.7722 8.80133 36.7839 7.3 35.5779L10.1 32.6633C11.2667 33.5343 12.492 34.2546 13.776 34.8241C15.06 35.3936 16.4347 35.7789 17.9 35.9799V40ZM10.2 7.33668L7.3 4.42211C8.8 3.21608 10.442 2.22781 12.226 1.45729C14.01 0.686767 15.9347 0.201005 18 0V4.0201C16.5 4.22111 15.1 4.60636 13.8 5.17588C12.5 5.74539 11.3 6.46566 10.2 7.33668ZM15 29.0452V10.9548L29 20L15 29.0452ZM22 40V35.9799C26.0333 35.4104 29.3753 33.6181 32.026 30.603C34.6767 27.5879 36.0013 24.0536 36 20C36 15.9464 34.6747 12.4121 32.024 9.39698C29.3733 6.38191 26.032 4.58961 22 4.0201V0C27.1333 0.569514 31.4167 2.74707 34.85 6.53266C38.2833 10.3183 40 14.8074 40 20C40 25.1926 38.2833 29.6817 34.85 33.4673C31.4167 37.2529 27.1333 39.4305 22 40Z" fill="white"/>
</svg>
