<svg width="20" height="20" viewBox="0 0 20 20" fill="none" xmlns="http://www.w3.org/2000/svg">
    <rect width="20" height="20" rx="3" fill="#4CAF50" />
    <path transform="translate(3, 3)"
        d="M13.2222 14H0.777778C0.571498 14 0.373667 13.9263 0.227806 13.795C0.0819442 13.6637 0 13.4857 0 13.3V0.7C0 0.514348 0.0819442 0.336301 0.227806 0.205025C0.373667 0.0737498 0.571498 0 0.777778 0H13.2222C13.4285 0 13.6263 0.0737498 13.7722 0.205025C13.9181 0.336301 14 0.514348 14 0.7V13.3C14 13.4857 13.9181 13.6637 13.7722 13.795C13.6263 13.9263 13.4285 14 13.2222 14ZM12.4444 12.6V1.4H1.55556V12.6H12.4444ZM3.11111 2.8H6.22222V5.6H3.11111V2.8ZM3.11111 7H10.8889V8.4H3.11111V7ZM3.11111 9.8H10.8889V11.2H3.11111V9.8ZM7.77778 3.5H10.8889V4.9H7.77778V3.5Z"
        fill="white" />
</svg>
