<svg width="20" height="20" viewBox="0 0 20 20" fill="none" xmlns="http://www.w3.org/2000/svg">
<path d="M9.99983 11.9376C7.77271 11.9376 5.96094 10.1259 5.96094 7.89875C5.96094 5.67164 7.77271 3.85986 9.99983 3.85986C12.2267 3.85986 14.0387 5.67164 14.0387 7.89875C14.0387 10.1259 12.2267 11.9376 9.99983 11.9376Z" fill="#007AFF"/>
<path d="M10 0C4.486 0 0 4.486 0 10C0 15.514 4.486 20 10 20C15.514 20 20 15.514 20 10C20 4.486 15.514 0 10 0ZM16.6269 15.5769C15.8396 14.4096 14.7476 13.4507 13.4804 12.8362C12.978 12.5927 12.3913 12.5962 11.87 12.8467C11.2838 13.1284 10.6544 13.2711 10 13.2711C9.34556 13.2711 8.71644 13.1282 8.13 12.8467C7.60933 12.5967 7.02244 12.5927 6.51956 12.8362C5.25244 13.4507 4.16044 14.4096 3.37289 15.5769C2.10156 14.0684 1.33333 12.1227 1.33333 10C1.33333 5.22111 5.22111 1.33333 10 1.33333C14.7789 1.33333 18.6667 5.22111 18.6667 10C18.6667 12.1227 17.8984 14.0684 16.6269 15.5769Z" fill="#007AFF"/>
</svg>
