<svg width="22" height="22" viewBox="0 0 22 22" fill="none" xmlns="http://www.w3.org/2000/svg">
<rect width="22" height="22" rx="3" fill="#FFB82B"/>
<path d="M8.8686 14.7447L11 13.112L13.1314 14.7447L12.3321 12.053L14.3303 10.6409H11.8437L11 7.90514L10.1563 10.6409H7.66969L9.66787 12.053L8.8686 14.7447ZM11 15.3183L7.71409 17.8114C7.55128 17.9438 7.37366 18.0064 7.18124 17.9994C6.98882 17.9923 6.81861 17.937 6.67059 17.8335C6.52258 17.7305 6.40802 17.5908 6.32691 17.4143C6.24579 17.2378 6.24195 17.0466 6.31536 16.8406L7.58088 12.759L4.36158 10.4865C4.18396 10.3688 4.07295 10.2144 4.02855 10.0232C3.98414 9.83197 3.99154 9.65547 4.05075 9.49367C4.10995 9.33188 4.21356 9.18832 4.36158 9.06301C4.50959 8.93769 4.68721 8.87532 4.89443 8.87591H8.8686L10.1563 4.63983C10.2303 4.43391 10.3452 4.27564 10.5009 4.16504C10.6566 4.05443 10.823 3.99942 11 4C11.1776 4 11.3443 4.05531 11.5 4.16592C11.6557 4.27653 11.7703 4.4345 11.8437 4.63983L13.1314 8.87591H17.1056C17.3128 8.87591 17.4904 8.93857 17.6384 9.06389C17.7864 9.18921 17.89 9.33247 17.9493 9.49367C18.0085 9.65547 18.0159 9.83197 17.9715 10.0232C17.9271 10.2144 17.816 10.3688 17.6384 10.4865L14.4191 12.759L15.6846 16.8406C15.7586 17.0466 15.7551 17.2378 15.674 17.4143C15.5929 17.5908 15.478 17.7305 15.3294 17.8335C15.1814 17.9364 15.0112 17.9917 14.8188 17.9994C14.6263 18.007 14.4487 17.9444 14.2859 17.8114L11 15.3183Z" fill="white"/>
</svg>
