<svg width="24" height="24" viewBox="0 0 24 24" fill="none" xmlns="http://www.w3.org/2000/svg">
<path fill-rule="evenodd" clip-rule="evenodd" d="M15.8191 21.8294L21.5787 16.0858V7.96074L15.8191 2.21709H7.67159L1.91203 7.96074V16.0858L7.67159 21.8294H15.8191ZM0.245361 7.2702L6.97914 0.555023H16.5116L23.2454 7.2702V16.7763L16.5116 23.4915H6.97914L0.245361 16.7763V7.2702Z" fill="#363638"/>
<path d="M11.8572 20.1693C12.6005 20.1693 13.203 19.5261 13.203 18.7326C13.203 17.9392 12.6005 17.296 11.8572 17.296C11.114 17.296 10.5115 17.9392 10.5115 18.7326C10.5115 19.5261 11.114 20.1693 11.8572 20.1693Z" fill="#363638"/>
<path d="M10.5115 5.80292H13.203V15.8593H10.5115V5.80292Z" fill="#363638"/>
</svg>
