<svg width="21" height="20" viewBox="0 0 21 20" fill="none" xmlns="http://www.w3.org/2000/svg">
<g clip-path="url(#clip0_83_75)">
<path d="M20.3489 17.0196L15.3746 12.9909C14.8601 12.5496 14.3101 12.3484 13.8665 12.3671C15.1867 10.8928 15.8565 8.98905 15.7356 7.05481C15.6147 5.12057 14.7125 3.30595 13.2179 1.99119C11.7234 0.676428 9.75259 -0.0364385 7.71844 0.00196297C5.6843 0.0403645 3.74469 0.827054 2.30605 2.19719C0.867405 3.56732 0.0413817 5.41457 0.00106014 7.35185C-0.0392614 9.28913 0.709248 11.1661 2.08975 12.5895C3.47025 14.0128 5.3756 14.8721 7.40655 14.9872C9.4375 15.1024 11.4364 14.4645 12.9845 13.2071C12.9635 13.6296 13.1761 14.1534 13.6394 14.6434L17.8696 19.3809C18.5941 20.1471 19.7767 20.2121 20.4986 19.5246C21.2204 18.8371 21.1522 17.7096 20.3476 17.0209L20.3489 17.0196ZM7.87493 12.4996C6.48254 12.4996 5.14718 11.9728 4.16262 11.0352C3.17805 10.0975 2.62493 8.82572 2.62493 7.49963C2.62493 6.17355 3.17805 4.90178 4.16262 3.9641C5.14718 3.02642 6.48254 2.49963 7.87493 2.49963C9.26731 2.49963 10.6027 3.02642 11.5872 3.9641C12.5718 4.90178 13.1249 6.17355 13.1249 7.49963C13.1249 8.82572 12.5718 10.0975 11.5872 11.0352C10.6027 11.9728 9.26731 12.4996 7.87493 12.4996Z" fill="#9E9E9E"/>
</g>
<defs>
<clipPath id="clip0_83_75">
<rect width="21" height="20" fill="white"/>
</clipPath>
</defs>
</svg>
