<svg width="15" height="16" viewBox="0 0 15 16" fill="none" xmlns="http://www.w3.org/2000/svg">
<path d="M7.5 11.75C7.21875 11.75 7.03125 11.5625 6.84375 11.375L6 9.96875C5.34375 8.65625 4.5 7.25 4.40625 7.0625C3.9375 6.40625 3.75 5.5625 3.75 4.8125C3.75 2.46875 5.4375 0.5 7.5 0.5C9.5625 0.5 11.25 2.46875 11.25 4.8125C11.25 5.5625 11.0625 6.3125 10.7812 7.0625C10.6875 7.25 10.0312 8.28125 9.375 9.5L8.25 11.375C8.0625 11.5625 7.78125 11.75 7.5 11.75ZM7.5 1.4375C6 1.4375 4.6875 2.9375 4.6875 4.8125C4.6875 5.46875 4.875 6.125 5.15625 6.59375C5.25 6.78125 6 8.09375 6.84375 9.40625L7.5 10.625L8.4375 9.03125C9.1875 7.8125 9.75 6.78125 9.84375 6.6875C10.125 6.03125 10.3125 5.375 10.3125 4.8125C10.3125 2.9375 9.09375 1.4375 7.5 1.4375Z" fill="#9E9E9E"/>
<path d="M7.5 6.40624C6.46875 6.40624 5.625 5.56249 5.625 4.53124C5.625 3.49999 6.46875 2.65624 7.5 2.65624C8.53125 2.65624 9.375 3.49999 9.375 4.53124C9.375 5.56249 8.53125 6.40624 7.5 6.40624ZM7.5 3.59374C7.03125 3.59374 6.5625 3.96874 6.5625 4.53124C6.5625 4.99999 6.9375 5.46874 7.5 5.46874C8.0625 5.46874 8.4375 5.09374 8.4375 4.53124C8.4375 4.06249 7.96875 3.59374 7.5 3.59374Z" fill="#9E9E9E"/>
<path d="M7.5 15.5C3.84375 15.5 0 14.375 0 12.4063C0 11.1875 1.59375 10.1563 4.125 9.59376C4.40625 9.59376 4.6875 9.68751 4.6875 9.96876C4.78125 10.25 4.59375 10.4375 4.3125 10.5313C1.96875 11 0.9375 11.8438 0.9375 12.4063C0.9375 13.3438 3.46875 14.5625 7.5 14.5625C11.5312 14.5625 14.0625 13.3438 14.0625 12.4063C14.0625 11.8438 13.0312 11 10.6875 10.5313C10.4062 10.4375 10.3125 10.25 10.3125 9.96876C10.4062 9.68751 10.5938 9.59376 10.875 9.59376C13.5 10.0625 15 11.1875 15 12.4063C15 14.375 11.1562 15.5 7.5 15.5Z" fill="#9E9E9E"/>
</svg>
