<svg width="20" height="20" viewBox="0 0 20 20" fill="none" xmlns="http://www.w3.org/2000/svg">
<rect width="20" height="20" rx="3" fill="#007AFF"/>
<path d="M11.75 12.1C12.135 12.1 12.4647 11.9628 12.7391 11.6884C13.013 11.4145 13.15 11.085 13.15 10.7C13.15 10.315 13.013 9.9853 12.7391 9.7109C12.4647 9.43697 12.135 9.3 11.75 9.3C11.575 9.3 11.4089 9.33197 11.2516 9.3959C11.0939 9.4603 10.9508 9.545 10.8225 9.65L8.95 8.705V8.495L10.8225 7.55C10.9508 7.655 11.0939 7.7397 11.2516 7.8041C11.4089 7.86803 11.575 7.9 11.75 7.9C12.135 7.9 12.4647 7.7628 12.7391 7.4884C13.013 7.21447 13.15 6.885 13.15 6.5C13.15 6.115 13.013 5.78553 12.7391 5.5116C12.4647 5.2372 12.135 5.1 11.75 5.1C11.365 5.1 11.0355 5.2372 10.7616 5.5116C10.4872 5.78553 10.35 6.115 10.35 6.5V6.605L8.4775 7.55C8.34917 7.445 8.20637 7.3603 8.0491 7.2959C7.89137 7.23197 7.725 7.2 7.55 7.2C7.165 7.2 6.83553 7.33697 6.5616 7.6109C6.2872 7.8853 6.15 8.215 6.15 8.6C6.15 8.985 6.2872 9.31447 6.5616 9.5884C6.83553 9.8628 7.165 10 7.55 10C7.725 10 7.89137 9.96803 8.0491 9.9041C8.20637 9.8397 8.34917 9.755 8.4775 9.65L10.35 10.595V10.7C10.35 11.085 10.4872 11.4145 10.7616 11.6884C11.0355 11.9628 11.365 12.1 11.75 12.1ZM3 17V4.4C3 4.015 3.1372 3.6853 3.4116 3.4109C3.68553 3.13697 4.015 3 4.4 3H15.6C15.985 3 16.3147 3.13697 16.5891 3.4109C16.863 3.6853 17 4.015 17 4.4V12.8C17 13.185 16.863 13.5147 16.5891 13.7891C16.3147 14.063 15.985 14.2 15.6 14.2H5.8L3 17ZM4.4 13.6225L5.2225 12.8H15.6V4.4H4.4V13.6225Z" fill="white"/>
</svg>
