<svg width="21" height="20" viewBox="0 0 21 20" fill="none" xmlns="http://www.w3.org/2000/svg">
<path d="M20.3492 17.0196L15.3748 12.9909C14.8603 12.5496 14.3104 12.3484 13.8667 12.3671C15.1869 10.8928 15.8567 8.98905 15.7358 7.05481C15.6149 5.12057 14.7127 3.30595 13.2182 1.99119C11.7237 0.676428 9.75284 -0.0364385 7.71869 0.00196297C5.68454 0.0403645 3.74493 0.827054 2.30629 2.19719C0.867649 3.56732 0.0416258 5.41457 0.00130428 7.35185C-0.0390173 9.28913 0.709493 11.1661 2.08999 12.5895C3.47049 14.0128 5.37584 14.8721 7.40679 14.9872C9.43774 15.1024 11.4367 14.4645 12.9847 13.2071C12.9637 13.6296 13.1764 14.1534 13.6397 14.6434L17.8699 19.3809C18.5944 20.1471 19.7769 20.2121 20.4988 19.5246C21.2207 18.8371 21.1524 17.7096 20.3479 17.0209L20.3492 17.0196ZM7.87517 12.4996C6.48278 12.4996 5.14743 11.9728 4.16286 11.0352C3.17829 10.0975 2.62517 8.82572 2.62517 7.49963C2.62517 6.17355 3.17829 4.90178 4.16286 3.9641C5.14743 3.02642 6.48278 2.49963 7.87517 2.49963C9.26756 2.49963 10.6029 3.02642 11.5875 3.9641C12.572 4.90178 13.1252 6.17355 13.1252 7.49963C13.1252 8.82572 12.572 10.0975 11.5875 11.0352C10.6029 11.9728 9.26756 12.4996 7.87517 12.4996Z" fill="#007AFF"/>
</svg>
