<svg width="15" height="13" viewBox="0 0 15 13" fill="none" xmlns="http://www.w3.org/2000/svg">
<path d="M15 1.43027C14.4479 1.68056 13.8528 1.84504 13.2361 1.92371C13.8671 1.54469 14.3547 0.943975 14.5841 0.221691C13.989 0.579258 13.3294 0.829554 12.6338 0.972581C12.0674 0.357567 11.2715 0 10.3681 0C8.68308 0 7.30641 1.37306 7.30641 3.06792C7.30641 3.31106 7.33509 3.54706 7.38528 3.76875C4.8327 3.64003 2.55975 2.41715 1.04685 0.564955C0.781549 1.01549 0.630975 1.54469 0.630975 2.10249C0.630975 3.16804 1.16874 4.11201 2.00048 4.64836C1.4914 4.64836 1.01816 4.50534 0.602295 4.2908V4.31225C0.602295 5.79973 1.66348 7.04406 3.06883 7.32296C2.61763 7.44611 2.14395 7.46325 1.68499 7.37302C1.87974 7.98266 2.26114 8.51609 2.77559 8.89835C3.29003 9.2806 3.91165 9.49245 4.55306 9.50412C3.4658 10.3626 2.11807 10.8266 0.731358 10.82C0.487572 10.82 0.243786 10.8057 0 10.7771C1.36233 11.6495 2.98279 12.1573 4.71797 12.1573C10.3681 12.1573 13.4728 7.48029 13.4728 3.42549C13.4728 3.28961 13.4728 3.16089 13.4656 3.02501C14.0679 2.59593 14.5841 2.05243 15 1.43027Z" fill="#2297D7"/>
</svg>
