<svg width="25" height="24" viewBox="0 0 25 24" fill="none" xmlns="http://www.w3.org/2000/svg">
<mask id="mask0_36_593" style="mask-type:luminance" maskUnits="userSpaceOnUse" x="2" y="8" width="21" height="15">
<path fill-rule="evenodd" clip-rule="evenodd" d="M2.02002 8.79411H22.0414V22.5381H2.02002V8.79411Z" fill="white"/>
</mask>
<g mask="url(#mask0_36_593)">
<path fill-rule="evenodd" clip-rule="evenodd" d="M17.602 22.5381H6.45985C4.01219 22.5381 2.02002 20.5491 2.02002 18.1031V13.2281C2.02002 10.7831 4.01219 8.79411 6.45985 8.79411H7.39387C7.80832 8.79411 8.14469 9.13011 8.14469 9.54411C8.14469 9.95811 7.80832 10.2941 7.39387 10.2941H6.45985C4.83909 10.2941 3.52165 11.6101 3.52165 13.2281V18.1031C3.52165 19.7221 4.83909 21.0381 6.45985 21.0381H17.602C19.2217 21.0381 20.5402 19.7221 20.5402 18.1031V13.2191C20.5402 11.6061 19.2267 10.2941 17.613 10.2941H16.669C16.2545 10.2941 15.9181 9.95811 15.9181 9.54411C15.9181 9.13011 16.2545 8.79411 16.669 8.79411H17.613C20.0547 8.79411 22.0418 10.7791 22.0418 13.2191V18.1031C22.0418 20.5491 20.0496 22.5381 17.602 22.5381Z" fill="#363638"/>
</g>
<mask id="mask1_36_593" style="mask-type:luminance" maskUnits="userSpaceOnUse" x="11" y="2" width="2" height="14">
<path fill-rule="evenodd" clip-rule="evenodd" d="M11.2798 2.00011H12.7814V15.541H11.2798V2.00011Z" fill="white"/>
</mask>
<g mask="url(#mask1_36_593)">
<path fill-rule="evenodd" clip-rule="evenodd" d="M12.0306 15.541C11.6162 15.541 11.2798 15.205 11.2798 14.791V2.75C11.2798 2.336 11.6162 2 12.0306 2C12.4451 2 12.7814 2.336 12.7814 2.75V14.791C12.7814 15.205 12.4451 15.541 12.0306 15.541Z" fill="#363638"/>
</g>
<path fill-rule="evenodd" clip-rule="evenodd" d="M9.11239 6.42871C8.92118 6.42871 8.72897 6.35571 8.58281 6.20971C8.28949 5.91771 8.28749 5.44371 8.58081 5.14971L11.499 2.22171C11.7803 1.93871 12.2808 1.93871 12.5621 2.22171L15.4813 5.14971C15.7736 5.44371 15.7726 5.91771 15.4793 6.20971C15.185 6.50171 14.7105 6.50171 14.4182 6.20771L12.0306 3.81371L9.64396 6.20771C9.49781 6.35571 9.3046 6.42871 9.11239 6.42871Z" fill="#363638"/>
</svg>
