<svg width="22" height="20" viewBox="0 0 22 20" fill="none" xmlns="http://www.w3.org/2000/svg">
<path d="M4.60067 0H17.3632C18.4168 0.00425835 19.4261 0.452072 20.1711 1.24583C20.9161 2.03959 21.3364 3.11493 21.3404 4.23747V15.7625C21.3413 16.8845 20.9241 17.9609 20.1805 18.7552L20.1434 18.7911C19.4032 19.5644 18.4083 19.9984 17.3717 20H4.60067C4.07865 19.9996 3.56183 19.8895 3.07984 19.6758C2.59785 19.4622 2.16017 19.1494 1.79189 18.7552L1.75817 18.7156C1.03127 17.9278 0.623811 16.8673 0.623535 15.7625L0.623535 4.23747C0.626648 3.11464 1.04667 2.03875 1.79185 1.24479C2.53703 0.450829 3.54683 0.00331709 4.60067 0ZM9.72762 8.57374L13.9846 11.7406C14.0732 11.8007 14.1466 11.8832 14.1981 11.9807C14.2497 12.0783 14.2779 12.1878 14.2802 12.2997C14.2825 12.4116 14.2589 12.5224 14.2115 12.6223C14.1641 12.7222 14.0942 12.808 14.0082 12.8723L9.76471 15.996C9.65114 16.097 9.50796 16.1523 9.36008 16.1523C9.27575 16.153 9.19211 16.136 9.11401 16.1021C9.0359 16.0682 8.96486 16.0181 8.90499 15.9548C8.84512 15.8916 8.7976 15.8163 8.76517 15.7333C8.73275 15.6504 8.71605 15.5614 8.71605 15.4715V9.12879C8.71447 9.00287 8.74587 8.87897 8.80674 8.77102C8.8676 8.66306 8.95551 8.57533 9.06059 8.51767C9.16567 8.46001 9.28376 8.43471 9.40159 8.44461C9.51942 8.45452 9.63232 8.49924 9.72762 8.57374ZM1.8627 4.75481H4.22302L5.75048 1.32028H4.60067C3.8752 1.32265 3.18008 1.63076 2.66709 2.17732C2.1541 2.72389 1.86493 3.46451 1.8627 4.23747V4.75481ZM6.86995 1.32028L5.34417 4.75481H9.61972L11.1489 1.32567L6.86995 1.32028ZM12.265 1.32028L10.7257 4.75481H14.89L16.4208 1.32028H12.265ZM17.5453 1.32028L16.0094 4.75481H20.1012V4.23747C20.0982 3.49702 19.8323 2.78523 19.3569 2.24509C18.8815 1.70495 18.2319 1.37648 17.5386 1.32567L17.5453 1.32028ZM20.108 6.11281H1.8627V15.7625C1.8655 16.5222 2.14683 17.2506 2.64666 17.7923L2.67533 17.8211C3.18473 18.3684 3.87723 18.6779 4.60067 18.6815H17.3632C18.075 18.6809 18.7586 18.3845 19.2684 17.8552L19.2953 17.8229C19.5503 17.5533 19.7528 17.2326 19.8911 16.8793C20.0294 16.526 20.1008 16.1471 20.1012 15.7643V6.1182L20.108 6.11281Z" fill="#007AFF"/>
</svg>
