<svg width="165" height="152" viewBox="0 0 165 152" fill="none" xmlns="http://www.w3.org/2000/svg">
<path d="M102.386 62.5666C106.048 62.5545 109.006 59.5866 108.994 55.9375C108.982 52.2884 106.004 49.34 102.342 49.3521C98.6802 49.3642 95.7215 52.3322 95.7337 55.9813C95.7458 59.6304 98.7241 62.5787 102.386 62.5666Z" fill="#D9D9D9"/>
<path fill-rule="evenodd" clip-rule="evenodd" d="M107.533 141.908C98.29 148.22 87.4274 148.274 78.4902 141.698C55.7375 124.971 56.837 137.001 37.1227 131.734C6.52094 123.551 33.2083 95.4479 11.3905 78.6179C-1.98109 68.3074 -7.42827 36.9928 16.8376 33.3912C44.5061 29.2948 40.885 15.0356 60.4968 5.0369C83.2761 -6.59088 93.0665 8.14678 103.539 14.9043C114.651 22.0752 133.999 12.4187 144.9 28.0147C153.535 40.3861 138.556 50.624 159.445 75.941C171.058 90.0266 163.042 114.264 145.406 118.129C118.002 124.141 122.149 131.922 107.536 141.908H107.533Z" fill="#F2F2F7"/>
<path d="M83.584 21.8472C56.1631 21.8472 33.8538 44.0783 33.8538 71.4038C33.8538 72.7028 33.9051 73.9159 34.0039 75.1909C34.1939 74.8602 34.5486 74.5597 34.959 74.5597H57.0644C57.3584 74.5597 57.6404 74.6761 57.8482 74.8833C58.0561 75.0904 58.1729 75.3714 58.1729 75.6643C58.1729 75.9573 58.0561 76.2382 57.8482 76.4454C57.6404 76.6525 57.3584 76.7689 57.0644 76.7689H34.959C34.6195 76.7689 34.3199 76.6837 34.1172 76.4438C34.5223 80.3615 35.3998 84.2162 36.7306 87.9245C36.8679 87.8585 37.0173 87.8211 37.1696 87.8147H52.6408C52.9348 87.8147 53.2167 87.9311 53.4246 88.1382C53.6325 88.3454 53.7493 88.6263 53.7493 88.9193C53.7493 89.2122 53.6325 89.4932 53.4246 89.7003C53.2167 89.9075 52.9348 90.0239 52.6408 90.0239H37.542C44.9692 108.328 62.8074 120.91 83.584 120.91C111.005 120.91 133.314 98.704 133.314 71.3785C133.314 44.0531 111.006 21.8472 83.584 21.8472ZM55.956 55.9497C55.956 51.0896 59.9223 47.1402 64.7969 47.1402C69.6715 47.1402 73.6359 51.0921 73.6359 55.9497C73.6359 60.8074 69.6696 64.7599 64.795 64.7599C59.9204 64.7599 55.956 60.808 55.956 55.9497ZM99.9173 95.928C99.8136 96.0562 99.6822 96.1594 99.533 96.23C99.3837 96.3006 99.2204 96.3368 99.0552 96.3358H65.4151C65.2498 96.3367 65.0864 96.3005 64.9371 96.23C64.7877 96.1594 64.6563 96.0562 64.5524 95.928C64.449 95.8022 64.3759 95.6545 64.3384 95.4962C64.301 95.338 64.3003 95.1733 64.3364 95.0147C66.0637 87.3079 73.5909 81.7086 82.2348 81.7086C90.8787 81.7086 98.4073 87.2971 100.134 95.004C100.17 95.1643 100.169 95.3307 100.132 95.4907C100.094 95.6507 100.021 95.8002 99.9173 95.928ZM102.371 64.7599C97.4939 64.7599 93.5295 60.808 93.5295 55.9497C93.5295 51.0915 97.4958 47.1402 102.371 47.1402C107.246 47.1402 111.212 51.0921 111.212 55.9497C111.212 60.8074 107.246 64.7599 102.371 64.7599Z" fill="white"/>
<path d="M128.196 104.132H122.369L120.304 102.141C127.782 93.4671 131.892 82.3938 131.884 70.9417C131.884 61.4597 129.072 52.1907 123.804 44.3067C118.536 36.4228 111.049 30.278 102.288 26.6494C93.5282 23.0208 83.8887 22.0714 74.589 23.9212C65.2892 25.771 56.7468 30.337 50.0421 37.0418C43.3373 43.7466 38.7713 52.289 36.9215 61.5887C35.0716 70.8885 36.021 80.528 39.6496 89.2882C43.2782 98.0484 49.423 105.536 57.307 110.804C65.1909 116.072 74.46 118.883 83.9419 118.883C95.8167 118.883 106.733 114.532 115.141 107.304L117.132 109.369V115.196L154.011 152L165 141.01L128.196 104.132ZM83.9419 104.132C65.5766 104.132 50.7515 89.307 50.7515 70.9417C50.7515 52.5763 65.5766 37.7513 83.9419 37.7513C102.307 37.7513 117.132 52.5763 117.132 70.9417C117.132 89.307 102.307 104.132 83.9419 104.132Z" fill="#D9D9D9"/>
</svg>
