<svg width="17" height="19" viewBox="0 0 17 19" fill="none" xmlns="http://www.w3.org/2000/svg">
<g id="Layer_1" clip-path="url(#clip0_252_195)">
<path id="Vector" d="M13.1208 6.51706C10.946 5.28254 7.45524 3.30107 2.04078 0.223549C1.87399 0.110516 1.68377 0.0380065 1.4849 0.011646C1.28603 -0.0147146 1.08385 0.00578317 0.894043 0.0715485L10.1849 9.5003L13.1208 6.51706Z" fill="#32BBFF"/>
<path id="Vector_2" d="M0.892603 0.0712891C0.824609 0.0943647 0.758556 0.122957 0.695083 0.156789C0.484126 0.270138 0.307805 0.439979 0.185267 0.647866C0.0627303 0.855753 -0.00133784 1.09374 2.11795e-05 1.33598V17.6627C2.11795e-05 18.198 0.294428 18.6212 0.695083 18.8414C0.758516 18.8752 0.824484 18.9039 0.892368 18.9271L10.1833 9.49838L0.892603 0.0712891Z" fill="#32BBFF"/>
<path id="Vector_3" d="M10.1823 9.5L0.891357 18.9288C1.0815 18.9957 1.28444 19.0167 1.48398 18.99C1.68352 18.9633 1.87415 18.8896 2.04067 18.7748C7.29131 15.7909 10.743 13.832 12.9431 12.5875L13.1235 12.4847L10.1823 9.5Z" fill="#32BBFF"/>
<path id="Vector_4" d="M0 9.5002V17.6628C0 18.1982 0.294407 18.6214 0.695062 18.8415C0.758495 18.8754 0.824462 18.904 0.892347 18.9273L10.1832 9.49854L0 9.5002Z" fill="#2C9FD9"/>
<path id="Vector_5" d="M2.04073 0.223741C1.84337 0.0900724 1.61396 0.0132861 1.37696 0.00157438C1.13997 -0.0101374 0.90429 0.0436648 0.695068 0.157241L10.0414 9.64251L13.1208 6.51725C10.9459 5.28273 7.45519 3.30127 2.04073 0.223741Z" fill="#29CC5E"/>
<path id="Vector_6" d="M10.0414 9.35742L0.695068 18.8413C0.903949 18.9559 1.13975 19.0103 1.37692 18.9985C1.61409 18.9868 1.84358 18.9094 2.04049 18.7748C7.29137 15.7908 10.743 13.8319 12.9431 12.5874L13.1236 12.4846L10.0414 9.35742Z" fill="#D93F21"/>
<path id="Vector_7" d="M16.9999 9.5001C17.0012 9.26293 16.9397 9.02975 16.8217 8.82501C16.7037 8.62026 16.5337 8.45148 16.3294 8.33635C16.3294 8.33635 15.4955 7.8642 12.9402 6.4126L9.90063 9.5001L12.943 12.5876C15.4705 11.1474 16.3289 10.6619 16.3289 10.6619C16.5331 10.5471 16.703 10.3786 16.8211 10.1742C16.9391 9.96982 17.0009 9.737 16.9999 9.5001Z" fill="#FFD500"/>
<path id="Vector_8" d="M16.3294 10.6614C16.5333 10.5464 16.7032 10.378 16.8211 10.1737C16.9391 9.96945 17.0008 9.73677 16.9999 9.5H9.90063L12.943 12.5875C15.4705 11.1468 16.3294 10.6614 16.3294 10.6614Z" fill="#FFAA00"/>
</g>
<defs>
<clipPath id="clip0_252_195">
<rect width="17" height="19" fill="white"/>
</clipPath>
</defs>
</svg>
