<svg width="20" height="20" viewBox="0 0 20 20" fill="none" xmlns="http://www.w3.org/2000/svg">
<rect width="20" height="20" rx="3" fill="#007AFF"/>
<path d="M12.2436 11.1759V10.6793C12.4091 10.9786 12.5 11.3149 12.5 11.6667C12.5 12.8603 11.4532 13.875 10 13.875C8.5468 13.875 7.5 12.8603 7.5 11.6667C7.5 10.473 8.5468 9.45833 10 9.45833C10.7449 9.45833 11.383 9.72492 11.828 10.1456L11.3272 10.8992C11.2122 11.0722 11.0481 11.1667 10.9 11.1667C10.6468 11.1667 10.5 10.9645 10.5 10.8542C10.5 10.7917 10.5591 10.6529 10.7817 10.5322L10.5436 9.59258C10.4944 9.59258 10.4384 9.58557 10.3411 9.57196C10.3377 9.57147 10.3341 9.57097 10.3305 9.57046C10.2462 9.55863 10.1254 9.54167 10 9.54167C8.7532 9.54167 7.7 10.4228 7.7 11.6667C7.7 12.9105 8.7532 13.7917 10 13.7917C11.2468 13.7917 12.3 12.9105 12.3 11.6667C12.3 11.5418 12.2795 11.423 12.2665 11.3479C12.2659 11.344 12.2652 11.3403 12.2646 11.3366C12.2491 11.2466 12.2436 11.2072 12.2436 11.1759ZM10 2.5C7.4662 2.5 5.3 4.38593 5.3 6.79167V6.83333H5.2C4.3132 6.83333 3.5 7.49781 3.5 8.41667V14.9167C3.5 15.8355 4.3132 16.5 5.2 16.5H14.8C15.6868 16.5 16.5 15.8355 16.5 14.9167V8.41667C16.5 7.49781 15.6868 6.83333 14.8 6.83333H14.7V6.79167C14.7 4.38593 12.5338 2.5 10 2.5ZM10 4.58333C11.4262 4.58333 12.5 5.6224 12.5 6.79167V6.83333H7.5V6.79167C7.5 5.6224 8.5738 4.58333 10 4.58333Z" stroke="white"/>
</svg>
