<svg width="9" height="11" viewBox="0 0 9 11" fill="none" xmlns="http://www.w3.org/2000/svg">
<path d="M7.5 10.6562C7.08333 10.6562 6.72917 10.5008 6.4375 10.19C6.14583 9.87923 6 9.50182 6 9.05781C6 8.99565 6.00417 8.93118 6.0125 8.8644C6.02083 8.79762 6.03333 8.73777 6.05 8.68484L2.525 6.50031C2.38333 6.63352 2.225 6.73795 2.05 6.81361C1.875 6.88927 1.69167 6.92692 1.5 6.92656C1.08333 6.92656 0.729167 6.77116 0.4375 6.46035C0.145833 6.14954 0 5.77214 0 5.32812C0 4.88411 0.145833 4.50671 0.4375 4.1959C0.729167 3.88509 1.08333 3.72969 1.5 3.72969C1.69167 3.72969 1.875 3.76752 2.05 3.84318C2.225 3.91884 2.38333 4.02309 2.525 4.15594L6.05 1.97141C6.03333 1.91812 6.02083 1.85827 6.0125 1.79185C6.00417 1.72542 6 1.66095 6 1.59844C6 1.15443 6.14583 0.777018 6.4375 0.466211C6.72917 0.155404 7.08333 0 7.5 0C7.91667 0 8.27083 0.155404 8.5625 0.466211C8.85417 0.777018 9 1.15443 9 1.59844C9 2.04245 8.85417 2.41986 8.5625 2.73066C8.27083 3.04147 7.91667 3.19687 7.5 3.19687C7.30833 3.19687 7.125 3.15922 6.95 3.08392C6.775 3.00861 6.61667 2.90418 6.475 2.77062L2.95 4.95516C2.96667 5.00844 2.97917 5.06847 2.9875 5.13525C2.99583 5.20203 3 5.26632 3 5.32812C3 5.39029 2.99583 5.45476 2.9875 5.52154C2.97917 5.58832 2.96667 5.64817 2.95 5.70109L6.475 7.88562C6.61667 7.75242 6.775 7.64817 6.95 7.57286C7.125 7.49756 7.30833 7.45973 7.5 7.45937C7.91667 7.45937 8.27083 7.61478 8.5625 7.92559C8.85417 8.23639 9 8.6138 9 9.05781C9 9.50182 8.85417 9.87923 8.5625 10.19C8.27083 10.5008 7.91667 10.6562 7.5 10.6562Z" fill="#000000"/>
</svg>
