<svg width="13" height="13" viewBox="0 0 13 13" fill="none" xmlns="http://www.w3.org/2000/svg">
<path d="M6.49967 0C2.91575 0.000649968 0 2.9164 0 6.50033C0 10.0842 2.91575 13 6.50033 13C10.0836 13 12.9993 10.0842 13 6.50033C13 2.9164 10.0842 0.000649968 6.49967 0ZM6.50033 11.7001C3.63267 11.7001 1.29993 9.36733 1.29993 6.50033C1.29993 3.63332 3.63267 1.30058 6.49967 1.29993C9.36733 1.30058 11.7001 3.63332 11.7001 6.50033C11.6994 9.36733 9.36668 11.7001 6.50033 11.7001Z" fill="white" fill-opacity="0.88"/>
<path d="M6.50026 5.85078H3.90039V7.15071H6.50026V9.10452L9.10338 6.5014L6.50026 3.89893V5.85078Z" fill="white" fill-opacity="0.88"/>
</svg>
