<svg width="13" height="13" viewBox="0 0 13 13" fill="none" xmlns="http://www.w3.org/2000/svg">
<path d="M6.50033 13C10.0842 12.9994 13 10.0836 13 6.49967C13 2.91575 10.0842 1.20858e-06 6.49967 1.52195e-06C2.9164 1.83521e-06 0.000649524 2.91576 3.85398e-07 6.49968C6.98714e-07 10.0836 2.91575 12.9994 6.50033 13ZM6.49967 1.29994C9.36733 1.29994 11.7001 3.63267 11.7001 6.49967C11.7001 9.36668 9.36733 11.6994 6.50033 11.7001C3.63267 11.6994 1.29994 9.36668 1.29993 6.49968C1.30058 3.63267 3.63332 1.29994 6.49967 1.29994Z" fill="white" fill-opacity="0.88"/>
<path d="M6.49974 7.14922L9.09961 7.14922L9.09961 5.84929L6.49974 5.84929L6.49974 3.89549L3.89662 6.4986L6.49974 9.10107L6.49974 7.14922Z" fill="white" fill-opacity="0.88"/>
</svg>
