<svg width="35" height="35" viewBox="0 0 35 35" fill="none" xmlns="http://www.w3.org/2000/svg">
<path d="M17.5 0C7.83494 0 0 7.83494 0 17.5C0 27.1651 7.83494 35 17.5 35C27.1651 35 35 27.1651 35 17.5C35 7.83494 27.1651 0 17.5 0Z" fill="#40B3E0"/>
<path d="M26.4282 9.78191L23.2528 25.7915C23.2528 25.7915 22.8088 26.9018 21.5875 26.3689L14.26 20.7511L11.5956 19.4633L7.11031 17.9533C7.11031 17.9533 6.42198 17.7091 6.35531 17.1762C6.28865 16.6433 7.13254 16.3547 7.13254 16.3547L24.9625 9.36024C24.9625 9.36024 26.4281 8.71635 26.4281 9.78219" fill="white"/>
<path d="M13.6971 25.6117C13.6971 25.6117 13.4832 25.5917 13.2165 24.7478C12.9503 23.904 11.5957 19.4632 11.5957 19.4632L22.3649 12.6243C22.3649 12.6243 22.9867 12.2468 22.9645 12.6243C22.9645 12.6243 23.0754 12.691 22.7422 13.0018C22.4093 13.3128 14.2825 20.6179 14.2825 20.6179" fill="#D2E5F1"/>
<path d="M17.0699 22.9048L14.1717 25.5473C14.1717 25.5473 13.945 25.7192 13.6973 25.6115L14.2523 20.7031" fill="#B5CFE4"/>
</svg>
