<svg width="20" height="20" viewBox="0 0 20 20" fill="none" xmlns="http://www.w3.org/2000/svg">
<rect width="20" height="20" rx="3" fill="#FFB82A"/>
<path d="M6.11111 14.8889H13.8889V13.3333H6.11111V14.8889ZM6.11111 11.7778H13.8889V10.2222H6.11111V11.7778ZM6.11111 8.66667H13.8889V7.11111H6.11111V8.66667ZM4.55556 18C4.12778 18 3.76145 17.8476 3.45656 17.5427C3.15167 17.2378 2.99948 16.8717 3 16.4444V5.55556C3 5.12778 3.15245 4.76145 3.45733 4.45656C3.76222 4.15167 4.1283 3.99948 4.55556 4H15.4444C15.8722 4 16.2386 4.15245 16.5434 4.45733C16.8483 4.76222 17.0005 5.1283 17 5.55556V16.4444C17 16.8722 16.8476 17.2386 16.5427 17.5434C16.2378 17.8483 15.8717 18.0005 15.4444 18H4.55556ZM4.55556 16.4444H15.4444V5.55556H4.55556V16.4444Z" fill="white"/>
<path d="M9.5 0.5C7.84886 0.5 6.5 1.84886 6.5 3.5C6.5 5.15114 7.84886 6.5 9.5 6.5C11.1511 6.5 12.5 5.15114 12.5 3.5C12.5 1.84886 11.1511 0.5 9.5 0.5Z" fill="white" stroke="#FFB82A"/>
</svg>
