<svg width="35" height="35" viewBox="0 0 35 35" fill="none" xmlns="http://www.w3.org/2000/svg">
<path d="M17.5 0C7.83494 0 0 7.83494 0 17.5C0 27.1651 7.83494 35 17.5 35C27.1651 35 35 27.1651 35 17.5C35 7.83494 27.1651 0 17.5 0Z" fill="#40B3E0"/>
<path d="M31.5 11.3065C30.5582 11.7215 29.5463 12.002 28.4841 12.1282C29.5684 11.4823 30.4009 10.4596 30.7929 9.24102C29.7622 9.84891 28.6345 10.2772 27.4586 10.5074C26.5007 9.49321 25.1362 8.85938 23.6258 8.85938C20.7259 8.85938 18.3748 11.196 18.3748 14.0779C18.3748 14.4869 18.4213 14.8852 18.5108 15.2672C14.1468 15.0495 10.2778 12.972 7.68791 9.81464C7.23603 10.5854 6.97709 11.4819 6.97709 12.4382C6.97709 14.2488 7.90416 15.846 9.31302 16.7819C8.47917 16.756 7.66367 16.5321 6.9346 16.1291C6.9343 16.151 6.9343 16.1728 6.9343 16.1948C6.9343 18.7232 8.74426 20.8325 11.1463 21.3119C10.373 21.5209 9.56199 21.5515 8.77505 21.4013C9.44319 23.4746 11.3824 24.9833 13.6801 25.0256C11.883 26.4252 9.61884 27.2595 7.15884 27.2595C6.73495 27.2595 6.31705 27.2348 5.90625 27.1866C8.22998 28.6673 10.99 29.5312 13.9553 29.5312C23.6136 29.5312 28.895 21.5792 28.895 14.6831C28.895 14.4567 28.89 14.2317 28.8798 14.0079C29.9078 13.2693 30.7951 12.3545 31.5 11.3065Z" fill="white"/>
</svg>
