<svg width="35" height="35" viewBox="0 0 35 35" fill="none" xmlns="http://www.w3.org/2000/svg">
<path d="M0 34.9999L2.47586 26.0129C0.949175 23.3769 0.146068 20.3875 0.14716 17.3449C0.14716 7.78059 7.9731 0 17.5734 0C22.2396 0 26.6114 1.80944 29.901 5.08359C33.1905 8.35789 35 12.7179 35 17.3535C35 26.9176 27.1741 34.6982 17.5736 34.6982H17.565C14.6475 34.6982 11.782 33.9658 9.23689 32.5872L0 35V34.9999Z" fill="url(#paint0_linear_211_9)"/>
<path d="M13.0633 9.63424C12.7256 8.88457 12.3706 8.86726 12.0504 8.85868C11.7907 8.8501 11.4878 8.8501 11.1847 8.8501C10.8818 8.8501 10.3969 8.9621 9.98142 9.41009C9.5658 9.85824 8.40576 10.9439 8.40576 13.1584C8.40576 15.3641 10.0247 17.5009 10.2497 17.8025C10.4748 18.1041 13.3749 22.7828 17.9544 24.5836C21.7634 26.083 22.5426 25.7813 23.365 25.7038C24.196 25.6262 26.0314 24.6181 26.4122 23.5669C26.7844 22.5157 26.7844 21.6196 26.6719 21.4301C26.5594 21.2404 26.2564 21.1285 25.8062 20.9044C25.3561 20.6804 23.1399 19.5947 22.7244 19.4397C22.3088 19.2846 22.0059 19.2157 21.7116 19.6637C21.4085 20.1117 20.5429 21.1198 20.2831 21.4215C20.0234 21.723 19.7551 21.7575 19.3048 21.5335C18.8547 21.3095 17.4004 20.8354 15.6777 19.3018C14.3359 18.1127 13.4269 16.6393 13.1671 16.1913C12.9074 15.7433 13.1412 15.5018 13.3662 15.278C13.5653 15.0797 13.8163 14.7523 14.0415 14.4938C14.2666 14.2354 14.3445 14.0458 14.4916 13.7442C14.6388 13.4426 14.5695 13.1842 14.457 12.9602C14.3445 12.736 13.4615 10.5216 13.0633 9.63424Z" fill="white"/>
<defs>
<linearGradient id="paint0_linear_211_9" x1="17.4993" y1="34.9975" x2="17.4993" y2="-0.00210074" gradientUnits="userSpaceOnUse">
<stop stop-color="#20B038"/>
<stop offset="1" stop-color="#60D66A"/>
</linearGradient>
</defs>
</svg>
