<svg width="20" height="16" viewBox="0 0 20 16" fill="none" xmlns="http://www.w3.org/2000/svg">
<path fill-rule="evenodd" clip-rule="evenodd" d="M7.97878 10.803V4.67299L13.1597 7.7489L7.97878 10.803ZM19.3562 3.61169C19.3562 3.61169 19.1692 2.10755 18.5938 1.44546C17.8651 0.577229 17.0471 0.572866 16.6722 0.521601C13.9892 0.30127 9.96275 0.30127 9.96275 0.30127H9.95508C9.95508 0.30127 5.9296 0.30127 3.24563 0.521601C2.87069 0.572866 2.05371 0.576138 1.32398 1.44546C0.74864 2.10755 0.561654 3.61169 0.561654 3.61169C0.561654 3.61169 0.369873 5.37652 0.369873 7.14244V8.79711C0.369873 10.5619 0.561654 12.3279 0.561654 12.3279C0.561654 12.3279 0.74864 13.8309 1.32398 14.493C2.05275 15.3623 3.01165 15.334 3.43837 15.4256C4.97261 15.5925 9.95891 15.6437 9.95891 15.6437C9.95891 15.6437 13.9892 15.6372 16.6722 15.4169C17.0471 15.3656 17.8651 15.3623 18.5938 14.493C19.1692 13.8309 19.3562 12.3279 19.3562 12.3279C19.3562 12.3279 19.548 10.5619 19.548 8.79711V7.14244C19.548 5.37652 19.3562 3.61169 19.3562 3.61169Z" fill="#FF0000"/>
</svg>
