<svg width="18" height="17" viewBox="0 0 18 17" fill="none" xmlns="http://www.w3.org/2000/svg">
    <path d="M15.6375 15.3297L16.1532 14.8174L14.4192 13.0937V10.5376H13.692V13.3958L15.6375 15.3297ZM2.35865 15.0135C1.9368 15.0135 1.57697 14.8659 1.27915 14.5706C0.981967 14.2754 0.833374 13.9178 0.833374 13.4981V1.51543C0.833374 1.0963 0.981967 0.738791 1.27915 0.442899C1.57634 0.147633 1.93649 0 2.3596 0H14.4192C14.8411 0 15.2009 0.147633 15.4987 0.442899C15.7959 0.738165 15.9445 1.09599 15.9445 1.51637V7.09952C15.7789 7.04259 15.6202 6.9963 15.4685 6.96064C15.3174 6.92561 15.1612 6.89058 15 6.85555V1.51637C15 1.37186 14.9396 1.23924 14.8187 1.11851C14.6978 0.997774 14.5643 0.93772 14.4183 0.938345H2.3596C2.21415 0.938345 2.08067 0.998399 1.95915 1.11851C1.83763 1.23862 1.77719 1.37124 1.77782 1.51637V13.4981C1.77782 13.642 1.83826 13.7743 1.95915 13.895C2.08004 14.0157 2.21321 14.0758 2.35865 14.0752H7.70987C7.73254 14.2503 7.76182 14.4133 7.79771 14.5641C7.83359 14.7142 7.87987 14.864 7.93654 15.0135H2.35865ZM1.77782 13.1368V14.0752V0.938345V6.85555V6.78517V13.1368ZM4.13893 11.5135H7.87893C7.91356 11.3527 7.96078 11.1973 8.02059 11.0471L8.20948 10.5742H4.13893V11.5135ZM4.13893 7.97593H10.3534C10.6638 7.75949 10.9695 7.5762 11.2704 7.42606C11.5714 7.2753 11.8944 7.15707 12.2394 7.07137V7.03759H4.13893V7.97593ZM4.13893 4.43837H12.6389V3.50003H4.13893V4.43837ZM14.0556 17C13.0035 17 12.111 16.6356 11.3781 15.9068C10.6446 15.178 10.2778 14.291 10.2778 13.2457C10.2778 12.2004 10.6446 11.3133 11.3781 10.5845C12.1116 9.85575 13.0041 9.49167 14.0556 9.4923C15.1071 9.49293 15.9999 9.857 16.734 10.5845C17.4682 11.3121 17.8346 12.1991 17.8334 13.2457C17.8334 14.2904 17.4669 15.1771 16.734 15.9059C15.9999 16.6347 15.1071 16.9991 14.0556 16.9991" fill="#929496"/>
    </svg>
    